<?xml version="1.0" encoding="UTF-8"?>
<svg id="vector_map" version="1.2" baseProfile="tiny" width="495" height="750" viewBox="0 0 9920 15035" preserveAspectRatio="xMidYMid" fill-rule="evenodd" stroke-width="28.222" stroke-linejoin="round" xmlns="http://www.w3.org/2000/svg" xmlns:ooo="http://xml.openoffice.org/svg/export" xmlns:xlink="http://www.w3.org/1999/xlink" xml:space="preserve">
	<path fill="rgb(128,255,255)" fill-opacity="0.5" stroke="black" stroke-width="20" id="svg_atakent"        d="M 2213,2687 L 2166,2364 2166,2338 2167,2320 2169,2294 2167,2274 2169,2246 2169,2193 2171,2138 2171,2101 2173,2061 2171,2019 2210,2019 2224,2017 2226,2010 2228,1993 2230,1946 2232,1920 2232,1907 2233,1883 2233,1847 2230,1802 2226,1766 2221,1720 2211,1643 2211,1641 2215,1593 2224,1491 2230,1456 2243,1351 2246,1344 2254,1305 2261,1263 2277,1173 2290,1107 2299,1061 2336,977 2340,970 2358,922 2367,898 2375,869 2380,847 2382,797 2380,737 2378,715 2375,687 2371,654 2360,594 2355,502 2351,410 2336,311 2421,306 2556,289 2637,278 2753,260 2876,240 2964,225 3046,214 3125,203 3187,196 3248,190 3314,186 3402,183 3486,181 3573,181 3646,185 3723,190 3800,197 3875,205 3943,214 4051,231 4156,247 4233,258 4317,271 4413,282 4504,293 4636,304 4757,313 4869,317 4961,319 5060,319 5157,317 5269,313 5376,306 5451,300 5546,291 5640,280 5719,271 5810,256 5915,240 5992,225 5994,251 5992,348 5992,366 5968,495 5968,528 5970,563 5966,605 5962,674 5961,737 5959,757 5957,783 5951,838 5946,911 5946,935 5970,939 5992,942 6010,948 6030,955 6111,990 6144,933 6159,937 6166,939 6181,942 6199,946 6212,942 6216,928 6216,895 6258,874 6309,869 6410,860 6504,849 6515,847 6527,850 6638,922 6672,942 6682,948 6757,1153 6792,1247 6841,1337 6852,1355 6867,1375 6889,1428 6900,1493 6902,1568 6918,1641 6918,1665 6915,1676 6915,1696 6913,1720 6915,1773 6916,1854 6916,1900 6918,1946 6918,1982 6920,2010 6920,2041 6922,2061 6926,2092 6931,2125 6935,2153 6942,2186 6951,2239 6971,2301 6977,2338 6979,2367 6981,2428 6981,2538 6982,2628 6981,2674 6977,2690 6971,2716 6979,2716 7017,2725 7039,2729 7065,2731 7081,2729 7138,2718 7199,2709 7221,2707 7248,2709 7272,2718 7347,2751 7379,2764 7423,2776 7487,2826 7531,2868 7590,2921 7637,2962 7703,3006 7786,3053 7834,3077 7905,3108 7964,3149 8017,3194 8068,3235 8151,3292 8211,3334 8250,3365 8301,3409 8342,3442 8380,3473 8428,3503 8481,3545 8479,3571 8475,3607 8470,3644 8453,3693 8442,3714 8439,3717 8437,3721 8419,3741 8395,3758 8351,3780 8283,3789 8099,3809 8044,3816 8011,3831 7980,3844 7938,3862 7914,3875 7899,3877 7894,3879 7821,3870 7779,3866 7637,3851 7599,3848 7602,3805 7612,3717 7602,3717 7436,3704 7214,3684 7215,3693 7221,3721 7221,3792 7210,3901 7184,4159 7182,4176 7181,4194 7179,4220 7175,4233 7166,4246 7162,4253 7148,4262 7131,4271 7098,4280 7059,4293 7023,4304 7003,4310 6990,4315 6968,4315 6942,4308 6926,4299 6924,4299 6911,4379 6907,4403 6900,4447 6885,4528 6871,4554 6852,4556 6749,4572 6733,4574 6722,4574 6693,4576 6682,4578 6663,4581 6638,4589 6603,4598 6570,4607 6522,4623 6487,4638 6474,4642 6410,4658 6340,4662 6239,4658 6228,4656 6221,4656 6221,4645 6212,4534 6205,4524 6104,4508 6100,4508 6100,4504 6109,4475 6104,4473 6017,4444 5913,4427 5911,4396 5913,4361 5913,4315 5917,4295 5935,4253 5942,4235 5948,4216 5950,4156 5948,4108 5942,4049 5942,4042 5937,3972 5933,3941 5920,3811 5915,3774 5909,3726 5909,3699 5913,3686 5913,3589 5898,3578 5893,3574 5721,3453 5632,3576 5610,3571 5609,3571 5427,3536 5423,3556 5420,3648 5412,3701 5416,3701 5554,3743 5563,3745 5581,3750 5585,3763 5594,3846 5581,3923 5574,3958 5559,3983 5559,3985 5572,4115 5572,4117 5511,4198 5394,4306 5348,4346 5344,4356 5317,4411 5317,4412 5333,4444 5370,4478 5403,4510 5420,4515 5561,4634 5561,4656 5563,4711 5563,4713 5513,4755 5484,4798 5478,4807 5482,4818 5388,4779 5385,4779 5377,4774 5346,4757 5332,4750 5295,4728 5245,4702 5139,4644 5119,4612 5093,4471 4996,4478 4957,4508 4956,4513 4948,4532 4928,4550 4890,4570 4849,4594 4820,4607 4776,4622 4728,4629 4693,4633 4647,4631 4526,4631 4457,4629 4403,4627 4372,4627 4369,4638 4356,4667 4319,4763 4297,4818 4292,4831 4277,4884 4264,4933 4253,4981 4249,5007 4246,5064 4244,5089 4244,5117 4251,5155 4235,5163 4158,5190 4070,5216 4000,5231 3906,5240 3850,5243 3762,5236 3673,5205 3613,5176 3556,5141 3453,5102 3338,5051 3270,5016 3213,4985 3165,4954 3094,4884 3039,4812 2973,4708 2767,4374 2714,4282 2624,4134 2400,3772 2399,3747 2391,3743 2384,3734 2378,3721 2378,3706 2375,3686 2377,3644 2377,3571 2378,3510 2378,3508 2377,3422 2377,3387 2213,2687 2213,2687 Z M 2213,2687 L 2213,2687 2213,2687 Z"/>
	<path fill="rgb(128,000,128)" fill-opacity="0.5" stroke="black" stroke-width="20" id="svg_ataturk"        d="M 5966,605 L 5970,563 5968,528 5968,495 5992,366 5992,348 5994,251 5992,225 6089,209 6162,198 6291,177 6505,152 6623,150 6771,146 6880,152 6933,156 7050,170 7180,188 7270,205 7397,236 7501,265 7520,398 7591,697 7714,777 7771,825 7784,860 7821,1265 7837,1271 7848,1274 7854,1278 7859,1283 7861,1337 7857,1342 7852,1344 7845,1390 7837,1408 7808,1461 7810,1515 7813,1535 7837,1568 7856,1588 7870,1612 7868,1676 7856,1704 7841,1727 7848,1751 7877,1775 7883,1801 7940,1837 7975,1848 7987,1861 8006,1876 8015,1900 8026,1948 8026,1971 8031,1981 8033,2008 8030,2034 8041,2052 8039,2063 8035,2070 8024,2081 8011,2111 7998,2118 7998,2127 8006,2136 8037,2155 8061,2173 8090,2223 8112,2235 8132,2258 8171,2278 8187,2290 8228,2307 8230,2320 8259,2357 8270,2380 8281,2406 8292,2423 8297,2439 8305,2452 8327,2478 8345,2512 8347,2534 8351,2547 8354,2589 8396,2589 8413,2610 8439,2635 8444,2641 8470,2657 8501,2676 8591,2729 8650,2736 8760,2764 8875,2793 8925,2777 8864,3011 8855,3059 8850,3088 8846,3105 8837,3151 8831,3187 8824,3242 8817,3305 8811,3365 8809,3402 8807,3444 8807,3495 8796,3494 8771,3492 8727,3486 8674,3483 8655,3483 8606,3481 8576,3486 8541,3494 8525,3499 8518,3508 8514,3516 8508,3528 8481,3545 8428,3503 8380,3473 8341,3442 8301,3409 8250,3365 8211,3334 8151,3292 8068,3235 8017,3195 7964,3149 7905,3108 7834,3077 7786,3054 7703,3006 7637,2962 7590,2922 7531,2868 7487,2826 7423,2777 7379,2764 7347,2751 7272,2718 7248,2709 7221,2707 7199,2709 7138,2718 7081,2729 7065,2731 7039,2729 7017,2725 6979,2716 6971,2716 6977,2690 6980,2674 6982,2628 6980,2538 6980,2428 6979,2368 6977,2338 6971,2302 6951,2239 6942,2186 6935,2153 6931,2125 6925,2092 6922,2061 6920,2041 6920,2010 6918,1982 6918,1946 6916,1900 6916,1854 6914,1773 6913,1720 6914,1696 6914,1676 6918,1665 6918,1641 6902,1568 6900,1493 6889,1428 6867,1375 6852,1355 6841,1337 6792,1247 6757,1153 6681,948 6672,942 6637,922 6527,851 6514,847 6504,849 6410,860 6309,869 6258,874 6216,895 6216,928 6212,942 6199,946 6181,942 6166,939 6159,937 6144,933 6111,990 6030,955 6010,948 5992,942 5970,939 5946,935 5946,911 5951,838 5957,783 5959,757 5960,737 5962,674 5966,605 5966,605 Z M 5966,605 L 5966,605 5966,605 Z"/>
	<path fill="rgb(000,255,255)" fill-opacity="0.5" stroke="black" stroke-width="20" id="svg_besyol"         d="M 6641,11773 L 6656,11756 6702,11708 6733,11754 6770,12187 6770,12202 6781,12202 6790,12299 6783,12301 6801,12514 6753,12532 6755,12563 6759,12611 6766,12695 6768,12730 6773,12796 6773,12802 6781,12981 6784,13080 6788,13178 6731,13198 6713,13271 6568,13510 6513,13478 6256,13333 6170,13280 6126,13271 5992,13266 5902,13282 5944,13190 5988,13101 6100,12956 6179,12809 6245,12642 6403,12172 6469,12026 6553,11874 6594,11822 6619,11795 6641,11773 6641,11773 Z M 6641,11773 L 6641,11773 6641,11773 Z"/>
	<path fill="rgb(128,255,128)" fill-opacity="0.5" stroke="black" stroke-width="20" id="svg_cennet"         d="M 3446,13227 L 3433,13095 3413,12814 3393,12713 3385,12715 3374,12673 3365,12647 3356,12620 3347,12594 3336,12567 3317,12528 3321,12526 3306,12490 3325,12488 3345,12484 3358,12484 3404,12479 3442,12480 3453,12482 3473,12488 3495,12495 3512,12504 3538,12519 3545,12523 3552,12524 3567,12530 3596,12537 3629,12546 3640,12548 3651,12554 3662,12557 3671,12561 3679,12568 3690,12581 3699,12592 3705,12598 3717,12616 3727,12631 3738,12645 3741,12653 3745,12655 3747,12656 3752,12660 3761,12662 3767,12664 3785,12664 3789,12662 3796,12658 3798,12655 3807,12649 3826,12629 3837,12612 3866,12576 3875,12565 3914,12523 3930,12504 3950,12484 3967,12469 3991,12449 4013,12433 4055,12383 4064,12369 4101,12321 4121,12293 4132,12271 4181,12198 4213,12150 4238,12115 4255,12090 4260,12079 4308,12005 4350,11945 4394,11875 4416,11844 4427,11837 4455,11813 4467,11804 4480,11793 4488,11787 4495,11780 4512,11767 4534,11747 4545,11738 4552,11728 4587,11697 4686,11615 4717,11587 4822,11499 4827,11521 4836,11554 4849,11598 4862,11655 4866,11673 4880,11727 4888,11756 4889,11769 4893,11784 4897,11806 4904,11837 4913,11872 4915,11881 4926,11916 4937,11958 4950,12009 4965,12062 4965,12077 4970,12088 4985,12161 4989,12172 5003,12229 5007,12238 5022,12302 5025,12324 5025,12326 5027,12328 5033,12335 5038,12339 5044,12357 5055,12392 5062,12416 5067,12444 5012,12446 4902,12453 4911,12534 4915,12589 4926,12688 4932,12702 4924,12713 4915,12735 4884,12798 4871,12822 4855,12864 4849,12877 4827,12948 4818,12972 4814,12996 4816,13007 4823,13033 4834,13071 4840,13091 4864,13163 4884,13229 4895,13293 4900,13341 4900,13387 4899,13425 4904,13557 4904,13605 4915,13653 4858,13664 4809,13658 4757,13664 4708,13665 4664,13667 4612,13667 4563,13709 4456,13790 4271,13937 4176,13785 4154,13753 4135,13722 4102,13671 4071,13627 4011,13530 3992,13511 3934,13486 3871,13460 3800,13434 3723,13409 3673,13394 3609,13381 3550,13372 3472,13363 3466,13330 3446,13227 3446,13227 Z M 3446,13227 L 3446,13227 3446,13227 Z"/>
	<path fill="rgb(128,128,255)" fill-opacity="0.5" stroke="black" stroke-width="20" id="svg_cumhuriyet"     d="M 4915,10078 L 4932,10080 4952,10081 5000,10089 5029,10092 5174,10113 5177,10114 5187,10116 5249,10124 5258,10125 5266,10127 5310,10135 5319,10138 5317,10158 5297,10239 5284,10303 5306,10316 5293,10375 5288,10393 5286,10412 5282,10461 5282,10483 5284,10498 5255,10498 5262,10588 5258,10641 5242,10687 5233,10727 5222,10832 5211,10859 5209,10859 5190,10865 5168,10872 5058,10916 5038,10921 5018,10931 5011,10932 4950,10958 4877,10987 4853,10997 4827,11006 4814,11011 4796,11019 4781,11026 4767,11033 4759,11035 4697,11061 4660,11076 4629,11090 4594,11116 4585,11118 4579,11121 4567,11131 4535,11156 4464,11215 4431,11242 4379,11283 4299,11349 4236,11397 4227,11402 4143,11466 4058,11532 4042,11545 3972,11600 3941,11624 3919,11639 3901,11659 3849,11703 3813,11734 3793,11751 3780,11762 3763,11773 3749,11787 3738,11802 3694,11842 3684,11851 3673,11864 3659,11890 3635,11937 3620,11963 3613,11972 3604,11991 3602,11996 3539,12070 3473,12147 3462,12159 3461,12161 3448,12172 3387,12227 3360,12251 3345,12266 3332,12273 3327,12279 3317,12284 3283,12314 3262,12334 3253,12348 3253,12367 3248,12400 3226,12363 3040,12112 2996,12037 2947,11930 2929,11892 2886,11763 2861,11642 2848,11527 2846,11380 2859,11263 2881,11147 2916,11028 2973,10894 3075,10734 3105,10690 3202,10582 3257,10523 3275,10536 3323,10494 3371,10456 3411,10423 3484,10369 3587,10298 3684,10224 3710,10208 3719,10195 3760,10133 3798,10074 3848,9993 3883,9935 3899,9911 3921,9843 3925,9828 4040,9845 4035,9880 4027,9924 4027,9936 4038,9936 4104,9946 4137,9949 4185,9957 4216,9960 4257,9968 4262,9969 4286,9975 4295,9979 4374,9995 4378,9997 4389,9999 4394,9999 4444,10006 4453,10010 4488,10013 4523,10015 4545,10021 4568,10024 4642,10035 4651,10039 4695,10045 4748,10054 4790,10057 4811,10061 4818,10063 4869,10072 4880,10072 4915,10078 4915,10078 Z M 4915,10078 L 4915,10078 4915,10078 Z"/>
	<path fill="rgb(000,255,000)" fill-opacity="0.5" stroke="black" stroke-width="20" id="svg_fatih"          d="M 2795,14087 L 2813,14098 2828,14108 2844,14115 2857,14122 2863,14122 2868,14128 2874,14137 2887,14157 2898,14174 2903,14185 2912,14194 2920,14205 2929,14218 2947,14240 2960,14254 2967,14263 2975,14269 2982,14274 2993,14282 3006,14287 3021,14293 3050,14306 3055,14307 3065,14309 3081,14311 3098,14313 3110,14313 3132,14315 3140,14317 3153,14318 3164,14320 3175,14324 3180,14328 3191,14337 3193,14337 3200,14328 3198,14328 3195,14324 3197,14324 3191,14318 3186,14315 3182,14311 3180,14309 3180,14304 3178,14298 3178,14295 3180,14291 3182,14285 3186,14278 3191,14271 3193,14267 3197,14265 3202,14262 3215,14258 3220,14256 3241,14256 3246,14258 3255,14262 3259,14263 3261,14265 3263,14271 3265,14274 3266,14284 3266,14289 3265,14295 3263,14300 3261,14304 3259,14311 3255,14318 3252,14324 3248,14328 3246,14331 3242,14335 3241,14337 3239,14339 3237,14339 3235,14340 3230,14339 3224,14339 3217,14337 3213,14335 3211,14335 3208,14333 3204,14339 3200,14342 3204,14346 3213,14353 3215,14355 3219,14361 3219,14362 3220,14370 3222,14373 3224,14405 3228,14445 3232,14465 3235,14484 3237,14502 3239,14520 3241,14537 3244,14562 3250,14594 3253,14616 3255,14627 3259,14638 3263,14649 3268,14665 3277,14687 3283,14698 3288,14709 3296,14720 3301,14731 3309,14744 3320,14761 3332,14777 3345,14792 3360,14812 3369,14825 3376,14834 3382,14839 3389,14847 3398,14854 3411,14861 3431,14874 3448,14885 3466,14896 3486,14911 3497,14918 3505,14922 3512,14924 3514,14927 3529,14942 3536,14949 3538,14957 3540,14964 3538,14968 3538,14971 3536,14975 3536,14979 3538,14979 3534,14980 3532,14984 3529,14990 3527,14995 3527,14997 3523,15004 3521,15010 3520,15012 3516,15012 3516,15017 3512,15017 3510,15019 3509,15021 3501,15021 3499,15019 3496,15017 3494,15015 3492,15012 3492,15008 3490,15004 3488,14999 3486,14995 3485,14993 3483,14990 3481,14988 3477,14986 3475,14984 3474,14982 3472,14980 3466,14977 3457,14968 3452,14962 3442,14953 3439,14947 3430,14942 3424,14938 3409,14931 3395,14922 3384,14914 3373,14909 3364,14903 3343,14889 3331,14881 3320,14876 3312,14871 3301,14865 3292,14861 3283,14858 3277,14854 3274,14852 3261,14871 3255,14872 3253,14872 3253,14865 3268,14841 3283,14819 3285,14816 3288,14797 3288,14794 3287,14782 3285,14773 3281,14766 3279,14762 3276,14757 3274,14757 3268,14755 3266,14755 3263,14753 3259,14753 3255,14751 3250,14750 3248,14748 3242,14746 3239,14740 3228,14733 3217,14726 3211,14722 3206,14718 3200,14715 3187,14713 3180,14707 3173,14702 3160,14691 3153,14683 3145,14674 3140,14669 3132,14663 3125,14658 3118,14654 3110,14652 3103,14647 3096,14645 3088,14641 3076,14641 3066,14639 3055,14638 3046,14634 3039,14630 3026,14621 3019,14616 3010,14608 3004,14606 2999,14603 2991,14599 2987,14595 2980,14592 2975,14586 2967,14581 2960,14575 2954,14572 2951,14579 2949,14583 2943,14590 2940,14595 2932,14606 2938,14597 2942,14592 2947,14581 2949,14579 2953,14572 2951,14568 2942,14564 2916,14557 2905,14553 2896,14551 2879,14544 2865,14539 2846,14529 2841,14528 2837,14524 2828,14511 2815,14498 2802,14484 2799,14482 2795,14476 2784,14467 2766,14458 2753,14449 2738,14434 2718,14427 2709,14430 2707,14428 2703,14421 2701,14418 2699,14416 2698,14414 2698,14412 2696,14412 2694,14408 2690,14405 2688,14403 2687,14403 2685,14401 2685,14399 2681,14399 2681,14397 2679,14397 2679,14396 2677,14396 2677,14394 2676,14394 2674,14390 2670,14386 2670,14377 2666,14377 2668,14375 2670,14375 2672,14377 2676,14377 2677,14379 2679,14381 2681,14381 2681,14383 2683,14384 2687,14386 2688,14388 2690,14388 2692,14390 2696,14392 2698,14394 2699,14396 2701,14396 2705,14397 2707,14397 2709,14399 2710,14399 2714,14401 2716,14401 2718,14403 2718,14399 2716,14399 2716,14397 2714,14396 2712,14396 2710,14394 2709,14394 2703,14390 2701,14390 2699,14388 2696,14386 2692,14384 2690,14381 2687,14379 2685,14379 2685,14377 2683,14375 2681,14375 2679,14372 2676,14368 2676,14364 2674,14364 2674,14361 2672,14361 2670,14359 2670,14357 2668,14355 2666,14353 2665,14353 2663,14351 2659,14348 2657,14348 2657,14346 2655,14346 2654,14344 2654,14346 2637,14340 2639,14337 2635,14322 2630,14285 2624,14254 2619,14218 2622,14214 2622,14197 2621,14196 2619,14194 2619,14192 2617,14188 2615,14186 2615,14185 2613,14181 2611,14179 2611,14175 2610,14174 2608,14172 2608,14155 2604,14148 2602,14146 2602,14144 2600,14142 2600,14133 2599,14133 2599,14131 2597,14130 2597,14128 2595,14128 2595,14126 2593,14126 2593,14124 2591,14124 2589,14122 2589,14120 2588,14119 2586,14119 2586,14117 2584,14117 2582,14115 2586,14106 2591,14085 2589,14084 2589,14080 2588,14080 2588,14078 2589,14078 2589,14076 2591,14075 2591,14063 2593,14062 2593,14060 2595,14060 2597,14058 2599,14056 2599,14054 2600,14054 2602,14052 2602,14049 2604,14045 2606,14041 2608,14036 2608,14032 2610,14030 2610,14014 2611,14010 2613,14005 2615,14003 2617,14001 2619,13999 2622,14001 2632,13990 2643,13977 2652,13970 2654,13970 2663,13979 2681,13997 2703,14018 2714,14029 2734,14043 2738,14049 2751,14060 2767,14073 2795,14087 2795,14087 Z M 3294,13099 L 3301,13128 3301,13130 3305,13148 3327,13244 3331,13258 3340,13306 3345,13328 3349,13339 3351,13354 3353,13365 3354,13385 3356,13394 3360,13403 3360,13432 3358,13440 3358,13453 3360,13456 3364,13464 3365,13467 3369,13482 3371,13491 3371,13495 3373,13497 3375,13499 3375,13500 3373,13502 3375,13504 3375,13508 3376,13511 3378,13510 3382,13513 3378,13517 3382,13524 3384,13528 3395,13524 3393,13522 3395,13521 3397,13524 3384,13530 3389,13535 3391,13537 3393,13537 3395,13543 3393,13544 3393,13550 3395,13550 3397,13552 3398,13552 3400,13554 3402,13555 3402,13563 3406,13561 3408,13561 3408,13563 3406,13563 3404,13565 3402,13565 3404,13566 3406,13566 3406,13568 3409,13566 3411,13568 3406,13570 3409,13574 3411,13576 3413,13577 3413,13581 3415,13583 3417,13587 3415,13587 3417,13588 3417,13594 3426,13590 3428,13592 3420,13594 3420,13605 3424,13607 3424,13605 3426,13605 3426,13607 3428,13609 3426,13609 3428,13610 3431,13609 3435,13609 3428,13612 3428,13614 3430,13614 3428,13614 3428,13616 3431,13623 3433,13623 3433,13625 3435,13623 3437,13629 3442,13625 3442,13627 3437,13629 3437,13631 3441,13634 3441,13636 3444,13638 3448,13638 3448,13642 3453,13638 3453,13640 3448,13642 3448,13643 3450,13643 3450,13645 3452,13647 3453,13651 3461,13645 3463,13647 3453,13651 3455,13654 3455,13656 3457,13658 3464,13654 3464,13656 3459,13660 3461,13662 3463,13665 3470,13660 3472,13662 3464,13665 3466,13669 3468,13671 3468,13673 3470,13676 3472,13675 3477,13669 3479,13669 3474,13675 3472,13678 3472,13676 3474,13678 3474,13682 3475,13684 3477,13684 3477,13686 3479,13686 3483,13689 3485,13691 3488,13687 3488,13689 3485,13693 3486,13695 3486,13697 3488,13697 3488,13698 3494,13695 3490,13698 3490,13700 3494,13704 3497,13702 3494,13706 3494,13708 3496,13709 3496,13711 3497,13713 3499,13715 3507,13709 3501,13717 3503,13719 3503,13720 3505,13722 3509,13726 3509,13728 3510,13730 3512,13731 3516,13726 3520,13724 3512,13731 3512,13733 3514,13733 3518,13737 3523,13733 3518,13739 3520,13739 3521,13742 3521,13744 3529,13739 3531,13739 3523,13746 3525,13748 3527,13752 3531,13753 3534,13759 3538,13761 3542,13763 3551,13772 3551,13774 3554,13775 3556,13779 3558,13779 3565,13788 3564,13790 3562,13792 3562,13794 3564,13796 3564,13798 3565,13799 3567,13801 3569,13805 3573,13809 3573,13812 3575,13812 3575,13814 3582,13809 3582,13810 3576,13814 3578,13816 3580,13820 3582,13821 3587,13818 3589,13820 3582,13823 3584,13825 3591,13832 3597,13840 3602,13849 3606,13856 3611,13869 3617,13878 3620,13891 3624,13898 3626,13904 3635,13922 3637,13928 3639,13931 3639,13937 3641,13939 3641,13941 3644,13939 3646,13948 3642,13950 3644,13952 3644,13955 3646,13957 3648,13957 3648,13953 3650,13953 3650,13957 3646,13959 3646,13970 3648,13970 3653,13968 3653,13970 3648,13972 3648,13975 3650,13979 3650,13981 3659,13979 3659,13981 3652,13981 3652,13986 3659,13986 3659,13988 3653,13988 3653,13994 3659,13994 3653,13996 3655,14001 3661,13999 3661,14001 3655,14001 3655,14007 3661,14007 3661,14008 3657,14008 3657,14012 3663,14010 3663,14012 3657,14012 3659,14018 3659,14019 3664,14021 3659,14021 3661,14029 3661,14043 3663,14043 3666,14045 3661,14045 3659,14052 3659,14060 3657,14067 3657,14076 3664,14078 3664,14080 3657,14078 3655,14080 3655,14084 3661,14087 3655,14085 3653,14087 3653,14093 3663,14095 3661,14097 3653,14095 3652,14097 3652,14104 3650,14106 3655,14108 3655,14109 3650,14108 3650,14109 3648,14111 3653,14113 3653,14115 3648,14113 3644,14119 3642,14120 3641,14124 3648,14128 3646,14130 3641,14126 3637,14130 3635,14131 3635,14135 3641,14137 3639,14139 3633,14137 3633,14141 3630,14141 3630,14144 3620,14152 3615,14155 3600,14163 3595,14163 3587,14164 3582,14166 3573,14166 3564,14170 3558,14172 3554,14172 3545,14175 3542,14179 3527,14185 3521,14188 3512,14192 3509,14192 3505,14194 3497,14194 3499,14201 3497,14201 3497,14194 3481,14194 3477,14192 3474,14192 3470,14190 3468,14190 3466,14188 3464,14188 3463,14190 3463,14201 3459,14199 3461,14190 3450,14188 3424,14188 3417,14190 3411,14194 3411,14192 3413,14188 3413,14186 3375,14186 3375,14181 3371,14181 3371,14185 3358,14185 3360,14190 3358,14190 3358,14185 3345,14185 3338,14183 3332,14183 3334,14190 3334,14199 3334,14197 3332,14192 3332,14183 3327,14183 3327,14185 3325,14186 3320,14186 3321,14196 3323,14203 3321,14203 3320,14188 3318,14188 3309,14190 3312,14197 3312,14205 3310,14205 3310,14197 3309,14190 3305,14190 3298,14192 3301,14205 3299,14207 3298,14199 3296,14192 3285,14192 3287,14205 3287,14210 3285,14203 3283,14192 3274,14196 3272,14196 3274,14205 3270,14196 3265,14197 3261,14199 3261,14205 3263,14210 3261,14205 3259,14199 3252,14201 3252,14208 3250,14208 3252,14201 3248,14199 3241,14199 3241,14208 3239,14208 3241,14197 3232,14197 3232,14207 3230,14207 3230,14197 3222,14196 3220,14196 3220,14199 3219,14205 3219,14199 3220,14196 3211,14194 3209,14201 3209,14194 3200,14192 3198,14190 3195,14190 3186,14185 3180,14185 3173,14183 3167,14181 3158,14181 3156,14179 3154,14177 3151,14177 3147,14175 3136,14175 3120,14179 3112,14181 3114,14183 3098,14183 3096,14190 3096,14192 3094,14192 3094,14186 3088,14185 3088,14183 3087,14181 3076,14181 3077,14186 3076,14186 3074,14181 3070,14183 3068,14183 3068,14181 3065,14181 3065,14185 3063,14186 3059,14186 3052,14188 3052,14190 3050,14190 3048,14192 3043,14192 3043,14194 3041,14192 3039,14192 3030,14194 3026,14196 3024,14197 3021,14197 3017,14199 3011,14199 3006,14201 2995,14201 2995,14207 2995,14201 2987,14201 2982,14199 2980,14199 2978,14201 2980,14197 2976,14196 2975,14196 2967,14192 2964,14192 2960,14190 2954,14185 2947,14175 2940,14166 2936,14161 2932,14153 2929,14148 2925,14142 2921,14133 2914,14124 2907,14108 2901,14102 2894,14102 2892,14104 2892,14106 2890,14106 2888,14108 2887,14109 2885,14113 2883,14115 2876,14115 2872,14109 2870,14108 2870,14091 2868,14089 2868,14087 2866,14087 2865,14085 2863,14084 2859,14082 2857,14082 2833,14071 2822,14065 2821,14065 2810,14060 2810,14058 2804,14056 2800,14054 2800,14052 2799,14054 2797,14054 2797,14052 2784,14045 2786,14045 2766,14034 2753,14029 2753,14027 2755,14027 2727,14003 2727,14001 2729,13999 2722,13994 2720,13992 2718,13988 2720,13988 2720,13985 2722,13981 2716,13981 2716,13979 2714,13979 2710,13975 2707,13975 2705,13974 2705,13970 2705,13972 2703,13970 2707,13968 2683,13933 2683,13931 2685,13930 2683,13924 2679,13928 2677,13926 2683,13924 2683,13920 2681,13922 2679,13917 2674,13920 2679,13915 2685,13909 2674,13902 2670,13906 2670,13908 2666,13909 2663,13909 2661,13911 2633,13911 2633,13913 2632,13915 2630,13917 2630,13919 2626,13922 2626,13920 2624,13920 2622,13919 2617,13915 2615,13913 2613,13911 2611,13909 2610,13908 2610,13902 2611,13898 2611,13893 2613,13891 2615,13887 2615,13886 2617,13886 2619,13878 2622,13873 2632,13873 2637,13875 2637,13876 2643,13878 2646,13880 2650,13882 2652,13884 2654,13884 2655,13882 2657,13882 2659,13878 2661,13878 2663,13876 2663,13875 2665,13873 2665,13858 2663,13853 2663,13849 2665,13847 2665,13845 2663,13843 2661,13832 2661,13825 2659,13820 2659,13810 2657,13809 2657,13790 2659,13790 2661,13787 2663,13783 2665,13779 2665,13774 2666,13774 2666,13772 2670,13768 2672,13768 2672,13766 2674,13757 2666,13755 2672,13735 2679,13735 2681,13733 2683,13733 2683,13731 2685,13730 2688,13722 2690,13720 2690,13717 2683,13713 2677,13720 2676,13722 2672,13724 2668,13726 2661,13730 2659,13730 2655,13731 2646,13731 2643,13733 2637,13733 2637,13728 2635,13724 2633,13717 2633,13715 2632,13711 2630,13708 2624,13702 2624,13700 2626,13691 2626,13684 2633,13684 2644,13687 2655,13689 2668,13689 2668,13691 2677,13695 2681,13697 2683,13700 2685,13704 2685,13708 2683,13711 2690,13715 2692,13711 2692,13704 2690,13697 2688,13693 2683,13687 2677,13686 2674,13684 2672,13682 2672,13680 2674,13678 2670,13678 2672,13675 2672,13673 2674,13671 2674,13667 2677,13660 2677,13656 2679,13654 2681,13651 2683,13647 2685,13645 2685,13640 2683,13640 2683,13636 2685,13636 2685,13634 2679,13632 2676,13631 2674,13629 2670,13631 2666,13631 2665,13629 2663,13629 2663,13627 2661,13629 2661,13631 2659,13631 2659,13636 2657,13638 2657,13640 2655,13642 2655,13645 2654,13647 2652,13649 2652,13651 2648,13654 2648,13656 2646,13658 2644,13662 2641,13664 2641,13665 2637,13665 2633,13667 2630,13667 2628,13665 2626,13667 2615,13667 2615,13669 2613,13669 2613,13671 2610,13671 2610,13675 2608,13676 2606,13676 2606,13680 2604,13682 2604,13684 2602,13686 2602,13687 2600,13687 2600,13693 2602,13693 2604,13698 2604,13700 2611,13717 2615,13722 2615,13728 2613,13730 2608,13741 2599,13757 2597,13761 2599,13763 2597,13768 2593,13766 2593,13772 2589,13777 2586,13788 2582,13794 2580,13801 2580,13805 2578,13807 2577,13809 2575,13812 2567,13809 2560,13807 2556,13807 2551,13803 2553,13796 2555,13785 2556,13775 2551,13775 2545,13798 2540,13798 2538,13799 2540,13799 2538,13799 2538,13801 2536,13801 2536,13803 2534,13805 2533,13805 2533,13809 2527,13809 2527,13810 2523,13809 2522,13807 2520,13809 2518,13807 2516,13807 2514,13805 2512,13805 2511,13803 2511,13801 2509,13799 2509,13794 2507,13792 2507,13790 2505,13788 2505,13790 2501,13790 2501,13792 2503,13794 2503,13796 2501,13798 2501,13805 2496,13805 2496,13807 2494,13809 2494,13814 2492,13816 2492,13820 2490,13823 2489,13827 2489,13834 2490,13836 2492,13838 2494,13840 2501,13840 2503,13842 2512,13842 2514,13843 2516,13845 2516,13847 2518,13849 2520,13851 2522,13853 2525,13854 2529,13854 2529,13856 2533,13856 2533,13858 2536,13858 2540,13862 2540,13864 2542,13864 2542,13865 2544,13871 2542,13871 2542,13875 2549,13875 2547,13887 2536,13886 2534,13891 2547,13893 2540,13937 2536,13937 2534,13942 2533,13950 2536,13950 2533,13975 2525,13974 2520,14036 2507,14036 2507,14043 2520,14043 2516,14084 2512,14100 2507,14130 2509,14130 2507,14135 2498,14135 2492,14153 2461,14155 2457,14166 2454,14166 2455,14155 2411,14155 2410,14157 2397,14159 2366,14153 2344,14148 2325,14146 2307,14144 2287,14144 2268,14142 2246,14141 2221,14142 2204,14144 2189,14144 2177,14146 2166,14150 2164,14157 2164,14161 2151,14161 2140,14164 2123,14175 2112,14190 2100,14203 2092,14212 2089,14218 2078,14232 2074,14243 2068,14251 2061,14273 2054,14289 2048,14300 2041,14307 2037,14313 2030,14322 2026,14331 2012,14344 2001,14348 1977,14348 1960,14346 1949,14346 1938,14344 1922,14344 1909,14340 1902,14339 1896,14337 1891,14333 1885,14329 1874,14326 1863,14324 1850,14324 1839,14322 1832,14320 1823,14313 1817,14304 1803,14289 1793,14280 1788,14274 1770,14267 1759,14262 1742,14258 1718,14252 1676,14245 1649,14240 1626,14238 1597,14236 1573,14234 1544,14232 1500,14232 1482,14230 1460,14234 1445,14238 1438,14245 1430,14254 1414,14271 1403,14269 1388,14269 1371,14267 1360,14267 1348,14273 1331,14285 1320,14295 1302,14306 1287,14309 1272,14309 1252,14311 1238,14311 1225,14315 1214,14318 1206,14318 1197,14317 1186,14311 1194,14252 1205,14003 1205,13986 1206,13974 1206,13966 1208,13952 1208,13933 1219,13766 1245,13761 1263,13757 1293,13750 1294,13748 1298,13746 1298,13737 1296,13731 1294,13726 1294,13720 1296,13719 1300,13719 1304,13722 1305,13726 1307,13733 1309,13737 1315,13737 1318,13735 1322,13735 1326,13731 1329,13731 1333,13730 1348,13730 1349,13726 1360,13717 1366,13715 1373,13715 1377,13713 1379,13713 1384,13708 1388,13708 1390,13709 1392,13708 1397,13704 1403,13698 1412,13695 1427,13695 1436,13693 1443,13689 1447,13689 1450,13691 1458,13691 1460,13687 1461,13686 1461,13684 1465,13680 1469,13680 1472,13682 1476,13686 1480,13687 1483,13691 1487,13693 1489,13693 1496,13689 1504,13687 1515,13687 1533,13684 1531,13678 1535,13678 1537,13684 1544,13684 1551,13682 1570,13678 1584,13676 1595,13673 1604,13671 1610,13669 1625,13665 1658,13665 1661,13664 1672,13660 1682,13658 1691,13656 1700,13656 1707,13654 1713,13654 1718,13653 1724,13651 1729,13649 1737,13645 1746,13643 1751,13643 1762,13640 1766,13638 1768,13638 1771,13636 1775,13634 1779,13632 1782,13631 1784,13629 1786,13627 1786,13625 1793,13623 1792,13616 1795,13616 1792,13598 1790,13598 1790,13596 1792,13596 1793,13598 1797,13614 1804,13612 1804,13620 1826,13616 1823,13599 1821,13601 1819,13594 1825,13592 1825,13598 1823,13598 1826,13614 1828,13614 1830,13612 1832,13610 1834,13612 1847,13612 1848,13616 1865,13612 1885,13609 1907,13605 1905,13596 1902,13596 1885,13581 1881,13581 1880,13583 1878,13583 1872,13585 1869,13585 1867,13587 1861,13587 1854,13590 1843,13592 1841,13590 1854,13588 1852,13587 1858,13585 1859,13587 1869,13583 1870,13583 1881,13579 1880,13577 1887,13576 1887,13577 1893,13576 1898,13574 1898,13576 1902,13576 1898,13577 1889,13579 1887,13579 1887,13581 1898,13592 1905,13590 1909,13601 1914,13601 1916,13599 1924,13596 1924,13594 1931,13592 1931,13590 1938,13587 1953,13581 1957,13598 1973,13594 1975,13594 1977,13599 1982,13598 1973,13566 1970,13568 1968,13566 1975,13565 1984,13598 1990,13596 1993,13594 1995,13592 1995,13590 1997,13588 2001,13588 2001,13590 2003,13588 2003,13590 2004,13590 2006,13598 2008,13599 2014,13599 2026,13598 2045,13592 2047,13592 2047,13590 2048,13590 2048,13587 2050,13587 2050,13588 2061,13588 2063,13587 2065,13587 2067,13585 2067,13583 2065,13583 2067,13583 2067,13581 2068,13583 2070,13581 2070,13579 2072,13577 2074,13574 2076,13572 2072,13561 2076,13570 2078,13568 2079,13568 2074,13555 2076,13555 2078,13563 2083,13561 2079,13552 2083,13559 2083,13561 2089,13559 2101,13555 2100,13554 2103,13552 2120,13544 2129,13541 2125,13530 2129,13528 2131,13533 2142,13528 2145,13528 2144,13519 2142,13513 2147,13511 2145,13504 2145,13506 2144,13502 2147,13502 2147,13504 2149,13511 2156,13510 2156,13513 2162,13526 2169,13526 2171,13524 2173,13522 2175,13522 2177,13521 2171,13510 2186,13502 2184,13497 2186,13495 2189,13506 2217,13495 2219,13499 2226,13497 2230,13504 2235,13502 2235,13504 2237,13502 2239,13502 2241,13500 2245,13500 2246,13499 2248,13499 2250,13497 2246,13489 2245,13486 2243,13480 2245,13480 2248,13488 2246,13488 2250,13493 2252,13493 2252,13491 2256,13491 2257,13489 2261,13489 2263,13488 2259,13480 2267,13477 2267,13482 2278,13478 2276,13473 2285,13469 2283,13462 2285,13460 2289,13467 2300,13445 2300,13432 2298,13425 2300,13423 2298,13421 2298,13412 2296,13410 2298,13410 2296,13410 2296,13409 2300,13407 2298,13405 2296,13401 2327,13394 2347,13379 2351,13372 2353,13366 2356,13357 2366,13337 2364,13335 2366,13333 2366,13330 2367,13328 2369,13326 2371,13324 2373,13322 2375,13322 2377,13321 2378,13321 2380,13319 2382,13317 2384,13317 2386,13315 2388,13313 2391,13310 2391,13306 2393,13304 2395,13302 2397,13300 2399,13300 2399,13295 2400,13293 2400,13291 2402,13291 2402,13288 2404,13288 2404,13282 2406,13282 2406,13280 2408,13280 2408,13278 2411,13273 2411,13271 2413,13269 2413,13266 2415,13266 2415,13260 2417,13258 2419,13256 2421,13255 2421,13253 2422,13253 2422,13249 2424,13245 2426,13234 2432,13209 2433,13207 2433,13198 2443,13179 2455,13157 2459,13152 2466,13145 2489,13126 2540,13084 2551,13073 2558,13067 2566,13060 2566,13058 2567,13060 2571,13060 2582,13062 2586,13060 2588,13060 2589,13064 2591,13066 2588,13067 2589,13069 2591,13071 2595,13071 2599,13073 2624,13073 2633,13077 2641,13078 2648,13078 2663,13077 2670,13077 2679,13078 2685,13082 2688,13082 2699,13080 2709,13078 2720,13077 2731,13071 2751,13071 2766,13073 2777,13073 2793,13075 2800,13075 2811,13077 2819,13078 2824,13078 2832,13080 2839,13078 2855,13075 2859,13073 2865,13073 2868,13075 2876,13077 2883,13080 2899,13080 2903,13078 2910,13073 2920,13066 2920,13064 2923,13062 2929,13080 2942,13075 2976,13064 2999,13058 3033,13055 3050,13055 3074,13044 3110,13025 3114,13023 3153,13025 3175,13027 3235,13042 3244,13049 3294,13099 3294,13099 Z M 3582,10089 L 3619,10133 3719,10195 3710,10208 3685,10225 3587,10298 3485,10369 3411,10423 3371,10456 3323,10494 3276,10536 3257,10524 3202,10582 3105,10690 3076,10734 2973,10894 2916,11028 2881,11147 2859,11263 2846,11380 2848,11527 2861,11642 2887,11763 2929,11892 2947,11930 2997,12037 3041,12112 3226,12363 3248,12400 3307,12490 3321,12526 3318,12528 3336,12567 3347,12594 3356,12620 3365,12647 3375,12673 3386,12715 3393,12713 3413,12814 3433,13095 3446,13227 3466,13330 3472,13363 3474,13372 3475,13388 3483,13456 3486,13475 3518,13533 3597,13667 3615,13697 3635,13733 3652,13763 3666,13792 3672,13805 3675,13814 3679,13829 3685,13860 3688,13893 3690,13904 3696,13935 3705,13974 3712,14005 3718,14027 3723,14054 3723,14119 3721,14166 3721,14188 3719,14201 3705,14234 3694,14254 3686,14262 3648,14326 3628,14359 3609,14390 3595,14419 3591,14427 3587,14452 3578,14533 3575,14550 3567,14601 3565,14623 3562,14645 3558,14683 3558,14705 3560,14850 3567,14896 3571,14927 3565,14922 3560,14918 3549,14914 3536,14914 3534,14911 3529,14918 3525,14913 3479,14867 3479,14863 3481,14861 3479,14858 3474,14852 3470,14847 3464,14843 3444,14823 3428,14808 3422,14801 3419,14794 3419,14788 3417,14779 3415,14770 3413,14757 3411,14748 3409,14735 3408,14726 3404,14716 3404,14713 3402,14709 3402,14705 3400,14700 3398,14689 3398,14685 3395,14676 3391,14667 3389,14661 3387,14658 3382,14654 3380,14650 3375,14639 3369,14634 3365,14630 3364,14623 3362,14619 3356,14603 3353,14594 3349,14586 3340,14566 3336,14561 3334,14555 3334,14548 3331,14542 3325,14531 3323,14524 3321,14518 3320,14517 3320,14506 3318,14500 3318,14473 3321,14463 3323,14456 3323,14445 3325,14439 3323,14434 3323,14430 3318,14414 3314,14401 3312,14392 3309,14383 3310,14375 3314,14362 3325,14342 3332,14329 3336,14328 3340,14324 3343,14322 3347,14320 3354,14315 3360,14313 3369,14309 3380,14304 3395,14300 3402,14298 3413,14296 3437,14296 3446,14293 3453,14293 3475,14287 3483,14284 3501,14276 3507,14273 3516,14269 3527,14267 3543,14263 3551,14262 3556,14260 3564,14260 3567,14258 3569,14256 3573,14254 3576,14251 3587,14245 3589,14241 3595,14240 3597,14240 3604,14236 3611,14232 3619,14229 3633,14223 3650,14216 3664,14207 3688,14188 3692,14181 3697,14174 3701,14168 3701,14122 3699,14113 3699,14104 3701,14089 3701,14076 3699,14047 3699,14040 3697,14025 3690,13985 3688,13975 3686,13968 3685,13961 3685,13959 3683,13957 3679,13941 3677,13933 3677,13928 3675,13922 3674,13915 3672,13906 3672,13897 3670,13882 3668,13871 3666,13853 3664,13847 3663,13842 3659,13832 3657,13825 3653,13818 3652,13814 3648,13809 3641,13801 3635,13792 3630,13783 3624,13777 3613,13763 3609,13757 3598,13741 3593,13733 3587,13726 3580,13719 3576,13711 3573,13700 3569,13686 3564,13676 3560,13669 3556,13662 3551,13653 3542,13638 3536,13629 3529,13616 3521,13603 3518,13592 3510,13581 3499,13568 3490,13554 3485,13550 3477,13539 3474,13533 3472,13532 3468,13530 3468,13528 3466,13526 3464,13521 3464,13517 3459,13510 3452,13497 3442,13484 3442,13478 3439,13473 3435,13466 3430,13455 3420,13445 3417,13444 3415,13440 3411,13438 3406,13434 3402,13432 3400,13432 3398,13431 3398,13409 3397,13405 3395,13403 3395,13399 3393,13398 3393,13396 3391,13388 3387,13368 3386,13359 3386,13357 3384,13343 3380,13332 3375,13310 3373,13295 3373,13284 3371,13269 3369,13251 3367,13234 3362,13214 3356,13185 3345,13126 3351,13126 3351,13106 3349,13104 3349,13088 3345,13088 3343,13084 3342,13080 3342,13069 3343,13058 3343,13053 3345,13051 3334,13022 3334,13012 3332,13012 3331,13011 3329,13000 3327,12998 3325,12992 3323,12987 3321,12979 3321,12978 3320,12972 3318,12965 3316,12956 3314,12950 3312,12945 3309,12935 3305,12928 3303,12924 3301,12921 3299,12917 3298,12910 3288,12890 3283,12884 3279,12877 3274,12873 3272,12869 3270,12868 3268,12868 3265,12866 3261,12862 3257,12862 3252,12860 3250,12860 3250,12858 3244,12858 3230,12855 3224,12851 3220,12851 3213,12847 3211,12846 3208,12844 3206,12842 3204,12840 3197,12836 3197,12833 3187,12831 3160,12809 3151,12805 3153,12803 3143,12796 3142,12798 3129,12785 3131,12785 3120,12778 3107,12772 3094,12767 3090,12765 3079,12761 3037,12739 3032,12737 3024,12735 3021,12734 3011,12728 2991,12715 2982,12710 2964,12697 2943,12677 2932,12669 2923,12662 2910,12647 2890,12631 2887,12627 2881,12624 2877,12622 2872,12618 2854,12607 2819,12585 2795,12570 2762,12550 2745,12539 2729,12526 2710,12514 2644,12460 2580,12409 2564,12392 2551,12383 2542,12372 2536,12361 2531,12350 2527,12341 2525,12326 2522,12292 2514,12242 2512,12220 2514,12194 2514,12099 2512,12048 2512,12020 2511,12004 2507,11985 2498,11939 2485,11874 2485,11870 2479,11870 2457,11877 2430,11885 2402,11896 2397,11879 2422,11868 2444,11863 2476,11852 2477,11850 2477,11846 2472,11831 2461,11813 2430,11767 2402,11729 2375,11690 2353,11661 2325,11630 2287,11586 2261,11562 2246,11547 2228,11532 2166,11483 2120,11446 2098,11428 2090,11419 2083,11408 2076,11393 2070,11376 2068,11365 2067,11354 2067,11347 2072,11336 2087,11307 2101,11283 2107,11274 2114,11266 2131,11252 2149,11237 2171,11215 2195,11193 2215,11173 2243,11145 2259,11121 2281,11083 2300,11052 2305,11037 2309,11021 2318,10988 2327,10953 2333,10938 2340,10923 2345,10918 2358,10907 2369,10900 2382,10892 2397,10887 2413,10885 2443,10887 2472,10887 2507,10889 2573,10892 2613,10894 2659,10898 2701,10900 2720,10898 2729,10896 2738,10890 2749,10881 2764,10865 2777,10848 2788,10832 2795,10817 2806,10784 2813,10760 2826,10729 2832,10716 2837,10705 2846,10694 2855,10685 2865,10678 2881,10665 2910,10645 2936,10624 2947,10619 2973,10604 3010,10582 3039,10560 3057,10544 3099,10502 3101,10500 3131,10470 3158,10443 3193,10406 3235,10364 3276,10324 3307,10296 3320,10287 3349,10265 3397,10228 3442,10195 3490,10160 3532,10127 3562,10105 3582,10089 3582,10089 Z M 3582,10089 L 3582,10089 3582,10089 Z"/>
	<path fill="rgb(255,255,000)" fill-opacity="0.5" stroke="black" stroke-width="20" id="svg_fevzi_cakmak"   d="M 5364,9726 L 5375,9702 5386,9678 5423,9599 5359,9573 5353,9570 5363,9546 5366,9539 5379,9507 5396,9469 5401,9458 5412,9423 5414,9419 5418,9407 5429,9379 5434,9366 5451,9322 5460,9296 5476,9247 5476,9225 5480,9194 5473,9168 5405,8977 5403,8932 5401,8915 5405,8893 5414,8869 5429,8851 5458,8822 5500,8800 5588,8750 5607,8767 5742,8869 5830,8935 5896,8985 5926,9010 6221,9225 6274,9256 6390,9419 6403,9436 6452,9474 6469,9537 6487,9586 6492,9599 6548,9737 6549,9744 6593,9845 6614,9891 6634,9937 6643,9960 6659,9997 6667,10016 6678,10039 6758,10228 6760,10232 6770,10247 6784,10280 6815,10349 6757,10370 6683,10414 6632,10448 6566,10494 6560,10498 6496,10540 6485,10547 6448,10573 6430,10584 6388,10595 6337,10606 6285,10615 6237,10626 6225,10628 6171,10639 6124,10650 6100,10656 6071,10661 6017,10672 5962,10685 5946,10689 5911,10696 5830,10713 5772,10725 5748,10729 5724,10735 5671,10746 5632,10755 5629,10755 5592,10764 5592,10692 5588,10610 5586,10595 5583,10540 5596,10469 5599,10419 5601,10320 5601,10291 5603,10170 5605,10124 5607,10094 5608,10060 5610,10039 5612,9992 5574,9984 5346,9948 5333,9946 5353,9863 5372,9795 5383,9755 5390,9740 5401,9728 5364,9726 5364,9726 Z M 5364,9726 L 5364,9726 5364,9726 Z"/>
	<path fill="rgb(000,128,128)" fill-opacity="0.5" stroke="black" stroke-width="20" id="svg_gultepe"        d="M 6113,11281 L 6124,11283 6127,11281 6074,11186 6153,11138 6157,11145 6186,11162 6241,11191 6241,11199 6239,11270 6236,11287 6234,11312 6223,11340 6212,11367 6208,11382 6416,11398 6524,11400 6672,11430 6702,11437 6700,11459 6702,11479 6707,11507 6716,11531 6746,11584 6784,11633 6702,11708 6656,11756 6641,11773 6619,11795 6593,11822 6553,11874 6469,12026 6403,12172 6245,12642 6179,12809 6100,12956 5988,13101 5900,13286 5757,13346 5742,13289 5724,13200 5709,13128 5691,13057 5687,12978 5675,12902 5673,12882 5667,12862 5662,12831 5653,12778 5653,12774 5643,12717 5634,12679 5629,12640 5621,12596 5621,12578 5623,12515 5623,12493 5632,12426 5594,12427 5531,12427 5513,12345 5493,12246 5482,12196 5473,12161 5464,12112 5453,12062 5438,11994 5418,11907 5410,11870 5388,11763 5364,11657 5353,11600 5319,11459 5317,11446 5286,11376 5372,11404 5438,11426 5497,11442 5506,11446 5500,11391 5570,11409 5643,11426 5664,11342 5667,11327 5676,11287 5708,11292 5711,11290 5717,11287 5730,11276 5755,11252 5788,11230 5799,11222 5830,11206 5838,11211 5869,11232 6036,11332 6076,11307 6113,11281 6113,11281 Z M 6113,11281 L 6113,11281 6113,11281 Z"/>
	<path fill="rgb(255,128,255)" fill-opacity="0.5" stroke="black" stroke-width="20" id="svg_halkali_merkez" d="M 8938,6723 L 8930,6720 8848,6685 8650,6591 8530,6518 8446,6445 8402,6456 8378,6454 8325,6450 8264,6437 8261,6468 8261,6472 8242,6467 8171,6454 8123,6445 8099,6443 8048,6439 8017,6435 8007,6435 7947,6434 7912,6432 7905,6432 7886,6430 7866,6426 7832,6417 7819,6413 7778,6397 7760,6454 7756,6452 7740,6445 7694,6426 7648,6404 7633,6399 7611,6388 7595,6379 7571,6421 7566,6424 7562,6434 7560,6446 7556,6465 7498,6454 7468,6446 7452,6443 7435,6437 7419,6430 7413,6430 7402,6426 7358,6417 7351,6415 7296,6404 7278,6401 7252,6395 7228,6391 7212,6470 7201,6468 7160,6463 7155,6465 7100,6470 7061,6476 7024,6481 7024,6459 7012,6459 6980,6463 6968,6463 6918,6468 6911,6470 6885,6474 6867,6474 6817,6472 6806,6470 6791,6470 6758,6468 6744,6468 6742,6522 6665,6514 6634,6509 6569,6509 6505,6507 6502,6485 6500,6459 6465,6472 6302,6479 6261,6479 6259,6415 6104,6408 6083,6419 6056,6424 5975,6470 5940,6487 5807,6573 5735,6611 5522,6800 5440,6872 5339,6995 5320,7013 5306,7032 5297,7026 5282,7015 5276,7013 5253,6999 5227,6989 5205,6980 5095,6916 4983,6846 4954,6824 4895,6753 4854,6705 4818,6672 4730,6584 4711,6571 4566,6410 4515,6358 4506,6336 4497,6323 4394,6241 4390,6228 4390,6230 4502,6087 4577,5986 4627,5916 4645,5889 4656,5863 4664,5841 4666,5819 4662,5797 4658,5764 4651,5729 4644,5676 4640,5638 4642,5606 4644,5573 4651,5548 4655,5540 4660,5524 4671,5496 4708,5440 4728,5414 4776,5372 4831,5340 4832,5339 4911,5302 4990,5258 4921,5219 4842,5186 4783,5166 4699,5139 4614,5109 4574,5100 4546,5093 4508,5091 4477,5089 4440,5093 4392,5102 4339,5119 4277,5144 4251,5155 4244,5117 4244,5089 4245,5064 4249,5007 4253,4981 4264,4933 4277,4884 4291,4831 4297,4818 4319,4763 4356,4667 4368,4638 4372,4627 4403,4627 4456,4629 4526,4631 4647,4631 4693,4632 4728,4629 4776,4621 4820,4607 4849,4594 4889,4570 4928,4550 4948,4532 4955,4513 4957,4508 4996,4478 5093,4471 5119,4612 5139,4643 5245,4702 5295,4728 5331,4750 5346,4757 5377,4774 5385,4779 5388,4779 5482,4818 5478,4807 5484,4798 5513,4755 5563,4713 5563,4711 5561,4656 5561,4634 5420,4515 5403,4510 5370,4478 5333,4444 5317,4412 5317,4411 5344,4355 5348,4346 5394,4306 5511,4198 5572,4117 5572,4115 5559,3985 5559,3983 5574,3957 5581,3923 5594,3846 5585,3763 5581,3750 5563,3745 5553,3743 5416,3701 5412,3701 5420,3647 5423,3556 5427,3536 5608,3570 5610,3570 5632,3576 5720,3453 5893,3574 5898,3578 5913,3589 5913,3686 5909,3699 5909,3726 5915,3774 5920,3811 5933,3941 5937,3972 5942,4042 5942,4049 5948,4108 5949,4156 5948,4216 5942,4234 5935,4253 5917,4295 5913,4315 5913,4361 5911,4396 5913,4427 6017,4444 6104,4473 6109,4475 6100,4504 6100,4508 6104,4508 6204,4524 6212,4533 6221,4645 6221,4656 6228,4656 6239,4658 6340,4662 6410,4658 6474,4642 6487,4638 6522,4623 6569,4607 6603,4598 6637,4588 6663,4581 6681,4577 6692,4576 6722,4574 6733,4574 6749,4572 6852,4555 6870,4554 6885,4528 6900,4447 6907,4403 6911,4379 6924,4299 6925,4299 6942,4308 6968,4315 6990,4315 7002,4310 7023,4304 7059,4293 7098,4280 7131,4271 7147,4262 7162,4253 7166,4245 7175,4233 7179,4220 7180,4194 7182,4176 7184,4159 7210,3901 7221,3792 7221,3721 7215,3693 7213,3684 7435,3704 7602,3717 7611,3717 7602,3805 7599,3847 7637,3851 7778,3866 7821,3869 7894,3879 7899,3877 7914,3875 7938,3862 7980,3844 8011,3831 8044,3816 8099,3809 8283,3789 8351,3780 8395,3758 8418,3741 8437,3721 8439,3717 8442,3713 8453,3693 8470,3644 8475,3607 8479,3570 8481,3545 8508,3528 8514,3515 8517,3508 8525,3499 8541,3493 8576,3486 8606,3481 8655,3482 8673,3482 8727,3486 8771,3492 8796,3493 8807,3495 8813,3702 8840,3926 8983,4532 9035,4843 9044,5113 9038,5262 9011,5476 8980,5790 8938,6722 8938,6723 8938,6723 Z M 8938,6723 L 8938,6723 8938,6723 Z"/>
	<path fill="rgb(255,255,128)" fill-opacity="0.5" stroke="black" stroke-width="20" id="svg_inonu"          d="M 8650,6591 L 8644,6604 8574,6760 8565,6780 8554,6804 8536,6865 8560,6967 8562,6967 8611,7112 8505,7319 8475,7543 8463,7560 8417,7582 8400,7589 8363,7622 8329,7736 8281,7813 8257,7899 8259,7908 8303,8059 8303,8064 8272,8154 8274,8183 8275,8205 8266,8253 8250,8288 8248,8290 8136,8453 8141,8514 8130,8591 8136,8635 8156,8682 8143,8695 7997,8677 7987,8673 7870,8666 7863,8717 7855,8767 7850,8809 7705,8785 7703,8787 7588,8827 7578,8818 7566,8803 7525,8765 7518,8759 7503,8745 7474,8717 7445,8692 7426,8677 7417,8668 7390,8646 7358,8618 7320,8585 7309,8576 7279,8547 7235,8504 7199,8468 7190,8455 7177,8433 7169,8420 7168,8411 7160,8389 7160,8383 7158,8376 7158,8365 7162,8347 7140,8347 7068,8341 7052,8341 7039,8343 6940,8343 6685,8356 6685,8383 6692,8416 6696,8433 6700,8453 6727,8565 6735,8592 6740,8613 6643,8624 6573,8625 6511,8620 6403,8620 6300,8616 6280,8614 6281,8547 6283,8508 6285,8444 6285,8341 6283,8288 6283,8271 6281,8220 6281,8161 6280,8130 6280,8015 6278,8005 6278,7938 6276,7895 6269,7611 6267,7525 6265,7396 6265,7140 6263,7019 6261,6932 6259,6835 6256,6593 6263,6571 6261,6479 6302,6479 6465,6472 6500,6459 6502,6485 6505,6507 6569,6509 6634,6509 6665,6514 6742,6521 6744,6468 6758,6468 6791,6470 6806,6470 6817,6472 6867,6474 6885,6474 6911,6470 6918,6468 6968,6463 6980,6463 7012,6459 7024,6459 7024,6481 7061,6476 7100,6470 7155,6465 7160,6463 7201,6468 7212,6470 7228,6391 7252,6395 7278,6400 7296,6404 7351,6415 7358,6417 7402,6426 7413,6430 7419,6430 7435,6437 7452,6443 7468,6446 7498,6454 7556,6465 7560,6446 7562,6433 7566,6424 7571,6421 7595,6378 7612,6388 7634,6399 7648,6404 7694,6426 7740,6444 7756,6452 7760,6454 7778,6397 7819,6413 7832,6417 7867,6426 7886,6430 7905,6432 7912,6432 7947,6433 8008,6435 8017,6435 8048,6439 8099,6443 8123,6444 8171,6454 8242,6466 8261,6472 8261,6468 8264,6437 8325,6450 8378,6454 8402,6455 8446,6444 8530,6518 8650,6591 8650,6591 Z M 8650,6591 L 8650,6591 8650,6591 Z"/>
	<path fill="rgb(000,000,255)" fill-opacity="0.5" stroke="black" stroke-width="20" id="svg_istasyon"       d="M 2701,9016 L 2699,9016 2699,9014 2698,9014 2698,9016 2692,9018 2687,9020 2679,9020 2677,9018 2674,9018 2672,9020 2670,9021 2668,9021 2666,9023 2666,9025 2665,9027 2663,9029 2661,9029 2659,9031 2655,9031 2655,9032 2654,9032 2650,9034 2648,9036 2648,9038 2646,9040 2644,9040 2644,9042 2633,9042 2633,9043 2632,9045 2628,9045 2628,9047 2624,9047 2622,9049 2622,9051 2619,9051 2619,9053 2615,9053 2615,9054 2613,9056 2609,9056 2609,9058 2606,9058 2606,9060 2604,9060 2600,9062 2598,9064 2597,9065 2589,9065 2587,9064 2586,9064 2586,9065 2582,9065 2584,9067 2582,9069 2575,9069 2573,9071 2569,9071 2567,9073 2569,9075 2564,9075 2564,9073 2560,9075 2554,9075 2554,9076 2553,9076 2551,9075 2549,9075 2547,9076 2547,9075 2543,9075 2543,9073 2543,9075 2542,9075 2542,9073 2538,9073 2534,9071 2529,9071 2525,9067 2525,9064 2523,9064 2521,9062 2520,9062 2518,9060 2516,9060 2516,9056 2518,9054 2518,9045 2516,9047 2516,9045 2503,9020 2498,8856 2466,8178 2613,7681 2683,7440 2725,7301 2831,6859 2833,6857 2848,6800 2852,6786 2857,6756 2861,6731 2864,6709 2868,6694 2872,6681 2875,6663 2881,6637 2883,6622 2885,6606 2885,6598 2887,6554 2887,6542 2888,6510 2888,6485 2890,6457 2892,6422 2892,6406 2890,6382 2890,6327 2888,6309 2888,6285 2885,6160 2885,6134 2888,6047 2887,5948 2888,5920 2892,5871 2890,5828 2890,5749 2885,5628 2881,5586 2877,5480 2874,5450 2874,5427 2872,5401 2870,5353 2868,5328 2866,5296 2864,5274 2839,5146 2795,4988 2789,4972 2784,4950 2765,4895 2760,4880 2756,4867 2705,4728 2661,4620 2608,4458 2644,4398 2707,4291 2714,4282 2767,4374 2973,4708 3039,4812 3094,4884 3165,4953 3213,4985 3270,5016 3338,5051 3453,5102 3556,5140 3613,5175 3674,5205 3762,5236 3850,5243 3906,5240 4000,5230 4070,5216 4158,5190 4235,5162 4251,5155 4277,5144 4339,5118 4392,5102 4440,5093 4477,5089 4508,5091 4547,5093 4574,5100 4614,5109 4699,5139 4783,5166 4842,5186 4921,5219 4990,5258 4912,5302 4833,5339 4831,5340 4776,5372 4728,5414 4708,5439 4671,5496 4660,5524 4655,5540 4651,5548 4644,5573 4642,5606 4640,5638 4644,5676 4651,5729 4658,5764 4662,5797 4666,5819 4664,5841 4657,5863 4646,5889 4627,5916 4578,5986 4503,6087 4391,6230 4391,6228 4394,6241 4497,6323 4506,6336 4515,6358 4567,6410 4712,6571 4730,6584 4818,6672 4855,6705 4895,6753 4954,6824 4983,6846 5095,6916 5205,6980 5227,6989 5253,6998 5277,7013 5282,7015 5297,7026 5306,7031 5277,7066 5209,7158 5141,7277 5102,7365 5068,7470 5051,7536 5042,7582 5031,7631 5022,7684 5012,7749 5001,7804 4994,7837 4967,7870 4921,7903 4818,7949 4706,8000 4618,8040 4501,8086 4387,8134 4326,8172 4270,8224 4161,8363 4084,8457 4002,8547 3921,8625 3864,8675 3782,8726 3650,8792 3596,8825 3573,8853 3527,8913 3507,8972 3479,8956 3431,8926 3384,8895 3347,8866 3318,8838 3277,8785 3257,8748 3244,8719 3230,8730 3176,8757 3118,8812 3066,8858 3057,8866 3050,8869 3035,8875 3022,8879 3002,8882 2888,8880 2850,8882 2846,8884 2828,8891 2822,8906 2817,8972 2815,8988 2817,8994 2819,8996 2841,9007 2920,9040 2936,9047 2896,9042 2877,9040 2870,9040 2850,9038 2844,9036 2822,9034 2764,9027 2743,9021 2732,9021 2718,9016 2701,9016 2701,9016 Z M 2701,9016 L 2701,9016 2701,9016 Z"/>
	<path fill="rgb(192,192,192)" fill-opacity="0.5" stroke="black" stroke-width="20" id="svg_kanarya"        d="M 5310,10135 L 5266,10128 5258,10126 5249,10124 5187,10117 5177,10115 5174,10113 5029,10093 4999,10089 4952,10082 4932,10080 4915,10078 4880,10073 4869,10073 4818,10063 4811,10062 4790,10058 4748,10054 4695,10045 4651,10040 4642,10036 4568,10025 4545,10021 4523,10016 4488,10014 4453,10010 4444,10006 4394,9999 4389,9999 4378,9997 4374,9995 4295,9979 4286,9975 4262,9970 4257,9968 4216,9961 4185,9957 4137,9950 4104,9946 4038,9937 4027,9937 4027,9924 4035,9880 4040,9845 3925,9829 3921,9843 3899,9911 3882,9935 3848,9994 3798,10074 3760,10133 3719,10195 3618,10133 3582,10089 3585,10085 3598,10071 3616,10047 3627,10028 3638,10006 3646,9988 3650,9972 3653,9950 3655,9929 3653,9906 3651,9896 3648,9862 3642,9818 3638,9779 3629,9709 3627,9680 3624,9660 3618,9621 3616,9597 3611,9564 3609,9559 3609,9555 3611,9552 3607,9533 3604,9506 3596,9462 3587,9418 3576,9375 3569,9355 3571,9350 3572,9346 3571,9342 3567,9341 3552,9315 3550,9317 3549,9315 3495,9269 3483,9256 3481,9256 3439,9221 3437,9218 3426,9210 3417,9207 3411,9203 3405,9198 3402,9192 3371,9168 3345,9148 3321,9135 3292,9119 3268,9106 3253,9100 3248,9097 3209,9082 3149,9073 3073,9062 2936,9047 2919,9040 2840,9007 2818,8996 2817,8994 2815,8988 2817,8972 2822,8906 2828,8891 2846,8884 2850,8882 2888,8880 3002,8882 3022,8879 3035,8875 3050,8869 3057,8866 3066,8858 3117,8812 3176,8757 3229,8730 3244,8719 3257,8748 3277,8785 3317,8838 3347,8866 3383,8895 3431,8926 3479,8956 3506,8972 3527,8913 3572,8853 3596,8825 3650,8792 3782,8726 3864,8675 3921,8625 4002,8547 4084,8457 4161,8363 4269,8224 4326,8172 4387,8134 4501,8086 4618,8040 4706,8000 4818,7949 4921,7903 4966,7870 4994,7837 5001,7804 5027,7816 5038,7818 5053,7822 5062,7824 5075,7827 5082,7848 5086,7860 5088,7894 5091,7917 5100,7950 5100,7978 5095,7987 5144,8086 5172,8130 5267,8253 5335,8341 5407,8431 5453,8490 5484,8526 5495,8541 5500,8559 5504,8587 5513,8624 5528,8658 5552,8701 5588,8750 5500,8800 5458,8822 5429,8851 5414,8869 5405,8893 5401,8915 5403,8932 5405,8978 5473,9168 5480,9194 5476,9225 5476,9247 5460,9297 5451,9322 5434,9366 5429,9379 5418,9407 5414,9419 5412,9423 5401,9458 5396,9469 5379,9508 5366,9539 5363,9546 5354,9570 5359,9574 5423,9599 5387,9678 5376,9702 5365,9726 5401,9728 5390,9741 5383,9755 5372,9796 5354,9863 5333,9946 5332,9970 5332,10016 5344,10106 5350,10140 5319,10139 5310,10135 5310,10135 Z M 5310,10135 L 5310,10135 5310,10135 Z"/>
	<path fill="rgb(255,000,255)" fill-opacity="0.5" stroke="black" stroke-width="20" id="svg_kartaltepe"     d="M 7226,10463 L 7283,10467 7345,10476 7355,10468 7494,10474 7498,10487 7520,10481 7591,10463 7622,10457 7620,10439 7613,10424 7617,10424 7751,10406 7762,10404 7787,10470 7861,10454 7923,10445 8000,10432 8009,10430 8090,10413 8182,10393 8226,10386 8299,10375 8319,10369 8306,10303 8297,10259 8303,10191 8308,10151 8327,10105 8341,10061 8358,10026 8365,10004 8444,9975 8501,9942 8494,9999 8492,10014 8494,10043 8499,10070 8506,10089 8525,10125 8567,10204 8576,10342 8565,10472 8574,10520 8655,10701 8697,10865 8710,10973 8743,11054 8804,11116 8859,11175 8879,11222 8904,11318 8941,11446 9049,11784 9068,11844 9101,11921 9178,12103 9216,12191 9246,12260 9264,12299 9292,12308 9337,12306 9414,12301 9535,12292 9580,12299 9660,12332 9743,12372 9767,12394 9776,12510 9906,12754 9607,12704 9420,12649 9154,12488 9057,12383 9009,12321 8899,12110 8800,11892 8664,11707 8473,11510 8294,11398 8141,11338 8037,11301 7841,11265 7696,11261 7538,11283 7377,11314 7244,11345 7100,11419 6995,11490 6784,11633 6745,11584 6716,11530 6707,11507 6701,11479 6700,11459 6701,11437 6725,11342 6767,11208 6775,11189 6780,11164 6784,11153 6789,11142 6800,11107 6804,11092 6813,11066 6821,11041 6826,11022 6837,10986 6850,10947 6859,10918 6865,10901 6872,10876 6878,10857 6896,10791 6914,10731 6922,10707 6927,10667 6933,10667 6936,10663 6936,10654 6934,10643 6933,10637 6922,10580 6900,10534 6912,10538 6923,10536 6933,10531 7054,10531 7226,10523 7226,10463 7226,10463 Z M 7226,10463 L 7226,10463 7226,10463 Z"/>
	<path fill="rgb(128,000,000)" fill-opacity="0.5" stroke="black" stroke-width="20" id="svg_kemalpasa"      d="M 6076,11307 L 6036,11333 5869,11232 5838,11211 5830,11206 5849,11184 5852,11155 5827,11041 5814,10962 5803,10905 5786,10815 5772,10725 5830,10712 5911,10696 5946,10689 5962,10685 6017,10672 6070,10661 6100,10656 6124,10650 6171,10639 6225,10628 6237,10626 6285,10615 6337,10606 6388,10595 6430,10584 6448,10573 6485,10547 6496,10540 6560,10498 6566,10494 6632,10448 6683,10413 6757,10369 6815,10349 6839,10399 6848,10419 6861,10448 6883,10500 6900,10534 6922,10580 6933,10637 6935,10643 6936,10654 6936,10663 6933,10667 6927,10667 6922,10707 6914,10731 6896,10791 6878,10857 6872,10876 6865,10901 6859,10918 6850,10947 6837,10986 6826,11022 6821,11041 6814,11066 6804,11092 6801,11107 6790,11142 6784,11153 6780,11164 6775,11189 6768,11208 6725,11342 6702,11437 6672,11430 6524,11400 6415,11399 6208,11382 6212,11367 6223,11340 6234,11312 6236,11287 6239,11270 6241,11199 6241,11191 6186,11162 6157,11145 6153,11138 6074,11186 6127,11281 6124,11283 6113,11281 6076,11307 6076,11307 Z M 6076,11307 L 6076,11307 6076,11307 Z"/>
	<path fill="rgb(255,128,128)" fill-opacity="0.5" stroke="black" stroke-width="20" id="svg_mehmet_akif"    d="M 7501,265 L 7674,322 7998,447 8079,486 8211,555 8314,603 8384,632 8464,665 8523,685 8602,711 8659,731 8732,752 8835,775 8877,785 8919,794 8956,801 9002,808 9057,816 9119,827 9169,832 9229,836 9288,841 9356,845 9416,847 9464,847 9506,849 9488,904 9483,931 9472,975 9459,1023 9442,1074 9428,1113 9415,1148 9404,1183 9385,1230 9371,1271 9363,1300 9350,1340 9343,1370 9330,1419 9316,1482 9306,1522 9290,1582 9284,1606 9275,1639 9257,1704 9240,1757 9229,1793 9174,1970 9161,2012 9130,2107 9108,2179 9095,2221 9072,2300 9061,2333 9048,2373 9037,2408 9026,2448 9006,2511 8993,2553 8965,2643 8951,2689 8925,2777 8875,2793 8760,2764 8650,2736 8591,2729 8501,2676 8470,2657 8444,2641 8413,2610 8396,2590 8354,2590 8351,2547 8347,2534 8345,2512 8327,2478 8305,2452 8297,2439 8292,2423 8281,2406 8270,2380 8259,2357 8230,2320 8228,2307 8187,2291 8171,2278 8132,2257 8112,2235 8090,2223 8061,2173 8037,2155 8006,2136 7998,2127 7998,2118 8011,2111 8024,2081 8035,2070 8039,2063 8041,2052 8030,2034 8033,2008 8031,1981 8026,1971 8026,1947 8015,1900 8006,1876 7987,1861 7975,1848 7940,1837 7883,1801 7877,1775 7848,1751 7841,1727 7855,1704 7868,1676 7870,1612 7855,1588 7837,1568 7813,1535 7810,1515 7808,1461 7837,1408 7844,1390 7852,1344 7857,1342 7861,1337 7859,1283 7854,1278 7848,1274 7837,1271 7821,1265 7784,860 7771,825 7714,777 7591,696 7520,397 7501,265 7501,265 Z M 7501,265 L 7501,265 7501,265 Z"/>
	<path fill="rgb(000,128,000)" fill-opacity="0.5" stroke="black" stroke-width="20" id="svg_sogutlucesme"   d="M 5144,8086 L 5095,7987 5100,7978 5100,7950 5091,7917 5087,7893 5086,7860 5082,7848 5075,7827 5062,7824 5053,7822 5038,7818 5027,7816 5001,7804 5012,7748 5021,7684 5031,7631 5042,7582 5051,7536 5067,7470 5091,7396 5102,7365 5141,7277 5208,7158 5276,7066 5306,7031 5320,7013 5339,6995 5440,6872 5522,6800 5735,6611 5807,6573 5940,6486 5975,6470 6056,6424 6083,6419 6104,6408 6260,6415 6261,6479 6263,6571 6256,6593 6260,6835 6261,6932 6263,7018 6265,7139 6265,7396 6267,7525 6269,7611 6276,7895 6278,7937 6278,8005 6280,8014 6280,8130 6282,8161 6282,8220 6283,8271 6283,8288 6285,8341 6285,8444 6283,8508 6282,8546 6280,8614 6280,8629 6278,8664 6276,8686 6276,8721 6274,8750 6272,8800 6272,8829 6271,8849 6269,8902 6269,8939 6267,8959 6260,9152 6260,9219 6274,9256 6221,9225 5926,9010 5897,8985 5830,8935 5742,8869 5607,8767 5588,8750 5552,8701 5528,8658 5513,8623 5504,8587 5500,8559 5495,8541 5484,8526 5453,8490 5407,8431 5335,8341 5267,8253 5172,8130 5144,8086 5144,8086 Z M 5144,8086 L 5144,8086 5144,8086 Z"/>
	<path fill="rgb(255,000,000)" fill-opacity="0.5" stroke="black" stroke-width="20" id="svg_sultanmurat"    d="M 5612,9991 L 5610,10039 5609,10059 5607,10094 5605,10124 5603,10169 5601,10290 5601,10320 5599,10419 5596,10468 5583,10540 5586,10595 5588,10610 5592,10692 5592,10764 5629,10755 5632,10755 5671,10745 5724,10734 5748,10729 5772,10725 5786,10815 5803,10905 5814,10962 5827,11041 5853,11155 5849,11184 5831,11206 5799,11222 5788,11230 5755,11252 5730,11276 5717,11287 5711,11290 5708,11292 5676,11287 5667,11327 5664,11342 5643,11426 5570,11409 5500,11391 5506,11446 5497,11443 5438,11426 5372,11404 5286,11376 5275,11351 5249,11285 5168,11265 5115,11252 5078,11217 5076,11213 5084,11210 5100,11202 5115,11197 5139,11186 5141,11184 5141,11171 5146,11147 5146,11143 5157,11105 5175,11030 5177,11022 5179,11015 5183,11000 5190,10967 5196,10947 5198,10938 5199,10929 5209,10892 5210,10881 5210,10859 5221,10832 5232,10727 5242,10687 5258,10641 5262,10588 5254,10498 5284,10498 5282,10483 5282,10461 5286,10412 5287,10393 5293,10375 5306,10316 5284,10303 5297,10239 5317,10158 5319,10138 5350,10140 5344,10105 5331,10015 5331,9969 5333,9946 5346,9947 5574,9984 5612,9991 5612,9991 Z M 5612,9991 L 5612,9991 5612,9991 Z"/>
	<path fill="rgb(000,000,128)" fill-opacity="0.5" stroke="black" stroke-width="20" id="svg_tevfikbey"      d="M 7588,8827 L 7703,8787 7705,8785 7850,8809 7855,8767 7863,8717 7870,8666 7987,8673 7997,8677 8143,8695 8215,8730 8217,8730 8259,8748 8292,8746 8318,8724 8356,8723 8382,8761 8433,8794 8429,8866 8409,8924 8415,8996 8435,9069 8440,9120 8450,9153 8442,9267 8464,9322 8461,9401 8440,9544 8440,9590 8431,9629 8442,9814 8503,9917 8499,9940 8483,9966 8444,9975 8365,10005 8358,10027 8341,10061 8327,10105 8308,10151 8303,10192 8297,10260 8307,10304 8319,10370 8299,10375 8226,10386 8182,10393 8090,10414 8009,10430 8000,10432 7923,10445 7861,10454 7788,10471 7762,10404 7749,10406 7617,10425 7613,10425 7621,10439 7622,10458 7591,10463 7520,10482 7498,10487 7494,10474 7355,10469 7345,10476 7283,10467 7226,10463 7226,10524 7054,10531 6933,10531 6923,10537 6912,10538 6900,10535 6883,10500 6861,10449 6848,10419 6839,10399 6815,10349 6784,10280 6769,10247 6760,10232 6758,10228 6678,10039 6667,10016 6659,9997 6643,9961 6634,9937 6613,9891 6593,9845 6549,9744 6547,9737 6492,9599 6487,9586 6469,9537 6452,9474 6402,9436 6390,9419 6274,9256 6259,9219 6259,9152 6267,8959 6269,8939 6269,8902 6270,8849 6272,8829 6272,8800 6274,8750 6276,8721 6276,8686 6278,8664 6280,8629 6280,8614 6300,8616 6402,8620 6511,8620 6573,8625 6643,8623 6740,8612 6735,8592 6727,8565 6700,8453 6696,8433 6692,8416 6685,8383 6685,8356 6940,8343 7039,8343 7052,8341 7068,8341 7140,8347 7162,8347 7158,8365 7158,8376 7160,8383 7160,8389 7167,8411 7169,8420 7177,8433 7189,8455 7199,8468 7235,8504 7279,8546 7309,8576 7320,8585 7358,8618 7389,8646 7417,8668 7426,8677 7445,8691 7474,8717 7503,8745 7512,8754 7518,8759 7525,8765 7566,8803 7578,8818 7588,8827 7588,8827 Z M 7588,8827 L 7588,8827 7588,8827 Z"/>
	<path fill="rgb(128,128,000)" fill-opacity="0.5" stroke="black" stroke-width="20" id="svg_yarimburgaz"    d="M 880,33 L 1063,82 1131,106 1210,133 1351,177 1485,221 1735,276 1909,302 2006,307 2096,313 2237,313 2336,311 2351,410 2355,502 2360,594 2371,654 2375,687 2378,715 2380,737 2382,797 2380,847 2375,869 2367,898 2358,922 2340,970 2336,977 2300,1061 2290,1107 2278,1173 2261,1263 2254,1305 2246,1344 2243,1351 2230,1456 2224,1491 2215,1593 2212,1641 2212,1643 2221,1720 2226,1766 2230,1802 2234,1846 2234,1883 2232,1907 2232,1920 2230,1945 2228,1993 2226,2010 2224,2017 2210,2019 2171,2019 2173,2061 2171,2101 2171,2138 2169,2193 2169,2246 2167,2274 2169,2294 2167,2320 2166,2338 2166,2364 2213,2686 2377,3387 2377,3422 2378,3508 2378,3510 2377,3570 2377,3644 2375,3686 2378,3706 2378,3721 2384,3734 2391,3743 2399,3746 2400,3772 2624,4134 2714,4282 2707,4291 2644,4398 2608,4458 2661,4620 2705,4728 2756,4867 2760,4880 2766,4895 2784,4950 2789,4972 2795,4988 2839,5146 2865,5274 2866,5296 2868,5328 2870,5353 2872,5401 2874,5450 2877,5480 2881,5586 2885,5628 2890,5749 2890,5828 2892,5871 2888,5920 2887,5948 2888,6047 2885,6134 2885,6160 2888,6285 2888,6309 2890,6327 2890,6382 2892,6406 2892,6422 2890,6457 2888,6485 2888,6509 2887,6542 2887,6554 2885,6599 2885,6606 2883,6622 2881,6637 2876,6663 2872,6681 2868,6694 2865,6709 2861,6731 2857,6756 2852,6786 2848,6800 2833,6857 2832,6859 2725,7301 2683,7440 2613,7681 2467,8178 2498,8856 2503,9020 2501,9023 2498,9027 2494,9027 2490,9029 2489,9029 2487,9027 2468,9027 2459,9029 2454,9029 2450,9031 2448,9032 2443,9034 2435,9034 2430,9036 2424,9036 2421,9038 2419,9040 2412,9038 2408,9034 2404,9032 2404,9031 2400,9029 2399,9027 2393,9027 2388,9029 2384,9029 2384,9034 2389,9034 2389,9036 2388,9038 2388,9042 2391,9043 2391,9045 2393,9049 2393,9051 2388,9058 2386,9060 2382,9062 2377,9064 2371,9064 2366,9062 2360,9062 2355,9058 2347,9056 2338,9053 2336,9049 2333,9049 2331,9047 2327,9047 2322,9045 2316,9045 2312,9043 2311,9043 2307,9040 2305,9040 2303,9032 2303,9031 2307,9027 2309,9025 2311,9021 2312,9020 2312,9018 2300,9005 2290,8999 2287,8998 2285,8996 2267,8996 2259,8998 2254,8999 2250,9001 2243,9003 2237,9005 2234,9005 2228,9007 2223,9009 2202,9009 2197,9007 2193,9005 2190,9003 2186,9003 2175,8998 2169,8994 2155,8987 2140,8979 2123,8970 2112,8965 2100,8959 2094,8956 2081,8950 2070,8943 2067,8943 2056,8939 2052,8935 2041,8932 2032,8928 2025,8924 2015,8921 2012,8917 2004,8915 1995,8912 1982,8906 1971,8900 1968,8899 1960,8893 1946,8893 1937,8889 1920,8882 1916,8880 1913,8878 1904,8877 1896,8871 1891,8871 1887,8869 1883,8867 1882,8866 1874,8864 1869,8862 1867,8862 1860,8860 1854,8858 1850,8856 1843,8855 1837,8855 1832,8853 1828,8851 1823,8849 1817,8847 1810,8845 1779,8845 1768,8842 1757,8838 1751,8836 1746,8834 1738,8831 1731,8827 1726,8825 1724,8823 1713,8823 1707,8822 1702,8818 1696,8818 1689,8816 1683,8814 1676,8812 1669,8812 1658,8811 1650,8809 1617,8809 1612,8811 1605,8811 1597,8812 1590,8814 1582,8812 1575,8812 1566,8811 1562,8812 1557,8811 1551,8812 1542,8814 1502,8814 1491,8811 1485,8811 1474,8807 1467,8805 1463,8803 1454,8800 1449,8798 1445,8796 1441,8794 1438,8792 1436,8792 1434,8790 1430,8790 1417,8785 1412,8783 1397,8779 1394,8778 1386,8776 1384,8774 1381,8774 1373,8772 1364,8768 1357,8767 1344,8761 1335,8759 1333,8759 1331,8757 1327,8756 1326,8756 1320,8752 1317,8750 1313,8748 1311,8748 1309,8746 1304,8743 1302,8741 1298,8737 1296,8735 1291,8730 1289,8726 1289,8723 1287,8717 1285,8712 1285,8695 1283,8688 1283,8679 1282,8664 1280,8649 1280,8631 1282,8627 1282,8616 1283,8611 1285,8607 1287,8602 1289,8596 1289,8592 1293,8583 1293,8578 1291,8574 1291,8545 1289,8541 1291,8537 1291,8524 1289,8519 1287,8513 1287,8501 1285,8495 1283,8480 1282,8469 1282,8453 1283,8447 1285,8438 1285,8433 1287,8425 1287,8414 1289,8402 1291,8396 1291,8389 1294,8372 1296,8367 1296,8363 1298,8359 1300,8356 1304,8352 1305,8348 1307,8345 1307,8334 1305,8334 1305,8328 1307,8326 1309,8326 1309,8328 1311,8326 1315,8317 1317,8314 1318,8314 1320,8310 1327,8303 1329,8297 1333,8292 1337,8288 1337,8282 1340,8279 1340,8275 1342,8271 1344,8269 1344,8266 1350,8260 1353,8255 1355,8253 1357,8249 1359,8244 1362,8240 1362,8237 1364,8233 1366,8227 1372,8216 1373,8213 1373,8209 1375,8203 1373,8200 1373,8169 1375,8165 1375,8158 1377,8154 1379,8150 1381,8148 1381,8134 1383,8130 1386,8126 1388,8121 1388,8115 1390,8112 1390,8108 1392,8106 1394,8103 1394,8084 1395,8081 1397,8071 1397,8060 1399,8057 1401,8055 1401,8051 1399,8048 1397,8044 1395,8042 1394,8040 1394,8038 1395,8037 1397,8037 1399,8035 1401,8033 1403,8024 1403,8018 1405,8015 1405,8011 1408,8004 1408,7994 1410,7983 1410,7934 1408,7926 1406,7923 1406,7921 1405,7917 1403,7916 1401,7905 1392,7886 1384,7870 1381,7860 1377,7851 1375,7842 1373,7840 1373,7837 1370,7827 1368,7820 1368,7813 1364,7804 1362,7793 1361,7783 1359,7776 1361,7756 1362,7741 1364,7712 1364,7703 1366,7675 1366,7618 1362,7607 1361,7594 1357,7589 1353,7572 1350,7572 1344,7567 1340,7556 1342,7550 1342,7541 1340,7523 1337,7517 1333,7510 1335,7503 1331,7497 1327,7490 1318,7466 1313,7459 1311,7451 1309,7444 1298,7428 1294,7420 1291,7411 1291,7406 1287,7398 1283,7395 1278,7384 1272,7376 1271,7367 1272,7354 1271,7341 1271,7332 1267,7327 1261,7316 1260,7303 1256,7288 1258,7274 1260,7268 1260,7264 1258,7259 1254,7253 1256,7242 1258,7235 1258,7228 1256,7220 1249,7206 1247,7187 1249,7167 1250,7158 1247,7143 1243,7141 1241,7138 1232,7125 1223,7101 1216,7083 1203,7064 1197,7061 1192,7055 1186,7042 1184,7030 1184,6960 1183,6929 1184,6892 1183,6874 1179,6855 1173,6811 1166,6775 1166,6747 1162,6734 1162,6727 1161,6727 1162,6725 1161,6723 1161,6721 1159,6718 1159,6716 1157,6712 1157,6707 1155,6705 1155,6701 1153,6699 1153,6698 1151,6696 1151,6694 1150,6692 1150,6683 1148,6681 1148,6674 1150,6674 1148,6670 1148,6637 1146,6637 1146,6632 1144,6630 1144,6626 1142,6626 1142,6624 1140,6621 1140,6617 1142,6615 1142,6613 1144,6613 1144,6600 1146,6599 1146,6591 1148,6589 1148,6582 1150,6580 1150,6571 1151,6569 1151,6547 1153,6545 1153,6540 1155,6536 1155,6529 1157,6527 1157,6525 1159,6523 1159,6518 1161,6516 1161,6510 1162,6509 1162,6503 1164,6501 1164,6499 1166,6498 1166,6496 1168,6494 1168,6492 1170,6490 1170,6488 1172,6487 1172,6483 1173,6483 1173,6477 1175,6476 1175,6474 1177,6472 1175,6470 1175,6468 1177,6466 1177,6465 1179,6461 1181,6459 1181,6457 1183,6455 1184,6454 1186,6454 1188,6450 1190,6446 1192,6444 1192,6443 1194,6443 1194,6441 1195,6439 1195,6437 1197,6433 1199,6432 1201,6428 1203,6426 1205,6424 1205,6422 1206,6417 1206,6415 1208,6415 1208,6411 1210,6410 1210,6406 1212,6406 1212,6404 1214,6400 1214,6375 1212,6371 1212,6369 1210,6367 1210,6364 1208,6362 1208,6353 1206,6351 1206,6344 1205,6340 1205,6338 1203,6333 1201,6329 1199,6327 1199,6325 1197,6323 1195,6320 1195,6318 1194,6316 1194,6314 1188,6309 1188,6307 1184,6305 1184,6303 1183,6303 1183,6301 1179,6300 1175,6300 1175,6298 1172,6296 1168,6294 1166,6292 1162,6292 1161,6290 1159,6290 1157,6287 1155,6287 1153,6283 1151,6281 1150,6278 1148,6276 1148,6274 1146,6274 1146,6272 1144,6270 1144,6268 1142,6268 1142,6267 1140,6265 1140,6248 1139,6246 1139,6233 1140,6232 1140,6224 1142,6223 1142,6206 1140,6204 1140,6193 1142,6191 1142,6188 1144,6184 1144,6178 1146,6177 1146,6167 1148,6166 1148,6158 1150,6155 1150,6149 1151,6145 1151,6142 1153,6138 1155,6136 1155,6133 1157,6129 1157,6127 1159,6125 1159,6123 1161,6120 1162,6116 1164,6114 1166,6111 1168,6109 1168,6103 1166,6101 1166,6087 1168,6083 1170,6081 1172,6076 1172,6074 1173,6070 1175,6068 1179,6065 1179,6061 1181,6059 1181,6056 1183,6054 1183,6043 1181,6041 1181,6030 1179,6028 1179,6017 1177,6014 1177,6010 1175,6008 1175,6004 1173,6003 1172,6001 1172,5999 1170,5997 1170,5979 1172,5977 1172,5971 1173,5971 1173,5964 1172,5962 1172,5957 1170,5955 1170,5951 1168,5949 1168,5948 1166,5946 1157,5949 1157,5948 1164,5946 1162,5942 1170,5940 1170,5937 1168,5933 1168,5931 1166,5929 1166,5927 1164,5926 1164,5924 1162,5922 1162,5916 1161,5916 1161,5915 1159,5915 1157,5913 1157,5911 1155,5909 1155,5907 1153,5905 1151,5905 1150,5902 1144,5896 1142,5896 1140,5893 1139,5893 1137,5891 1135,5889 1133,5887 1131,5887 1129,5885 1128,5883 1126,5883 1124,5882 1122,5880 1120,5880 1120,5878 1118,5878 1117,5876 1117,5874 1115,5874 1115,5872 1113,5871 1111,5871 1111,5869 1107,5865 1107,5863 1106,5863 1104,5861 1104,5860 1102,5860 1098,5856 1098,5854 1096,5852 1095,5850 1089,5852 1089,5850 1087,5849 1087,5832 1085,5830 1085,5823 1084,5821 1084,5815 1082,5812 1080,5808 1080,5804 1078,5803 1078,5801 1076,5801 1074,5797 1072,5795 1069,5792 1067,5792 1067,5790 1065,5788 1063,5786 1063,5784 1061,5781 1061,5777 1060,5775 1060,5764 1061,5762 1061,5755 1063,5753 1063,5749 1065,5748 1067,5744 1067,5742 1069,5738 1071,5738 1072,5735 1072,5733 1074,5733 1076,5729 1078,5726 1078,5722 1080,5718 1080,5715 1082,5713 1082,5707 1084,5705 1084,5700 1085,5698 1085,5693 1087,5689 1087,5685 1089,5685 1089,5672 1091,5671 1091,5667 1093,5665 1093,5663 1095,5663 1095,5658 1096,5658 1096,5649 1098,5647 1098,5645 1100,5643 1100,5641 1102,5638 1102,5632 1104,5630 1104,5627 1106,5627 1106,5621 1107,5617 1107,5614 1109,5612 1113,5605 1115,5601 1117,5597 1117,5594 1120,5590 1122,5590 1122,5584 1124,5583 1124,5579 1126,5577 1126,5575 1128,5573 1128,5570 1129,5566 1131,5564 1131,5559 1133,5557 1133,5555 1135,5553 1137,5548 1137,5546 1139,5544 1139,5542 1140,5539 1142,5535 1144,5531 1146,5531 1148,5528 1148,5526 1150,5524 1153,5517 1153,5515 1155,5515 1155,5513 1157,5511 1159,5507 1159,5506 1161,5504 1161,5502 1162,5502 1162,5498 1164,5496 1164,5494 1166,5493 1166,5491 1168,5489 1168,5487 1170,5485 1170,5483 1172,5482 1172,5480 1173,5480 1173,5478 1175,5474 1175,5472 1177,5471 1177,5467 1179,5465 1179,5445 1181,5443 1181,5432 1183,5430 1183,5428 1184,5427 1184,5425 1186,5421 1188,5419 1188,5414 1192,5410 1192,5406 1194,5405 1194,5399 1195,5397 1195,5388 1197,5388 1197,5386 1199,5384 1199,5381 1201,5379 1203,5375 1203,5373 1205,5372 1205,5370 1206,5368 1206,5366 1208,5366 1210,5364 1210,5362 1212,5362 1212,5361 1214,5359 1216,5359 1217,5355 1219,5353 1219,5351 1221,5351 1223,5350 1223,5346 1225,5344 1227,5344 1227,5340 1228,5339 1230,5337 1232,5335 1234,5333 1234,5331 1236,5329 1236,5324 1239,5322 1239,5320 1241,5318 1241,5317 1243,5317 1243,5315 1245,5315 1247,5313 1247,5311 1249,5311 1250,5307 1252,5306 1254,5304 1256,5302 1258,5300 1260,5300 1260,5298 1261,5298 1263,5296 1265,5295 1265,5293 1267,5291 1267,5289 1269,5289 1271,5287 1271,5285 1272,5285 1272,5282 1274,5282 1276,5280 1278,5278 1278,5276 1276,5276 1276,5274 1278,5273 1282,5273 1282,5265 1280,5265 1280,5262 1282,5260 1282,5258 1283,5258 1283,5249 1285,5247 1287,5247 1287,5245 1291,5243 1291,5241 1289,5240 1289,5234 1291,5234 1291,5232 1293,5230 1293,5219 1294,5218 1296,5216 1298,5216 1300,5212 1302,5210 1302,5199 1304,5199 1304,5194 1307,5194 1309,5192 1313,5190 1315,5190 1317,5188 1317,5185 1318,5183 1318,5181 1320,5181 1320,5179 1322,5177 1324,5177 1324,5175 1326,5174 1327,5172 1327,5166 1326,5164 1324,5164 1320,5166 1315,5166 1311,5168 1305,5168 1304,5170 1302,5170 1302,5168 1300,5166 1298,5166 1298,5161 1300,5159 1304,5159 1304,5157 1305,5155 1305,5151 1307,5150 1305,5148 1304,5150 1302,5150 1300,5148 1298,5150 1296,5150 1296,5151 1294,5153 1287,5153 1287,5155 1282,5155 1280,5153 1278,5151 1278,5150 1276,5150 1276,5139 1278,5135 1278,5133 1280,5131 1282,5129 1283,5129 1283,5128 1287,5128 1289,5126 1287,5124 1287,5115 1289,5113 1289,5111 1293,5107 1294,5106 1296,5106 1300,5104 1304,5104 1305,5102 1305,5100 1304,5098 1304,5093 1305,5091 1307,5089 1307,5087 1309,5087 1311,5085 1313,5085 1313,5080 1311,5080 1311,5063 1309,5060 1311,5054 1309,5052 1307,5051 1307,5047 1309,5047 1309,5041 1313,5040 1313,5036 1315,5034 1315,5029 1313,5029 1313,5025 1317,5021 1318,5021 1322,5018 1324,5018 1324,5016 1326,5016 1329,5012 1329,5010 1331,5010 1333,5007 1335,5005 1335,5003 1337,5001 1338,4997 1340,4996 1340,4994 1338,4990 1340,4988 1342,4986 1346,4983 1346,4979 1350,4975 1348,4974 1342,4974 1340,4972 1335,4972 1333,4970 1329,4970 1329,4968 1327,4968 1327,4964 1329,4963 1327,4961 1327,4952 1329,4952 1329,4950 1331,4948 1331,4944 1327,4944 1327,4942 1329,4939 1329,4935 1333,4935 1335,4933 1337,4931 1337,4924 1338,4922 1338,4920 1340,4920 1340,4919 1344,4915 1344,4908 1346,4906 1348,4906 1350,4904 1353,4902 1355,4900 1355,4897 1353,4895 1350,4895 1351,4893 1353,4891 1355,4889 1357,4889 1357,4882 1355,4882 1353,4880 1355,4878 1355,4875 1357,4875 1359,4873 1359,4871 1361,4871 1361,4869 1362,4865 1366,4864 1368,4862 1368,4856 1366,4854 1366,4851 1364,4849 1364,4845 1366,4842 1368,4840 1364,4832 1362,4829 1361,4823 1359,4821 1359,4820 1357,4816 1357,4812 1355,4810 1357,4808 1359,4808 1359,4805 1357,4805 1357,4799 1355,4799 1355,4796 1353,4794 1344,4794 1344,4792 1342,4790 1340,4788 1342,4786 1342,4785 1340,4783 1340,4781 1338,4781 1338,4779 1337,4775 1337,4774 1333,4770 1329,4766 1327,4764 1327,4761 1326,4755 1326,4735 1327,4731 1327,4719 1329,4717 1329,4713 1331,4711 1331,4709 1333,4708 1333,4706 1335,4704 1335,4702 1337,4700 1338,4698 1338,4697 1340,4697 1342,4695 1344,4693 1353,4693 1353,4691 1355,4689 1357,4689 1359,4691 1362,4695 1362,4697 1366,4697 1368,4698 1372,4698 1373,4697 1373,4693 1372,4689 1372,4682 1370,4676 1368,4675 1368,4673 1366,4671 1368,4667 1366,4665 1368,4664 1370,4662 1370,4660 1368,4658 1362,4654 1361,4653 1359,4653 1351,4649 1350,4649 1348,4647 1346,4647 1344,4645 1338,4645 1338,4643 1337,4642 1337,4640 1335,4638 1335,4631 1337,4629 1338,4627 1338,4625 1340,4625 1342,4623 1344,4621 1361,4621 1362,4620 1364,4618 1364,4616 1366,4614 1366,4612 1364,4610 1364,4598 1362,4596 1362,4594 1361,4592 1361,4588 1359,4587 1357,4585 1355,4583 1355,4581 1351,4577 1351,4576 1348,4572 1346,4570 1346,4565 1344,4563 1344,4559 1346,4557 1346,4546 1348,4544 1348,4541 1350,4539 1350,4537 1351,4535 1351,4533 1353,4532 1355,4528 1357,4526 1357,4524 1359,4522 1362,4521 1366,4519 1368,4519 1368,4517 1372,4517 1375,4515 1381,4515 1383,4513 1386,4513 1397,4510 1401,4508 1403,4506 1406,4504 1410,4500 1412,4497 1414,4497 1414,4493 1416,4491 1416,4489 1417,4487 1419,4486 1436,4475 1458,4462 1476,4447 1487,4438 1511,4420 1533,4403 1537,4396 1542,4388 1542,4387 1546,4383 1546,4379 1549,4374 1549,4370 1551,4361 1551,4354 1549,4341 1548,4332 1546,4328 1548,4317 1548,4310 1549,4304 1551,4300 1555,4297 1557,4293 1559,4291 1560,4289 1560,4280 1562,4269 1568,4258 1570,4253 1573,4245 1584,4234 1586,4233 1590,4227 1592,4225 1594,4220 1595,4214 1597,4209 1601,4201 1601,4187 1599,4183 1597,4181 1597,4179 1595,4176 1595,4130 1597,4122 1597,4115 1599,4110 1603,4104 1603,4088 1601,4080 1601,4064 1599,4058 1599,4056 1601,4051 1606,4047 1606,4044 1608,4040 1610,4036 1612,4034 1612,4020 1614,4009 1614,4003 1616,3996 1616,3992 1619,3989 1621,3985 1625,3983 1628,3976 1630,3974 1630,3970 1628,3961 1625,3946 1621,3937 1616,3930 1605,3919 1599,3912 1597,3908 1595,3902 1595,3899 1594,3897 1590,3895 1586,3890 1582,3884 1581,3882 1579,3879 1579,3871 1581,3866 1584,3860 1586,3855 1588,3853 1592,3849 1594,3846 1594,3838 1592,3835 1590,3833 1586,3833 1571,3836 1562,3842 1555,3844 1515,3844 1509,3847 1505,3847 1500,3849 1496,3847 1494,3847 1493,3846 1487,3842 1485,3838 1482,3835 1478,3827 1476,3822 1474,3818 1463,3807 1460,3805 1458,3803 1454,3803 1450,3801 1449,3801 1447,3800 1445,3800 1443,3798 1441,3798 1439,3796 1438,3794 1436,3789 1436,3783 1434,3778 1434,3774 1432,3770 1427,3761 1416,3745 1410,3739 1403,3728 1390,3713 1384,3706 1383,3702 1379,3699 1377,3695 1373,3686 1370,3675 1368,3671 1361,3642 1355,3622 1351,3613 1351,3602 1353,3596 1355,3591 1359,3587 1361,3585 1361,3583 1346,3552 1335,3528 1335,3525 1353,3495 1350,3493 1350,3491 1351,3488 1351,3486 1353,3482 1355,3480 1357,3477 1359,3473 1361,3471 1362,3468 1362,3464 1366,3449 1368,3438 1372,3429 1368,3422 1364,3416 1364,3411 1350,3392 1335,3380 1327,3376 1326,3367 1324,3354 1322,3347 1324,3343 1320,3337 1311,3334 1304,3328 1304,3317 1302,3303 1294,3293 1294,3292 1291,3282 1289,3271 1287,3266 1283,3260 1283,3255 1280,3251 1271,3244 1252,3231 1238,3226 1227,3224 1217,3220 1199,3218 1192,3215 1186,3209 1183,3211 1179,3213 1175,3215 1170,3211 1166,3204 1155,3196 1137,3187 1135,3185 1133,3185 1129,3180 1135,3176 1144,3172 1137,3163 1131,3160 1128,3163 1113,3154 1115,3148 1104,3139 1100,3137 1095,3136 1087,3130 1082,3126 1074,3117 1071,3116 1065,3114 1063,3112 1050,3105 1043,3103 1038,3099 1030,3092 1027,3090 1023,3086 1021,3086 1016,3092 1012,3096 999,3086 995,3083 995,3081 994,3077 992,3075 992,3072 990,3070 984,3070 984,3066 983,3064 970,3053 961,3044 957,3042 955,3042 953,3040 951,3040 951,3037 948,3035 939,3029 935,3026 931,3024 928,3020 918,3020 917,3018 915,3015 915,3013 911,3011 909,3007 909,3004 907,3000 904,2996 900,2995 896,2991 895,2991 889,2985 884,2989 882,2987 889,2980 884,2974 880,2974 884,2971 885,2969 884,2962 880,2958 874,2954 871,2951 867,2949 863,2947 860,2945 858,2943 845,2930 841,2932 834,2925 838,2921 832,2914 834,2914 829,2910 821,2903 818,2901 814,2903 803,2890 801,2892 795,2896 792,2897 786,2899 783,2903 781,2905 777,2905 772,2908 762,2908 761,2905 761,2903 757,2896 744,2866 742,2861 742,2853 744,2852 722,2793 720,2786 717,2780 717,2769 715,2765 715,2762 717,2758 718,2756 717,2754 715,2745 711,2736 709,2727 709,2723 704,2723 702,2718 700,2718 700,2719 698,2719 696,2718 695,2718 691,2705 695,2703 695,2699 696,2696 700,2692 707,2692 709,2690 711,2683 711,2677 709,2674 709,2668 706,2663 696,2659 693,2659 689,2661 687,2664 684,2666 680,2664 678,2663 676,2663 676,2659 678,2657 680,2655 682,2655 685,2653 685,2652 687,2650 687,2648 689,2646 693,2646 695,2648 696,2648 698,2650 702,2650 704,2652 707,2650 711,2648 713,2644 715,2641 715,2619 718,2604 722,2593 724,2589 724,2582 726,2575 726,2571 728,2567 735,2564 737,2562 739,2556 739,2543 740,2542 742,2538 742,2531 746,2529 746,2527 744,2525 740,2523 735,2523 731,2521 729,2518 729,2509 731,2505 733,2499 733,2496 737,2492 739,2492 744,2487 748,2485 755,2485 759,2487 759,2488 761,2490 762,2490 764,2487 764,2481 761,2474 757,2470 753,2466 750,2465 748,2461 746,2457 748,2455 751,2452 755,2450 759,2450 761,2448 762,2444 764,2441 764,2435 762,2433 759,2432 753,2432 751,2428 753,2422 755,2419 762,2419 768,2422 772,2420 772,2419 770,2415 768,2411 768,2408 772,2404 781,2404 784,2406 788,2406 792,2408 795,2408 797,2400 797,2395 799,2391 797,2391 801,2371 803,2358 810,2347 808,2347 812,2329 812,2327 810,2325 810,2323 794,2320 794,2318 810,2321 808,2318 808,2310 810,2309 823,2309 825,2305 825,2294 834,2268 803,2255 803,2254 807,2254 807,2257 834,2266 843,2246 854,2221 849,2219 849,2217 854,2211 852,2210 852,2206 851,2204 851,2202 849,2199 847,2199 843,2195 845,2193 847,2191 849,2191 849,2189 851,2188 854,2184 856,2182 858,2178 836,2169 836,2171 829,2167 829,2166 860,2177 858,2175 860,2173 858,2171 856,2171 854,2169 854,2162 856,2158 854,2156 854,2136 856,2112 856,2101 854,2100 856,2092 856,2089 858,2085 860,2081 860,2074 862,2065 862,2059 863,2055 860,2052 858,2052 856,2054 854,2055 854,2057 852,2059 851,2059 847,2057 845,2055 843,2054 840,2054 838,2052 832,2048 830,2045 827,2045 825,2043 823,2041 823,2035 821,2032 818,2030 814,2026 812,2022 808,2021 807,2017 807,2010 803,2006 803,1986 805,1982 805,1971 801,1964 801,1960 803,1956 807,1951 808,1951 812,1949 818,1947 823,1947 825,1944 827,1942 830,1940 838,1940 840,1938 838,1936 834,1934 832,1934 830,1933 827,1931 823,1927 819,1922 812,1914 812,1907 814,1905 814,1903 816,1901 819,1900 819,1896 818,1887 818,1876 819,1874 821,1870 823,1868 819,1865 819,1863 823,1861 823,1857 829,1857 830,1856 830,1854 829,1852 825,1852 825,1850 827,1846 829,1845 830,1845 836,1839 841,1841 849,1843 849,1839 838,1828 836,1826 836,1817 838,1815 840,1812 841,1810 840,1810 840,1808 836,1808 836,1788 838,1786 840,1780 841,1779 843,1775 845,1773 847,1771 847,1769 843,1766 843,1755 845,1753 847,1751 843,1749 843,1746 845,1742 849,1738 851,1733 856,1727 856,1723 851,1716 849,1716 849,1714 847,1712 849,1709 849,1696 851,1694 851,1687 849,1683 849,1678 851,1674 849,1670 849,1661 843,1659 840,1657 843,1652 845,1650 845,1645 847,1645 849,1643 852,1643 854,1641 852,1637 852,1626 851,1624 849,1623 847,1624 845,1626 841,1628 840,1626 838,1624 836,1623 836,1621 834,1621 830,1617 830,1604 829,1601 830,1597 830,1586 832,1582 834,1582 840,1580 843,1573 843,1558 845,1557 851,1555 852,1553 856,1551 858,1546 860,1540 860,1518 856,1514 854,1509 854,1503 856,1498 856,1492 858,1489 860,1489 862,1487 867,1485 871,1481 871,1480 869,1476 865,1474 860,1472 852,1472 851,1474 852,1476 854,1480 852,1487 852,1489 849,1494 845,1498 838,1502 834,1502 830,1503 827,1505 823,1505 821,1503 818,1502 816,1500 816,1503 812,1507 808,1509 803,1513 797,1514 790,1516 788,1516 784,1514 779,1514 779,1520 777,1522 773,1524 770,1527 768,1527 761,1529 755,1533 751,1533 746,1531 744,1529 740,1531 737,1535 735,1536 729,1536 728,1538 726,1535 726,1529 722,1529 720,1533 718,1535 717,1535 704,1536 704,1540 706,1549 704,1553 702,1557 700,1558 696,1560 693,1562 687,1560 680,1560 678,1558 674,1558 669,1557 669,1555 667,1553 667,1557 671,1562 671,1568 669,1571 667,1573 667,1575 665,1579 663,1580 665,1584 667,1586 663,1595 663,1599 660,1601 660,1602 658,1606 656,1610 651,1617 649,1621 645,1626 638,1628 630,1624 629,1621 627,1619 625,1619 623,1621 623,1628 621,1632 619,1634 616,1635 614,1635 610,1634 608,1632 607,1630 605,1632 605,1635 603,1637 597,1637 594,1635 590,1634 588,1630 588,1626 579,1626 575,1628 572,1628 572,1623 564,1623 562,1624 564,1628 564,1637 562,1639 561,1646 559,1650 557,1654 557,1667 559,1670 559,1676 557,1681 551,1685 550,1687 548,1689 550,1690 550,1692 548,1696 546,1698 544,1701 544,1703 542,1705 539,1709 533,1712 529,1718 528,1723 526,1729 524,1733 520,1736 517,1740 507,1740 504,1738 500,1738 496,1736 495,1735 495,1729 493,1727 489,1731 487,1729 485,1731 484,1733 482,1735 480,1736 480,1738 484,1742 489,1744 495,1742 498,1742 502,1744 506,1744 511,1746 511,1749 507,1755 507,1758 502,1766 498,1768 496,1769 489,1771 487,1775 485,1779 484,1784 482,1793 480,1799 474,1802 473,1806 469,1812 465,1817 462,1817 462,1823 458,1824 456,1823 452,1824 449,1826 447,1826 447,1830 445,1834 441,1837 430,1841 423,1841 414,1839 416,1841 416,1843 418,1845 418,1846 416,1848 414,1852 414,1854 412,1856 412,1859 410,1861 408,1863 405,1865 397,1863 375,1863 374,1861 372,1859 370,1859 370,1861 368,1861 368,1863 357,1863 353,1861 353,1857 352,1856 344,1856 342,1859 339,1859 335,1857 328,1854 326,1850 320,1848 317,1848 311,1846 309,1846 304,1843 304,1841 302,1837 280,1837 278,1835 276,1832 276,1830 278,1828 276,1826 274,1828 273,1828 274,1824 273,1823 271,1821 273,1819 273,1815 271,1812 269,1810 269,1812 267,1812 265,1810 262,1813 262,1815 258,1815 254,1813 251,1815 249,1815 247,1813 245,1813 245,1815 243,1817 241,1817 240,1819 240,1821 238,1821 236,1819 236,1815 234,1815 232,1817 232,1821 230,1821 229,1824 225,1826 223,1828 225,1830 223,1830 219,1832 216,1830 216,1828 214,1826 210,1826 205,1823 199,1817 199,1815 201,1815 203,1813 201,1812 199,1812 199,1808 192,1804 192,1802 190,1801 186,1801 185,1799 183,1797 183,1790 179,1790 175,1791 172,1793 170,1795 168,1801 168,1810 170,1813 170,1815 166,1819 168,1821 170,1821 172,1824 170,1830 166,1837 164,1839 163,1841 161,1845 161,1846 159,1848 157,1850 155,1848 152,1848 150,1846 144,1846 141,1845 135,1841 133,1841 133,1843 135,1848 135,1852 133,1856 131,1859 128,1863 124,1865 120,1867 117,1868 115,1872 113,1874 111,1876 108,1876 108,1878 104,1879 102,1879 100,1881 97,1883 93,1887 88,1889 84,1889 82,1890 80,1889 78,1885 78,1881 77,1879 73,1881 71,1881 69,1883 64,1883 60,1885 58,1887 51,1892 47,1894 40,1896 33,1896 29,1894 14,1887 86,1613 223,1217 267,1151 339,898 456,777 526,645 572,605 673,546 773,520 781,498 783,487 786,476 799,423 829,315 819,179 772,36 764,14 779,14 880,33 880,33 Z M 880,33 L 880,33 880,33 Z"/>
	<path fill="rgb(064,064,064)" fill-opacity="0.5" stroke="black" stroke-width="20" id="svg_yenimahalle"    d="M 4822,11499 L 4717,11587 4686,11615 4587,11698 4552,11729 4545,11738 4534,11747 4512,11767 4495,11780 4488,11787 4480,11793 4468,11804 4455,11813 4427,11837 4416,11844 4394,11875 4350,11945 4308,12005 4260,12079 4255,12090 4238,12116 4213,12150 4181,12198 4132,12272 4121,12294 4101,12321 4064,12369 4055,12383 4013,12433 3991,12449 3967,12470 3950,12484 3930,12504 3914,12523 3875,12565 3866,12576 3837,12613 3826,12629 3807,12649 3798,12655 3796,12659 3789,12662 3785,12664 3767,12664 3761,12662 3752,12660 3747,12657 3745,12655 3741,12653 3738,12646 3727,12631 3717,12616 3705,12598 3699,12593 3690,12581 3679,12569 3672,12561 3662,12558 3651,12554 3640,12548 3629,12547 3596,12537 3567,12530 3552,12525 3545,12523 3538,12519 3512,12504 3495,12495 3473,12488 3453,12482 3442,12481 3404,12479 3358,12484 3345,12484 3325,12488 3306,12490 3248,12400 3253,12367 3253,12349 3262,12334 3283,12314 3317,12284 3327,12279 3332,12273 3345,12266 3360,12251 3387,12227 3448,12172 3461,12161 3462,12160 3473,12147 3539,12070 3602,11996 3604,11991 3613,11972 3620,11963 3635,11938 3659,11890 3673,11864 3684,11852 3694,11842 3738,11802 3749,11787 3763,11773 3780,11762 3793,11751 3813,11734 3850,11703 3901,11659 3919,11639 3941,11624 3972,11600 4042,11545 4058,11532 4143,11466 4227,11402 4236,11397 4299,11349 4379,11283 4431,11243 4464,11215 4535,11156 4567,11131 4579,11121 4585,11118 4594,11116 4629,11090 4660,11076 4697,11061 4759,11035 4767,11033 4781,11026 4796,11019 4814,11011 4827,11006 4853,10997 4877,10988 4950,10958 5011,10933 5018,10931 5038,10922 5058,10916 5168,10872 5190,10865 5209,10859 5211,10859 5211,10881 5209,10892 5200,10929 5196,10947 5190,10967 5183,11000 5179,11015 5178,11022 5176,11030 5157,11105 5146,11144 5146,11147 5141,11171 5141,11184 5139,11186 5115,11197 5100,11202 5084,11210 5077,11213 5078,11217 5115,11252 5071,11296 5062,11303 5020,11343 4987,11373 4968,11391 4928,11430 4912,11444 4891,11450 4875,11457 4822,11499 4822,11499 Z M 4822,11499 L 4822,11499 4822,11499 Z"/>
	<path fill="rgb(128,128,128)" fill-opacity="0.5" stroke="black" stroke-width="20" id="svg_yesilova"       d="M 5286,11376 L 5317,11446 5319,11459 5354,11600 5365,11657 5388,11763 5410,11870 5418,11906 5438,11994 5453,12062 5464,12112 5473,12161 5482,12196 5493,12246 5513,12345 5532,12427 5594,12427 5632,12425 5623,12493 5623,12515 5621,12578 5621,12596 5629,12640 5634,12679 5644,12717 5653,12774 5653,12778 5662,12831 5667,12862 5673,12882 5675,12902 5688,12978 5691,13056 5710,13128 5724,13200 5743,13289 5759,13346 5623,13414 5535,13458 5432,13504 5229,13572 5102,13603 4904,13642 4904,13557 4899,13425 4900,13387 4900,13341 4895,13293 4884,13229 4864,13163 4840,13091 4834,13071 4823,13033 4816,13007 4814,12996 4818,12972 4827,12948 4849,12877 4855,12864 4871,12822 4884,12798 4915,12735 4924,12713 4932,12702 4926,12688 4915,12589 4911,12534 4902,12453 5012,12446 5067,12444 5062,12416 5055,12392 5044,12358 5038,12339 5033,12336 5027,12328 5025,12326 5025,12324 5022,12302 5007,12238 5003,12229 4989,12172 4985,12161 4970,12088 4965,12077 4965,12062 4950,12009 4937,11958 4926,11916 4915,11881 4913,11872 4904,11837 4897,11806 4893,11784 4889,11769 4888,11756 4880,11727 4866,11674 4862,11655 4849,11598 4836,11554 4827,11521 4822,11499 4875,11457 4891,11450 4911,11444 4928,11430 4968,11391 4987,11373 5020,11343 5062,11303 5071,11296 5115,11252 5168,11264 5249,11285 5275,11351 5286,11376 5286,11376 Z M 5286,11376 L 5286,11376 5286,11376 Z"/>
</svg>
