<?xml version="1.0" encoding="UTF-8"?>

<svg version="1.2" baseProfile="tiny" width="110mm" height="150.37mm" viewBox="0 0 11000 15037" preserveAspectRatio="xMidYMid" fill-rule="evenodd" stroke-width="28.222" stroke-linejoin="round" xmlns="http://www.w3.org/2000/svg" xmlns:ooo="http://xml.openoffice.org/svg/export" xmlns:xlink="http://www.w3.org/1999/xlink" xml:space="preserve">
       <path fill="rgb(128,255,255)" stroke="none" d="M 2268,2516 L 2196,2198 2194,2172 2193,2154 2193,2127 2190,2108 2190,2080 2186,2027 2184,1972 2181,1935 2180,1895 2174,1853 2213,1850 2227,1847 2229,1840 2229,1823 2228,1776 2228,1750 2227,1737 2226,1713 2223,1677 2217,1632 2210,1597 2201,1551 2185,1475 2185,1473 2186,1425 2187,1323 2190,1287 2195,1182 2197,1174 2202,1135 2206,1092 2215,1002 2223,935 2229,888 2259,802 2262,794 2277,745 2284,720 2290,691 2293,669 2291,619 2284,559 2281,537 2276,509 2269,477 2254,418 2241,326 2230,235 2208,138 2292,126 2426,99 2505,82 2620,55 2741,25 2827,4 2908,-14 2986,-31 3048,-42 3108,-53 3173,-62 3261,-72 3345,-80 3431,-87 3504,-89 3581,-90 3659,-88 3734,-86 3803,-82 3912,-74 4018,-66 4095,-61 4180,-54 4277,-51 4368,-47 4501,-46 4622,-46 4734,-51 4826,-56 4924,-63 5021,-73 5132,-86 5240,-101 5314,-113 5408,-129 5501,-147 5579,-162 5668,-184 5772,-208 5847,-229 5851,-203 5857,-106 5858,-88 5844,42 5847,75 5851,110 5851,152 5852,221 5856,284 5855,304 5855,330 5854,386 5854,459 5856,483 5880,485 5902,486 5921,491 5941,496 6025,525 6053,465 6069,468 6076,470 6091,472 6109,474 6122,469 6125,455 6122,422 6162,398 6213,389 6313,372 6406,354 6417,351 6429,353 6545,417 6580,434 6591,439 6681,638 6724,729 6779,815 6792,832 6808,851 6834,902 6850,966 6858,1040 6879,1112 6881,1136 6879,1147 6881,1167 6880,1191 6887,1244 6894,1325 6897,1370 6903,1416 6906,1452 6910,1480 6912,1511 6916,1530 6922,1561 6929,1594 6936,1621 6945,1654 6958,1706 6983,1766 6992,1802 6996,1831 7003,1892 7011,2002 7019,2091 7021,2137 7019,2153 7015,2181 7023,2180 7061,2186 7084,2189 7110,2189 7125,2185 7181,2170 7242,2155 7263,2152 7290,2152 7315,2160 7392,2187 7425,2197 7470,2206 7538,2251 7585,2289 7648,2338 7698,2375 7767,2414 7853,2454 7903,2474 7976,2500 8038,2536 8094,2577 8148,2614 8235,2665 8299,2702 8340,2730 8394,2770 8437,2799 8478,2827 8528,2854 8584,2891 8584,2918 8583,2954 8581,2991 8567,3041 8558,3063 8555,3066 8554,3070 8537,3092 8515,3110 8472,3136 8405,3150 8223,3184 8169,3195 8137,3213 8107,3228 8067,3249 8044,3264 8029,3267 8024,3270 7951,3266 7909,3265 7766,3261 7728,3261 7727,3218 7731,3130 7721,3130 7554,3130 7331,3127 7333,3136 7341,3164 7347,3234 7344,3344 7338,3603 7337,3620 7338,3638 7338,3664 7335,3678 7327,3691 7323,3699 7310,3709 7294,3719 7261,3730 7224,3746 7188,3760 7169,3768 7156,3774 7134,3775 7108,3770 7091,3763 7089,3763 7083,3843 7080,3868 7077,3912 7068,3994 7056,4021 7037,4024 6936,4048 6920,4052 6909,4052 6880,4057 6869,4059 6851,4064 6826,4074 6792,4085 6760,4097 6713,4117 6680,4134 6667,4139 6604,4160 6535,4169 6434,4173 6423,4172 6416,4173 6415,4162 6397,4052 6390,4042 6288,4034 6284,4034 6284,4030 6290,4001 6285,3999 6196,3977 6091,3968 6087,3937 6086,3902 6083,3856 6085,3836 6100,3793 6105,3774 6110,3755 6107,3695 6102,3647 6091,3589 6091,3582 6080,3512 6074,3482 6051,3353 6043,3317 6033,3269 6031,3242 6034,3229 6027,3132 6011,3123 6006,3119 5825,3011 5746,3141 5723,3138 5722,3138 5538,3117 5536,3137 5540,3229 5536,3282 5540,3282 5681,3313 5690,3315 5708,3318 5713,3331 5729,3413 5721,3491 5717,3526 5704,3552 5704,3554 5727,3683 5727,3685 5673,3770 5564,3887 5522,3930 5518,3941 5495,3998 5495,3999 5514,4029 5554,4060 5589,4090 5606,4093 5756,4201 5758,4223 5764,4278 5764,4280 5718,4326 5692,4371 5687,4380 5691,4391 5595,4359 5592,4359 5583,4355 5551,4340 5537,4335 5497,4315 5445,4293 5335,4244 5313,4213 5276,4075 5180,4089 5143,4122 5143,4127 5136,4147 5118,4166 5081,4189 5042,4216 5014,4231 4971,4250 4924,4260 4890,4267 4844,4268 4723,4278 4654,4281 4600,4283 4569,4286 4567,4297 4556,4327 4527,4425 4509,4482 4505,4495 4494,4549 4485,4599 4478,4648 4476,4674 4477,4731 4477,4756 4479,4784 4489,4821 4474,4831 4399,4863 4313,4896 4244,4916 4151,4933 4096,4940 4008,4940 3916,4916 3854,4891 3795,4861 3689,4830 3571,4788 3500,4758 3441,4731 3391,4704 3315,4640 3254,4572 3180,4474 2949,4156 2889,4069 2788,3928 2537,3584 2534,3560 2526,3556 2518,3548 2511,3535 2510,3520 2506,3501 2505,3459 2499,3386 2495,3325 2495,3323 2487,3237 2485,3202 2268,2516 Z M 2268,2516 L 2268,2516 Z"/>
       <path fill="rgb(128,000,128)" stroke="none" d="M 5850,152 L 5850,110 5846,75 5843,42 5857,-88 5856,-106 5850,-203 5846,-229 5942,-252 6014,-269 6141,-300 6352,-341 6470,-352 6617,-367 6726,-370 6779,-370 6897,-365 7028,-357 7119,-347 7248,-326 7355,-305 7384,-174 7478,119 7607,189 7667,233 7683,267 7751,668 7767,673 7778,675 7785,678 7790,683 7796,737 7793,742 7788,744 7784,791 7778,809 7753,864 7759,918 7764,938 7790,969 7811,987 7826,1010 7829,1074 7819,1103 7806,1127 7815,1150 7846,1172 7854,1197 7913,1229 7949,1238 7962,1250 7982,1264 7993,1287 8008,1334 8010,1357 8015,1367 8019,1393 8018,1420 8031,1437 8030,1448 8026,1455 8016,1467 8005,1498 7993,1506 7994,1515 8002,1523 8035,1540 8060,1556 8093,1603 8116,1614 8137,1635 8178,1652 8195,1663 8237,1677 8240,1689 8271,1724 8284,1746 8297,1771 8309,1787 8316,1803 8325,1815 8349,1839 8369,1872 8373,1894 8378,1906 8384,1948 8426,1945 8444,1964 8472,1987 8478,1993 8505,2007 8537,2023 8631,2069 8690,2072 8802,2091 8919,2111 8968,2092 8925,2330 8920,2378 8917,2408 8914,2425 8909,2471 8905,2508 8903,2563 8901,2626 8899,2687 8900,2724 8901,2766 8905,2817 8894,2816 8869,2816 8825,2814 8772,2815 8753,2816 8704,2818 8674,2825 8640,2836 8624,2842 8618,2852 8615,2860 8610,2872 8584,2891 8528,2854 8478,2827 8436,2800 8394,2770 8340,2730 8299,2702 8235,2665 8148,2614 8094,2578 8038,2536 7976,2500 7903,2474 7853,2455 7767,2414 7698,2375 7648,2339 7585,2289 7538,2251 7469,2207 7424,2197 7391,2187 7314,2160 7289,2153 7262,2153 7241,2156 7180,2170 7124,2185 7109,2189 7083,2189 7060,2186 7022,2180 7014,2181 7018,2154 7020,2138 7018,2092 7009,2003 7001,1893 6995,1833 6991,1803 6982,1768 6957,1707 6944,1655 6935,1622 6929,1595 6920,1562 6915,1532 6911,1512 6909,1481 6905,1453 6902,1417 6896,1371 6893,1326 6885,1244 6879,1191 6879,1167 6877,1147 6880,1136 6878,1112 6857,1041 6849,966 6833,902 6807,851 6791,832 6778,815 6723,729 6680,638 6589,439 6579,434 6543,417 6428,354 6415,351 6405,354 6312,372 6212,389 6161,398 6121,422 6124,455 6121,469 6108,474 6090,472 6075,470 6068,468 6052,466 6024,525 5940,496 5920,491 5901,486 5879,485 5855,483 5853,459 5853,386 5854,330 5854,304 5854,284 5851,221 5850,152 Z M 5850,152 L 5850,152 Z"/>
       <path fill="rgb(000,255,255)" stroke="none" d="M 7381,11235 L 7394,11217 7436,11166 7471,11209 7541,11638 7542,11653 7553,11652 7569,11748 7563,11751 7597,11962 7550,11984 7555,12014 7563,12063 7576,12146 7581,12181 7591,12246 7591,12252 7613,12430 7623,12529 7635,12626 7580,12650 7567,12724 7441,12974 7384,12946 7115,12821 7026,12775 6981,12770 6847,12775 6759,12798 6793,12703 6830,12611 6931,12457 6998,12305 7051,12133 7174,11651 7228,11501 7301,11343 7337,11288 7360,11259 7381,11235 Z M 7381,11235 L 7381,11235 Z"/>
       <path fill="rgb(128,255,128)" stroke="none" d="M 4306,12931 L 4282,12801 4241,12522 4213,12422 4205,12424 4191,12383 4180,12358 4169,12332 4158,12307 4145,12281 4123,12243 4127,12241 4109,12206 4128,12203 4148,12197 4161,12196 4206,12188 4244,12186 4255,12187 4276,12191 4298,12197 4316,12204 4343,12217 4350,12221 4357,12221 4373,12226 4402,12231 4436,12237 4447,12238 4458,12244 4469,12246 4479,12249 4487,12255 4499,12267 4509,12278 4515,12283 4529,12300 4540,12314 4552,12328 4556,12335 4560,12337 4562,12338 4567,12341 4576,12343 4582,12344 4600,12343 4604,12341 4611,12336 4613,12333 4621,12326 4638,12305 4648,12287 4674,12249 4682,12237 4718,12192 4733,12172 4751,12151 4767,12135 4789,12113 4810,12095 4848,12042 4856,12027 4889,11977 4907,11947 4916,11924 4959,11848 4989,11798 5011,11761 5026,11735 5030,11723 5072,11646 5109,11583 5148,11509 5168,11477 5178,11469 5204,11443 5215,11433 5227,11421 5235,11415 5241,11407 5257,11393 5278,11371 5288,11361 5294,11351 5327,11317 5419,11228 5448,11198 5546,11102 5553,11123 5564,11156 5580,11198 5598,11254 5603,11272 5621,11325 5631,11353 5633,11366 5639,11380 5644,11402 5654,11432 5665,11467 5668,11475 5682,11510 5696,11551 5713,11600 5732,11652 5733,11667 5739,11678 5759,11749 5764,11760 5782,11816 5787,11824 5807,11887 5812,11909 5812,11911 5814,11913 5820,11919 5826,11923 5833,11940 5847,11974 5856,11998 5863,12025 5808,12031 5699,12047 5714,12127 5722,12181 5741,12279 5748,12293 5741,12304 5733,12328 5707,12393 5696,12418 5684,12461 5679,12475 5662,12547 5655,12572 5653,12596 5656,12607 5665,12632 5679,12669 5686,12689 5715,12759 5740,12823 5756,12886 5765,12933 5769,12979 5770,13017 5786,13148 5789,13196 5804,13243 5748,13259 5699,13256 5647,13266 5598,13271 5555,13276 5503,13280 5457,13326 5357,13415 5184,13576 5076,13432 5052,13401 5031,13372 4994,13324 4959,13282 4892,13190 4872,13173 4812,13152 4747,13131 4674,13111 4596,13092 4545,13080 4480,13072 4420,13068 4342,13065 4333,13032 4306,12931 Z M 4306,12931 L 4306,12931 Z"/>
       <path fill="rgb(128,128,255)" stroke="none" d="M 5530,9678 L 5547,9678 5567,9678 5615,9682 5644,9683 5790,9693 5794,9694 5804,9695 5866,9698 5875,9698 5883,9700 5928,9704 5937,9707 5937,9727 5923,9809 5915,9874 5938,9885 5929,9945 5926,9963 5925,9982 5925,10032 5927,10053 5930,10068 5901,10070 5915,10160 5915,10213 5902,10260 5896,10300 5894,10406 5885,10434 5883,10434 5864,10441 5843,10450 5736,10502 5717,10509 5698,10520 5691,10522 5632,10553 5561,10587 5538,10599 5513,10610 5500,10616 5483,10625 5469,10633 5455,10641 5447,10644 5388,10675 5352,10692 5322,10709 5289,10738 5280,10741 5275,10744 5263,10755 5233,10783 5167,10847 5136,10876 5088,10921 5013,10993 4954,11046 4945,11052 4866,11122 4786,11194 4771,11209 4705,11269 4676,11295 4655,11312 4639,11333 4590,11381 4557,11415 4538,11433 4526,11445 4510,11457 4497,11472 4487,11488 4447,11531 4437,11541 4427,11555 4415,11582 4395,11631 4382,11658 4376,11667 4368,11687 4367,11692 4310,11771 4250,11852 4240,11865 4239,11867 4227,11879 4170,11939 4145,11965 4131,11981 4119,11989 4114,11995 4105,12001 4073,12033 4054,12055 4046,12070 4047,12089 4045,12122 4020,12087 3815,11851 3766,11779 3709,11676 3688,11640 3635,11515 3601,11396 3579,11282 3566,11136 3570,11018 3583,10901 3608,10778 3655,10640 3744,10473 3771,10427 3859,10312 3910,10249 3929,10260 3973,10215 4018,10173 4055,10137 4124,10078 4221,9999 4312,9918 4337,9900 4345,9886 4381,9821 4415,9760 4458,9675 4489,9614 4503,9589 4519,9520 4522,9505 4638,9513 4636,9548 4631,9592 4632,9604 4643,9604 4711,9608 4744,9609 4792,9613 4824,9614 4865,9619 4870,9619 4895,9623 4904,9627 4984,9637 4988,9638 4999,9639 5004,9639 5054,9642 5064,9645 5099,9646 5134,9645 5156,9649 5179,9651 5254,9656 5263,9659 5308,9662 5361,9667 5403,9666 5425,9669 5432,9670 5483,9675 5494,9675 5530,9678 Z M 5530,9678 L 5530,9678 Z"/>
       <path fill="rgb(000,255,000)" stroke="none" d="M 3723,13839 L 3742,13848 3758,13857 3774,13863 3788,13869 3794,13868 3799,13874 3806,13882 3821,13901 3833,13917 3839,13928 3848,13936 3857,13947 3867,13959 3887,13980 3901,13992 3908,14001 3917,14006 3924,14011 3936,14018 3949,14022 3965,14027 3995,14037 4000,14038 4010,14039 4026,14040 4043,14041 4055,14040 4077,14040 4085,14041 4098,14041 4109,14043 4121,14046 4126,14049 4137,14058 4139,14057 4146,14048 4144,14048 4140,14044 4142,14044 4136,14039 4131,14036 4127,14032 4124,14030 4124,14025 4122,14020 4121,14017 4123,14012 4125,14006 4128,13999 4132,13992 4134,13988 4138,13985 4143,13982 4155,13977 4160,13975 4181,13973 4186,13975 4196,13978 4200,13979 4202,13980 4204,13986 4206,13989 4208,13999 4209,14004 4208,14010 4206,14015 4205,14019 4203,14026 4200,14034 4197,14040 4194,14044 4192,14047 4188,14052 4187,14054 4185,14056 4183,14056 4182,14057 4177,14057 4171,14057 4163,14056 4159,14054 4157,14054 4154,14052 4151,14059 4147,14062 4151,14065 4161,14072 4163,14074 4167,14079 4167,14080 4169,14088 4171,14091 4176,14123 4183,14162 4188,14182 4193,14201 4196,14218 4199,14236 4203,14253 4208,14278 4216,14309 4221,14331 4224,14342 4228,14352 4233,14363 4239,14379 4250,14400 4257,14410 4263,14421 4272,14431 4277,14442 4286,14454 4299,14470 4312,14485 4326,14499 4342,14518 4352,14530 4360,14539 4366,14543 4374,14551 4384,14557 4397,14563 4418,14575 4436,14584 4455,14594 4476,14607 4487,14613 4495,14617 4503,14618 4505,14621 4521,14635 4528,14641 4531,14649 4534,14656 4532,14660 4532,14663 4530,14667 4531,14671 4533,14671 4529,14672 4527,14676 4525,14683 4523,14688 4523,14690 4520,14697 4518,14703 4517,14705 4513,14706 4514,14711 4510,14711 4508,14713 4507,14715 4499,14716 4497,14714 4494,14712 4492,14710 4489,14707 4489,14703 4487,14700 4484,14695 4482,14691 4481,14689 4479,14686 4477,14684 4472,14683 4470,14681 4469,14679 4467,14677 4461,14675 4451,14666 4446,14661 4435,14652 4432,14647 4422,14642 4416,14639 4400,14633 4386,14625 4374,14618 4363,14614 4353,14609 4331,14596 4319,14589 4307,14585 4299,14581 4288,14576 4278,14572 4269,14570 4263,14566 4260,14565 4248,14585 4242,14586 4240,14586 4240,14579 4253,14554 4266,14531 4268,14528 4269,14509 4269,14506 4267,14494 4265,14485 4260,14478 4258,14475 4254,14470 4252,14470 4246,14468 4244,14469 4241,14467 4237,14467 4233,14465 4228,14465 4226,14463 4220,14461 4216,14456 4205,14449 4193,14443 4187,14440 4182,14436 4175,14434 4162,14433 4155,14427 4148,14423 4134,14413 4126,14405 4117,14397 4112,14392 4104,14387 4096,14383 4089,14379 4081,14378 4074,14373 4066,14372 4058,14369 4046,14369 4036,14368 4025,14368 4016,14365 4008,14361 3995,14353 3987,14349 3978,14342 3972,14340 3966,14337 3958,14334 3954,14330 3947,14328 3941,14322 3933,14318 3925,14313 3919,14310 3917,14317 3915,14321 3910,14329 3907,14334 3900,14346 3905,14336 3909,14331 3913,14320 3915,14317 3918,14310 3916,14306 3907,14303 3880,14298 3869,14295 3860,14294 3842,14288 3828,14284 3808,14275 3803,14275 3799,14271 3789,14259 3775,14247 3761,14234 3758,14232 3753,14226 3742,14218 3723,14211 3709,14203 3693,14189 3673,14184 3664,14187 3662,14185 3657,14179 3655,14176 3653,14174 3652,14172 3652,14170 3650,14170 3647,14166 3643,14164 3641,14162 3640,14162 3638,14160 3638,14158 3634,14158 3634,14156 3632,14157 3632,14156 3630,14156 3629,14154 3628,14154 3626,14150 3622,14146 3621,14137 3617,14138 3619,14136 3621,14135 3623,14137 3627,14137 3628,14139 3630,14141 3632,14141 3633,14142 3635,14143 3639,14145 3640,14147 3642,14147 3644,14149 3648,14150 3650,14152 3651,14154 3653,14154 3658,14155 3660,14154 3662,14156 3663,14156 3667,14158 3669,14158 3671,14160 3671,14156 3669,14156 3668,14154 3666,14153 3664,14153 3662,14151 3661,14151 3655,14148 3653,14148 3651,14146 3648,14144 3644,14143 3641,14140 3638,14138 3636,14138 3636,14136 3634,14134 3632,14135 3630,14132 3626,14128 3626,14124 3624,14124 3624,14121 3622,14121 3620,14119 3620,14117 3617,14116 3615,14114 3614,14114 3612,14112 3608,14109 3606,14109 3606,14107 3604,14108 3603,14106 3603,14108 3585,14103 3587,14100 3582,14085 3574,14049 3566,14018 3558,13983 3561,13979 3559,13962 3558,13961 3556,13959 3556,13957 3554,13953 3552,13951 3552,13950 3549,13946 3547,13944 3547,13940 3546,13940 3544,13938 3542,13921 3538,13914 3536,13912 3535,13910 3533,13908 3533,13899 3532,13900 3531,13898 3529,13897 3529,13895 3527,13895 3527,13893 3525,13893 3525,13891 3523,13891 3521,13889 3521,13887 3520,13886 3518,13887 3517,13885 3515,13885 3513,13883 3517,13874 3520,13852 3518,13851 3518,13847 3517,13848 3516,13846 3517,13845 3517,13843 3519,13842 3518,13830 3520,13829 3520,13827 3522,13827 3524,13825 3526,13823 3526,13821 3527,13821 3528,13819 3528,13816 3530,13811 3531,13807 3533,13802 3533,13798 3535,13796 3533,13780 3534,13776 3536,13771 3538,13769 3539,13767 3541,13764 3544,13766 3554,13754 3563,13741 3572,13733 3574,13733 3584,13741 3603,13758 3626,13777 3638,13787 3659,13799 3664,13805 3678,13815 3694,13827 3723,13839 Z M 4145,12815 L 4154,12844 4155,12846 4160,12863 4189,12957 4194,12971 4207,13018 4214,13040 4218,13050 4222,13065 4224,13076 4227,13096 4230,13105 4234,13113 4237,13142 4235,13150 4236,13163 4238,13166 4243,13174 4244,13177 4249,13191 4252,13200 4252,13204 4254,13206 4257,13208 4257,13209 4255,13211 4257,13213 4257,13217 4259,13220 4260,13219 4265,13221 4261,13226 4266,13232 4268,13236 4279,13231 4276,13229 4278,13228 4280,13231 4268,13238 4273,13243 4276,13245 4278,13244 4280,13250 4278,13251 4279,13257 4280,13257 4283,13259 4284,13259 4286,13261 4288,13262 4288,13270 4292,13267 4294,13267 4294,13269 4292,13269 4291,13271 4289,13272 4291,13272 4293,13272 4293,13274 4296,13272 4298,13274 4293,13276 4296,13280 4298,13282 4301,13283 4301,13287 4303,13289 4305,13292 4303,13293 4305,13293 4306,13299 4314,13295 4317,13297 4309,13299 4310,13310 4314,13312 4314,13310 4316,13310 4316,13312 4318,13313 4316,13314 4318,13314 4321,13313 4325,13313 4318,13316 4318,13318 4320,13318 4318,13318 4318,13320 4322,13327 4324,13327 4324,13329 4326,13327 4328,13333 4333,13328 4333,13330 4328,13333 4329,13335 4333,13337 4333,13339 4336,13341 4340,13341 4340,13345 4345,13340 4345,13342 4340,13345 4340,13346 4342,13346 4343,13348 4345,13350 4346,13353 4354,13347 4356,13349 4346,13353 4348,13356 4348,13358 4351,13360 4357,13356 4357,13358 4353,13362 4355,13364 4357,13367 4364,13361 4366,13363 4358,13367 4360,13370 4363,13372 4363,13374 4365,13377 4367,13376 4371,13370 4373,13369 4369,13376 4367,13379 4367,13377 4369,13379 4369,13383 4371,13385 4373,13384 4373,13386 4375,13386 4379,13389 4381,13391 4384,13387 4384,13389 4381,13393 4382,13395 4383,13397 4385,13397 4385,13398 4390,13394 4387,13397 4387,13399 4391,13403 4394,13401 4391,13405 4391,13407 4393,13408 4394,13410 4395,13412 4397,13414 4404,13407 4399,13416 4401,13417 4401,13418 4403,13420 4408,13424 4408,13426 4409,13428 4411,13429 4415,13423 4418,13421 4411,13429 4411,13431 4413,13431 4417,13434 4422,13430 4418,13436 4420,13436 4421,13439 4421,13441 4429,13435 4431,13435 4423,13443 4425,13445 4428,13448 4432,13449 4435,13455 4439,13457 4443,13458 4453,13467 4453,13469 4456,13469 4459,13473 4461,13473 4468,13481 4467,13484 4466,13486 4466,13488 4468,13489 4468,13491 4469,13492 4471,13494 4474,13498 4478,13502 4478,13505 4480,13505 4480,13507 4487,13501 4487,13502 4481,13507 4483,13508 4486,13512 4488,13513 4492,13510 4495,13511 4488,13515 4490,13517 4498,13523 4504,13531 4510,13539 4514,13546 4520,13559 4527,13567 4531,13580 4536,13587 4538,13592 4548,13610 4551,13615 4553,13618 4553,13624 4556,13626 4556,13628 4559,13626 4561,13635 4557,13637 4560,13639 4560,13642 4562,13644 4564,13644 4564,13640 4566,13639 4566,13643 4562,13646 4563,13657 4565,13657 4570,13654 4570,13656 4565,13659 4565,13662 4568,13665 4568,13667 4577,13665 4577,13667 4570,13667 4570,13672 4577,13672 4577,13674 4571,13674 4572,13680 4578,13680 4572,13682 4574,13687 4580,13684 4580,13686 4574,13687 4575,13693 4581,13692 4581,13693 4577,13694 4577,13698 4583,13695 4583,13697 4577,13698 4580,13704 4580,13705 4585,13706 4580,13707 4582,13714 4584,13728 4586,13728 4589,13730 4584,13730 4582,13737 4583,13745 4581,13753 4582,13762 4589,13763 4589,13765 4582,13764 4580,13766 4581,13770 4587,13772 4581,13771 4579,13773 4579,13779 4590,13780 4588,13782 4580,13781 4579,13783 4579,13790 4577,13792 4583,13794 4583,13795 4578,13794 4578,13795 4576,13797 4581,13799 4581,13801 4576,13799 4572,13805 4571,13807 4570,13811 4577,13814 4575,13816 4570,13813 4566,13817 4564,13818 4565,13822 4571,13824 4569,13826 4563,13824 4563,13828 4560,13828 4560,13831 4551,13840 4546,13844 4532,13853 4527,13853 4519,13855 4514,13857 4505,13858 4497,13862 4491,13865 4487,13865 4478,13869 4475,13873 4461,13880 4455,13884 4446,13888 4443,13889 4440,13891 4432,13891 4434,13898 4432,13898 4432,13891 4416,13893 4412,13891 4409,13891 4404,13890 4402,13890 4400,13888 4398,13888 4397,13890 4398,13901 4394,13899 4395,13890 4384,13889 4358,13891 4352,13894 4346,13898 4346,13896 4347,13892 4347,13890 4309,13893 4309,13888 4305,13888 4305,13892 4292,13893 4295,13898 4293,13898 4292,13893 4279,13894 4272,13893 4266,13893 4269,13900 4269,13909 4269,13907 4267,13902 4266,13893 4261,13894 4261,13896 4259,13897 4255,13897 4256,13907 4259,13914 4257,13914 4255,13899 4253,13899 4244,13902 4247,13909 4248,13917 4246,13917 4245,13909 4244,13902 4240,13902 4233,13905 4237,13917 4235,13920 4234,13912 4231,13905 4220,13906 4223,13919 4223,13924 4221,13917 4218,13906 4209,13911 4207,13911 4210,13920 4205,13911 4201,13912 4197,13915 4197,13921 4200,13925 4197,13921 4195,13915 4188,13917 4188,13924 4186,13924 4188,13917 4184,13916 4177,13916 4177,13925 4175,13925 4177,13914 4168,13915 4168,13925 4166,13925 4166,13915 4158,13915 4156,13915 4156,13918 4155,13924 4155,13918 4156,13915 4146,13913 4145,13921 4144,13914 4135,13912 4133,13910 4130,13911 4121,13906 4115,13907 4108,13905 4102,13904 4093,13904 4090,13903 4088,13901 4085,13901 4081,13899 4070,13900 4055,13905 4047,13908 4049,13910 4033,13911 4031,13918 4032,13920 4030,13920 4029,13914 4023,13914 4023,13912 4022,13910 4011,13911 4012,13916 4011,13916 4009,13911 4005,13913 4003,13913 4003,13911 4000,13912 4000,13916 3998,13917 3994,13917 3987,13920 3988,13922 3986,13922 3984,13924 3979,13924 3979,13926 3977,13924 3975,13925 3966,13927 3962,13930 3960,13931 3957,13931 3953,13933 3947,13934 3943,13936 3932,13937 3932,13943 3932,13937 3924,13938 3919,13936 3917,13936 3915,13938 3916,13934 3912,13933 3911,13933 3903,13930 3900,13930 3896,13929 3890,13924 3882,13915 3874,13906 3870,13902 3865,13894 3862,13889 3857,13883 3853,13875 3845,13866 3837,13851 3830,13845 3823,13846 3821,13848 3822,13850 3820,13850 3818,13852 3817,13854 3815,13858 3813,13860 3806,13860 3802,13855 3800,13854 3799,13837 3796,13835 3796,13833 3794,13833 3793,13831 3791,13830 3787,13829 3785,13829 3760,13820 3749,13815 3748,13815 3736,13811 3736,13809 3730,13807 3726,13805 3726,13803 3725,13805 3723,13806 3723,13804 3709,13798 3711,13797 3690,13788 3677,13784 3677,13782 3679,13782 3649,13760 3649,13758 3651,13756 3644,13751 3641,13750 3639,13746 3641,13746 3641,13743 3643,13739 3637,13739 3636,13737 3634,13737 3630,13733 3627,13734 3625,13733 3625,13729 3625,13731 3623,13729 3627,13727 3600,13694 3600,13692 3602,13691 3599,13685 3596,13689 3593,13687 3599,13685 3599,13681 3597,13683 3595,13678 3590,13681 3595,13676 3600,13670 3589,13663 3585,13668 3585,13670 3581,13671 3578,13671 3576,13673 3548,13676 3549,13678 3548,13680 3546,13682 3546,13684 3542,13687 3542,13685 3540,13685 3538,13684 3533,13681 3531,13679 3528,13677 3526,13675 3525,13674 3525,13668 3526,13664 3525,13659 3527,13657 3529,13653 3529,13652 3531,13652 3532,13644 3535,13639 3545,13638 3550,13639 3550,13640 3556,13642 3559,13644 3563,13645 3565,13647 3567,13647 3568,13645 3570,13645 3572,13641 3574,13641 3576,13638 3576,13637 3577,13635 3576,13620 3574,13615 3574,13611 3575,13609 3575,13607 3573,13605 3570,13595 3570,13588 3567,13583 3567,13573 3565,13572 3563,13553 3565,13553 3567,13550 3569,13546 3570,13542 3570,13537 3571,13536 3571,13534 3574,13530 3576,13530 3576,13528 3578,13519 3569,13517 3574,13497 3581,13497 3583,13494 3585,13494 3584,13492 3586,13491 3589,13483 3591,13481 3590,13478 3583,13474 3578,13482 3577,13484 3573,13486 3569,13488 3562,13493 3560,13493 3557,13494 3548,13495 3545,13497 3539,13498 3538,13493 3536,13489 3534,13482 3533,13480 3532,13476 3530,13473 3523,13468 3523,13466 3525,13457 3524,13450 3531,13449 3542,13451 3553,13453 3566,13452 3566,13454 3576,13457 3580,13459 3582,13461 3584,13465 3585,13469 3583,13472 3590,13476 3592,13472 3591,13465 3589,13458 3587,13454 3581,13448 3575,13448 3572,13446 3570,13444 3570,13442 3571,13440 3567,13440 3569,13437 3569,13435 3571,13433 3571,13429 3573,13422 3573,13418 3575,13416 3576,13413 3578,13409 3580,13406 3579,13401 3578,13402 3577,13398 3579,13397 3579,13395 3573,13394 3570,13393 3568,13391 3564,13394 3560,13394 3559,13392 3557,13392 3557,13390 3555,13392 3555,13394 3553,13394 3553,13399 3551,13402 3552,13404 3550,13406 3550,13409 3549,13411 3547,13413 3547,13415 3544,13418 3544,13420 3542,13422 3540,13426 3537,13429 3538,13430 3534,13430 3530,13432 3527,13433 3525,13431 3523,13433 3512,13434 3512,13436 3510,13436 3510,13438 3507,13438 3507,13442 3505,13443 3503,13443 3504,13447 3502,13449 3502,13451 3500,13454 3500,13455 3498,13455 3499,13461 3501,13461 3503,13465 3503,13467 3512,13484 3516,13489 3516,13494 3515,13497 3510,13508 3503,13525 3501,13529 3503,13531 3502,13536 3497,13534 3498,13540 3494,13545 3492,13557 3489,13563 3487,13570 3487,13574 3486,13576 3485,13578 3483,13581 3475,13579 3468,13577 3464,13578 3458,13574 3460,13567 3461,13556 3461,13546 3456,13546 3452,13570 3447,13570 3445,13571 3447,13571 3445,13571 3445,13573 3443,13573 3443,13575 3442,13577 3441,13578 3441,13582 3435,13582 3435,13583 3431,13582 3430,13580 3428,13583 3426,13581 3424,13581 3422,13579 3420,13579 3419,13577 3418,13575 3416,13573 3416,13568 3414,13567 3414,13565 3411,13563 3412,13565 3408,13565 3408,13567 3410,13569 3410,13571 3408,13573 3409,13580 3404,13580 3404,13582 3402,13585 3402,13590 3401,13592 3401,13596 3399,13599 3398,13603 3399,13610 3400,13612 3402,13614 3404,13615 3411,13615 3414,13617 3423,13616 3425,13617 3427,13619 3427,13621 3429,13623 3431,13624 3433,13626 3436,13627 3440,13627 3441,13629 3445,13628 3445,13630 3448,13630 3452,13634 3452,13636 3454,13636 3454,13637 3457,13643 3455,13643 3455,13647 3462,13646 3461,13658 3450,13658 3448,13663 3461,13664 3458,13709 3454,13709 3452,13714 3452,13722 3455,13722 3454,13747 3446,13747 3445,13809 3432,13810 3433,13817 3446,13816 3445,13857 3442,13873 3440,13904 3442,13903 3440,13909 3431,13909 3426,13928 3396,13932 3393,13943 3389,13944 3390,13933 3345,13936 3344,13938 3331,13941 3300,13937 3277,13934 3258,13934 3240,13933 3220,13935 3201,13934 3179,13935 3154,13938 3138,13941 3123,13942 3111,13945 3100,13950 3099,13957 3099,13961 3086,13962 3075,13966 3059,13978 3049,13994 3038,14008 3031,14017 3029,14023 3019,14038 3016,14050 3010,14058 3005,14080 2999,14097 2994,14108 2988,14116 2984,14122 2978,14132 2974,14141 2961,14155 2951,14160 2927,14162 2910,14161 2899,14162 2888,14161 2872,14162 2858,14159 2851,14158 2845,14157 2840,14153 2834,14150 2823,14148 2811,14147 2798,14148 2787,14146 2780,14145 2771,14139 2764,14130 2749,14116 2738,14108 2733,14102 2714,14097 2703,14093 2686,14090 2661,14086 2619,14082 2592,14079 2568,14079 2539,14079 2515,14079 2486,14079 2442,14083 2424,14082 2403,14088 2388,14093 2382,14100 2374,14110 2360,14128 2349,14127 2334,14128 2316,14127 2306,14128 2294,14135 2278,14148 2268,14159 2251,14172 2236,14176 2221,14177 2201,14180 2187,14181 2175,14186 2164,14190 2156,14191 2147,14191 2135,14185 2139,14126 2131,13877 2129,13860 2129,13848 2129,13840 2130,13826 2128,13807 2126,13640 2152,13633 2170,13627 2199,13618 2200,13616 2204,13614 2203,13605 2201,13599 2198,13594 2198,13588 2200,13587 2204,13586 2208,13589 2209,13593 2212,13600 2214,13604 2220,13603 2223,13601 2227,13601 2230,13596 2233,13596 2237,13595 2252,13594 2253,13590 2263,13580 2269,13577 2276,13577 2280,13575 2282,13574 2287,13569 2291,13569 2293,13570 2295,13568 2299,13564 2305,13558 2313,13554 2328,13553 2337,13550 2344,13546 2348,13545 2351,13547 2359,13546 2361,13542 2362,13541 2361,13539 2365,13535 2369,13535 2372,13536 2377,13540 2381,13541 2384,13545 2388,13546 2390,13546 2397,13542 2405,13539 2416,13538 2433,13534 2431,13528 2435,13528 2437,13533 2444,13533 2451,13530 2470,13525 2484,13522 2494,13518 2503,13515 2509,13513 2524,13508 2556,13505 2559,13504 2570,13499 2580,13496 2589,13494 2598,13493 2604,13490 2610,13490 2615,13489 2621,13486 2626,13484 2634,13479 2642,13476 2647,13476 2658,13472 2662,13470 2664,13470 2667,13468 2671,13465 2675,13463 2677,13462 2679,13460 2681,13457 2681,13455 2688,13453 2686,13446 2689,13446 2685,13428 2683,13428 2683,13426 2685,13426 2686,13428 2691,13444 2698,13441 2699,13449 2720,13443 2716,13427 2714,13429 2712,13422 2717,13420 2718,13426 2716,13426 2720,13441 2722,13441 2724,13439 2726,13437 2728,13439 2741,13438 2742,13442 2759,13436 2778,13432 2800,13426 2797,13417 2794,13418 2776,13404 2772,13404 2771,13406 2770,13407 2764,13409 2761,13409 2759,13411 2753,13412 2746,13415 2735,13418 2733,13416 2746,13413 2744,13413 2750,13410 2751,13412 2761,13407 2762,13407 2772,13402 2771,13400 2778,13399 2778,13400 2784,13398 2789,13396 2789,13398 2793,13398 2789,13399 2780,13402 2778,13402 2778,13404 2790,13414 2797,13411 2802,13422 2807,13422 2809,13420 2816,13416 2816,13414 2823,13411 2823,13409 2830,13406 2844,13399 2849,13415 2865,13410 2867,13410 2869,13415 2874,13414 2863,13382 2860,13385 2858,13383 2865,13381 2876,13413 2882,13411 2885,13409 2887,13407 2887,13405 2889,13402 2893,13402 2893,13404 2895,13402 2895,13404 2896,13404 2898,13412 2900,13413 2906,13412 2918,13410 2937,13403 2939,13403 2939,13401 2940,13400 2939,13397 2941,13397 2941,13398 2952,13397 2954,13396 2956,13396 2958,13394 2958,13392 2956,13392 2958,13392 2958,13390 2959,13392 2961,13390 2961,13388 2962,13386 2964,13383 2966,13380 2961,13370 2966,13378 2968,13376 2969,13376 2963,13364 2965,13363 2967,13371 2972,13369 2968,13360 2972,13367 2972,13369 2978,13366 2990,13362 2989,13361 2991,13358 3008,13349 3017,13345 3012,13335 3016,13332 3018,13337 3029,13331 3031,13331 3030,13322 3027,13316 3032,13314 3030,13307 3030,13309 3029,13305 3031,13305 3032,13307 3034,13314 3041,13312 3041,13315 3048,13328 3055,13327 3057,13325 3059,13323 3061,13323 3063,13322 3056,13311 3070,13302 3068,13297 3070,13295 3074,13306 3101,13293 3103,13297 3110,13294 3114,13301 3119,13298 3119,13300 3121,13298 3123,13298 3125,13296 3129,13296 3130,13295 3132,13294 3134,13292 3129,13285 3128,13282 3126,13276 3128,13276 3131,13283 3129,13284 3134,13288 3135,13288 3135,13286 3139,13286 3140,13284 3144,13283 3146,13282 3141,13275 3149,13271 3150,13276 3160,13271 3158,13266 3167,13262 3164,13255 3166,13253 3170,13259 3180,13237 3179,13224 3176,13217 3178,13215 3176,13213 3175,13204 3173,13202 3175,13202 3173,13202 3173,13201 3177,13199 3175,13197 3172,13193 3203,13184 3221,13167 3225,13160 3226,13154 3229,13145 3237,13124 3235,13122 3237,13120 3237,13117 3238,13115 3239,13113 3241,13110 3243,13108 3245,13108 3247,13107 3248,13107 3250,13105 3252,13103 3254,13103 3255,13100 3257,13098 3260,13095 3260,13091 3262,13089 3263,13087 3265,13085 3267,13084 3267,13079 3268,13077 3268,13075 3270,13075 3269,13072 3271,13072 3271,13066 3273,13066 3273,13064 3275,13064 3275,13062 3277,13057 3277,13055 3279,13052 3279,13049 3281,13049 3280,13043 3282,13041 3284,13039 3286,13038 3286,13036 3287,13036 3286,13032 3288,13028 3289,13017 3293,12991 3294,12989 3293,12980 3302,12960 3313,12937 3317,12932 3323,12925 3345,12904 3392,12858 3402,12846 3409,12840 3416,12832 3416,12830 3417,12832 3421,12832 3432,12833 3436,12831 3438,12831 3440,12834 3442,12836 3439,12838 3440,12839 3442,12841 3446,12841 3450,12843 3475,12841 3484,12844 3493,12844 3499,12844 3514,12842 3521,12841 3530,12841 3537,12845 3540,12845 3550,12842 3560,12839 3571,12837 3582,12831 3602,12829 3617,12830 3628,12829 3644,12830 3651,12829 3662,12830 3670,12831 3675,12830 3683,12832 3690,12829 3706,12825 3709,12823 3715,12822 3719,12824 3727,12825 3734,12828 3750,12827 3754,12824 3760,12819 3770,12811 3770,12809 3772,12807 3780,12824 3792,12818 3825,12805 3848,12797 3882,12791 3899,12790 3922,12777 3956,12756 3960,12753 3999,12752 4021,12753 4082,12763 4092,12769 4145,12815 Z M 4201,9791 L 4242,9832 4346,9886 4338,9900 4314,9919 4222,9999 4126,10078 4056,10137 4019,10173 3974,10215 3931,10260 3911,10250 3860,10312 3772,10427 3746,10473 3656,10640 3609,10778 3584,10900 3571,11017 3567,11135 3580,11281 3602,11395 3637,11513 3689,11639 3709,11675 3768,11778 3817,11850 4021,12086 4046,12121 4111,12206 4128,12241 4125,12243 4146,12282 4159,12308 4170,12333 4181,12359 4193,12384 4207,12425 4214,12423 4242,12522 4283,12801 4307,12931 4334,13032 4343,13065 4346,13074 4348,13090 4361,13157 4365,13175 4402,13231 4491,13358 4511,13387 4534,13421 4553,13450 4569,13478 4576,13490 4580,13499 4585,13514 4593,13544 4599,13577 4602,13587 4610,13618 4622,13656 4631,13687 4639,13708 4646,13735 4651,13799 4653,13846 4654,13868 4653,13881 4642,13915 4633,13936 4625,13945 4592,14011 4575,14046 4558,14078 4547,14108 4543,14117 4541,14142 4538,14223 4537,14240 4533,14292 4532,14314 4531,14336 4530,14374 4532,14396 4545,14541 4555,14586 4562,14617 4555,14612 4550,14608 4539,14605 4526,14606 4524,14603 4519,14611 4515,14606 4465,14564 4465,14560 4467,14558 4465,14555 4459,14549 4455,14545 4448,14541 4427,14523 4410,14509 4403,14502 4400,14496 4399,14490 4397,14481 4394,14472 4391,14459 4388,14450 4385,14438 4384,14429 4379,14419 4379,14416 4376,14412 4376,14408 4374,14403 4371,14393 4371,14389 4367,14380 4362,14371 4360,14365 4358,14363 4352,14359 4350,14355 4344,14344 4338,14340 4333,14336 4332,14329 4330,14326 4322,14310 4319,14301 4314,14294 4304,14274 4299,14270 4297,14264 4296,14257 4293,14251 4286,14241 4283,14234 4281,14228 4280,14227 4279,14216 4277,14210 4275,14183 4277,14173 4278,14166 4277,14155 4279,14149 4277,14144 4276,14140 4270,14125 4265,14112 4262,14103 4259,14094 4259,14086 4262,14073 4271,14052 4277,14039 4281,14037 4285,14033 4288,14031 4292,14029 4298,14023 4304,14021 4313,14016 4323,14010 4338,14005 4345,14002 4356,14000 4380,13998 4388,13994 4395,13994 4417,13986 4425,13982 4442,13973 4448,13969 4456,13965 4467,13962 4483,13957 4491,13955 4495,13953 4503,13952 4506,13950 4508,13948 4512,13945 4515,13942 4525,13935 4527,13931 4533,13930 4535,13930 4542,13925 4548,13921 4556,13917 4569,13910 4586,13902 4599,13892 4622,13871 4625,13864 4629,13856 4633,13850 4629,13804 4627,13795 4626,13786 4627,13771 4626,13758 4622,13729 4621,13722 4618,13708 4608,13668 4605,13658 4603,13652 4601,13645 4601,13643 4599,13641 4594,13625 4591,13617 4591,13612 4588,13607 4587,13600 4584,13591 4583,13582 4580,13567 4577,13556 4574,13538 4571,13533 4570,13528 4565,13518 4563,13511 4558,13505 4557,13501 4553,13496 4545,13489 4538,13480 4533,13471 4526,13466 4514,13453 4510,13447 4498,13432 4492,13424 4485,13418 4478,13411 4473,13404 4469,13393 4464,13379 4459,13370 4454,13363 4450,13356 4444,13348 4434,13334 4427,13325 4419,13313 4410,13300 4406,13290 4398,13279 4386,13267 4376,13254 4370,13250 4361,13240 4358,13234 4356,13233 4352,13232 4352,13230 4349,13228 4347,13223 4347,13219 4341,13212 4333,13200 4322,13188 4322,13182 4318,13177 4314,13170 4308,13160 4297,13151 4294,13150 4292,13146 4288,13144 4283,13141 4278,13139 4276,13139 4274,13138 4273,13116 4271,13112 4269,13111 4269,13107 4267,13106 4267,13104 4264,13096 4259,13076 4257,13067 4257,13065 4254,13052 4249,13041 4242,13019 4239,13005 4238,12994 4235,12979 4232,12961 4228,12944 4222,12925 4214,12896 4198,12838 4204,12838 4203,12818 4200,12816 4199,12800 4195,12800 4193,12797 4192,12793 4191,12782 4191,12771 4191,12766 4192,12763 4179,12735 4178,12725 4176,12726 4175,12725 4172,12714 4170,12712 4168,12706 4166,12701 4163,12694 4163,12693 4161,12687 4159,12680 4156,12671 4154,12665 4151,12660 4148,12651 4143,12644 4141,12640 4139,12637 4136,12633 4135,12627 4123,12607 4118,12602 4113,12595 4108,12591 4106,12588 4104,12587 4102,12587 4098,12585 4094,12581 4090,12582 4085,12580 4083,12580 4083,12578 4077,12579 4063,12577 4056,12573 4052,12574 4045,12570 4043,12569 4040,12568 4038,12566 4036,12564 4028,12560 4028,12557 4018,12556 3989,12536 3980,12533 3982,12531 3971,12525 3971,12527 3957,12515 3959,12515 3947,12509 3934,12504 3920,12500 3916,12498 3905,12495 3861,12476 3856,12474 3848,12473 3845,12472 3835,12467 3814,12456 3804,12451 3785,12440 3763,12421 3751,12414 3742,12408 3728,12394 3706,12380 3703,12376 3697,12373 3693,12372 3688,12368 3669,12358 3632,12339 3607,12326 3573,12308 3555,12298 3538,12286 3518,12276 3448,12227 3380,12181 3363,12165 3349,12157 3340,12147 3333,12137 3327,12126 3322,12117 3319,12103 3313,12069 3302,12020 3298,11998 3298,11972 3291,11877 3285,11826 3283,11798 3280,11783 3275,11764 3262,11719 3245,11655 3244,11651 3238,11651 3217,11660 3190,11670 3162,11683 3156,11667 3180,11654 3202,11647 3234,11634 3235,11632 3234,11628 3228,11613 3216,11596 3180,11553 3150,11517 3120,11480 3096,11453 3065,11424 3024,11383 2996,11361 2980,11347 2961,11334 2895,11290 2847,11256 2823,11240 2815,11232 2807,11221 2799,11207 2792,11190 2789,11179 2787,11169 2786,11162 2790,11150 2803,11120 2815,11095 2821,11086 2827,11077 2843,11062 2860,11046 2880,11022 2902,10998 2921,10977 2946,10947 2960,10922 2979,10882 2996,10850 3000,10834 3003,10818 3009,10784 3015,10749 3020,10733 3026,10718 3031,10713 3043,10701 3053,10693 3065,10684 3080,10678 3096,10674 3126,10674 3156,10672 3191,10671 3257,10669 3297,10668 3343,10668 3385,10667 3404,10664 3413,10661 3421,10654 3432,10645 3445,10628 3457,10610 3467,10593 3473,10577 3481,10544 3486,10519 3497,10487 3502,10474 3506,10462 3514,10451 3522,10441 3532,10433 3547,10419 3574,10397 3598,10374 3609,10368 3634,10351 3669,10326 3696,10302 3713,10285 3751,10240 3753,10238 3781,10206 3806,10177 3838,10137 3876,10092 3914,10049 3943,10019 3955,10009 3983,9984 4028,9944 4070,9907 4115,9869 4154,9833 4183,9809 4201,9791 Z M 4201,9791 L 4201,9791 Z"/>
       <path fill="rgb(255,255,000)" stroke="none" d="M 5949,9292 L 5958,9268 5968,9243 5998,9161 5933,9140 5926,9138 5934,9113 5937,9106 5947,9073 5961,9034 5966,9022 5974,8987 5976,8983 5979,8970 5987,8942 5991,8928 6005,8883 6012,8856 6024,8806 6022,8784 6024,8753 6015,8728 5933,8543 5927,8498 5924,8481 5926,8459 5933,8434 5947,8415 5974,8384 6014,8359 6098,8302 6118,8318 6260,8409 6353,8468 6423,8513 6455,8535 6766,8727 6822,8754 6950,8908 6964,8924 7016,8958 7037,9019 7059,9067 7065,9079 7132,9213 7133,9219 7185,9318 7209,9362 7233,9406 7244,9429 7262,9464 7272,9483 7284,9505 7379,9687 7381,9691 7392,9705 7409,9737 7445,9803 7389,9829 7318,9878 7270,9916 7208,9967 7202,9971 7141,10018 7131,10026 7096,10055 7079,10067 7038,10081 6988,10096 6937,10109 6890,10124 6878,10127 6825,10142 6779,10156 6756,10164 6726,10171 6673,10187 6619,10204 6603,10209 6569,10219 6490,10242 6433,10258 6409,10264 6386,10272 6334,10287 6295,10299 6292,10299 6256,10311 6251,10239 6240,10158 6237,10143 6230,10088 6238,10016 6237,9966 6231,9868 6229,9839 6222,9718 6220,9672 6220,9642 6218,9608 6219,9587 6217,9540 6179,9535 5948,9516 5935,9515 5949,9431 5963,9362 5970,9320 5976,9304 5986,9292 5949,9292 Z M 5949,9292 L 5949,9292 Z"/>
       <path fill="rgb(000,128,128)" stroke="none" d="M 6816,10785 L 6827,10786 6830,10784 6770,10694 6845,10640 6850,10646 6880,10661 6937,10686 6938,10694 6941,10765 6939,10782 6939,10807 6931,10836 6922,10863 6919,10879 7127,10879 7235,10872 7385,10891 7416,10896 7415,10918 7419,10938 7426,10965 7437,10988 7471,11039 7512,11085 7436,11166 7394,11217 7381,11235 7360,11259 7336,11288 7301,11343 7228,11501 7174,11651 7052,12133 6999,12305 6932,12457 6830,12611 6757,12802 6619,12873 6600,12817 6575,12730 6554,12659 6531,12590 6521,12511 6503,12436 6500,12416 6492,12397 6485,12366 6472,12314 6471,12310 6457,12254 6445,12217 6437,12179 6426,12135 6424,12117 6422,12054 6420,12032 6424,11965 6386,11969 6323,11974 6299,11893 6271,11796 6256,11746 6245,11712 6232,11664 6217,11615 6197,11548 6170,11463 6160,11427 6129,11322 6097,11218 6082,11162 6037,11024 6034,11011 5998,10944 6086,10965 6153,10982 6214,10993 6223,10997 6213,10942 6284,10955 6358,10966 6372,10881 6374,10866 6380,10825 6412,10827 6415,10825 6421,10822 6433,10810 6456,10784 6487,10760 6498,10751 6527,10732 6536,10737 6568,10755 6743,10842 6781,10814 6816,10785 Z M 6816,10785 L 6816,10785 Z"/>
       <path fill="rgb(255,128,255)" stroke="none" d="M 9283,6025 L 9275,6023 9191,5994 8986,5916 8861,5852 8772,5786 8728,5800 8704,5800 8651,5800 8589,5792 8589,5823 8589,5827 8570,5823 8498,5816 8449,5810 8425,5810 8374,5810 8343,5809 8333,5809 8273,5813 8238,5814 8231,5814 8212,5814 8192,5811 8157,5805 8144,5802 8102,5789 8088,5847 8084,5846 8068,5840 8020,5824 7973,5806 7957,5802 7935,5793 7918,5785 7897,5829 7893,5832 7889,5842 7888,5855 7886,5874 7827,5867 7796,5862 7780,5860 7763,5855 7746,5849 7740,5850 7729,5847 7685,5841 7677,5840 7622,5833 7604,5831 7577,5827 7553,5825 7543,5905 7532,5904 7491,5902 7486,5905 7431,5914 7393,5923 7356,5931 7355,5909 7343,5910 7311,5916 7299,5917 7250,5926 7243,5928 7217,5934 7199,5936 7149,5938 7138,5936 7123,5938 7090,5938 7076,5939 7078,5993 7001,5991 6969,5989 6904,5993 6840,5996 6835,5975 6831,5949 6797,5965 6635,5984 6595,5987 6588,5924 6433,5928 6412,5941 6386,5948 6309,6000 6275,6020 6149,6116 6080,6159 5882,6364 5806,6442 5715,6572 5697,6592 5685,6612 5675,6607 5660,6597 5653,6595 5629,6583 5603,6575 5580,6568 5466,6512 5348,6451 5318,6431 5254,6365 5209,6320 5171,6290 5076,6209 5056,6198 4899,6048 4844,6001 4834,5979 4824,5967 4715,5893 4710,5880 4710,5882 4811,5731 4878,5625 4922,5551 4938,5523 4947,5496 4953,5474 4954,5452 4948,5430 4941,5397 4932,5363 4921,5311 4914,5273 4913,5241 4913,5208 4918,5182 4921,5174 4925,5158 4934,5129 4966,5070 4984,5043 5029,4997 5081,4961 5082,4960 5158,4917 5234,4867 5162,4833 5080,4806 5020,4790 4934,4770 4847,4747 4807,4741 4778,4736 4740,4737 4709,4737 4673,4744 4625,4757 4574,4778 4514,4807 4489,4820 4479,4783 4477,4755 4476,4730 4475,4673 4477,4647 4485,4598 4494,4548 4504,4494 4509,4481 4527,4424 4556,4326 4566,4296 4569,4285 4600,4282 4653,4280 4723,4277 4843,4267 4889,4265 4924,4259 4971,4248 5014,4230 5042,4215 5080,4188 5117,4165 5136,4146 5142,4126 5143,4121 5180,4088 5276,4074 5313,4212 5335,4242 5445,4292 5497,4314 5535,4334 5550,4339 5582,4354 5591,4358 5594,4358 5690,4390 5686,4379 5691,4370 5716,4325 5763,4279 5763,4277 5757,4222 5755,4200 5605,4093 5588,4089 5553,4059 5513,4028 5495,3998 5495,3997 5517,3939 5521,3930 5563,3886 5672,3769 5726,3684 5726,3682 5703,3553 5703,3551 5716,3524 5720,3490 5727,3412 5712,3330 5707,3317 5689,3314 5679,3313 5539,3281 5535,3282 5539,3227 5535,3136 5537,3116 5720,3136 5722,3136 5745,3140 5823,3011 6005,3118 6010,3122 6026,3131 6033,3228 6030,3241 6032,3268 6042,3316 6050,3352 6073,3481 6079,3511 6089,3581 6090,3588 6101,3646 6105,3694 6109,3754 6104,3772 6099,3792 6084,3835 6082,3855 6085,3901 6086,3936 6090,3967 6195,3976 6284,3998 6289,4000 6282,4029 6283,4033 6287,4033 6388,4041 6396,4050 6414,4161 6415,4172 6422,4171 6433,4172 6534,4169 6603,4159 6666,4138 6679,4133 6712,4116 6758,4096 6791,4085 6824,4072 6851,4063 6868,4058 6879,4056 6909,4051 6920,4051 6936,4047 7037,4022 7055,4020 7068,3993 7077,3911 7080,3867 7082,3842 7089,3762 7090,3762 7108,3769 7134,3774 7156,3773 7168,3767 7188,3759 7223,3745 7261,3729 7294,3718 7309,3708 7323,3698 7326,3689 7334,3677 7337,3663 7336,3637 7337,3619 7338,3602 7344,3343 7347,3233 7341,3163 7333,3135 7330,3126 7553,3129 7721,3129 7730,3129 7727,3217 7728,3259 7766,3260 7908,3264 7951,3264 8024,3269 8029,3266 8044,3263 8067,3248 8107,3227 8137,3212 8169,3194 8223,3183 8405,3149 8472,3135 8514,3109 8536,3091 8553,3069 8555,3065 8558,3061 8567,3040 8580,2990 8583,2953 8584,2916 8584,2890 8609,2871 8614,2858 8617,2851 8624,2841 8640,2834 8674,2824 8704,2817 8753,2814 8770,2813 8825,2813 8869,2815 8894,2814 8905,2816 8927,3022 8971,3243 9160,3836 9236,4142 9265,4411 9271,4561 9261,4776 9254,5092 9283,6024 9283,6025 Z M 9283,6025 L 9283,6025 Z"/>
       <path fill="rgb(255,255,128)" stroke="none" d="M 8986,5915 L 8981,5928 8923,6089 8916,6109 8907,6134 8893,6196 8925,6296 8927,6296 8987,6437 8897,6652 8885,6877 8874,6895 8830,6920 8813,6929 8779,6966 8754,7082 8712,7162 8695,7250 8697,7259 8753,7406 8753,7411 8729,7503 8733,7532 8736,7554 8731,7602 8717,7638 8716,7640 8616,7811 8626,7872 8621,7950 8630,7993 8654,8038 8642,8052 8495,8045 8485,8042 8368,8044 8365,8096 8360,8146 8359,8188 8212,8176 8210,8178 8099,8226 8088,8218 8075,8204 8031,8169 8024,8164 8008,8151 7977,8125 7945,8103 7925,8089 7915,8081 7886,8061 7852,8036 7812,8006 7800,7998 7768,7971 7721,7932 7682,7898 7672,7886 7658,7865 7649,7853 7647,7844 7637,7823 7637,7817 7634,7810 7634,7799 7636,7781 7614,7782 7542,7782 7526,7783 7513,7786 7415,7794 7161,7826 7163,7853 7173,7885 7178,7902 7184,7922 7219,8031 7229,8058 7236,8078 7140,8097 7070,8103 7008,8103 6900,8111 6797,8115 6777,8114 6773,8048 6772,8009 6769,7945 6761,7842 6755,7789 6754,7772 6748,7722 6744,7663 6740,7632 6731,7517 6729,7507 6723,7441 6718,7398 6689,7115 6681,7029 6669,6900 6649,6645 6638,6524 6629,6438 6620,6341 6598,6100 6604,6078 6594,5986 6635,5983 6797,5964 6831,5948 6835,5974 6840,5995 6904,5992 6969,5988 7000,5990 7077,5991 7075,5938 7089,5937 7122,5937 7137,5935 7148,5937 7198,5935 7216,5933 7242,5927 7249,5925 7298,5916 7310,5915 7342,5909 7354,5908 7355,5930 7392,5922 7430,5913 7485,5904 7490,5901 7531,5903 7542,5904 7552,5824 7576,5826 7602,5829 7621,5832 7676,5839 7684,5840 7728,5846 7739,5849 7745,5849 7762,5854 7779,5859 7796,5861 7827,5866 7886,5873 7888,5854 7889,5840 7892,5831 7897,5828 7918,5783 7936,5792 7958,5801 7973,5805 8020,5823 8067,5838 8084,5845 8088,5846 8102,5788 8144,5801 8157,5804 8193,5810 8212,5813 8231,5813 8238,5813 8273,5811 8334,5808 8343,5808 8374,5809 8425,5809 8449,5808 8498,5815 8570,5821 8589,5826 8589,5822 8589,5791 8651,5799 8704,5799 8728,5798 8771,5784 8861,5851 8986,5915 Z M 8986,5915 L 8986,5915 Z"/>
       <path fill="rgb(000,000,255)" stroke="none" d="M 3240,8790 L 3238,8790 3238,8788 3237,8788 3237,8790 3231,8793 3226,8795 3218,8796 3216,8794 3213,8794 3211,8796 3209,8797 3207,8797 3205,8800 3205,8802 3205,8804 3203,8806 3201,8806 3199,8808 3195,8808 3195,8809 3194,8809 3190,8812 3188,8814 3189,8816 3187,8818 3185,8818 3185,8820 3174,8821 3174,8822 3173,8824 3169,8824 3169,8826 3165,8827 3163,8829 3164,8831 3161,8831 3161,8833 3157,8833 3157,8834 3155,8836 3151,8837 3151,8839 3148,8839 3148,8841 3146,8841 3143,8843 3141,8846 3140,8847 3132,8847 3130,8846 3129,8847 3129,8848 3125,8848 3127,8850 3125,8852 3118,8852 3116,8855 3112,8855 3110,8857 3113,8859 3108,8859 3107,8857 3104,8860 3098,8860 3098,8861 3097,8861 3095,8860 3093,8860 3091,8861 3091,8860 3087,8861 3087,8859 3087,8861 3086,8861 3086,8859 3082,8859 3077,8858 3072,8858 3068,8854 3068,8851 3066,8851 3064,8850 3063,8850 3061,8848 3059,8848 3058,8844 3060,8842 3059,8833 3058,8835 3057,8833 3043,8809 3025,8646 2941,7972 3050,7466 3101,7220 3132,7078 3204,6629 3206,6627 3216,6569 3219,6555 3222,6525 3224,6499 3225,6477 3228,6462 3231,6449 3233,6429 3237,6403 3237,6388 3238,6372 3238,6364 3236,6320 3235,6308 3234,6276 3232,6251 3232,6223 3231,6188 3230,6172 3226,6148 3222,6093 3218,6075 3217,6052 3204,5927 3202,5901 3198,5814 3190,5716 3189,5688 3189,5638 3183,5596 3177,5517 3163,5397 3156,5355 3144,5250 3139,5220 3137,5197 3133,5171 3127,5124 3123,5099 3119,5067 3115,5045 3080,4920 3024,4766 3017,4750 3010,4728 2987,4675 2981,4661 2976,4648 2915,4513 2862,4409 2797,4251 2829,4189 2883,4077 2889,4068 2949,4155 3180,4473 3254,4571 3314,4639 3391,4702 3441,4730 3500,4757 3571,4787 3689,4829 3795,4859 3854,4889 3917,4914 4008,4939 4096,4939 4152,4931 4245,4914 4314,4895 4400,4862 4474,4828 4490,4820 4515,4807 4575,4777 4626,4757 4674,4744 4710,4737 4741,4737 4780,4736 4808,4741 4848,4747 4935,4770 5021,4790 5081,4806 5163,4833 5235,4866 5160,4916 5084,4959 5082,4960 5030,4996 4985,5042 4967,5068 4935,5128 4926,5157 4922,5173 4919,5181 4914,5207 4914,5240 4915,5272 4922,5310 4933,5362 4942,5396 4949,5429 4955,5450 4954,5473 4949,5495 4940,5522 4923,5550 4880,5624 4813,5730 4712,5881 4712,5879 4716,5892 4825,5966 4835,5978 4845,5999 4901,6047 5058,6197 5077,6208 5172,6289 5211,6320 5255,6365 5319,6431 5349,6451 5467,6512 5581,6568 5604,6575 5630,6582 5655,6595 5661,6597 5676,6606 5686,6611 5660,6648 5599,6745 5540,6869 5508,6959 5482,7067 5470,7134 5465,7180 5458,7230 5453,7284 5448,7349 5441,7405 5436,7438 5412,7473 5369,7510 5270,7564 5162,7623 5077,7670 4964,7724 4854,7781 4796,7824 4744,7880 4646,8027 4577,8126 4502,8222 4427,8306 4373,8361 4295,8418 4169,8494 4117,8531 4097,8560 4055,8624 4040,8684 4011,8670 3961,8644 3911,8617 3872,8591 3841,8565 3796,8515 3774,8480 3758,8452 3745,8464 3693,8495 3640,8554 3592,8604 3583,8613 3576,8617 3562,8624 3549,8629 3530,8633 3416,8640 3378,8645 3374,8647 3357,8655 3352,8671 3352,8737 3351,8753 3354,8759 3356,8761 3379,8770 3460,8797 3476,8803 3436,8801 3417,8800 3410,8801 3390,8800 3384,8799 3362,8799 3303,8796 3282,8792 3271,8792 3257,8789 3240,8790 Z M 3240,8790 L 3240,8790 Z"/>
       <path fill="rgb(192,192,192)" stroke="none" d="M 5928,9705 L 5883,9702 5875,9700 5866,9699 5804,9697 5794,9696 5791,9694 5644,9685 5614,9683 5567,9680 5547,9679 5530,9679 5494,9676 5483,9677 5432,9671 5425,9671 5403,9668 5361,9668 5308,9663 5264,9661 5254,9658 5180,9653 5156,9650 5134,9647 5099,9648 5064,9646 5055,9643 5004,9640 4999,9640 4988,9639 4984,9638 4904,9628 4895,9624 4870,9621 4865,9620 4824,9616 4792,9614 4743,9611 4710,9609 4643,9606 4632,9606 4631,9593 4636,9549 4638,9514 4522,9507 4520,9521 4503,9590 4488,9616 4458,9677 4415,9761 4381,9822 4345,9887 4240,9833 4200,9792 4203,9788 4215,9773 4231,9748 4241,9728 4250,9705 4256,9686 4259,9670 4261,9648 4261,9627 4257,9604 4254,9594 4249,9561 4239,9517 4232,9479 4218,9410 4214,9381 4209,9361 4200,9323 4197,9299 4189,9266 4187,9262 4186,9258 4188,9254 4183,9236 4178,9209 4166,9166 4154,9123 4140,9081 4131,9061 4133,9056 4133,9052 4132,9048 4128,9047 4111,9023 4109,9025 4108,9023 4051,8981 4038,8969 4036,8969 3991,8938 3989,8935 3977,8928 3968,8925 3962,8922 3956,8917 3952,8912 3919,8890 3892,8872 3867,8861 3837,8847 3812,8836 3797,8831 3791,8829 3751,8817 3691,8812 3614,8807 3476,8803 3459,8797 3378,8770 3355,8760 3354,8758 3351,8752 3352,8736 3352,8670 3357,8654 3374,8646 3378,8644 3416,8639 3529,8632 3549,8628 3562,8623 3576,8616 3583,8612 3591,8603 3639,8554 3693,8494 3744,8463 3758,8451 3773,8479 3796,8514 3840,8564 3872,8590 3910,8616 3961,8643 4011,8669 4039,8683 4055,8623 4096,8560 4117,8530 4169,8493 4295,8417 4373,8360 4426,8305 4501,8221 4576,8125 4645,8026 4743,7879 4796,7823 4854,7780 4964,7723 5077,7669 5162,7622 5270,7563 5369,7509 5411,7472 5436,7437 5441,7404 5468,7414 5479,7415 5494,7418 5503,7419 5516,7421 5525,7442 5530,7453 5535,7487 5539,7510 5551,7542 5553,7570 5549,7579 5605,7674 5636,7716 5741,7831 5815,7914 5894,7998 5944,8053 5978,8087 5990,8101 5996,8118 6002,8146 6014,8182 6032,8215 6059,8256 6099,8302 6015,8359 5975,8384 5948,8415 5934,8434 5927,8459 5925,8481 5928,8498 5934,8543 6016,8729 6025,8754 6024,8785 6025,8807 6013,8858 6006,8884 5992,8929 5989,8942 5980,8971 5977,8983 5975,8988 5967,9023 5963,9035 5949,9075 5938,9107 5936,9114 5928,9139 5934,9142 5999,9162 5970,9244 5960,9269 5951,9293 5987,9293 5977,9306 5971,9321 5964,9363 5951,9431 5936,9515 5937,9539 5941,9585 5960,9674 5968,9707 5937,9709 5928,9705 Z M 5928,9705 L 5928,9705 Z"/>
       <path fill="rgb(255,000,255)" stroke="none" d="M 7862,9884 L 7919,9884 7982,9888 7991,9880 8130,9875 8135,9888 8157,9880 8226,9856 8257,9848 8253,9830 8245,9816 8249,9816 8381,9787 8392,9784 8422,9848 8495,9827 8556,9813 8632,9794 8640,9791 8720,9768 8810,9741 8853,9731 8925,9714 8946,9707 8928,9642 8914,9599 8916,9531 8918,9490 8934,9443 8944,9398 8958,9362 8964,9339 9040,9304 9095,9267 9092,9324 9091,9340 9095,9368 9102,9395 9111,9413 9133,9448 9180,9523 9200,9660 9199,9791 9212,9838 9306,10012 9361,10172 9382,10279 9421,10357 9487,10414 9546,10469 9570,10514 9602,10608 9649,10734 9782,11063 9806,11121 9845,11195 9935,11371 9980,11456 10015,11522 10036,11560 10065,11566 10110,11561 10186,11550 10306,11532 10351,11535 10434,11562 10519,11596 10545,11616 10563,11731 10711,11964 10409,11937 10219,11897 9941,11756 9836,11659 9784,11601 9658,11399 9542,11189 9393,11015 9187,10834 8999,10736 8842,10687 8735,10658 8537,10637 8392,10644 8236,10678 8078,10721 7948,10762 7810,10848 7711,10927 7511,11086 7469,11040 7436,10988 7425,10966 7417,10939 7414,10919 7414,10897 7430,10799 7462,10662 7468,10643 7471,10618 7475,10606 7479,10595 7487,10559 7490,10544 7497,10517 7503,10492 7506,10472 7515,10436 7525,10396 7531,10366 7536,10349 7541,10323 7546,10304 7558,10237 7572,10176 7578,10151 7580,10111 7586,10110 7589,10106 7588,10097 7585,10086 7584,10080 7568,10024 7543,9980 7555,9983 7566,9980 7575,9975 7696,9965 7867,9944 7862,9884 Z M 7862,9884 L 7862,9884 Z"/>
       <path fill="rgb(128,000,000)" stroke="none" d="M 6781,10815 L 6743,10844 6568,10756 6536,10738 6527,10733 6545,10710 6546,10681 6512,10569 6493,10491 6477,10435 6454,10346 6433,10257 6490,10240 6569,10218 6603,10208 6619,10203 6673,10186 6725,10171 6754,10163 6778,10155 6824,10141 6877,10126 6889,10123 6936,10108 6987,10095 7038,10080 7079,10066 7096,10054 7131,10025 7141,10017 7202,9970 7208,9966 7270,9915 7318,9876 7388,9827 7445,9802 7473,9850 7483,9869 7498,9897 7524,9948 7544,9980 7569,10024 7585,10080 7587,10086 7589,10097 7589,10106 7587,10110 7581,10111 7579,10151 7573,10176 7559,10237 7547,10304 7542,10323 7537,10350 7532,10367 7526,10397 7516,10437 7507,10473 7504,10493 7499,10518 7491,10545 7489,10560 7481,10596 7476,10607 7472,10619 7469,10644 7464,10663 7431,10800 7416,10897 7385,10892 7235,10873 7127,10881 6918,10880 6921,10865 6930,10837 6938,10808 6939,10783 6940,10766 6937,10695 6936,10687 6879,10662 6849,10647 6844,10641 6769,10695 6829,10785 6827,10788 6815,10786 6781,10815 Z M 6781,10815 L 6781,10815 Z"/>
       <path fill="rgb(255,128,128)" stroke="none" d="M 7354,-305 L 7531,-261 7864,-161 7947,-129 8084,-70 8191,-30 8263,-6 8345,20 8406,36 8487,56 8545,71 8620,86 8724,101 8767,108 8810,114 8847,118 8893,122 8949,125 9011,132 9062,133 9122,132 9181,133 9249,131 9309,129 9357,125 9399,124 9385,180 9382,207 9375,252 9365,301 9352,353 9341,393 9331,429 9323,465 9308,513 9297,555 9291,584 9281,625 9276,656 9267,706 9258,769 9251,810 9240,872 9236,897 9229,930 9216,996 9204,1051 9195,1087 9154,1268 9144,1311 9121,1408 9104,1481 9095,1524 9078,1605 9069,1639 9059,1679 9051,1715 9043,1756 9028,1820 9018,1863 8997,1955 8987,2002 8968,2092 8919,2111 8802,2091 8690,2072 8631,2069 8536,2024 8504,2007 8477,1993 8443,1965 8425,1946 8383,1949 8377,1906 8372,1894 8368,1872 8348,1840 8324,1815 8315,1803 8308,1787 8296,1771 8283,1746 8270,1724 8239,1689 8236,1677 8194,1664 8177,1652 8136,1634 8115,1614 8092,1603 8059,1556 8034,1540 8001,1523 7993,1515 7992,1506 8004,1498 8015,1467 8025,1455 8029,1448 8030,1437 8017,1420 8018,1393 8014,1367 8009,1357 8007,1333 7992,1287 7981,1264 7961,1250 7948,1238 7912,1230 7853,1199 7845,1173 7814,1151 7805,1128 7818,1104 7828,1075 7825,1011 7809,988 7789,970 7763,939 7758,918 7752,864 7777,809 7782,791 7787,744 7792,742 7795,737 7789,683 7784,678 7777,675 7766,673 7750,668 7682,267 7666,233 7606,190 7477,118 7383,-174 7354,-305 Z M 7354,-305 L 7354,-305 Z"/>
       <path fill="rgb(000,128,000)" stroke="none" d="M 5604,7675 L 5548,7580 5552,7571 5550,7543 5538,7511 5533,7487 5529,7454 5524,7443 5515,7421 5502,7419 5493,7418 5478,7415 5467,7414 5440,7404 5447,7347 5451,7283 5457,7229 5464,7179 5469,7133 5480,7066 5498,6990 5507,6959 5539,6868 5597,6744 5657,6647 5685,6610 5697,6591 5715,6571 5806,6441 5882,6363 6081,6158 6150,6115 6276,6018 6310,5999 6387,5947 6413,5940 6434,5927 6590,5922 6595,5986 6605,6078 6599,6100 6622,6341 6630,6438 6639,6523 6650,6644 6670,6900 6682,7029 6690,7114 6719,7398 6724,7440 6730,7507 6732,7516 6741,7632 6746,7663 6750,7721 6755,7772 6756,7789 6762,7842 6770,7945 6773,8008 6775,8046 6778,8114 6779,8129 6780,8164 6780,8186 6783,8221 6783,8250 6785,8300 6787,8329 6787,8349 6789,8402 6792,8439 6792,8459 6800,8652 6805,8719 6822,8755 6766,8728 6456,8536 6425,8514 6354,8469 6261,8410 6118,8319 6098,8303 6058,8257 6031,8216 6013,8182 6002,8147 5995,8119 5989,8102 5977,8088 5943,8054 5893,7999 5814,7915 5740,7832 5635,7717 5604,7675 Z M 5604,7675 L 5604,7675 Z"/>
       <path fill="rgb(255,000,000)" stroke="none" d="M 6218,9538 L 6220,9586 6220,9606 6221,9641 6221,9671 6223,9716 6230,9837 6232,9866 6238,9965 6238,10014 6231,10087 6238,10142 6241,10157 6252,10238 6257,10311 6293,10299 6296,10299 6335,10286 6387,10271 6410,10264 6434,10258 6455,10347 6478,10435 6494,10491 6513,10569 6548,10681 6546,10710 6529,10733 6499,10752 6488,10760 6457,10785 6434,10811 6422,10823 6416,10826 6413,10828 6381,10826 6375,10866 6373,10882 6359,10967 6285,10956 6214,10943 6224,10997 6215,10995 6154,10983 6086,10966 5998,10945 5985,10921 5954,10857 5872,10843 5818,10834 5779,10802 5776,10798 5784,10795 5799,10785 5814,10779 5837,10766 5839,10764 5838,10751 5841,10727 5841,10723 5849,10684 5861,10608 5862,10600 5864,10593 5867,10578 5871,10544 5875,10524 5877,10515 5877,10506 5884,10468 5884,10457 5883,10435 5892,10407 5895,10302 5901,10260 5914,10213 5914,10160 5899,10071 5929,10068 5926,10054 5924,10032 5924,9982 5924,9963 5928,9945 5937,9885 5914,9874 5922,9809 5936,9727 5936,9707 5967,9706 5958,9672 5939,9583 5935,9537 5935,9514 5948,9514 6179,9534 6218,9538 Z M 6218,9538 L 6218,9538 Z"/>
       <path fill="rgb(000,000,128)" stroke="none" d="M 8099,8225 L 8210,8177 8212,8175 8359,8187 8360,8145 8364,8095 8368,8043 8485,8041 8495,8044 8642,8051 8716,8081 8718,8080 8762,8095 8794,8091 8819,8067 8856,8063 8885,8099 8939,8128 8940,8200 8925,8259 8936,8330 8962,8402 8971,8452 8983,8484 8984,8599 9010,8652 9013,8731 9003,8876 9007,8922 9001,8961 9026,9145 9095,9243 9093,9266 9079,9293 9040,9305 8964,9341 8959,9364 8944,9399 8934,9444 8918,9491 8916,9533 8916,9601 8929,9644 8946,9709 8926,9715 8855,9732 8811,9742 8721,9770 8642,9792 8633,9795 8557,9814 8496,9828 8424,9850 8393,9785 8380,9788 8250,9817 8246,9818 8255,9831 8258,9850 8227,9857 8158,9882 8136,9888 8131,9876 7991,9882 7982,9889 7920,9885 7862,9885 7867,9946 7696,9966 7575,9976 7566,9982 7555,9984 7543,9982 7523,9949 7497,9899 7482,9871 7472,9851 7444,9803 7408,9737 7390,9705 7380,9691 7378,9687 7283,9505 7271,9483 7261,9464 7243,9430 7232,9406 7207,9362 7184,9318 7132,9220 7130,9214 7064,9080 7058,9068 7037,9020 7015,8959 6962,8924 6949,8908 6821,8754 6803,8718 6798,8651 6791,8458 6791,8438 6788,8401 6785,8349 6786,8328 6784,8300 6782,8250 6781,8220 6779,8186 6779,8163 6778,8128 6777,8113 6797,8114 6899,8110 7008,8102 7070,8102 7140,8095 7236,8076 7229,8057 7219,8030 7184,7921 7178,7901 7173,7884 7163,7852 7161,7825 7415,7793 7513,7785 7526,7782 7542,7781 7614,7781 7636,7780 7634,7798 7634,7809 7637,7816 7637,7822 7646,7843 7649,7852 7658,7864 7671,7885 7682,7897 7721,7931 7768,7969 7800,7997 7812,8005 7852,8035 7886,8060 7916,8080 7926,8088 7946,8101 7977,8124 8008,8150 8017,8158 8024,8163 8031,8168 8075,8203 8088,8217 8099,8225 Z M 8099,8225 L 8099,8225 Z"/>
       <path fill="rgb(128,128,000)" stroke="none" d="M 735,-28 L 921,7 991,26 1072,46 1215,79 1353,113 1607,149 1782,161 1880,159 1970,158 2110,147 2209,137 2231,235 2242,326 2255,418 2270,477 2277,509 2282,537 2285,559 2292,618 2294,668 2291,691 2285,720 2278,745 2263,794 2260,801 2231,888 2224,935 2217,1001 2207,1092 2203,1135 2198,1174 2196,1182 2191,1287 2188,1323 2187,1425 2187,1473 2187,1475 2202,1551 2211,1597 2218,1632 2225,1676 2228,1713 2228,1737 2229,1750 2229,1775 2230,1823 2230,1840 2228,1847 2214,1850 2175,1853 2181,1895 2182,1935 2185,1972 2187,2027 2191,2080 2191,2108 2194,2127 2194,2153 2195,2172 2197,2197 2268,2515 2486,3201 2488,3236 2496,3322 2496,3324 2500,3384 2505,3457 2507,3500 2511,3519 2512,3534 2519,3547 2527,3555 2535,3557 2538,3583 2789,3927 2890,4068 2884,4077 2830,4189 2798,4251 2864,4410 2916,4514 2977,4649 2982,4661 2989,4676 3012,4729 3018,4751 3025,4766 3081,4921 3117,5046 3120,5068 3124,5100 3128,5125 3134,5172 3140,5221 3145,5251 3157,5356 3164,5398 3179,5518 3185,5597 3190,5639 3190,5689 3191,5717 3199,5815 3203,5902 3205,5928 3218,6052 3219,6076 3223,6094 3227,6149 3231,6173 3232,6189 3233,6224 3233,6252 3235,6276 3236,6309 3237,6321 3239,6366 3239,6373 3238,6389 3238,6404 3235,6430 3232,6449 3229,6462 3227,6477 3225,6499 3223,6524 3220,6555 3217,6569 3207,6627 3206,6629 3133,7078 3102,7220 3051,7465 2943,7972 3026,8646 3044,8809 3042,8812 3039,8816 3035,8817 3031,8819 3030,8819 3028,8817 3009,8819 3000,8821 2995,8822 2992,8824 2990,8825 2985,8828 2977,8828 2972,8831 2966,8831 2963,8833 2961,8835 2954,8834 2950,8830 2946,8829 2946,8828 2942,8826 2940,8824 2934,8824 2930,8827 2926,8827 2926,8832 2931,8832 2931,8834 2930,8836 2931,8840 2934,8840 2934,8842 2936,8846 2936,8848 2932,8856 2930,8858 2926,8860 2921,8862 2915,8863 2910,8861 2904,8862 2899,8858 2891,8857 2882,8855 2879,8851 2876,8851 2874,8849 2870,8849 2865,8848 2859,8848 2855,8847 2854,8847 2850,8844 2848,8844 2845,8836 2845,8835 2849,8831 2851,8829 2852,8825 2853,8824 2853,8822 2840,8810 2830,8804 2827,8804 2824,8802 2806,8803 2799,8806 2794,8807 2790,8809 2783,8812 2777,8814 2774,8815 2768,8817 2764,8819 2743,8821 2737,8819 2733,8818 2730,8816 2726,8816 2715,8812 2709,8809 2694,8803 2679,8796 2661,8788 2650,8784 2637,8779 2631,8777 2617,8772 2606,8765 2603,8766 2592,8762 2587,8759 2576,8757 2567,8753 2560,8750 2549,8748 2546,8744 2538,8743 2529,8740 2515,8735 2504,8730 2501,8729 2492,8724 2478,8725 2469,8722 2452,8716 2448,8714 2444,8713 2435,8712 2427,8707 2422,8707 2418,8706 2414,8704 2413,8703 2404,8702 2399,8700 2397,8700 2390,8699 2384,8697 2380,8696 2373,8695 2367,8696 2362,8694 2358,8692 2352,8691 2346,8689 2339,8688 2308,8690 2297,8688 2286,8685 2280,8683 2275,8682 2266,8679 2259,8676 2254,8674 2252,8672 2241,8673 2235,8673 2229,8669 2223,8669 2216,8668 2210,8666 2203,8665 2196,8666 2185,8665 2177,8664 2144,8667 2139,8669 2132,8669 2124,8671 2117,8674 2109,8672 2102,8673 2093,8672 2089,8674 2084,8673 2078,8675 2070,8677 2030,8680 2019,8678 2013,8679 2001,8676 1994,8674 1990,8672 1981,8670 1975,8669 1971,8667 1966,8665 1963,8663 1961,8664 1959,8662 1955,8662 1942,8658 1937,8656 1921,8654 1918,8653 1910,8651 1908,8650 1905,8650 1897,8648 1888,8645 1881,8645 1867,8640 1858,8638 1856,8639 1854,8637 1850,8636 1849,8636 1843,8633 1839,8631 1835,8629 1833,8629 1831,8627 1826,8625 1824,8623 1819,8619 1817,8617 1812,8613 1810,8609 1809,8606 1807,8600 1805,8595 1803,8578 1801,8572 1800,8563 1798,8548 1795,8533 1793,8515 1795,8511 1794,8500 1795,8495 1796,8491 1798,8486 1800,8479 1799,8475 1803,8466 1802,8461 1800,8457 1798,8428 1795,8425 1797,8420 1796,8407 1794,8403 1791,8397 1790,8385 1788,8379 1785,8364 1783,8353 1782,8337 1782,8331 1784,8322 1783,8317 1785,8309 1784,8298 1785,8286 1786,8280 1786,8273 1787,8256 1789,8251 1789,8247 1790,8242 1792,8239 1796,8235 1797,8231 1798,8228 1797,8217 1795,8217 1795,8211 1797,8209 1799,8209 1799,8211 1801,8209 1804,8199 1806,8196 1807,8196 1809,8192 1815,8184 1817,8178 1820,8173 1824,8169 1823,8163 1826,8159 1826,8155 1828,8151 1829,8149 1829,8146 1835,8140 1837,8135 1839,8132 1841,8128 1842,8123 1845,8119 1845,8116 1847,8112 1848,8106 1853,8094 1854,8091 1854,8087 1855,8081 1853,8078 1851,8047 1852,8043 1852,8036 1853,8032 1855,8028 1857,8026 1856,8012 1858,8008 1860,8003 1862,7998 1861,7992 1863,7989 1863,7985 1865,7983 1867,7980 1865,7961 1866,7958 1867,7948 1866,7937 1868,7934 1870,7931 1870,7927 1867,7925 1865,7921 1863,7919 1862,7917 1862,7915 1862,7914 1864,7914 1866,7912 1868,7909 1869,7900 1869,7894 1871,7891 1870,7887 1873,7880 1872,7870 1873,7859 1869,7810 1867,7802 1865,7799 1865,7797 1863,7794 1861,7793 1858,7782 1848,7764 1839,7748 1835,7739 1830,7730 1828,7721 1825,7719 1825,7716 1821,7706 1819,7700 1818,7693 1814,7684 1811,7673 1809,7663 1807,7656 1807,7636 1807,7621 1807,7592 1806,7583 1806,7555 1801,7498 1797,7488 1795,7475 1790,7470 1785,7454 1782,7454 1776,7449 1771,7439 1772,7432 1772,7423 1768,7406 1765,7400 1760,7393 1762,7386 1757,7380 1753,7374 1742,7351 1736,7344 1734,7336 1731,7329 1719,7314 1714,7307 1711,7298 1710,7293 1706,7285 1702,7282 1696,7272 1689,7264 1687,7255 1687,7242 1685,7230 1685,7221 1680,7216 1674,7205 1672,7192 1666,7178 1667,7164 1669,7158 1669,7154 1666,7149 1662,7143 1663,7132 1664,7125 1664,7118 1661,7110 1653,7097 1650,7078 1650,7058 1650,7049 1646,7034 1642,7032 1640,7029 1630,7017 1619,6994 1611,6976 1596,6959 1590,6956 1585,6950 1578,6938 1575,6926 1569,6856 1566,6825 1564,6788 1562,6771 1556,6752 1547,6709 1537,6673 1535,6645 1530,6633 1530,6626 1529,6626 1529,6624 1528,6622 1528,6620 1526,6617 1526,6615 1523,6611 1523,6606 1521,6604 1521,6600 1519,6598 1518,6597 1516,6596 1516,6594 1515,6592 1514,6583 1512,6581 1512,6574 1514,6574 1511,6570 1509,6537 1507,6537 1506,6532 1504,6530 1504,6526 1502,6527 1502,6525 1500,6522 1499,6518 1501,6516 1501,6514 1503,6513 1502,6500 1504,6499 1503,6491 1505,6489 1505,6482 1506,6480 1506,6471 1507,6469 1505,6447 1507,6445 1506,6440 1508,6436 1507,6429 1509,6427 1509,6425 1511,6423 1511,6418 1512,6415 1512,6409 1513,6408 1512,6402 1514,6400 1514,6398 1516,6397 1516,6395 1518,6393 1518,6391 1519,6389 1519,6387 1521,6386 1521,6382 1522,6382 1521,6376 1523,6374 1523,6372 1525,6370 1523,6368 1523,6366 1525,6364 1524,6363 1526,6359 1528,6357 1528,6355 1530,6353 1531,6352 1533,6352 1534,6347 1536,6343 1538,6341 1538,6340 1540,6340 1540,6338 1540,6336 1540,6334 1542,6330 1544,6329 1546,6325 1547,6322 1549,6320 1549,6318 1550,6313 1550,6311 1552,6311 1551,6307 1553,6306 1553,6302 1555,6302 1555,6300 1556,6296 1554,6271 1552,6267 1552,6265 1550,6263 1550,6260 1547,6258 1547,6249 1545,6247 1544,6240 1543,6237 1543,6235 1540,6230 1538,6226 1536,6224 1536,6222 1534,6220 1531,6217 1531,6215 1530,6213 1530,6211 1523,6207 1523,6205 1519,6203 1519,6201 1518,6201 1518,6199 1514,6199 1510,6199 1510,6197 1507,6195 1502,6193 1500,6192 1496,6192 1495,6190 1493,6190 1491,6187 1489,6188 1487,6184 1484,6182 1483,6179 1481,6177 1481,6175 1479,6175 1479,6173 1477,6171 1476,6169 1474,6170 1474,6169 1472,6167 1471,6150 1470,6148 1469,6135 1470,6134 1469,6126 1471,6125 1470,6108 1468,6106 1467,6095 1469,6093 1468,6090 1470,6086 1470,6080 1471,6079 1471,6069 1473,6067 1472,6059 1474,6056 1473,6050 1474,6046 1474,6043 1475,6039 1477,6037 1477,6034 1479,6030 1479,6028 1480,6026 1480,6024 1482,6021 1483,6016 1485,6014 1486,6011 1488,6009 1488,6003 1486,6001 1485,5987 1486,5983 1488,5981 1490,5976 1490,5974 1490,5970 1492,5968 1496,5964 1495,5960 1497,5958 1497,5955 1499,5953 1498,5942 1496,5940 1495,5929 1493,5927 1492,5916 1490,5914 1490,5910 1487,5908 1487,5904 1485,5903 1484,5901 1484,5899 1482,5897 1480,5879 1482,5877 1482,5871 1483,5871 1482,5864 1481,5862 1481,5857 1478,5855 1478,5851 1476,5850 1476,5849 1474,5847 1465,5850 1465,5849 1472,5847 1469,5843 1477,5840 1477,5837 1475,5834 1475,5832 1472,5830 1472,5828 1470,5827 1470,5825 1468,5823 1467,5817 1466,5817 1466,5816 1464,5816 1462,5814 1462,5812 1460,5811 1460,5809 1458,5807 1456,5807 1454,5804 1448,5799 1446,5799 1444,5796 1443,5796 1441,5794 1438,5792 1436,5790 1434,5791 1432,5789 1431,5787 1429,5787 1427,5786 1425,5784 1423,5784 1423,5782 1421,5783 1419,5781 1419,5779 1417,5779 1417,5777 1415,5776 1413,5776 1413,5774 1409,5770 1409,5768 1408,5769 1405,5767 1405,5766 1403,5766 1399,5762 1399,5760 1397,5758 1396,5756 1390,5759 1390,5757 1387,5756 1386,5739 1384,5737 1384,5730 1382,5728 1382,5722 1380,5720 1377,5716 1377,5712 1375,5711 1375,5709 1373,5709 1371,5705 1368,5703 1365,5701 1363,5701 1363,5699 1361,5697 1359,5695 1359,5693 1356,5690 1356,5686 1355,5684 1354,5673 1355,5671 1354,5664 1356,5662 1356,5658 1358,5657 1359,5653 1359,5651 1361,5647 1363,5647 1364,5644 1364,5642 1366,5641 1367,5637 1369,5634 1369,5630 1370,5626 1370,5623 1372,5621 1372,5615 1373,5613 1373,5608 1374,5606 1374,5601 1375,5596 1375,5592 1377,5592 1376,5579 1378,5578 1378,5574 1379,5572 1379,5570 1381,5570 1381,5565 1382,5565 1381,5556 1383,5554 1383,5552 1385,5550 1384,5548 1386,5544 1386,5539 1388,5536 1387,5533 1389,5533 1389,5527 1390,5523 1389,5520 1391,5518 1395,5511 1396,5507 1398,5502 1398,5499 1401,5495 1403,5495 1402,5489 1404,5488 1404,5484 1406,5482 1405,5480 1407,5478 1407,5475 1408,5471 1409,5468 1409,5463 1411,5461 1411,5459 1413,5457 1414,5452 1414,5450 1416,5448 1416,5446 1417,5443 1418,5439 1420,5435 1422,5434 1424,5431 1424,5429 1425,5427 1428,5420 1428,5418 1430,5418 1430,5416 1431,5414 1433,5409 1433,5409 1435,5406 1435,5404 1436,5404 1435,5400 1437,5398 1437,5396 1439,5395 1439,5393 1441,5391 1440,5389 1442,5387 1442,5385 1444,5384 1444,5382 1445,5382 1445,5380 1446,5375 1446,5373 1448,5372 1448,5368 1450,5366 1448,5346 1450,5344 1449,5333 1451,5331 1451,5329 1452,5328 1452,5326 1453,5322 1455,5320 1455,5315 1459,5310 1458,5306 1460,5305 1460,5299 1460,5297 1460,5288 1462,5288 1462,5286 1463,5284 1463,5281 1465,5279 1467,5275 1467,5273 1469,5271 1468,5269 1469,5267 1469,5265 1471,5265 1473,5263 1473,5261 1475,5261 1475,5260 1477,5258 1479,5258 1479,5253 1481,5251 1481,5249 1483,5249 1485,5248 1485,5244 1486,5242 1488,5242 1488,5238 1489,5237 1491,5235 1493,5232 1494,5230 1494,5228 1496,5226 1496,5221 1499,5219 1498,5217 1500,5215 1500,5214 1502,5214 1502,5212 1504,5211 1506,5209 1506,5207 1508,5207 1508,5203 1510,5202 1512,5200 1514,5198 1516,5196 1518,5195 1518,5193 1519,5193 1521,5191 1522,5190 1522,5188 1524,5186 1524,5184 1526,5184 1528,5182 1528,5180 1529,5179 1528,5176 1530,5176 1532,5174 1534,5172 1534,5170 1532,5170 1532,5168 1534,5167 1538,5167 1537,5159 1535,5159 1535,5156 1537,5154 1537,5152 1538,5152 1537,5143 1539,5141 1541,5140 1541,5138 1544,5136 1544,5134 1542,5133 1542,5127 1544,5127 1544,5125 1545,5123 1545,5112 1545,5111 1547,5109 1549,5109 1551,5105 1553,5102 1552,5091 1554,5091 1554,5086 1557,5086 1558,5084 1562,5082 1564,5081 1566,5079 1566,5076 1567,5074 1567,5072 1569,5072 1568,5070 1570,5068 1572,5068 1572,5066 1574,5065 1575,5063 1574,5057 1573,5055 1571,5055 1567,5057 1562,5058 1559,5060 1553,5060 1552,5062 1550,5063 1550,5061 1547,5059 1545,5059 1545,5054 1547,5052 1551,5051 1551,5049 1552,5047 1551,5043 1553,5042 1551,5040 1550,5042 1548,5043 1546,5041 1544,5043 1542,5043 1542,5044 1540,5046 1534,5047 1534,5049 1529,5049 1527,5047 1524,5045 1524,5044 1522,5045 1521,5034 1523,5029 1523,5027 1525,5025 1527,5023 1528,5023 1528,5022 1532,5022 1533,5020 1531,5018 1531,5009 1532,5007 1532,5005 1536,5000 1537,4999 1539,4999 1543,4997 1547,4997 1548,4994 1547,4992 1546,4991 1546,4986 1547,4984 1549,4981 1548,4979 1550,4979 1552,4977 1554,4977 1554,4972 1552,4972 1551,4955 1548,4952 1550,4946 1548,4944 1546,4943 1545,4940 1547,4939 1547,4933 1551,4932 1550,4928 1552,4926 1552,4921 1550,4921 1550,4917 1553,4913 1554,4913 1558,4909 1560,4909 1560,4907 1562,4907 1565,4903 1564,4901 1566,4901 1568,4898 1570,4895 1570,4893 1572,4891 1572,4887 1574,4886 1574,4884 1572,4880 1574,4878 1576,4876 1579,4873 1579,4869 1583,4864 1581,4864 1575,4864 1572,4862 1567,4863 1565,4861 1561,4861 1561,4859 1559,4859 1559,4855 1561,4854 1559,4852 1558,4843 1560,4843 1560,4841 1562,4839 1561,4835 1557,4835 1557,4833 1559,4830 1559,4826 1563,4826 1564,4824 1566,4822 1566,4815 1567,4812 1566,4810 1568,4810 1568,4809 1572,4805 1572,4798 1573,4796 1575,4796 1577,4794 1580,4791 1582,4789 1582,4786 1580,4784 1577,4785 1577,4783 1579,4780 1581,4778 1583,4778 1583,4771 1581,4771 1578,4769 1580,4767 1580,4764 1582,4764 1584,4762 1584,4760 1586,4760 1585,4758 1586,4754 1590,4753 1592,4750 1591,4744 1589,4743 1589,4740 1587,4738 1587,4734 1588,4731 1590,4728 1586,4721 1583,4718 1582,4712 1580,4710 1580,4709 1577,4705 1577,4701 1575,4700 1577,4697 1579,4697 1579,4694 1577,4694 1576,4688 1574,4689 1574,4686 1572,4684 1563,4684 1563,4682 1560,4681 1558,4679 1560,4677 1560,4676 1558,4674 1558,4672 1556,4672 1556,4670 1554,4666 1554,4665 1550,4661 1546,4658 1544,4656 1543,4653 1542,4647 1540,4627 1541,4623 1540,4611 1542,4609 1542,4605 1543,4603 1543,4601 1545,4600 1545,4598 1547,4595 1547,4593 1549,4591 1549,4589 1549,4588 1551,4588 1553,4586 1555,4584 1564,4583 1564,4581 1566,4579 1568,4579 1570,4581 1573,4584 1573,4586 1577,4586 1579,4587 1583,4587 1584,4585 1584,4581 1583,4578 1582,4571 1580,4565 1578,4564 1577,4562 1575,4560 1577,4556 1575,4554 1577,4553 1579,4551 1578,4549 1576,4547 1570,4543 1569,4543 1567,4543 1559,4539 1558,4539 1556,4538 1554,4538 1551,4536 1545,4536 1545,4534 1544,4533 1544,4531 1542,4530 1541,4523 1543,4520 1544,4518 1544,4516 1546,4516 1548,4514 1550,4512 1566,4511 1567,4510 1569,4507 1569,4505 1571,4503 1571,4501 1569,4499 1568,4487 1566,4486 1565,4484 1564,4482 1564,4478 1562,4477 1560,4475 1558,4473 1557,4471 1553,4468 1553,4467 1550,4463 1548,4461 1547,4456 1545,4454 1545,4450 1547,4448 1546,4437 1548,4435 1547,4432 1549,4429 1549,4427 1550,4425 1550,4423 1552,4421 1553,4417 1555,4415 1555,4413 1557,4411 1560,4410 1564,4408 1566,4407 1565,4405 1569,4405 1572,4403 1578,4402 1580,4400 1583,4400 1594,4396 1598,4394 1599,4392 1602,4390 1606,4385 1608,4382 1610,4382 1609,4378 1611,4376 1611,4374 1612,4372 1614,4371 1630,4358 1652,4344 1669,4327 1679,4317 1702,4298 1722,4279 1726,4272 1730,4263 1730,4262 1734,4258 1733,4254 1736,4249 1736,4245 1737,4236 1736,4229 1733,4216 1732,4207 1729,4203 1731,4192 1730,4185 1731,4179 1732,4175 1736,4172 1738,4167 1739,4165 1740,4163 1740,4154 1741,4143 1746,4132 1748,4127 1750,4118 1760,4107 1762,4105 1765,4099 1767,4097 1769,4092 1769,4086 1771,4081 1774,4072 1773,4058 1771,4055 1769,4053 1769,4051 1767,4048 1763,4002 1764,3994 1764,3987 1765,3982 1769,3975 1768,3960 1765,3952 1764,3936 1761,3930 1761,3928 1763,3923 1768,3918 1767,3915 1769,3911 1771,3907 1773,3905 1772,3891 1773,3880 1772,3874 1774,3867 1773,3863 1776,3860 1778,3855 1782,3853 1784,3846 1786,3844 1786,3840 1783,3831 1779,3816 1774,3808 1769,3801 1757,3791 1750,3784 1748,3781 1746,3775 1745,3772 1744,3770 1740,3768 1736,3763 1731,3758 1730,3756 1728,3753 1727,3745 1729,3740 1731,3734 1733,3729 1735,3726 1738,3722 1740,3719 1740,3711 1737,3708 1735,3706 1731,3707 1717,3711 1708,3717 1701,3720 1661,3723 1656,3726 1652,3727 1647,3729 1643,3727 1641,3728 1640,3727 1633,3723 1631,3719 1628,3717 1623,3709 1621,3704 1618,3700 1607,3690 1603,3688 1601,3687 1597,3687 1592,3685 1591,3685 1589,3684 1587,3685 1585,3683 1583,3683 1581,3681 1580,3679 1577,3674 1577,3668 1575,3664 1574,3660 1572,3656 1566,3647 1554,3632 1548,3626 1540,3616 1526,3602 1519,3596 1518,3592 1514,3589 1511,3585 1507,3576 1503,3566 1500,3562 1491,3534 1484,3514 1479,3505 1478,3494 1480,3488 1481,3483 1485,3479 1487,3477 1487,3475 1469,3445 1457,3422 1456,3419 1472,3388 1469,3386 1469,3384 1470,3381 1469,3379 1471,3375 1473,3372 1475,3369 1476,3365 1478,3363 1479,3360 1479,3356 1481,3341 1483,3330 1486,3320 1481,3314 1477,3308 1477,3303 1461,3285 1445,3274 1437,3271 1435,3262 1432,3249 1430,3242 1431,3238 1427,3233 1418,3230 1410,3225 1410,3214 1406,3200 1398,3191 1398,3190 1394,3180 1391,3169 1389,3164 1384,3159 1384,3154 1381,3150 1371,3144 1351,3132 1337,3128 1326,3127 1315,3124 1297,3123 1290,3121 1284,3115 1281,3117 1277,3120 1273,3122 1268,3118 1263,3112 1252,3105 1233,3097 1231,3095 1229,3095 1225,3091 1230,3086 1239,3082 1231,3073 1225,3071 1222,3074 1207,3066 1208,3060 1196,3052 1192,3050 1187,3049 1179,3044 1174,3040 1165,3032 1162,3031 1156,3030 1154,3028 1140,3022 1133,3020 1128,3017 1119,3011 1116,3009 1112,3005 1110,3005 1105,3012 1101,3016 1088,3007 1083,3004 1083,3002 1082,2998 1080,2996 1080,2993 1077,2992 1072,2992 1071,2988 1070,2986 1056,2976 1047,2968 1042,2966 1040,2966 1038,2965 1036,2965 1036,2962 1033,2960 1024,2955 1019,2952 1015,2950 1012,2947 1002,2947 1001,2945 998,2943 998,2941 994,2939 992,2935 992,2932 989,2928 986,2924 982,2924 978,2920 977,2920 970,2915 966,2919 963,2917 970,2910 964,2904 960,2904 964,2901 965,2899 964,2892 959,2888 953,2885 950,2882 946,2880 941,2879 938,2877 936,2875 922,2863 918,2865 911,2859 915,2855 908,2848 910,2848 905,2844 896,2838 893,2836 889,2839 877,2827 875,2829 870,2833 867,2834 861,2837 858,2841 856,2843 852,2843 848,2847 838,2848 837,2845 836,2843 832,2836 817,2807 814,2802 814,2794 815,2793 789,2736 787,2729 783,2723 782,2712 780,2709 780,2706 781,2702 782,2699 781,2698 778,2689 774,2680 771,2671 771,2667 766,2668 763,2663 761,2663 761,2664 759,2664 757,2663 756,2663 751,2651 755,2648 755,2644 756,2641 759,2637 766,2636 768,2634 770,2627 769,2621 767,2618 766,2612 763,2608 753,2604 750,2605 746,2607 744,2610 741,2612 737,2611 735,2610 733,2610 733,2606 735,2604 737,2602 739,2602 741,2599 741,2598 743,2596 743,2594 745,2592 749,2592 751,2594 752,2593 754,2595 758,2595 760,2597 763,2595 767,2592 769,2588 770,2585 769,2563 771,2548 774,2537 775,2532 775,2525 776,2518 776,2514 778,2510 784,2507 786,2505 788,2498 787,2485 788,2484 789,2480 789,2473 793,2471 793,2469 790,2467 786,2465 781,2466 777,2464 775,2461 774,2452 776,2448 777,2442 777,2439 781,2435 783,2435 787,2429 791,2427 798,2426 802,2428 803,2429 805,2431 806,2431 807,2428 807,2422 803,2415 799,2411 795,2408 792,2407 789,2403 787,2399 789,2397 792,2394 796,2392 800,2391 801,2389 802,2385 804,2382 803,2376 801,2374 798,2373 792,2374 790,2370 791,2364 793,2361 800,2360 806,2363 810,2360 810,2359 808,2355 806,2352 805,2349 809,2344 818,2344 821,2345 825,2345 829,2347 832,2347 834,2338 833,2333 835,2329 833,2329 835,2309 836,2296 843,2285 841,2285 843,2266 843,2264 841,2263 841,2261 825,2259 824,2257 841,2259 838,2256 838,2248 840,2247 853,2246 854,2242 853,2231 860,2204 829,2193 828,2192 832,2192 833,2195 860,2202 868,2181 877,2156 872,2154 871,2152 876,2146 874,2145 874,2141 872,2139 872,2137 870,2134 868,2134 864,2131 866,2128 867,2126 869,2126 869,2124 871,2123 874,2119 876,2117 877,2112 855,2105 855,2107 848,2104 848,2103 879,2111 877,2109 879,2107 877,2105 875,2106 873,2104 872,2097 874,2093 872,2091 870,2071 870,2047 870,2036 867,2035 869,2027 869,2024 870,2020 872,2016 871,2009 873,1999 872,1993 873,1989 870,1987 868,1987 866,1989 864,1990 864,1992 862,1994 861,1994 857,1993 855,1991 853,1990 850,1990 848,1988 842,1985 839,1982 836,1982 834,1980 832,1978 832,1973 829,1970 826,1968 822,1964 820,1960 816,1960 814,1956 814,1949 809,1945 808,1925 810,1921 809,1910 804,1903 804,1899 806,1895 809,1890 810,1890 814,1888 820,1885 825,1885 827,1882 828,1879 831,1877 839,1877 841,1874 839,1873 835,1871 833,1871 831,1870 828,1869 823,1865 819,1860 811,1853 811,1846 813,1844 812,1842 814,1839 817,1838 817,1834 815,1825 814,1814 815,1812 817,1808 819,1806 815,1803 814,1801 818,1799 818,1795 824,1795 825,1794 825,1792 824,1790 820,1790 819,1788 821,1784 823,1783 824,1783 830,1776 835,1778 843,1779 842,1775 831,1765 829,1763 828,1754 830,1752 831,1749 832,1747 831,1747 831,1745 827,1745 826,1725 827,1723 829,1717 830,1716 832,1712 833,1710 835,1707 835,1705 831,1703 830,1692 832,1690 834,1688 830,1686 829,1683 831,1679 835,1674 836,1669 841,1663 841,1659 835,1652 833,1652 833,1650 831,1649 832,1645 832,1633 833,1630 833,1623 831,1620 830,1615 832,1610 830,1607 829,1598 823,1596 820,1594 822,1589 824,1587 824,1582 826,1582 827,1580 830,1579 832,1577 830,1573 829,1562 828,1561 826,1560 824,1561 822,1563 818,1565 817,1563 815,1562 813,1561 813,1559 811,1559 806,1555 805,1542 804,1539 805,1535 804,1524 806,1520 808,1520 814,1518 816,1510 815,1495 817,1494 823,1492 824,1490 827,1487 829,1482 831,1476 829,1454 825,1451 822,1446 822,1440 823,1435 823,1429 825,1425 827,1425 828,1423 833,1421 837,1416 837,1415 835,1412 830,1410 825,1408 817,1409 816,1411 818,1413 820,1417 818,1424 819,1426 816,1431 812,1435 806,1440 802,1440 798,1442 795,1444 791,1444 789,1442 786,1441 784,1440 784,1443 780,1447 776,1449 772,1454 766,1455 759,1458 757,1458 753,1456 748,1456 748,1462 746,1465 743,1467 740,1470 738,1470 731,1473 725,1477 721,1478 716,1476 714,1474 710,1476 707,1481 706,1482 700,1482 699,1484 697,1481 696,1475 692,1476 690,1480 689,1482 688,1482 675,1484 675,1488 678,1497 676,1501 674,1505 672,1506 669,1509 666,1511 660,1509 653,1510 650,1508 646,1508 641,1508 641,1506 639,1504 639,1508 644,1513 644,1519 642,1522 641,1524 641,1526 639,1530 637,1531 639,1535 642,1537 638,1546 639,1550 636,1552 636,1553 634,1557 632,1562 628,1569 626,1573 623,1578 616,1581 608,1578 606,1575 604,1573 602,1573 600,1575 601,1582 599,1586 597,1588 595,1590 593,1590 588,1589 586,1587 585,1585 583,1587 584,1590 582,1593 576,1593 573,1591 569,1591 566,1587 566,1583 557,1583 553,1586 550,1586 550,1581 542,1582 540,1583 542,1587 543,1596 541,1598 541,1605 539,1609 537,1613 538,1626 540,1629 541,1635 539,1640 534,1644 533,1646 531,1649 533,1649 533,1651 531,1656 530,1658 528,1661 528,1663 526,1665 523,1669 518,1673 514,1679 514,1684 512,1690 510,1694 507,1698 504,1702 494,1703 491,1701 487,1701 483,1699 482,1699 481,1693 479,1691 475,1695 473,1693 471,1695 470,1697 469,1700 467,1701 467,1703 471,1706 476,1708 482,1706 485,1705 489,1707 493,1707 498,1708 499,1711 495,1718 495,1721 491,1729 487,1731 485,1732 478,1735 477,1739 475,1743 474,1748 473,1757 471,1764 466,1767 465,1771 462,1777 458,1783 455,1783 455,1789 451,1790 449,1789 445,1791 443,1793 441,1793 441,1797 439,1801 436,1804 425,1809 418,1810 409,1808 411,1810 411,1812 413,1814 413,1815 411,1817 410,1821 410,1823 408,1826 408,1829 406,1831 405,1833 402,1835 394,1834 372,1835 371,1833 368,1832 366,1832 367,1834 365,1834 365,1836 354,1837 350,1835 349,1831 348,1830 340,1831 339,1834 336,1834 331,1832 324,1830 322,1826 316,1825 313,1825 307,1823 305,1824 299,1821 299,1819 297,1815 275,1817 273,1815 271,1812 270,1810 272,1808 270,1806 268,1808 267,1808 268,1804 267,1803 265,1801 267,1799 266,1795 264,1793 262,1791 262,1793 260,1793 258,1791 255,1794 255,1796 251,1797 247,1795 244,1797 242,1797 240,1795 238,1796 238,1798 237,1800 235,1800 234,1802 234,1804 232,1804 230,1802 229,1798 227,1798 226,1800 226,1804 224,1805 223,1808 219,1810 217,1812 220,1814 218,1814 214,1816 211,1815 210,1813 208,1811 204,1811 199,1809 193,1803 193,1801 195,1801 196,1799 194,1798 192,1798 192,1794 185,1791 185,1789 182,1788 179,1788 177,1786 175,1784 175,1777 171,1778 167,1779 164,1781 162,1783 161,1789 161,1798 163,1801 164,1803 160,1808 162,1809 164,1809 166,1812 165,1818 161,1826 159,1828 159,1830 157,1834 157,1835 155,1837 153,1839 151,1837 148,1838 146,1836 140,1836 137,1835 131,1832 129,1832 129,1834 131,1839 132,1843 130,1847 128,1850 125,1854 122,1857 118,1859 115,1860 113,1864 111,1866 109,1869 106,1869 107,1871 103,1872 101,1872 99,1874 96,1877 92,1881 88,1883 84,1884 82,1885 80,1884 77,1880 77,1876 76,1874 72,1877 70,1877 68,1879 63,1879 59,1881 57,1884 51,1889 47,1891 40,1894 33,1895 29,1893 14,1887 64,1608 171,1203 209,1134 262,876 369,746 429,609 472,566 568,499 666,466 672,443 673,432 675,421 684,367 706,257 685,122 627,-17 618,-38 633,-39 735,-28 Z M 735,-28 L 735,-28 Z"/>
       <path fill="rgb(064,064,064)" stroke="none" d="M 5546,11102 L 5448,11198 5419,11228 5327,11318 5294,11352 5288,11361 5278,11371 5257,11394 5241,11408 5235,11416 5228,11422 5216,11434 5204,11444 5178,11470 5168,11478 5148,11510 5110,11584 5072,11647 5030,11724 5026,11735 5011,11763 4988,11799 4959,11849 4916,11926 4907,11949 4889,11978 4856,12028 4848,12043 4810,12096 4789,12114 4767,12137 4751,12152 4733,12173 4718,12193 4683,12238 4674,12250 4648,12289 4639,12306 4621,12327 4613,12334 4611,12338 4604,12342 4600,12344 4582,12345 4576,12344 4567,12342 4562,12340 4560,12338 4556,12336 4552,12330 4540,12315 4529,12301 4516,12284 4509,12280 4499,12268 4487,12257 4480,12250 4470,12248 4458,12245 4447,12239 4436,12239 4402,12232 4373,12227 4357,12223 4350,12222 4343,12218 4316,12205 4298,12198 4276,12192 4255,12188 4244,12188 4206,12189 4161,12197 4148,12198 4128,12204 4109,12207 4045,12122 4047,12089 4046,12071 4054,12055 4073,12033 4105,12001 4114,11995 4119,11989 4131,11981 4145,11965 4170,11939 4227,11879 4239,11867 4240,11866 4250,11852 4310,11771 4367,11692 4368,11687 4376,11667 4382,11658 4395,11632 4415,11582 4427,11555 4437,11542 4447,11531 4487,11488 4497,11472 4510,11457 4526,11445 4538,11432 4557,11414 4591,11380 4639,11332 4655,11311 4676,11294 4705,11268 4771,11208 4786,11193 4865,11121 4944,11051 4954,11045 5013,10992 5088,10920 5136,10876 5167,10846 5233,10782 5263,10754 5275,10744 5280,10740 5289,10737 5322,10709 5352,10692 5388,10675 5447,10644 5455,10641 5469,10633 5483,10625 5500,10616 5513,10610 5538,10599 5562,10588 5632,10553 5691,10523 5698,10520 5717,10510 5736,10502 5843,10450 5864,10441 5883,10434 5885,10434 5886,10456 5885,10467 5879,10504 5876,10523 5872,10543 5868,10577 5865,10592 5864,10599 5863,10607 5850,10683 5842,10723 5842,10726 5839,10750 5840,10763 5838,10765 5815,10778 5800,10784 5785,10793 5778,10797 5779,10801 5819,10833 5779,10880 5770,10888 5731,10931 5701,10963 5683,10983 5646,11025 5631,11040 5611,11048 5595,11056 5546,11102 Z M 5546,11102 L 5546,11102 Z"/>
       <path fill="rgb(128,128,128)" stroke="none" d="M 5998,10944 L 6035,11011 6038,11024 6084,11162 6099,11218 6130,11322 6161,11427 6171,11462 6198,11548 6218,11615 6233,11664 6246,11712 6257,11746 6272,11795 6300,11892 6325,11973 6387,11968 6425,11963 6421,12032 6423,12054 6425,12117 6427,12135 6438,12178 6446,12217 6459,12254 6472,12310 6473,12314 6486,12366 6493,12397 6501,12416 6504,12436 6523,12511 6532,12588 6556,12659 6576,12730 6602,12817 6622,12872 6491,12951 6407,13001 6308,13055 6110,13138 5986,13179 5791,13233 5785,13148 5769,13017 5768,12979 5764,12933 5755,12886 5739,12823 5714,12759 5685,12689 5678,12669 5664,12632 5655,12607 5652,12596 5654,12572 5661,12547 5678,12475 5683,12461 5695,12418 5706,12393 5732,12328 5740,12305 5747,12294 5740,12280 5721,12182 5713,12128 5698,12048 5807,12031 5862,12025 5855,11998 5846,11974 5832,11941 5825,11923 5819,11920 5813,11913 5811,11911 5811,11909 5806,11887 5786,11824 5781,11816 5763,11760 5758,11749 5738,11678 5732,11667 5731,11652 5712,11600 5695,11551 5681,11510 5667,11476 5664,11467 5653,11433 5643,11402 5638,11381 5632,11366 5630,11353 5620,11325 5602,11273 5597,11254 5579,11198 5563,11156 5552,11123 5545,11102 5594,11056 5610,11048 5629,11040 5645,11025 5682,10983 5700,10964 5730,10931 5769,10888 5778,10880 5818,10833 5872,10841 5954,10856 5985,10920 5998,10944 Z M 5998,10944 L 5998,10944 Z"/>
</svg>