/* XPM */
static char * title_back_xpm[] = {
"1 96 2 1",
" 	c None",
".	c #FFFFFF",
".",
".",
".",
".",
".",
".",
".",
".",
".",
".",
".",
".",
".",
".",
".",
".",
".",
".",
".",
".",
".",
".",
".",
".",
".",
".",
".",
".",
".",
".",
".",
".",
".",
".",
".",
".",
".",
".",
".",
".",
".",
".",
".",
".",
".",
".",
".",
".",
".",
".",
".",
".",
".",
".",
".",
".",
".",
".",
".",
".",
".",
".",
".",
".",
".",
".",
".",
".",
".",
".",
".",
".",
".",
".",
".",
".",
".",
".",
".",
".",
".",
" ",
" ",
" ",
" ",
" ",
" ",
" ",
" ",
" ",
" ",
" ",
" ",
" ",
" ",
" "};
