P1
# CREATOR: GIMP PNM Filter Version 1.1
1 96
0000000000000000000000000000000000000000000000000000000000000000000000
00000000101101111111111111