<svg
   xmlns:rdf="http://www.w3.org/1999/02/22-rdf-syntax-ns#"
   xmlns:svg="http://www.w3.org/2000/svg"
   xmlns="http://www.w3.org/2000/svg"
   xml:space="preserve"
   stroke-linejoin="round"
   stroke-width="28.222"
   fill-rule="evenodd"
   preserveAspectRatio="xMidYMid"
   viewBox="0 0 11000 15037"
   height="150.37mm"
   width="110mm"
	>
	<filter id="desaturate">
		<feColorMatrix type="matrix" values=
			"0.3333 0.3333 0.3333 0 0
			0.3333 0.3333 0.3333 0 0
			0.3333 0.3333 0.3333 0 0
			0      0      0      1 0"
		/>
	</filter>

	<path id="kucukcekmece_whole" style="fill: #ffff00; fill-opacity: 0; stroke: #000000; stroke-width: 10; stroke-opacity: 1; filter: url(#desaturate);"
     d="m 7063.8897,-32.070053 -108.9753,2.97657 -147.0093,14.993057 -118.0152,11.0243059 -211.0051,40.9553011 -127,31.033412 -71.9887,16.977431 -95.9666,23.040806 0.055,0.2756 -74.0834,20.7257 -104.0144,23.97787 -88.966,21.99348 -77.997,14.99306 -93.0452,18.02474 -93.982,15.98525 -73.9733,12.01649 -108.0381,14.99306 -110.9596,13.00868 -97.0139,9.97699 -98.0062,7.00044 -91.9979,5.01606 -112.007,4.96094 -120.9915,0 -133.0085,-0.99219 -91.0054,-3.96875 -97.0139,-3.03169 -84.9974,-7.00043 -77.0049,-4.96094 -105.9987,-7.99262 -108.9753,-8.04774 -69.0121,-3.96875 -74.9653,-1.98438 -77.9969,-2.03949 -77.0049,0.99218 -73.036,2.0395 -85.9895,7.00043 -84.0051,7.99263 -87.9741,9.97699 -64.9884,8.98481 -60.0273,11.02431 -62.0118,11.02431 -77.9969,16.97743 -80.9735,18.02474 -86.0447,21.0013 -120.9918,29.98611 -114.9835,27.00955 -78.9891,16.97744 -134.0005,27.00955 -82.7925,11.85112 -0.2205,-0.88194 -98.9983,10.03212 -140.0087,10.96918 -90.0134,1.04731 -97.951,1.98438 -175.0109,-12.0165 -254,-35.99436 -138.0243,-34.00998 -142.9852,-32.96268 -81.0287,-20.00911 -69.9492,-19.01693 -186.0352,-35.00217 -101.97479,-11.02431 -14.99305,1.04731 8.9848,21.0013 57.98784,138.96138 21.0013,134.99264 -21.9935,110.02256 -8.9848,54.01912 -2.0395,10.96919 -0.9922,11.0243 -6.0082,22.98568 -97.95099,33.0178 -96.02171,66.97266 -42.99478,42.99478 -60.02735,137.03216 -106.9909,129.9765 -52.97179,258.0239 -38.03385,69.0122 -106.9909,404.9779 -49.99523,278.97 14.99306,6.0083 4.02387,2.0395 7.00044,-1.0473 7.00043,-2.9766 3.96875,-1.9844 6.00825,-5.016 1.98437,-2.9766 4.02388,-2.0395 5.01605,0 1.98438,-1.9844 1.98437,0 4.02388,-2.9765 0.99218,1.9844 0,3.9687 2.97657,4.0239 2.03949,0.9922 1.98438,-0.9922 3.96875,-0.9922 4.02387,-1.9844 4.02387,-4.0239 2.97656,-2.9765 1.98438,-2.0395 2.0395,0 3.96875,-0.9922 -0.99219,-1.9844 2.97656,0 2.0395,-3.0316 1.98437,-1.9844 1.98438,-3.9688 3.03168,-1.0473 3.96875,-1.9844 3.03169,-2.9765 2.97656,-4.0239 1.98438,-2.9766 2.03949,-4.0238 -0.99219,-3.9688 -2.03949,-5.016 0,-1.9844 2.03949,0 5.95313,2.9765 3.03168,0.9922 6.00825,0 1.98438,2.0395 2.97656,-1.0473 2.0395,2.0395 1.98437,-2.0395 1.98438,-1.9844 0,-0.9921 2.03949,-4.0239 0,-1.9844 1.98438,-1.9844 3.96875,-7.9926 1.04731,-6.0082 -2.0395,-3.0317 -1.98437,0 -1.98438,-0.9922 3.96875,-4.9609 -0.99219,-2.0395 -1.98437,-2.9766 0,-8.9848 0.99219,-6.0083 1.98437,-2.0395 3.03169,-1.9843 3.96875,-0.9922 4.02387,-0.9922 0,7.0004 1.98437,1.9844 1.98438,1.9844 3.03168,0 2.97656,1.0473 0,1.9844 7.00044,2.9765 0,4.0239 2.03949,0 1.98438,0.9922 -0.99219,1.9844 -2.0395,0 0,2.0395 6.00825,5.9531 5.01606,2.0395 3.96875,0 2.0395,1.9843 0.99219,1.9844 2.97656,0.9922 4.02387,-1.9844 1.98438,0 -2.97657,-1.9843 1.98438,-1.9844 4.02387,-2.0395 0.99219,-2.9766 1.98437,-0.9922 0,-4.0238 0.99219,-1.9844 1.98437,0 1.04731,3.9687 1.98438,2.0395 1.98437,0 0,-2.0395 0.99219,-1.9843 2.0395,0 0.99219,-1.9844 0,-1.9844 1.98437,-1.0473 1.98438,2.0395 2.03949,0 2.97657,-2.0395 4.02387,2.0395 3.96875,-0.9922 0,-2.0395 3.03168,-2.9765 1.98438,1.9843 1.98437,0 0,-1.9843 1.98438,1.9843 2.03949,1.9844 0.99219,4.0239 -1.98437,1.9844 1.98437,2.0395 0.99219,0.9921 -0.99219,3.9688 0.99219,0 1.98437,-1.9844 2.0395,1.9844 -2.0395,2.0395 0.99219,1.9844 2.0395,2.9765 1.98437,2.0395 21.99351,-2.0395 1.98436,4.0239 0,1.9844 6.00826,3.0316 2.03948,-1.0473 5.95314,2.0396 3.03168,0 6.00823,0.9921 1.98439,3.9688 7.00044,2.0395 5.01605,1.9844 2.97657,0 0.99218,-2.9766 7.99262,-1.0473 0.99218,1.0473 1.04733,3.9687 3.96875,1.9844 11.0243,-0.9922 0,-1.9843 1.98436,0 -0.99218,-1.9844 1.98436,0 3.03169,0.9922 0.99221,1.9843 21.99349,-0.9921 7.99262,0.9921 2.97654,-1.9843 1.04733,-1.9844 1.98436,-2.0395 0,-2.9766 1.98439,-3.0317 0,-1.9843 0.99218,-3.9688 2.03951,-2.0395 0,-0.9922 -2.03951,-1.9843 0,-1.9844 -1.98436,-2.0395 8.9848,2.0395 7.00044,-1.0473 11.0243,-4.961 2.97657,-3.0316 2.03948,-3.9688 0,-4.0239 1.98439,0 1.98436,-1.9843 4.02387,-1.9844 1.98439,0.9922 3.96875,-0.9922 0,-6.0083 3.03169,0 3.96875,-6.0082 3.03166,-6.0083 0.99221,-4.0238 5.01605,-2.9766 1.98438,-7.0004 0.99219,-8.9848 0.99218,-5.0161 2.0395,-4.0239 0.99218,-3.9687 7.00044,-3.0317 1.98436,-0.9922 4.0239,-1.9844 3.96872,-7.9926 0,-3.0317 4.0239,-6.9453 -0.99221,-3.0317 -5.01605,-0.9922 -4.02387,0 -3.96875,-1.9843 -3.03169,0.9922 -6.00825,1.9843 -4.96093,-1.9843 -4.02387,-3.0317 0,-1.9844 1.98439,-0.9922 1.0473,-2.9766 0.99218,-2.0394 1.98438,-1.9844 1.98437,1.9844 4.02386,-3.9688 1.98439,1.9844 0.99218,6.0082 0.99218,0 4.02387,1.9844 4.0239,0 2.97654,1.9844 9.97701,-0.9922 3.03169,-3.9688 2.97654,-4.0238 2.0395,-3.9688 1.98439,-6.0082 0,-5.0161 3.96875,-6.0082 5.01605,-3.9688 3.03169,-4.0239 1.98436,-1.9843 0,-2.0395 1.98439,-2.9766 0.99218,-1.9844 2.03951,-5.016 0,-1.9844 -2.03951,0 2.03951,-3.0317 0.99218,-1.9844 4.96093,-4.0238 2.03951,-4.961 -0.99218,-6.0082 -2.03951,-3.0317 -0.99218,-12.9536 1.98436,-4.0238 2.03951,-4.0239 0,-7.0004 1.98436,-1.9844 -0.99218,-8.9848 -1.98436,-4.0239 1.98436,-0.9922 7.99262,-0.9922 0,5.0161 2.97657,0 4.02386,-3.0317 8.98483,0 0,4.0239 3.03166,3.9687 3.96875,0 3.03169,2.0395 5.95314,0 2.03948,-3.0317 -0.99218,-2.9765 1.98439,-1.9844 0.99218,1.9844 1.98436,1.9843 5.01607,0.9922 1.98437,0 2.0395,-1.9843 1.98436,-1.9844 1.98439,-4.0239 -0.99218,-7.0004 1.98436,-1.9844 2.03951,0 1.98436,1.9844 1.98439,3.0316 7.99262,2.9766 7.00044,-2.9766 3.03169,-5.016 1.98436,-4.0239 4.02386,-7.0004 1.98439,-4.9609 1.98437,-4.0239 0,-0.9922 3.03168,-1.9844 -1.0473,-4.0238 4.02387,-8.9848 -2.97657,-1.9844 -2.0395,-4.0239 2.0395,-0.9922 1.98439,-4.0239 0,-1.9843 0.99218,-1.9844 1.98436,-3.0317 0,-6.0082 -4.96093,-4.961 0,-4.0238 1.98439,1.9843 0,2.0395 5.01605,0 3.96875,0 3.03169,1.9844 7.00044,-0.9922 5.95314,1.9844 3.0317,-1.9844 2.9765,-3.0317 2.0395,-0.9922 1.9844,-3.9687 1.9844,-4.0239 -2.9766,-8.9848 0,-4.0239 13.0087,-1.9843 0.9922,0 0.9922,-1.9844 1.9843,-4.0239 4.0239,-0.9922 0.9922,6.0083 1.9844,2.9765 0.9921,-1.9843 6.0083,0 0.9922,-0.9922 3.0317,-5.0161 3.9687,-1.9844 1.9844,1.9844 5.0161,1.9844 4.0238,-0.9922 6.0083,-3.9688 7.0004,-3.0316 1.9844,0 2.9766,-2.9766 3.0316,-1.9844 1.9844,-3.0317 0,-6.0082 5.0161,0 3.9687,2.0395 2.0395,0 7.0005,-3.0317 5.9531,-0.9922 4.0239,-5.016 4.0238,-1.9844 3.9688,-3.9688 0,-3.0316 1.9843,0.9921 3.0317,0.9922 1.9844,2.0395 4.0239,0 2.9766,-2.0395 4.0238,-1.9843 3.9688,0 6.0082,-5.0161 4.0239,-3.9688 2.9765,-5.016 -0.9921,-1.9844 1.9843,-7.0004 -1.9843,-4.0239 -1.9844,-1.9844 0.9922,-1.9844 7.9926,-0.9921 5.016,1.9843 4.961,1.9844 2.0395,3.0317 0,0.9922 -4.0239,4.9609 -5.016,2.0395 -0.9922,1.9844 -1.9844,0 -1.9844,4.0239 0,5.9531 -0.9922,5.0161 0,6.0082 2.9766,5.016 4.0239,2.9766 1.9843,21.9935 -1.9843,6.0083 -2.0395,5.016 -2.9766,2.9766 -0.9922,1.9843 -6.0082,2.0395 -1.9844,0.9922 0.9922,14.9931 -2.0395,7.9926 -5.9531,1.9844 -2.0395,0 -1.9844,4.0239 0.9922,11.0243 -0.9922,3.9687 0.9922,3.0317 0.9922,12.9536 5.016,4.0238 1.9844,0 0,1.9844 2.0395,0.9922 1.9844,1.0473 0.9922,1.9844 4.0238,-1.9844 1.9844,-2.0395 1.9844,-0.9922 1.9844,0.9922 1.0473,0.9922 0.9921,11.0243 1.9844,4.0239 -1.9844,1.9844 -3.0316,0.9921 -0.9922,1.9844 -1.9844,0 0,5.0161 -1.9844,1.9843 -2.0395,5.0161 3.0317,1.9844 6.0083,1.9844 0.9921,9.0399 1.9844,2.9765 -1.9844,5.0161 0.9922,5.0161 1.9844,2.9765 0,7.0005 -0.9922,2.9765 0,12.0165 -0.9922,4.0239 1.9844,0.9922 0,1.9843 1.9844,0 6.0082,7.0005 0,4.0239 -5.016,6.0082 -0.9922,4.9609 -3.9688,5.0161 -1.9843,4.0239 0.9921,2.9765 3.9688,1.9844 -1.9844,2.0395 -1.9844,1.9844 0.9922,10.9692 3.9688,2.0395 0,1.9843 -1.9844,2.9766 -0.9922,2.0395 -1.9844,3.9687 -0.9921,0.9923 -2.0395,6.0082 -0.9922,1.9844 0.9922,20.0091 4.0238,0 0,2.0395 0.9922,0 -0.9922,1.9843 -0.9922,2.9766 -2.0394,2.0395 1.0473,8.9848 1.9843,1.9844 10.9692,10.0321 0.9922,3.9688 -7.9926,-0.9922 -4.961,-1.9844 -6.0082,7.0004 -0.9922,0 -2.0395,0.9922 -1.9844,3.9688 0.9922,2.0395 4.0239,0 0.9922,1.9844 0,1.9843 -0.9922,0.9922 -6.0082,0 0,4.0239 -4.0239,1.9844 1.0473,2.0395 3.9687,2.9765 -1.9843,1.9844 -1.9844,4.0239 -1.0473,1.9843 1.0473,11.0244 1.9844,8.9848 0,4.0238 -3.0317,0.9922 -1.9844,2.9766 0.9922,1.9844 -1.9844,2.0394 0,7.0005 7.9926,7.0004 4.0239,4.9609 4.961,4.0239 3.0316,0.9922 1.9844,0.9922 1.9844,0 4.0239,1.9844 1.9843,1.0473 -1.9843,2.9765 -7.9927,0 -3.0316,1.9844 -0.9922,3.0317 -1.9844,2.9766 -5.0161,0 -6.0082,3.0317 -3.9688,1.9843 -0.9921,0 -3.0317,5.0161 -1.9844,3.9687 0,4.0239 5.0161,7.0004 0.9921,10.9692 -1.9843,4.0239 0.9922,20.0091 4.9609,3.9688 0,7.0004 2.0395,4.0239 3.9687,0 2.0395,3.9687 3.9688,4.0239 3.0317,1.9844 2.9765,3.0316 0,4.961 1.9844,2.0395 1.9844,1.9844 3.0317,0 2.9765,2.9765 6.0083,3.0317 1.9844,1.9844 3.0316,0 1.9844,0.9922 1.9844,1.9844 4.0238,1.0473 0.9922,0 1.9844,-2.0395 0,-1.9844 2.0395,-0.9922 1.9844,-1.9844 1.9844,0 3.0317,1.9844 -0.9922,3.9688 0.9922,6.0082 -2.0396,10.0321 1.0474,7.0005 -2.0395,3.9687 -0.9922,4.0239 0,2.9765 -1.9844,7.9927 2.9766,1.0473 0,10.9691 0,24.033 2.0395,19.954 1.9843,2.0395 -1.9843,3.9688 0.9922,7.0004 1.9843,1.9844 1.9844,-0.9922 2.0395,2.0395 -2.0395,1.9844 2.0395,1.9843 -31.0334,-7.9926 0,0.9922 7.0004,3.0317 0,-2.0395 21.9935,7.0004 -0.9922,5.0161 -1.9844,1.9844 -3.0317,4.0238 -1.9843,0.9922 0,1.9844 -1.9844,0 -0.9922,2.0395 -2.0395,2.9765 4.0239,2.9766 1.9844,0 2.0395,3.0317 0,1.9844 1.9843,1.9844 0,4.0238 1.9844,0.9922 -5.0161,6.0083 1.0474,1.9844 4.9609,2.0394 -8.9848,24.9701 -7.9926,21.0013 -20.8911,-5.4019 20.8911,7.3863 -7.0005,27.0095 0.9922,11.0243 -0.9922,3.9688 -13.0086,0.9922 -1.9844,1.0473 0,7.9926 2.9765,2.9766 -16.9774,-1.9844 0.9922,1.9844 15.9852,1.9843 0,2.0395 1.9844,0.9922 0,1.9844 -1.9844,19.0169 1.9844,0 -7.0004,10.9692 -0.9922,13.0087 -1.9844,20.0091 1.9844,0 -1.9844,4.0239 0.9922,4.9609 -1.9844,9.0399 -2.9765,0 -4.0239,-2.0394 -4.0239,0 -2.9765,-0.9922 -8.9848,0 -4.0239,5.016 0.9922,2.9766 2.0395,3.0317 1.9843,3.9687 0,0.9922 -4.0238,3.0317 -6.0083,-3.0317 -7.0004,1.0473 -1.9844,2.9766 -0.9922,6.0082 1.9844,3.9688 6.0083,-0.9922 3.0316,0.9922 1.9844,2.0395 0.9922,6.0082 -1.9844,2.9766 -0.9922,4.0239 -1.0473,1.9843 -3.9687,0.9922 -4.0239,1.9844 -2.9766,3.0317 -1.9843,1.9843 1.9843,4.0239 2.9766,3.9688 3.0317,0.9922 3.9687,3.0317 4.0239,3.9687 3.9688,7.0004 0,6.0083 -0.9922,3.0317 -0.9922,0 -1.9844,-2.0395 -0.9922,-0.9922 -4.0238,-1.9844 -7.0005,0.9922 -3.9687,1.9844 -4.0239,6.0082 -1.9844,0 -4.0239,4.0239 0,2.9765 -0.9921,6.0083 -1.9844,4.0238 0.9922,8.9849 1.9843,2.9765 4.0239,2.0395 4.9609,-1.0473 4.0239,2.0395 2.9766,1.9844 0,1.9844 -3.9688,2.0395 0,6.9453 -0.9922,4.0238 -0.9921,0.9922 0.9921,13.0087 -2.0395,7.0005 -1.9843,1.9843 -6.0083,3.0317 -1.9843,3.9688 0,4.0238 -0.9922,7.0005 0,7.0004 -0.9922,5.0161 -3.0317,10.9691 -1.9844,14.9931 0.9922,21.9935 -0.9922,3.0317 -1.9844,3.9687 -4.0238,3.0317 -2.9766,1.9844 -2.0395,-1.9844 -3.9687,0 -1.9844,-1.9844 -1.0473,0.9922 -1.9844,-2.0395 -3.9687,0 -2.0395,2.0395 0,1.9844 -1.9844,1.9844 0,0.9922 -1.9844,3.0317 -2.0395,0 -1.9844,1.9843 -1.9843,1.9844 0,4.0239 1.9843,0 1.9844,0.9922 4.0239,0.9921 2.9765,-1.9843 2.0395,-3.0317 3.9688,-1.9844 3.0317,-0.9922 9.977,4.0239 3.0317,3.9687 0.9921,6.0083 1.9844,2.9766 0.9922,6.0082 -1.9844,7.0004 -1.9843,2.0395 -7.0005,0.9922 -3.0317,3.9688 -0.9922,3.0317 0,3.9687 -4.0238,3.0317 5.016,11.9614 0.9922,0 2.0395,1.0473 1.9844,0 0,-1.0473 1.9844,0 3.0317,5.016 4.9609,-0.9922 0,4.0239 3.0317,8.9848 3.9687,8.9848 3.0317,8.9848 0.9922,1.0474 -0.9922,2.9765 -0.9922,4.0239 0,2.9765 1.9844,2.9766 0.9922,11.0243 4.0239,6.0083 1.9843,7.0004 26.0174,56.9957 -1.0473,0.9921 0,7.9927 3.0317,5.016 14.993,28.9939 3.9688,7.0005 1.0473,1.9843 0.9922,3.0317 9.977,-0.992 4.0238,-4.024 3.9688,0 2.0395,-1.9843 2.9765,-4.0239 6.0083,-2.9766 2.9766,-0.9923 5.016,-4.0239 1.9844,-1.9843 12.0165,11.9614 4.0239,-2.9766 2.9765,1.9843 8.9848,6.0082 5.0161,4.024 -1.9844,0 7.0005,7.0005 -4.0239,3.9686 7.0004,6.0082 4.0239,-1.9843 14.0009,11.9615 1.9843,2.0396 2.9766,1.9843 5.016,0.9923 4.0239,1.9843 2.9766,3.0316 6.0082,2.9766 5.0161,4.0239 0.9922,7.0003 -0.9922,1.9846 -4.0239,3.0316 4.0239,0 5.9531,5.9532 -7.0004,7.0002 3.0317,2.0396 3.9687,-4.0239 7.0005,5.016 1.0473,0 3.9687,3.9688 4.0239,0 2.9766,4.024 3.0316,4.0236 0,2.9766 1.9844,4.0239 3.9688,1.9843 0,1.9846 3.0316,1.9843 0.9922,2.0397 9.977,0 3.0317,2.9763 3.9688,1.9846 5.016,3.0316 8.9848,5.0159 3.0317,1.9843 0,2.9766 1.9844,0 1.9844,0.9923 2.0395,0 4.9609,2.0396 9.0399,7.9926 14.0009,9.9768 0.9922,1.9846 0.9922,4.0236 5.016,0 2.9766,0.9923 0,3.0317 1.9844,1.9846 1.0473,3.9686 0,2.0396 4.9609,2.9766 13.0087,8.9845 4.0239,-3.9686 4.9609,-7.0005 2.0395,0 3.9688,3.9689 3.0317,2.0393 8.9848,6.0083 5.016,2.9765 7.0004,1.9844 14.0009,6.0085 1.9844,1.9843 6.0082,1.0473 2.9766,0.992 8.9848,7.9928 5.0161,3.9686 7.9926,5.0163 5.016,0.992 4.0239,2.0396 11.9614,7.9925 -0.9922,6.0082 14.9931,7.9929 3.0316,-3.032 5.9532,2.0397 8.0477,8.9848 -9.0399,3.9686 -4.961,5.0162 3.9688,4.0239 1.9844,0 2.0395,1.9844 18.9618,7.9925 11.0243,7.0005 5.0161,6.0082 4.9609,3.9686 4.0239,-1.9843 4.0238,-2.9766 2.9766,-2.0393 6.0082,6.0082 7.0005,2.0394 17.9696,0.9923 11.0243,2.9766 11.0243,0.992 13.9458,4.0239 20.0091,12.0165 10.0321,5.9532 2.9765,4.0239 0,5.0159 5.0161,4.9612 1.9844,5.0159 3.0317,11.0242 3.9687,9.9771 0,0.9923 7.9926,9.0399 4.0239,14.0007 0,10.9692 7.9926,5.0162 8.9848,2.9766 4.0239,5.0159 -0.9922,3.9689 1.9844,7.0003 2.9766,13.0087 2.0395,9.0399 7.9926,2.9766 15.9852,11.0244 15.9853,17.9697 0,5.0159 4.0238,6.0082 5.0161,6.0083 -3.0317,9.9771 -1.9844,11.0241 -1.9843,14.9931 0,3.9689 -1.0473,3.0316 -1.9844,1.9843 -0.9922,3.9689 -1.9844,3.0317 -2.0395,2.9766 -1.9844,4.0239 0.9922,1.9843 -0.9922,3.0316 0,1.9843 3.0317,1.9846 -16.0403,31.0332 1.0473,2.9766 11.9613,22.9858 18.0248,30.0412 0,1.9843 -2.0395,1.9843 -3.9688,4.0239 -0.9922,4.9609 -2.0394,6.0082 1.0473,11.0245 4.9609,8.9848 7.0004,20.009 9.04,28.0018 2.9765,3.9689 4.0239,10.0319 3.9687,8.9848 3.0317,4.0239 3.9688,2.9766 0.9922,4.024 7.0004,6.0082 14.0009,14.0007 7.9926,9.9772 6.0082,6.0082 12.0165,14.9931 6.0083,8.9848 1.9843,4.0239 0.9923,3.9686 2.0394,4.0239 0,6.0083 2.9766,4.9609 0.9922,2.0396 1.9844,1.9843 2.0395,0 1.9843,1.9843 1.9844,-0.992 2.0395,0.992 0.9922,0 4.961,2.0396 4.0238,0 1.9844,0.992 4.0238,1.9846 10.9692,9.9769 3.0317,4.0239 1.9844,5.0162 5.0161,7.9925 2.9765,1.9843 1.9844,4.024 7.0004,3.9686 1.0473,0.9923 1.9844,-0.9923 3.9688,2.0396 5.016,-2.0396 4.0239,-0.992 4.9609,-2.9766 40.0183,-3.0317 7.0004,-2.9766 8.9848,-6.0082 14.0009,-4.0239 4.0238,-0.9923 1.9844,2.0396 3.0317,2.9766 0,7.9925 -2.0395,3.0317 -2.9766,3.9689 -1.9843,3.0316 -2.0395,4.9609 -1.9844,6.0082 -1.9844,5.0162 0.9922,7.9926 1.9844,2.9766 0.9922,2.0393 5.016,4.9609 4.0239,5.0162 3.9688,1.9843 0.9921,2.0397 0.9922,2.9766 2.0395,6.0082 1.9844,2.9763 7.0004,7.0005 12.0165,10.0322 4.961,7.0005 5.016,7.9925 4.0239,14.9931 2.9766,8.9848 0,4.0239 -1.9844,1.9843 -1.9844,7.0006 -4.0239,1.9843 -1.9843,5.0159 -3.0317,3.0319 0.9922,3.9686 -1.9844,7.0006 0.9922,6.0082 -0.9922,10.9691 0.9922,14.0008 -1.9844,2.0396 -1.9844,3.9686 -2.0395,4.0239 1.0473,2.9766 -5.016,5.0163 -1.9844,5.0159 0,1.9843 2.9766,6.0082 0.9922,15.9854 3.0316,7.9925 0.9922,14.9931 -4.0238,7.0005 -0.9922,5.0159 0,7.0005 -0.9922,7.9926 3.9687,46.0265 2.0395,2.9766 0,1.9846 1.9844,2.0393 1.9844,2.9766 0.9922,14.0008 -2.9766,8.9848 -1.9844,5.0162 0,6.0082 -2.0395,5.016 -1.9843,1.9843 -2.9766,6.0082 -2.0395,1.9846 -9.977,11.0242 -1.9844,8.9848 -2.0395,5.0162 -4.9609,10.9691 -0.9922,11.0242 0,8.9848 -1.0473,1.9843 -0.9922,2.0396 -1.9844,4.9609 -4.0238,3.0317 -0.9922,3.9689 -0.9922,6.0082 0.9922,7.0005 -1.9844,11.0242 2.9766,3.9689 1.0473,9.0398 2.9765,12.9535 0.9922,7.0005 -0.9922,9.0399 0,3.9689 -2.9765,5.0159 0.9922,3.9689 -4.0239,4.0236 0,0.9923 -3.9688,8.9848 -4.0238,7.0006 -20.0091,19.0169 -22.9857,19.0167 -9.977,9.9772 -17.0326,17.0326 -21.9935,14.0008 -15.9852,13.0088 -2.0395,0.992 -0.9922,1.9846 0,1.9843 -1.9844,1.9843 0.9922,4.0239 -1.9844,0 -1.9843,2.9766 -4.0239,5.0159 -2.9766,1.9843 -1.0473,2.0396 -3.9687,1.9844 -11.0243,4.0239 -2.9766,0 -1.9844,1.9843 -6.0082,0.9923 -3.0317,1.9843 -3.9688,0 0.9922,2.0396 -1.9843,0.992 -4.0239,1.9846 -2.9766,0.992 -2.0395,1.9843 0,2.0396 -1.9843,1.9843 -0.9922,4.024 -1.9844,1.9843 0,1.9846 -0.9922,1.9843 0,2.0393 -2.0395,2.9766 0.9922,3.0316 -1.9844,1.9846 0.9922,10.9691 -1.9844,2.0394 0,3.9689 1.9844,2.0393 0.9922,4.9612 2.0395,2.0393 2.9766,3.9689 0,0.992 4.0238,3.0319 0.9922,1.9844 1.9844,1.9843 1.9844,2.0396 2.0395,0.992 0,3.9689 0.9921,2.0393 0.9922,1.9843 1.9844,0.9923 0.9922,12.0165 2.0395,1.9846 0,1.9843 -2.0395,1.9843 0,2.0396 -1.9844,2.9763 -0.9922,0.9923 -15.9852,0.9923 -2.0395,2.0393 -1.9844,1.9843 -1.9844,0 0,1.9846 -0.9921,2.0394 -2.0396,2.9766 1.0474,7.0005 1.9843,0.9923 0,1.9843 0.9922,1.0473 0,1.9843 6.0083,0 2.9765,1.9843 2.0396,0 1.9843,0.9923 0.9922,0 7.9926,4.0239 1.9844,0 1.0473,0 5.9531,3.9686 2.0395,2.0397 0.9922,1.9843 -1.9844,1.9843 -2.0394,0.9923 2.0394,2.0393 -2.0394,3.9689 2.0394,2.0393 0.9922,1.9846 1.9844,0.992 1.9844,6.0083 0.9922,7.0005 1.0473,2.9766 0,4.0239 -1.0473,1.9843 -3.9688,0 -1.9844,-0.9923 -4.0238,0 0,-1.9843 -2.9766,-3.0316 -2.0395,-1.9843 -1.9844,0 -1.9843,1.9843 0,2.0393 -9.04,0.9923 -1.9843,1.9843 -1.9844,1.9846 -1.9844,0 0,0.992 0,2.0396 -2.0395,1.9843 0,1.9843 -1.9844,3.032 0,1.9843 -1.9843,0.992 0,1.9846 -0.9922,2.0393 0,3.9689 -2.0395,2.0393 0.9921,11.9615 -0.9921,4.0239 2.0395,20.009 0.9922,5.9532 0.9921,3.0316 1.9844,1.9846 4.0239,3.0316 3.9687,3.9686 0,0.9923 2.0396,4.0239 0,1.9843 1.9843,0 0,1.9844 1.9844,2.0396 0,0.992 -1.9844,1.9846 1.9844,1.9843 3.0317,1.0473 0,1.9843 8.9848,0 1.9843,1.9843 0,3.0316 1.9844,-1.047 1.0473,6.0082 1.9844,0 0,3.0317 -1.9844,0 -2.0394,2.9766 2.0394,0.992 0,4.0239 2.9766,3.9689 0,1.047 1.9844,1.9846 0.9922,6.0082 3.0317,2.9766 3.9687,7.0003 -1.9844,3.0319 -0.9922,2.9763 0,4.0239 1.9844,1.9843 0,2.9766 2.0395,0.9923 0.9922,6.0083 -2.0395,3.0316 -3.9687,0.9923 -0.9922,3.9686 0.9922,2.0396 -1.9844,0 0,1.9843 -2.0395,1.9843 -1.9844,0 0,3.0319 -1.9844,1.9843 2.9766,1.9843 1.9844,0 0,7.0006 -1.9844,0 -1.9844,1.9843 -1.9844,3.0316 0,1.9846 2.9766,-0.9923 1.9844,1.9843 0,3.0316 -1.9844,1.9846 -2.9766,2.9763 -2.0394,2.0397 -1.9844,0 -0.9922,1.9843 0,7.0005 -4.0239,4.0239 0,0.992 -1.9844,0 0.9922,1.9846 -0.9922,2.9766 0,7.0002 -1.9843,2.0397 -0.9922,1.9843 -4.0239,0 0,4.0239 -1.9844,2.9766 0,1.9843 3.9688,0 0.9922,4.0239 -1.9844,1.9843 0,1.9843 -1.9844,0 0.9922,9.0402 1.9844,1.9843 -1.9844,0.992 0,4.0239 1.9844,0 0,1.9843 4.0238,0 1.9844,1.9846 5.0161,-0.9923 2.9766,1.9843 6.0082,0 1.9844,0 -3.9688,5.0162 0,4.024 -3.0317,2.9763 -1.9844,1.9846 -1.9843,2.0393 1.9843,3.9689 0,1.9843 -1.9843,1.0473 0,3.9686 -1.9844,1.9846 0,2.0394 -2.0395,2.9766 -1.9844,3.0316 -1.9843,0 0.9921,1.9846 -3.0316,3.9686 -1.9844,0 0,2.0396 -1.9844,0 -4.0239,3.9686 -0.9921,0 -2.9766,4.0239 0,3.9686 1.9844,0 0,5.0163 -1.9844,1.9843 0.9922,4.0239 -4.0239,0.9923 0,6.0082 -1.9844,0.992 0.9922,3.0317 1.9844,0.9922 2.0395,1.9844 -2.0395,6.0082 3.0317,2.9766 0.9922,17.0327 1.9843,0 0,4.9609 -1.9843,0 -1.9844,2.0396 -2.0395,0 1.0473,1.9843 -2.0395,2.9766 -0.9922,2.0393 0,4.9609 0.9922,1.0474 0.9922,1.9843 -0.9922,2.9766 -3.9687,0 -4.0239,2.0396 -1.9844,0 -0.9922,0.9923 -4.0239,4.9609 0,2.0393 -0.9921,1.9846 0,8.9845 1.9843,1.9846 -0.9922,2.0394 -3.9687,0 0,0.9923 -1.0473,0 -1.9844,1.9843 -1.9843,1.9843 0,2.0396 -1.9844,4.9609 0.9922,11.0244 1.9843,-0.9923 0,0.9923 2.9766,1.9843 2.0395,2.0394 4.9609,0 0,-2.0394 6.0083,-0.9923 2.0395,-1.9843 0,-0.9923 1.9843,0 1.9844,-2.0393 1.9844,2.0393 2.0395,-0.992 0.9922,-2.0396 1.9844,2.0396 -1.9844,0.992 0.9922,3.9689 -0.9922,2.0394 0,1.9846 -4.0239,0.992 -1.9844,1.9843 0,5.0162 1.9844,0 3.0317,1.9843 0,2.0396 1.9844,-1.0473 0.9922,-1.9843 6.0082,0 2.9766,-1.9846 5.016,-0.992 4.0239,-2.0396 1.9844,0 0.9921,2.0396 0.9923,6.0082 -0.9923,1.9843 -1.9843,0.9923 0,1.9843 -1.9844,0 -2.0395,2.0394 0.9922,1.9846 -1.9844,0 0,1.9843 -0.9922,1.9843 0,3.0316 -1.9843,1.9846 -2.0395,0.992 -3.9688,2.0396 -0.9922,1.9843 -3.0317,0 0,5.016 -1.9843,0 0.9922,10.9694 -1.9844,3.0316 -1.9844,3.9686 -2.0395,0 -1.9844,1.9846 0,1.0473 0,10.9692 -0.9922,1.9843 0,2.0396 -1.9843,0 0,6.0082 1.9843,0.992 0,1.9846 -3.0317,1.9843 0,1.9843 -1.9843,1.0473 -1.9844,1.9843 0.9922,8.9849 -0.9922,0 0,1.9843 -1.9844,2.0396 0,2.9766 1.9844,0 0.9922,7.9925 -4.0239,0 -1.9844,0.9923 0,2.0394 1.9844,0 0,1.9845 -1.9844,1.9843 -1.9843,2.0394 -1.9844,0 0.9922,2.9766 -0.9922,0.9923 0,1.9843 -2.0395,2.0396 -1.9844,0 0,1.9843 -1.9843,1.9843 0,2.0396 -0.9922,0.992 -2.0395,1.9846 -0.9922,0 0,1.9843 -1.9844,0.9923 -1.9844,2.0394 -2.0395,1.9843 -1.9843,1.9846 -1.9844,0.992 0,4.0239 -2.0395,0 0,1.9843 -1.9844,2.0396 -1.9844,0.992 0,1.9846 -1.9843,0 0,0.992 -2.0395,1.9846 0.9921,2.0394 -2.9765,1.9843 0,5.0162 -1.9844,1.9843 0,1.9843 -0.9922,2.0396 -2.0395,2.9766 -1.9843,1.9843 -0.9922,0.9923 0,4.0236 -1.9844,0 -1.0473,1.9846 0,4.0237 -1.9844,0.9923 -1.9844,0 0,1.9843 -1.9843,2.0396 0,4.9609 -2.0395,0 -1.9844,2.0396 0,0.992 -1.9844,0 0,1.9846 -2.0395,1.9843 -1.9844,0 0,1.9843 -0.9921,2.0396 0.9921,1.9843 -1.9843,1.9843 0,2.0397 -1.9844,3.9686 -2.0395,1.9843 0,3.0319 -0.9922,1.9843 0,1.9843 -1.9844,0 0,9.0399 0,1.9846 0,6.0082 -1.9844,0.992 0.9923,4.0239 -4.0239,4.9609 0,5.0162 -1.9844,1.9843 -0.9922,4.024 0,1.9843 -0.9922,0.9923 0,2.0393 -2.0395,1.9843 1.0473,10.9694 -2.0395,2.0394 2.0395,20.0092 -2.0395,1.9843 0,3.9686 -1.9843,1.0474 0,1.9843 -0.9922,5.0162 0,1.9843 -0.9922,0 0,1.9843 -2.0395,0.9923 0,2.0396 -1.9844,1.9843 0.9922,1.9843 -1.9844,1.9843 0,2.0397 -1.9843,0.9922 0,1.9844 -2.0395,1.9843 1.0473,4.0239 -1.0473,0 0,1.9843 -1.9844,3.0316 -1.9844,4.9609 -0.9922,2.0396 0,1.9843 -2.0395,0 0,1.9846 -2.9765,7.0003 -0.9922,1.9843 0,2.0396 -1.9844,2.9766 -2.0395,0.992 -1.9844,4.0239 -0.9922,3.9689 -0.9922,3.0317 0,1.9843 -2.0395,1.9845 0,2.0394 -0.9921,4.9609 -1.9844,2.0396 0,1.9843 -1.9844,1.9843 0,5.0162 -0.9922,2.9766 -1.0473,4.0237 0,2.9766 -1.9844,2.0396 0.9922,1.9843 -1.9843,1.9843 0,4.0239 -1.9844,0.9923 0.9922,6.0082 -1.9844,0 -3.0317,3.9687 0,3.0316 -1.9844,5.0162 -0.9921,3.9686 -4.0239,7.0005 -1.9844,1.9843 0.9922,3.032 -0.9922,3.9686 0,6.0082 -1.9844,0 0.9922,3.0316 -2.0395,2.9766 0,5.0162 -1.9844,3.9687 0.9922,2.0396 -1.9844,1.9843 0,1.9843 -1.9843,1.9843 0.9922,9.0401 -0.9922,0 0,4.9609 -2.0395,0 0,2.0394 -0.9922,1.9846 0,4.0236 -1.9844,0.9923 0.9922,13.0087 -1.9844,0 0,3.9687 -0.9922,5.0162 0,5.0159 -0.9921,1.9843 0,5.0162 -1.0474,1.9843 0,6.0083 -1.9843,1.9843 0,2.9766 -0.9922,4.0239 0,4.0239 -1.9844,2.9766 -0.9922,4.0239 -2.0395,0.992 0,1.9846 -0.9922,2.9763 -1.9843,0 -1.9844,4.024 0,1.9843 -1.0473,4.0239 -1.9844,0.9923 0,3.9686 -1.9844,2.0396 0.9922,7.0005 -0.9922,1.9844 0.9922,11.0241 0.9922,1.9846 0,3.9686 3.0317,3.0316 0,1.9846 1.9844,1.9843 1.9843,2.0394 0,1.9846 1.9844,0 3.0317,1.9843 2.9766,2.0393 2.0395,3.9689 1.9843,0 0,1.9843 1.9844,1.0473 0,3.9689 3.0317,4.0237 1.9844,1.9845 0,6.0083 1.9843,1.9843 0,7.0005 1.9844,1.9843 1.0473,17.0324 2.9766,0.9923 0,1.9843 6.0082,-2.9766 0.9922,1.9846 1.9844,1.9843 0,2.0396 4.0239,3.9686 1.9843,0 0,0.9923 3.0317,2.0394 0.9922,-0.9921 0,1.9843 3.9688,3.9687 0,2.0396 2.0395,0 1.9843,0.9923 0,1.9843 1.9844,0 0,1.9843 1.9844,2.0396 2.0395,-1.0473 0,2.0393 1.9844,0 1.9843,1.9843 2.0395,0.9923 1.9844,0 0.9922,1.9843 1.9844,2.0396 2.0395,-0.9923 1.9843,1.9846 2.9766,1.9843 2.0395,1.9843 0.9922,0 1.9844,3.0317 1.9843,0 6.0083,5.0162 1.9844,2.9766 2.0394,0 1.9844,1.9843 0,2.0393 1.9844,0.9923 0,1.9843 2.0395,1.9843 1.9844,0 0,0.9923 0.9922,0 0.9922,6.0083 1.9843,2.0396 0,1.9843 2.0395,0.9923 0,1.9843 2.9766,2.0393 0,1.9846 1.9844,2.9766 0,3.0316 -7.9927,2.9766 3.0317,4.0237 -7.0004,1.9846 0,0.992 8.9848,-2.9766 1.9844,1.9846 0,0.992 1.9844,0.9923 0,4.0239 3.0316,1.9843 0,5.0159 0.9922,1.9846 0.9922,7.0003 -0.9922,0 0,6.0082 -1.9844,1.9846 1.9844,18.0247 1.9844,1.9843 0,1.9843 0.9922,2.0396 2.0395,0.9923 0,3.9686 2.9765,2.0396 0,3.9686 1.9844,1.9843 1.0473,11.0245 1.9844,1.9843 0.9922,11.0244 1.9844,1.9843 0.9921,11.0242 -1.9843,1.9846 0,2.9766 -1.9844,2.0393 0.9922,3.9689 -4.0239,4.0236 -1.9844,1.9846 0,4.0237 0,1.9846 -1.9843,5.0159 -1.9844,1.9843 -1.0473,4.0239 1.0473,14.0011 1.9844,1.9843 0,6.0082 -1.9844,1.9843 -1.0473,2.9766 -1.9844,2.0396 -0.9922,4.9609 -1.9844,3.0317 0,1.9843 -0.9921,1.9843 0,2.0396 -2.0395,3.9686 0,3.0319 -1.9844,1.9843 -0.9922,3.9686 0,3.0319 -0.9922,3.9687 0.9922,6.0082 -1.9844,3.0316 0.9922,7.9928 -2.0395,1.9843 0,10.0322 -0.9922,0.992 0,6.0082 -1.9843,3.9689 0.9921,3.0317 -1.9843,1.9843 0.9922,10.9694 1.9843,2.0393 0.9922,16.9774 -1.9844,0.9923 0.9922,7.9925 -0.9922,1.0473 0.9922,12.9537 0.9922,2.0394 1.0473,16.9773 1.9844,1.9846 0,0.992 1.9844,-0.992 0.9922,2.0394 2.0395,1.9846 0,1.9843 1.9843,0 0,1.9843 1.9844,2.0396 0.9922,2.9766 3.0317,1.9843 1.9844,4.0239 1.9843,-0.9923 2.0395,2.9766 1.9844,0 0.9922,2.0394 4.0239,0 1.9843,0.9922 5.0161,1.9843 2.9766,1.9844 0,2.0396 4.0238,0 3.9688,0 0,1.9843 0.9922,0 0,1.9846 4.0239,1.9843 0,2.0393 7.0004,3.9689 0,2.0393 0.9922,1.9846 0,1.9843 2.9765,3.0317 2.0395,1.9843 0,1.9846 1.9844,1.9843 1.9844,4.0239 3.0317,5.0159 0,1.9843 0.9921,2.9766 0.9922,7.0005 1.9844,2.0397 0,8.9845 3.0317,1.9846 0,3.0316 1.9844,1.9843 0,1.9843 1.9843,4.024 2.0396,24.9701 -1.0474,4.024 0,1.9843 -1.9843,0 0,4.0239 -1.9844,0.992 0.9922,3.9689 -1.9844,0 0,2.0393 -0.9922,4.9609 0,2.0397 -2.0395,1.9843 -0.9922,2.9766 -1.9844,4.0239 -1.9843,0.9923 -2.0395,4.0236 0,1.9846 0,1.9843 0,2.0393 -1.9844,0 0,0.9923 -1.9844,1.9843 -2.0395,4.024 -0.9922,4.9609 -1.9843,0 -0.9922,0.9923 -1.9844,2.0393 0,1.9846 -2.0395,1.9843 -1.9844,4.0239 0.9922,0.992 -1.9843,1.9846 0,2.0394 1.9843,1.9843 -1.9843,1.9845 0,1.9843 -1.9844,2.0397 0.9922,6.0082 -0.9922,0 0,3.9686 -2.0395,0.9923 0,2.0393 -0.9922,1.9843 0,1.9846 -1.9844,1.9843 0,2.0397 -1.9844,0.992 0,1.9843 -2.0395,1.9846 0.9922,6.0082 -0.9922,0.992 0,6.0082 -0.9922,3.0319 0,4.9609 -1.9843,2.0394 0,1.9846 -1.9844,1.9843 0.9922,7.0005 -2.0395,4.0236 1.0473,4.9609 -2.0395,2.0397 2.0395,21.9935 -1.0473,1.9843 0,8.9849 -0.9922,2.0393 0,7.0005 -1.9844,1.9843 0.9922,7.9929 -1.9844,0.992 0.9922,13.0087 -1.9843,0.9923 0,2.0393 -2.0396,1.9844 1.0474,3.9688 1.9843,3.0317 0,1.9843 1.9844,-0.992 0,4.0239 1.9844,1.9843 1.0473,4.9609 1.9844,0 1.9843,33.0177 3.0317,4.024 -2.0395,0 0,7.0005 2.0395,1.9843 0.9922,8.9848 0.9922,2.0394 0,1.9845 1.9844,0.9921 0.9922,0.9923 2.0395,1.9843 0,4.0239 1.9844,1.9843 0,5.0162 2.9765,4.0236 0,1.9846 2.0395,2.9766 0,2.0394 0.9922,1.9843 0,1.9846 0.9922,0 0,7.0002 5.016,12.0165 1.9844,28.0018 9.977,35.9943 9.04,42.9949 5.9531,19.017 2.0395,16.9773 1.9843,36.9867 2.9766,31.0334 6.0083,70.0044 3.0316,11.9611 7.0005,12.0168 4.9609,6.0082 6.0082,2.9763 14.9931,17.0327 7.9926,17.9696 11.0243,23.0409 9.977,11.9612 2.0395,3.0319 3.9688,1.9843 4.0239,14.9931 0,8.9848 0,20.009 2.9765,19.017 7.9926,13.0087 3.0317,7.9925 0,7.0006 -0.9922,7.0002 -0.9922,10.9694 3.9688,6.0082 3.0317,5.016 0,4.0239 -2.0395,5.9532 -0.9922,14.0008 6.0083,14.0007 1.9843,13.0088 6.0083,11.0244 5.016,4.9609 0,9.0399 1.9844,11.9614 0,13.0088 1.9844,9.0398 7.0004,7.9926 6.0083,9.9771 4.0238,3.0316 3.9688,7.9926 1.0473,4.9609 2.9766,9.0401 5.016,7.0002 11.9614,14.9931 3.0317,7.0005 1.9843,7.9925 6.0083,7.0006 10.9692,22.9856 4.0238,6.0082 5.0161,6.0082 -2.0395,7.0005 5.0161,7.0006 3.0316,6.0082 3.9688,16.9774 0,8.9848 -0.9922,7.0005 5.0161,10.0322 6.0082,4.9609 2.9766,0 5.016,16.0403 4.961,4.9609 2.0395,13.0088 3.9687,10.0319 5.0161,56.9959 0,28.0015 0.9922,8.9848 0,28.9941 0,14.9931 0,20.009 1.9843,7.0005 2.0395,10.0322 2.9766,10.9691 4.0239,8.9848 0.9922,7.0003 1.9844,6.0085 4.0238,10.0318 0,2.9766 2.9766,1.9843 1.9844,9.0402 5.016,8.9848 4.0239,8.9848 8.9848,15.9851 9.977,18.0247 3.0317,11.0244 1.9844,0.9923 1.9843,2.9764 0,1.9845 2.0395,3.0317 1.9844,7.9925 3.9687,49.0031 -0.9921,10.9691 0.9921,10.0322 -2.9765,7.0005 0.9922,3.9686 -1.9844,3.0317 0,6.0085 -0.9922,8.9845 -2.0395,2.9766 -1.9844,2.0396 -1.9844,0 0,0.992 0,1.9846 0.9923,1.9843 1.9843,2.0397 2.0395,3.9686 2.9766,2.0396 0,3.9686 -1.9844,2.9766 -2.0395,3.0316 1.0473,10.9692 -1.0473,10.0321 -0.9922,2.9766 2.0395,19.017 -2.0395,2.9766 -1.9843,2.0393 0,3.9689 -1.9844,3.0316 0.9921,6.0083 -1.9843,4.9609 -2.0395,5.0162 -1.9844,4.0236 0.9922,14.0011 -1.9844,1.9843 -1.9844,3.9689 -1.0473,4.0236 0,7.0005 -0.9921,4.024 2.0394,30.9784 1.9844,2.9763 -0.9922,6.0085 0,4.0236 -0.9922,2.9766 -5.016,12.0165 -0.9922,6.0082 -1.9844,3.9689 0,3.0316 -3.0317,3.9689 -0.9921,5.016 -1.9844,4.0239 -2.0395,2.9766 -1.9844,5.0159 -6.0082,6.0083 0,2.9766 -0.9922,1.9843 -1.9844,4.0239 0,3.9689 -3.0317,4.0236 1.0473,6.0083 -4.0239,3.9688 -2.9765,5.016 -2.0395,6.0085 -6.0083,7.9925 -1.9843,4.024 -0.9922,0 -1.9844,2.9763 -3.0317,9.9771 -1.9843,2.0396 0,-2.0396 -1.9844,0 -2.0395,2.0396 0,6.0082 2.0395,0 0.9922,10.9692 -0.9922,3.0316 -0.9922,3.9689 -4.0239,4.0236 -1.9844,2.9766 -0.9921,5.0163 0,3.9686 -2.0396,5.0162 -0.9921,17.0324 0,7.0005 -0.9922,5.9532 -0.9922,12.0165 0.9922,11.0241 -1.9844,7.9928 0.9922,4.9609 -1.9844,9.0399 0,6.0082 0.9922,15.9854 1.9844,10.9691 2.9766,15.0481 2.0394,5.9532 0.9922,12.0164 2.9766,6.0083 2.0395,4.0239 0.9922,12.9534 -2.0395,5.0163 3.0317,3.0316 1.9843,28.9938 1.9844,3.9689 1.0473,5.0159 -4.0238,8.9849 0.9921,4.0239 -1.9843,7.0005 -1.9844,4.9609 -1.0473,4.0239 -0.9922,5.016 0.9922,10.9691 -1.9844,4.0239 1.9844,17.9697 3.0317,15.0481 1.9843,14.993 0.9922,8.9849 2.0395,6.0082 1.9844,16.9776 1.9844,5.016 1.9843,6.0082 1.0474,2.9766 1.9843,4.0239 5.0161,3.9686 1.9844,2.0396 5.016,3.9687 1.9844,1.9845 5.0161,2.0394 1.9843,1.9843 1.9844,0 4.0239,1.9846 3.9687,2.0393 6.0083,2.9766 0.9922,0 4.0238,0.9923 1.9844,1.9843 1.9844,-0.9923 9.0399,2.0396 14.0009,4.9609 7.0004,0 8.9848,3.0317 7.9927,1.9843 2.9765,0 2.0395,0.9923 7.9927,1.9843 2.9765,1.0473 16.0404,1.9843 4.9609,1.9846 13.0087,4.0239 4.0238,0 1.9844,1.9843 1.9844,-0.9923 3.0317,1.9843 4.9609,1.9846 4.0239,2.0394 6.0082,0.9922 8.9849,1.9844 4.0238,1.9843 7.0005,2.0396 11.9613,2.9766 6.0083,-0.9923 11.0243,1.9843 39.9631,-2.9766 8.0477,-1.9843 5.9532,-2.0394 5.016,0.9921 4.0239,-1.9843 8.9848,0.9922 7.0005,-0.9922 7.9926,1.9843 7.0004,-2.9766 7.9926,-1.9843 7.0005,0 5.016,-2.0394 33.0178,-2.9766 7.9926,0.992 10.9692,0.9923 7.0005,-0.9923 7.0004,0.9923 6.0082,2.0396 7.0005,0.9921 6.0082,0 6.0083,3.9688 6.0082,0 10.9692,-0.9922 1.9844,1.9843 5.016,2.0396 7.0005,2.9766 8.9848,3.0316 5.016,0.9923 6.0083,1.9843 11.0243,2.9766 10.9692,2.0393 31.0334,-2.0393 7.0004,1.0473 5.9532,1.9843 6.0082,0.9923 4.0239,1.9843 4.9609,1.9843 6.0082,-0.9923 7.0005,0.9923 4.0239,1.0474 6.0082,1.9843 7.0004,0.9923 1.9844,0 5.0161,1.9843 8.9848,0.9923 0.9922,1.0473 4.0238,1.9843 3.9688,0.992 5.0161,0 7.9926,5.0162 8.9848,0.9923 4.0238,0.992 4.0239,1.9843 16.9775,6.0085 8.9848,3.0317 14.0008,-1.0474 8.9849,5.016 3.0316,0.9923 10.9692,5.0159 14.0009,5.0162 9.0399,2.9766 7.9927,0.992 2.9765,4.024 11.0243,1.9843 7.0004,3.0316 8.9849,3.9689 11.0243,1.9843 4.9609,3.0316 11.0243,3.9689 2.9766,-0.9923 11.0243,7.0005 14.0008,5.016 6.0083,1.9846 13.0087,5.0159 10.9691,4.0239 18.0248,7.9926 14.993,7.0005 14.9931,6.0082 6.0083,2.9766 10.9691,4.0239 4.0239,0 2.9766,1.9843 4.0239,0.9923 6.0082,1.9843 21.0013,-1.9843 3.9687,-1.9846 6.0083,-2.0393 3.0317,-0.9923 5.9531,-1.9843 7.0004,-2.9766 4.0239,-2.0396 5.0161,-0.992 7.0004,-2.9766 17.9696,-0.9923 3.0317,1.9843 2.9766,0 10.0321,6.0085 12.9534,11.9611 0,2.0397 -0.992,0.9923 -0.9923,3.9686 -1.9843,2.0396 -4.0239,3.9686 0,0.9923 3.0316,7.9925 1.9846,0 4.0237,3.0317 0.9923,0 3.9686,0.9923 6.0082,0 5.0162,0.9922 3.9686,0 2.0396,1.9844 2.9766,0 2.9766,4.0239 9.0399,1.9843 7.9925,0.992 5.0163,4.0239 5.9532,-0.992 5.0159,1.9843 6.0082,-0.9923 5.016,-1.9843 3.9688,-2.0396 2.0394,-1.9843 3.9689,-7.9925 0,-1.9844 -1.9843,-4.0239 0,-1.9843 -3.0317,0 -0.9923,-4.0239 0.9923,-1.9846 0,-1.9843 -4.9611,0 0,-5.0159 3.9688,0 4.024,-2.9766 6.0082,0 1.9843,1.9843 4.0239,1.9843 0,0.9923 3.9686,0.9923 4.024,4.0236 7.0005,0.9923 1.9843,-1.9843 2.9766,-1.9843 6.0082,0 5.0162,-3.0319 7.9926,0 5.0159,-2.9763 1.9843,-0.9923 2.9766,-2.0397 5.0162,-0.992 8.9849,-1.9843 19.0169,-1.9846 1.9843,1.9846 1.0474,0 3.9686,-1.9846 4.0239,-0.992 2.9766,-4.0239 1.4331,-2.205 13.56,23.2063 0.9922,1.9843 1.0471,-1.9843 0.9923,8.9848 -2.0394,1.9843 1.0471,4.024 1.9846,0 1.9843,1.9843 0.9923,0 2.0393,0.9923 1.9843,0 0,3.0316 3.9689,3.9686 5.0159,0 5.0163,1.0473 3.9686,0 0,1.9846 1.0473,0 3.9689,-0.9923 0,0.9923 1.9843,-0.9923 2.0396,0 1.9843,0.9923 0.992,0 0,-0.9923 6.0085,0 2.9764,-3.0316 1.0473,2.0393 4.9609,0 -2.9763,-2.0393 1.9843,-1.9843 4.0239,0 1.9843,-2.9766 7.0005,0 1.9843,-2.0396 -1.9843,-1.9843 3.9686,0 0,-0.9923 1.0474,-0.9921 1.9843,0.9921 7.9928,0 0.992,-0.9921 1.9843,-3.0319 3.0319,-1.9843 1.9843,0 0,-1.9843 3.0317,0 0,-2.0396 3.9688,-0.992 1.9843,-1.9846 0,-0.992 4.024,0 0,-1.9843 2.9766,0 -0.9923,-2.0396 2.0393,-1.9843 3.9689,-0.9923 0,-1.9843 4.0239,0 0.992,-2.0397 0,-0.992 10.9695,-0.9923 0,-1.9843 2.0393,0 1.9843,-1.9843 -0.992,-2.0396 1.9843,-1.9843 4.0239,-2.9766 0.992,0 0,-1.0473 3.9689,0 2.0396,-1.9843 1.9843,0 1.9843,-1.9846 0,-1.9843 0,-2.0393 2.0397,-2.9766 1.9843,0 1.9843,-0.9923 1.9843,-2.0394 3.0316,0 1.9846,2.0394 7.9925,-0.992 5.0163,-2.0397 6.0082,-2.9766 0,-1.9843 0.992,0 0,1.9843 1.9843,0 17.0327,-0.992 14.0007,2.9763 10.9695,0 21.0012,4.024 59.035,2.9766 21.9936,0 5.9532,0.9923 20.009,0.992 7.0005,-0.992 19.017,0.992 40.0182,2.0396 137.9692,3.9686 77.0046,5.0162 60.0275,5.0159 39.963,11.9615 6.0082,2.0396 14.9931,4.9609 25.0252,11.0242 29.9861,14.001 25.0252,10.9691 26.9545,18.0247 33.0177,21.9936 4.024,5.0159 6.0082,5.0163 5.9532,2.9763 9.0398,2.9766 11.9615,7.0005 2.0393,3.0316 44.9792,30.9784 1.9843,0 13.0087,12.0165 56.9957,42.0026 0.9923,1.9843 2.0396,-1.9843 16.9773,23.9778 4.024,0.9923 0.992,4.0237 0,4.0239 -2.0394,4.9609 9.0399,20.0093 14.0008,42.0026 11.9614,42.9948 12.0164,42.9946 5.0163,27.0098 5.0159,18.0247 -2.0393,3.9686 0.992,4.0239 2.0396,3.9689 7.9925,33.0178 2.9766,23.9778 9.0399,38.0337 4.9609,20.0093 4.0239,28.9938 14.0008,68.9571 7.0005,38.0339 9.9771,43.9869 5.016,33.0178 2.9766,9.9771 4.0239,22.9856 0,21.0012 -1.9843,22.0487 -3.0319,15.985 -6.0083,19.017 -8.9848,22.986 -9.9768,20.009 -16.0404,24.97 -11.9614,14.993 -3.0317,4.024 -16.9773,16.977 -28.9941,24.033 -39.026,35.995 -44.9792,37.979 -42.0026,36.986 -44.9791,40.018 -28.0018,25.025 -12.0165,9.978 -28.9938,29.986 -38.034,42.994 -37.9786,45.035 -32.0258,39.963 -24.9698,29.049 -28.0019,31.97 -1.9843,1.985 -38.0339,45.034 -16.9774,16.977 -27.0095,24.033 -35.0023,24.97 -24.9699,16.978 -11.0245,6.008 -23.9779,23.041 -27.0095,21.993 -14.993,14.001 -10.0322,7.993 -7.9925,9.977 -7.9925,11.024 -4.024,11.962 -4.9609,13.008 -11.0244,32.026 -5.016,24.97 -7.9928,33.018 -6.0082,15.985 -9.9768,17.032 -12.0165,17.97 -13.0088,17.033 -10.9691,8.985 -7.9928,7 -9.0399,2.976 -18.9616,3.032 -42.0029,0.992 -46.0262,0 -39.9632,0.993 -66.0355,1.984 -35.0023,1.047 -29.9862,1.985 -29.9861,0 -15.985,3.968 -15.0484,6.009 -11.9614,9.04 -10.0319,7.992 -11.9614,11.962 -5.0163,5.015 -6.0082,14.993 -5.0159,15.986 -6.0082,35.002 -5.9532,34.01 -3.0317,16.04 -3.9689,15.986 -17.0324,31.97 -18.9619,40.018 -14.0008,25.026 -25.0252,29.986 -19.017,21.001 -21.9933,23.978 -20.0092,24.033 -16.9774,15.985 -15.9853,14.993 -6.0082,8.985 -6.0083,9.04 -12.0165,24.97 -13.0087,29.986 -3.9687,12.017 0.9922,7 1.9844,9.977 3.0316,11.024 7.0005,16.978 7.9926,14.001 7.9926,11.024 7.9925,7.993 24.0332,15.985 47.9555,34.01 66.0358,43.987 18.9617,13.008 16.0403,14.001 28.0018,21.994 40.9553,41.01 31.0334,28.994 23.9779,27.009 29.9861,36.987 30.0412,35.994 35.9943,43.05 12.0168,16.978 5.9529,14.993 1.0473,4.024 -1.0473,1.984 -31.9705,13.009 -21.9935,7 -24.0329,13.009 6.0082,15.985 28.0018,-13.008 27.0095,-9.977 21.0013,-9.04 6.0082,0 0.9923,4.024 16.9774,63.995 13.0087,44.98 5.016,19.017 2.9766,14.993 2.0396,28.001 5.9532,50.988 7.0002,95.029 0,25.963 4.0239,22.048 11.0242,49.003 5.9532,33.955 3.0316,14.001 5.0163,9.04 5.9531,10.969 7.0003,10.032 9.0401,9.977 14.0008,7.993 16.9774,15.985 68.02,46.026 70.0044,49.004 19.954,9.977 17.0324,12.016 17.9696,9.977 34.0101,18.025 25.0252,13.008 36.9866,19.017 19.0167,9.978 4.9612,3.968 4.0236,1.047 6.0083,2.977 2.9766,4.024 21.9935,14.001 14.0008,14.001 9.0401,5.953 11.9612,7 21.9936,19.017 19.0169,11.024 10.0322,4.962 21.0013,11.024 9.9768,5.016 2.9766,0.992 8.0479,0.992 4.9609,1.985 43.9868,19.017 11.0245,2.976 4.0239,2.039 14.0008,3.969 12.9537,5.016 12.0165,6.009 -1.9846,0 14.001,11.961 0,-1.984 10.9692,6.008 -1.9844,1.984 8.9849,3.032 28.9938,20.009 10.0321,0.992 0,2.977 7.9926,4.024 1.9843,1.984 2.0396,1.985 2.9766,0.992 1.9843,1.047 7.0005,3.969 4.024,-0.993 7.0002,4.024 14.001,1.985 6.0083,-0.993 0,1.985 1.9843,0 5.0162,1.984 3.9686,-0.992 4.0239,4.024 3.9686,1.984 2.0397,0 1.9843,0.993 1.9843,3.031 5.0162,3.969 5.0159,7 4.9609,5.016 12.0165,20.009 0.9923,5.954 3.0316,4.024 1.9846,2.976 1.9843,4.024 5.0159,7 2.9766,8.985 3.0317,5.016 1.9845,6.009 2.9764,8.984 2.0396,7.001 1.9843,6.008 0,0.992 2.9766,7.001 2.0396,5.016 1.9843,6.008 1.9843,1.984 3.0316,11.025 0.9923,0.992 1.9843,-0.992 0.9923,9.977 13.0088,28.001 -0.9923,2.977 0,5.016 0,11.024 0.9923,10.969 0.992,4.024 2.0396,2.977 3.9686,0 0.9923,15.985 3.0317,2.04 0.9923,20.009 -6.0083,0 15.9851,57.988 7.9928,28.994 6.0082,19.016 4.0237,16.978 2.9766,18.025 3.0319,14.993 0.992,10.969 2.9766,14.001 7.0005,21.993 5.016,11.025 2.9766,13.008 0,1.985 2.0396,8.985 4.9609,20.009 3.0316,7.992 0,2.04 1.9843,0.992 0,3.969 1.9843,0.992 2.0396,4.024 0.9923,21.993 1.9843,0.992 1.9843,0 5.0163,1.985 5.0159,3.031 3.9686,1.985 2.0396,4.024 2.9766,0.992 11.0242,8.985 5.9532,10.032 4.0239,7 4.0239,4.961 0,6.009 10.9692,12.016 7.9925,12.016 6.0082,7.001 0,3.969 1.9846,5.015 3.0316,1.985 0,1.984 3.9687,1.048 2.0396,0.992 2.9766,6.008 8.9848,9.977 6.0082,4.024 10.0322,12.953 11.9611,12.017 7.9928,11.024 4.024,9.977 8.9845,13.009 7.9928,12.016 7.0005,8.985 10.0319,14.001 6.0083,7.993 3.9688,7 5.016,7.001 5.0162,8.984 4.9609,14.001 4.0239,11.025 5.016,7 7.0005,7.001 7.0005,6.008 6.0082,7.992 11.9612,14.993 4.0239,6.009 11.9614,13.008 7.0005,4.961 5.016,9.04 7.0005,8.985 7.9925,7.001 4.024,5.015 0.9923,3.969 5.0159,6.009 1.9843,7 5.0162,9.977 0.992,5.016 2.9766,5.016 3.0317,17.97 2.9766,11.024 3.0316,14.993 0.9923,8.985 2.9766,9.04 0.9923,7 3.0316,4.961 0,5.016 2.9766,7.993 5.0159,15.985 1.9843,2.04 0,1.984 1.9846,7 2.0394,6.009 2.9766,9.977 10.0321,40.018 2.9766,14.001 0.992,7 4.024,28.994 0.9922,13.009 -0.9922,14.993 0.9922,8.985 1.9844,8.985 4.0239,46.026 -4.0239,6.008 -3.9687,7.993 -3.0319,7 -22.9856,21.002 -13.0087,9.976 -16.9774,7.993 -13.0087,7.001 -7.9926,4.023 -6.0082,4.024 -7.0005,4.961 -2.0394,0 -5.9531,0.993 -2.0397,4.023 -9.9768,7.001 -3.0316,2.976 -3.9689,3.032 -1.9843,1.985 -3.0317,1.984 -7.9928,1.047 -3.9686,1.984 -8.0478,1.985 -15.9851,5.016 -10.9694,2.977 -8.0476,4.023 -5.9532,3.969 -17.0324,9.04 -7.9928,3.969 -21.9933,7.992 -7.0005,0 -7.9925,4.024 -24.0332,1.985 -10.9692,2.039 -7.0005,2.977 -14.9931,5.016 -10.0318,6.008 -8.9849,4.961 -6.0082,1.984 -6.0085,6.008 -3.9686,2.04 -3.0316,1.984 -3.9689,3.969 -4.0237,2.04 -6.0085,13.008 -8.9848,21.002 -2.9763,12.953 0,8.048 2.9763,8.985 2.9766,8.985 5.0162,13.008 6.0082,14.993 0.9923,4.024 1.9843,4.961 -1.9843,6.008 0.992,11.025 -0.992,7 -1.9846,9.977 1.9846,27.01 1.9843,6.008 1.0474,10.969 0.992,1.047 1.9846,5.954 2.9763,7 7.0005,10.032 3.0316,6.008 0.9923,7.001 1.9843,6.008 5.0162,3.969 9.9769,20.009 5.0162,7 3.0316,8.985 7.9926,15.985 1.9843,3.032 0.9923,7.001 5.0159,3.968 6.0085,4.024 6.0082,11.024 1.9843,3.969 6.0083,4.024 1.9843,1.984 1.9843,6.009 5.0162,8.984 4.0239,8.985 0,4.024 2.9766,9.977 1.9843,5.016 0,4.024 3.0317,3.969 0,3.032 4.9609,9.976 0.9923,8.985 3.0316,12.017 2.9766,8.985 3.0316,13.008 2.9766,8.985 1.9843,9.04 1.0473,6.008 2.9766,5.953 7.0006,7.001 16.9773,14.001 21.0013,18.024 7.0005,3.969 4.0237,4.024 6.0082,6.008 1.9846,2.977 -1.9846,2.039 0,3.969 49.9954,42.003 3.9686,5.016 5.0162,-7.993 1.9843,2.977 13.0088,-0.992 11.0241,2.976 5.0163,4.024 7.0002,5.016 -7.0002,-31.033 -10.0322,-44.98 -13.0087,-145.024 -1.9843,-21.994 0.9922,-37.978 0.9921,-21.994 0.9922,-21.993 4.024,-52.035 0.992,-16.978 3.0316,-81.028 1.9846,-24.97 3.9686,-8.985 11.0245,-30.041 16.9773,-31.971 17.0324,-35.002 33.018,-66.036 7.9926,-8.984 8.9848,-21.002 10.9691,-34.01 1.0474,-12.953 -1.0474,-22.049 -1.9843,-46.963 -5.0162,-63.996 -7.0002,-27.01 -7.9928,-21.001 -8.9849,-31.034 -12.0164,-37.979 -7.9926,-30.978 -2.9766,-10.032 -6.0082,-32.963 -7.9925,-30.041 -5.0162,-14.993 -3.9687,-8.985 -7.0005,-12.016 -16.0404,-28.002 -18.9616,-28.994 -23.0409,-34.01 -19.954,-28.994 -89.0214,-127 -36.9863,-56.003 -4.0239,-17.97 -13.0088,-67.028 -1.9843,-15.985 -2.9766,-8.93 76.9496,2.922 60.0273,4.024 64.9884,7.992 50.9874,12.017 77.9969,18.962 73.036,20.009 64.9885,21.001 60.0272,21.001 19.954,16.978 67.0278,91.997 35.002,42.003 36.9867,48.011 21.0012,28.994 23.9779,31.033 108.0384,143.978 172.9712,-161.01 99.9905,-88.966 46.0265,-46.027 51.9796,-3.968 42.9949,-5.017 49.0028,-5.016 52.0347,-9.977 49.0031,2.977 56.0037,-15.985 -3.9689,-12.458 185.9249,-51.538 124.0234,-41.011 197.9967,-83.013 98.9982,-53.964 84.0051,-49.995 131.0239,-79.044 -0.1653,-0.441 135.1582,-69.564 8.8744,-23.261 -6.8901,19.293 87.974,-22.986 134.0002,-5.016 45.0343,5.016 88.9663,45.971 269.0481,125.016 56.9956,28.001 125.9527,-250.031 13.0087,-73.973 55.0114,-24.033 -12.0165,-96.958 -9.9771,-98.999 -21.9933,-178.042 0,-5.954 -10.0322,-65.043 -4.9609,-35.002 -13.0087,-82.958 -7.9925,-49.003 -5.0163,-29.986 47.0188,-22.049 -34.01,-211.005 6.0082,-2.976 -15.9853,-96.022 -11.0242,1.047 -0.9923,-15.048 -70.0044,-428.956 -35.002,-42.995 75.2407,-80.201 199.7606,-158.806 98.9982,-78.989 137.9691,-86.044 130.0319,-40.956 157.9782,-43.05 155.9941,-33.955 145.0247,-7 197.9964,21.001 106.991,28.994 156.9861,49.003 188.0196,98.006 205.9892,180.964 148.9933,174.019 116.0309,210.013 126.008,201.965 51.979,57.988 105.007,97.014 277.978,141.001 190.004,40.018 302.011,27.01 -148.002,-232.999 -17.969,-115.039 -26.018,-19.954 -84.997,-34.01 -83.013,-27.009 -44.979,-3.032 -120,18.025 -76.012,11.024 -44.979,4.961 -29.05,-6.008 -21.001,-37.979 -35.002,-65.98 -44.979,-84.998 -90.014,-176.003 -38.971,-74.028 -24.033,-57.988 -132.9529,-329.02 -47.0185,-126.008 -32.0257,-93.982 -23.9779,-44.979 -58.9799,-55.012 -66.0358,-56.995 -38.9709,-77.997 -21.0013,-106.991 -55.0113,-160.018 -93.982,-174.019 -13.0088,-46.963 0.9923,-131.0242 -20.0092,-136.9768 -47.0186,-75.0206 -21.9935,-35.0021 -8.9849,-17.9696 -7.0005,-27.0096 -4.0239,-28.0018 1.0473,-15.985 2.9766,-57.051 -3.8585,2.5908 1.8742,-3.5828 1.9843,-22.9859 -69.0121,-98.0059 -24.9701,-183.9959 6.0082,-38.9706 -4.0237,-46.0265 9.9769,-145.025 -2.9766,-78.9889 -26.0172,-52.972 -0.9923,-115.0386 -12.0165,-31.9704 -8.9848,-49.9954 -25.9622,-71.9887 -11.0245,-70.9964 14.9931,-59.0352 -0.992,-71.9887 -54.019,-28.9938 -28.9941,-35.9944 -36.9864,3.9686 -25.0252,24.0329 -31.9707,3.9689 -43.9869,-14.993 -2.0396,0.992 -73.3665,-29.7104 11.41,-13.2842 -24.033,-44.9792 -8.9848,-42.9948 5.016,-77.9969 -10.0319,-61.0196 99.9902,-170.9872 0.9923,-1.9843 14.0008,-36.0493 5.0162,-47.9558 -2.9766,-21.9936 -4.024,-29.0488 24.033,-91.998 0,-4.9609 -56.0034,-147.0093 -2.0396,-8.9848 17.0327,-88.0291 42.0026,-79.9812 24.9701,-116.0309 34.0098,-36.9866 16.9776,-8.9846 44.0419,-25.0252 10.9695,-17.9696 12.0164,-225.0062 90.0134,-215.0291 -60.0273,-141.0008 -1.9846,0 -32.0254,-99.9905 14.0008,-62.0118 9.0401,-24.9699 7.0002,-20.0093 57.988,-161.0097 4.6851,-12.1822 0.3308,0.1654 204.9972,78.0523 84.0051,28.9938 7.9926,1.9846 0,-0.9923 -28.9938,-931.995 7.0002,-316.0115 9.9771,-215.0291 -6.0082,-149.9859 -28.9938,-268.9931 -76.0126,-305.9794 -189.0119,-592.9975 -43.9869,-221.0375 -21.9935,-205.9891 -0.055,0 -3.9138,-49.9952 -1.0471,-42.0026 -0.9923,-36.9866 2.0394,-61.0195 1.9845,-63.0039 1.9844,-55.0113 4.0239,-36.9865 4.9609,-45.9714 3.0316,-17.0325 2.9766,-29.9861 5.0159,-48.0109 42.9949,-237.9597 19.017,-90.0134 9.9771,-47.0187 21.0013,-91.9978 10.0319,-42.9948 14.9933,-63.9961 7.9925,-41.0104 7.9926,-35.9944 9.9771,-40.0182 9.0399,-34.01 16.9773,-80.9735 8.9848,-42.9948 17.0327,-72.9809 22.9856,-97.0139 9.9771,-42.9948 41.0103,-181.0191 9.0399,-35.9944 11.9614,-55.0113 13.0087,-65.9805 7.0006,-33.0178 4.0236,-24.97 10.9694,-62.0117 7.0003,-41.0104 8.9848,-63.004 9.0399,-49.99518 4.9611,-30.97832 10.0319,-41.01042 6.0085,-28.99391 10.9692,-42.00262 14.993,-48.01086 8.0476,-35.99434 9.9771,-35.99437 10.9691,-40.01824 13.0088,-51.97958 10.0321,-49.00305 7.0003,-45.03429 2.9766,-26.95444 14.001,-56.00347 -42.0026,0.99219 -48.011,3.96875 -59.9723,2.03949 -68.0198,1.98438 -58.9802,-0.99219 -60.0272,0.99219 -50.9874,-0.99219 -62.0119,-7.00043 -56.0033,-3.03169 -45.9715,-3.96875 -36.9863,-4.02387 -42.9949,-6.00824 -43.0499,-7.00044 -103.9594,-14.99306 -75.0203,-14.99305 -57.9879,-14.99306 -81.0286,-20.00912 -60.9645,-15.98524 -82.0208,-26.01736 -71.9887,-23.97787 -106.9907,-40.01823 -137.0322,-58.98004 -82.9581,-32.02561 -333.0442,-99.990456 -175.9478,-43.711374 -0.055,-0.275618 -106.991,-21.001286 -128.9843,-21.0013136 -91.0057,-10.0321254 -130.9689,-7.992619 -118.0151,-4.960931 z M 1177.0203,2534.4987 l -6.339,-2.26 0.2205,0.6615 z m -6.339,-2.26 -0.7717,-2.3151 -4.0238,0 1.0473,0.9922 z m 3166.236,10557.6473 -39.0262,0.992 -3.9686,3.032 -34.0101,21.001 -22.9856,13.009 -17.0326,0.992 -34.0101,6.008 -22.9856,7.993 -33.0177,13.009 -11.9614,6.008 -7.9926,-17.033 -2.0396,1.985 0,2.039 -9.9768,7.993 -6.0085,5.016 -3.9687,2.976 -16.0403,0.993 -7.0006,-2.977 -7.9925,-0.992 -3.9686,-2.039 -6.0082,0.992 -3.0319,2.039 -15.9851,3.969 -7.0005,3.031 -7.9926,-2.039 -5.0162,1.047 -7.9925,-1.047 -11.0245,-0.992 -7.0002,0.992 -15.9854,-0.992 -10.9691,0.992 -14.993,-0.992 -20.009,2.039 -11.0245,5.954 -10.9691,2.039 -10.0322,2.977 -9.9771,3.031 -3.0316,0 -7.0005,-4.024 -8.9846,0 -7.0005,0.993 -14.9931,1.984 -6.0082,0 -8.9848,0 -8.9849,-2.977 -25.0252,1.985 -4.0239,-1.985 -3.9686,0 -1.9846,-1.984 -1.047,-0.992 3.0316,-2.04 -1.9846,-1.984 -2.0393,-2.977 -1.9843,0 -4.024,1.985 -10.9691,-0.993 -4.0239,0 -0.9923,-2.039 0,2.039 -7.0002,7.993 -7.0006,6.008 -9.9771,11.962 -47.0185,46.026 -21.9936,21.002 -6.0082,7 -3.9689,5.016 -11.0242,22.986 -8.9848,20.009 0.9923,8.985 -0.9923,1.984 -4.0239,26.017 -0.992,10.969 -1.9846,4.024 0.9923,4.024 -0.9923,0 0,1.985 -2.0393,0.992 -1.9843,1.984 -1.9846,2.04 0.9923,5.953 -1.9843,0 0,3.032 -2.0397,2.976 0,2.04 -1.9843,4.961 0,2.039 -1.9843,0 0,1.984 -1.9846,0 0,6.009 -2.0393,0 0.992,2.976 -1.9843,0 0,1.985 -0.992,2.039 0,4.961 -1.9846,1.047 -2.0393,1.985 -0.9923,1.984 -1.9843,1.985 0,4.023 -2.9766,2.977 -2.0396,2.039 -0.9921,2.977 -1.9843,0 -1.9845,1.984 -2.0394,2.04 -0.9923,0 -1.9843,0.992 -1.9843,0 -2.0396,1.984 -1.9843,3.032 -0.9923,1.985 -0.992,1.984 0,3.031 -1.9846,1.985 1.9846,1.984 -7.9928,21.002 -3.0317,8.984 -0.9923,6.009 -3.9686,7 -18.0247,17.033 -30.9784,8.984 2.9766,3.969 1.9843,2.04 -3.9686,1.984 0,0.992 1.9843,1.985 0.9923,9.039 1.9843,1.985 -1.9843,1.984 3.0317,7.001 0.992,13.008 -10.0319,21.994 -3.9689,-6.008 -2.0393,2.039 3.0316,7.001 -8.9848,3.968 1.9843,5.016 -10.0322,5.017 -0.9923,-5.017 -7.9925,3.969 5.0162,7 -1.9846,1.048 -4.0236,0.992 -0.9923,1.984 -4.0239,0 0,1.985 -0.992,0 -5.0163,-3.969 2.0397,-0.992 -3.032,-7 -1.9843,0 1.9843,5.952 0.9923,3.032 5.0163,7.001 -1.9846,1.984 -1.9843,0.992 -1.0474,0.993 -3.9686,0 -1.9846,2.039 -2.0393,0 -1.9846,1.984 0,-1.984 -5.0159,2.976 -3.9686,-7 -7.0006,3.032 -1.9843,-4.024 -27.0095,13.009 -4.0239,-11.025 -1.9846,2.04 1.9846,4.961 -14.001,9.04 7.0005,10.969 -1.9843,0.992 -1.9846,0 -2.0393,2.039 -1.9844,1.985 -7.0005,0.992 -7.0005,-13.008 0,-2.977 -7.0002,1.984 -1.9846,-7 -0.992,-1.985 -2.0397,0 0.9923,3.969 0,-1.984 2.0394,7 -5.016,1.985 2.9766,6.008 1.0474,8.985 -2.0397,0 -10.9691,6.008 -2.0396,-4.961 -3.9686,2.977 5.0159,9.977 -9.0398,4.023 -16.9774,8.985 -1.9843,3.032 0.992,0.992 -12.0165,3.969 -6.0082,3.032 -4.9609,1.984 -2.0396,-7.993 -1.9843,0.992 6.0082,12.017 -0.992,0 -2.0396,1.984 -4.9609,-7.992 4.9609,9.977 -1.9843,3.031 -1.9846,2.977 -0.992,1.984 0,2.04 -2.0396,1.984 -0.992,-1.984 0,1.984 0,1.984 -1.9846,2.04 -1.9843,0 -2.0394,0.992 -10.9694,0.992 0,-0.992 -1.9843,0 0.9923,2.977 -0.9923,0.992 0,2.04 -2.0393,0 -18.962,7 -12.0164,1.984 -6.0083,0.992 -1.9843,-0.992 -2.0396,-7.992 -0.9923,0 0,-2.04 -1.9843,2.04 0,-2.04 -4.0239,0 -1.9843,3.032 0,1.984 -1.9843,1.984 -3.0317,2.04 -5.9532,1.984 -11.0244,-31.97 -7.0002,1.984 1.9843,1.985 3.0316,-2.977 10.9691,31.971 -4.9609,0.992 -2.0393,-4.961 -1.9846,0 -15.9851,4.961 -5.0162,-15.985 -14.0007,7 -7.0006,2.976 0,2.04 -7.0003,2.977 0,1.984 -7.0004,4.024 -1.9844,1.984 -5.0161,0 -5.016,-10.969 -7.0005,2.977 -11.9613,-9.977 0,-2.04 1.9843,0 8.9849,-2.976 4.0238,-0.993 -4.0238,0 0,-1.984 -4.961,1.984 -6.0082,1.985 0,-0.992 -7.0005,0.992 0.9922,1.984 -10.0321,5.016 -0.9922,0 -9.977,5.016 -0.9922,-1.984 -6.0082,2.976 1.9844,0 -13.0087,2.977 2.0395,2.04 10.9692,-3.032 7.0004,-2.977 6.0082,-0.992 1.9844,-2.04 3.0317,0 6.0083,-1.984 0.9921,-0.992 0.9922,-1.984 3.9688,0 18.0247,14.001 2.9766,-0.993 3.0317,8.985 -21.9935,6.008 -19.017,3.969 -16.9774,6.009 -1.0473,-3.969 -12.9536,0.992 -2.0395,-2.04 -1.9843,2.04 -1.9844,1.984 -1.9844,0 -4.0239,-14.993 1.9844,0 -0.9922,-6.008 -5.016,1.984 2.0395,7.001 1.9843,-1.985 4.0239,15.986 -21.0013,6.008 -1.0473,-7.993 -7.0004,2.977 -4.961,-15.986 -0.9922,-1.984 -2.0395,0 0,1.984 2.0395,0 3.9688,18.025 -2.9766,0 1.9844,7.001 -7.0004,1.984 0,1.985 -1.9844,3.031 -2.0395,1.985 -1.9844,0.992 -3.9687,1.984 -4.0239,3.032 -2.9766,1.984 -2.0394,0 -3.9688,1.985 -11.0243,4.023 -5.0161,0 -7.9926,2.977 -7.9926,5.016 -5.0161,1.984 -5.9531,3.032 -5.0161,0.992 -6.0082,0 -6.0082,2.977 -8.9849,1.047 -8.9848,1.985 -10.0321,2.976 -10.9692,5.016 -3.0317,0.992 -31.9704,3.032 -14.9931,4.961 -6.0083,1.984 -9.0399,3.032 -9.977,3.969 -14.0009,3.031 -19.0169,5.017 -7.0004,2.976 -7.0005,0 -1.9843,-5.016 -3.9688,0 1.9844,6.008 -17.0325,4.024 -10.9692,0.992 -7.9927,2.977 -7.0004,4.024 -2.0395,0 -3.9687,-0.992 -3.0317,-4.024 -3.9688,-0.993 -5.016,-4.023 -2.9766,-0.993 -4.0239,0 -3.9687,4.024 0.9922,1.985 -0.9922,0.992 -2.0395,4.024 -7.9926,0.992 -2.9766,-1.984 -4.0239,0.992 -7.0004,3.969 -8.9848,3.031 -14.9931,0.992 -7.9926,4.024 -6.0082,5.953 -4.0239,4.024 -1.9844,1.985 -1.9844,-0.992 -4.0238,0 -5.0161,5.015 -1.9844,0.993 -3.9687,1.984 -7.0004,0 -6.0083,3.032 -10.0321,9.977 -0.9922,4.023 -14.9931,0.993 -4.0238,0.992 -2.9766,0 -2.9766,5.016 -4.0238,0 -2.9766,1.984 -6.0082,0.993 -1.9844,-3.969 -3.0317,-7.001 -0.9922,-4.023 -4.0239,-2.977 -3.9687,0.992 -1.9844,0.992 0,6.008 2.9766,4.962 1.9844,6.008 0.9921,9.04 -3.9687,1.984 -0.9922,1.984 -28.9939,8.985 -18.0248,6.008 -26.0173,7.001 2.0395,167.018 1.9843,19.017 -0.9921,14.001 0,7.992 0,11.962 1.9843,17.033 7.9927,248.983 -3.9688,58.981 11.9614,6.008 9.0399,0 7.9926,-0.992 10.9692,-3.969 12.0165,-5.016 14.0009,-0.992 20.0091,-3.032 14.9931,-0.992 14.993,-3.969 16.9774,-13.009 10.0322,-11.024 15.9852,-13.009 12.0165,-7 9.977,-0.992 18.0247,0.992 14.9931,-0.992 10.9692,0.992 14.0009,-17.97 8.0477,-10.032 5.9531,-7 15.0482,-4.961 21.0013,-6.009 17.9696,0.993 43.987,-4.024 28.9939,0 24.033,0 28.9939,0 23.9779,0 27.0095,3.031 42.0026,3.969 25.0252,4.024 16.9775,2.977 11.0243,4.024 18.9618,5.015 5.016,6.009 11.0243,7.993 14.9931,14 7.0004,8.985 8.9848,6.008 7.0005,0.993 11.0243,1.984 12.9535,-0.992 12.0164,0.992 11.0245,1.984 6.0082,3.032 4.9609,3.969 6.0082,1.047 7.0006,0.992 14.0007,2.977 15.9854,-0.992 11.0241,0.992 10.9695,-0.992 17.0323,0.992 23.9779,-1.985 10.0322,-5.016 13.0087,-14.001 3.9686,-8.984 6.0083,-9.977 4.0239,-6.008 5.9532,-7.993 5.0159,-11.024 6.0083,-16.978 5.0162,-22.048 5.9529,-7.993 3.0319,-11.961 9.9768,-15.049 2.0397,-5.953 7.0002,-9.04 10.9694,-14.001 10.0319,-15.985 15.9853,-12.016 10.9692,-3.969 13.0087,-0.992 0,-4.024 0.9923,-7 11.0242,-5.017 12.0164,-2.976 14.9931,-0.992 15.9853,-3.032 25.0253,-2.977 21.9935,-0.992 18.9617,0.992 20.009,-1.984 18.025,0.992 18.9616,0 23.0409,2.977 30.9782,4.024 13.0087,-3.032 0.9923,-1.984 44.9792,-2.977 -0.9923,10.969 4.0239,-0.992 2.9766,-10.969 30.0412,-4.024 4.9609,-19.017 9.0398,0 1.9846,-6.008 -1.9846,1.047 1.9846,-31.033 2.9766,-15.986 0.992,-41.01 -12.9534,0.992 -1.0474,-7 13.0088,-0.993 0.992,-62.011 8.0479,0 0.9923,-24.97 -3.032,0 0,-7.993 2.0397,-5.016 3.9686,0 3.0319,-44.979 -13.0088,-1.047 1.9843,-4.961 11.0245,0 0.992,-12.017 -7.0002,0.992 0,-3.968 1.9843,0 -2.9766,-6.009 0,-0.992 -2.0397,0 0,-2.039 -3.9686,-3.969 -3.0316,0 0,-1.985 -3.9689,0.993 -0.9923,-2.04 -4.0236,0 -2.9766,-0.992 -2.0396,-1.984 -1.9843,-0.992 -1.9844,-1.985 0,-2.039 -2.0396,-1.985 -1.9843,-0.992 -8.9848,0.992 -3.0316,-1.984 -7.0006,0 -1.9843,-0.992 -1.9843,-2.04 -0.9923,-1.984 -0.9923,-7.001 0.9923,-4.023 1.9843,-2.977 0,-4.024 0.9923,-1.984 0,-5.016 1.9843,-2.977 0,-1.984 5.0163,0 -0.9923,-7.001 1.9843,-2.039 0,-1.984 -1.9843,-1.985 0,-1.984 4.0239,0 -1.0473,-2.04 3.0316,2.04 0,1.984 1.9843,0.992 0,5.016 1.9846,1.985 1.047,1.984 0.9923,2.039 1.9843,0 1.9846,1.985 2.0394,0 1.9843,1.984 1.9845,-2.976 0.9921,1.984 4.0239,0.992 0,-0.992 6.0082,0 0,-4.024 0.9923,-0.992 0.992,-1.984 0,-1.985 1.9846,0 0,-2.039 2.0393,-0.992 4.9609,0 4.024,-23.978 5.0162,0 0,9.977 -1.0473,11.024 -1.9846,7 6.0082,3.969 4.0239,-0.992 7.0005,2.039 7.9926,1.985 1.9846,-3.032 0.992,-1.984 0.9923,-1.985 0,-4.023 2.0393,-7.001 2.9766,-6.008 1.9843,-11.961 4.0239,-5.017 -0.992,-6.008 4.9609,1.985 0.992,-4.961 -1.9843,-2.04 1.9843,-3.969 7.0006,-16.977 5.0162,-11.024 0.992,-2.977 0,-5.016 -3.9686,-5.016 -9.0402,-16.978 0,-2.039 -1.9843,-3.969 -1.9843,0 -0.9923,-6.008 1.9843,0 0,-0.992 1.9846,-3.032 0,-1.984 2.0394,-1.985 -1.0474,-4.023 2.0397,0 1.9843,-0.992 0,-3.969 2.9766,0 0,-2.04 2.0396,0 0,-1.984 10.9691,-0.992 2.0394,-1.985 1.9845,1.985 2.9764,-0.993 4.0239,-2.039 3.9689,0 -0.9923,-0.992 3.0316,-2.977 1.9846,-4.024 1.9843,-1.984 0,-1.984 3.0316,-3.032 0,-1.985 1.9843,-1.984 0.9923,-2.04 0,-2.976 1.9843,-1.984 -0.992,-2.04 2.0394,-2.976 0,-5.017 1.9843,0 0,-1.984 1.9846,-1.984 0,1.984 1.9843,0 1.0473,1.984 3.9686,0 4.0239,-2.976 1.9843,1.984 2.9766,0.992 6.0082,0.993 0,2.039 -1.9843,0.992 0.9923,3.969 0.992,-0.992 0.9923,5.016 -1.9843,2.976 -1.9845,4.024 -0.9921,2.977 -2.0396,2.04 0,3.968 -1.9843,7.001 0,4.024 -1.9843,1.984 0,1.984 -1.9846,3.032 3.9689,0 -0.9923,1.985 0,1.984 1.9846,2.039 3.0316,1.985 6.0083,0 5.9532,6.008 2.0393,3.969 1.9843,7 0.9923,7.001 -1.9843,4.023 -7.0005,-4.023 1.9843,-2.977 -0.992,-4.024 -1.9843,-3.969 -2.0397,-1.984 -3.9688,-2.039 -10.0319,-2.977 0,-1.985 -12.9537,0.993 -11.0242,-2.04 -11.0245,-1.984 -7.0005,0.992 1.0474,7.001 -2.0394,9.039 0,1.985 7.0003,5.016 2.0396,2.976 0.9923,4.024 0.992,1.985 1.9846,7 1.9843,3.969 1.0473,5.016 5.9532,-0.992 3.0316,-1.985 8.9849,-0.992 3.0316,-1.047 1.9843,0 7.0005,-4.961 3.9686,-2.04 4.0239,-1.984 0.9923,-1.984 5.016,-7.993 7.0005,3.969 0.992,3.031 -1.9843,1.985 -3.0316,7.992 -1.9843,0.993 0.992,2.039 -1.9843,0 -1.9843,2.977 -7.0006,0 -5.0159,20.009 8.9848,1.984 -1.9845,8.985 0,2.04 -1.9844,0 -3.0316,3.968 0,1.985 -0.9923,1.047 0,4.961 -0.992,4.024 -1.9846,3.969 -2.0393,3.031 -1.9843,0 1.9843,19.017 2.0393,0.992 0,9.977 2.9766,5.016 0,7.001 2.9766,9.977 2.0396,2.039 0,1.985 -0.9923,1.984 0,4.024 1.9844,4.961 0.9922,15.048 -0.9922,1.984 0,0.993 -1.9844,2.976 -2.0393,0 -1.9846,4.024 -1.9843,0 -0.9923,1.984 -2.0393,0 -1.9843,-1.984 -4.0239,-0.992 -2.9766,-2.04 -6.0083,-1.984 0,-0.992 -5.0159,-0.992 -9.9771,0.992 -2.9766,5.016 -1.0474,7.992 -1.9843,0 0,0.993 -1.9843,4.024 -1.9845,1.984 0.9922,5.016 -0.9922,3.969 0,6.008 0.9922,0.992 1.9844,1.985 2.9765,2.039 2.0397,1.984 4.9609,2.977 2.0393,1.047 1.9846,0 0,1.985 4.0236,-3.032 0,-1.985 1.9846,-1.984 0.992,-1.984 -0.992,-2.04 28.0016,-2.976 1.9845,-1.985 3.0317,0 3.9686,-1.047 0,-1.984 4.0239,-5.016 10.9691,7 -4.9609,6.008 -5.0159,5.016 5.0159,-2.976 1.9843,4.961 1.9846,-1.985 0,4.024 3.0317,5.953 -2.0397,1.048 0,1.984 27.0095,33.018 -3.9686,1.984 1.9843,1.985 0,1.984 1.9843,1.047 2.9766,-1.047 4.024,4.024 1.9843,0 0.9923,1.984 6.0082,0 -1.9843,4.024 0,2.977 -1.9843,0 1.9843,4.024 2.9766,0.992 7.0002,5.016 -1.9843,1.984 0,1.984 29.9861,21.994 -1.9843,0 0,2.04 13.0088,3.968 21.0013,8.985 -1.9843,1.047 14.0007,5.954 0,2.039 1.9843,-0.992 0.9923,-2.04 0,2.04 4.024,1.984 6.0082,1.984 0,1.985 11.9611,4.024 0.9923,0 11.0245,5.016 24.9699,8.985 2.0396,0 3.9686,0.992 2.0396,0.992 0.992,2.039 1.9846,0 0,1.985 2.9766,1.984 1.0471,17.033 1.9845,0.992 3.9686,4.961 7.0006,0 2.0393,-1.984 1.9846,-3.969 0.992,-2.04 1.9846,-1.984 2.0393,0 -0.9923,-1.985 1.9846,-2.039 7.0003,-0.992 7.0005,6.008 7.9925,14.993 7.9928,9.04 4.024,7.993 4.9609,6.008 3.0316,4.961 5.0159,7.992 3.9689,4.024 7.9926,8.985 7.9925,8.985 6.0085,5.016 4.0236,0.992 2.9766,0 7.9926,3.032 0.9923,0 4.0239,0.992 -0.9923,3.969 1.9846,-1.984 1.9843,0 5.0159,1.984 7.9928,-0.992 11.0242,-0.992 3.9689,-1.985 6.0082,-0.992 4.0237,-2.039 2.9766,0 2.0396,-0.993 3.9686,-2.976 8.9848,-1.985 2.0396,-1.047 1.9844,2.04 0,-2.04 5.0162,0 1.9843,-1.984 1.9843,0 -0.9923,-1.985 7.0005,-3.031 4.0239,0 1.9843,-0.992 0,-3.969 2.9766,-0.992 0,1.984 2.0397,0 3.9686,-1.984 1.9843,4.961 1.0473,0 -1.0473,-4.961 11.0244,-1.048 0.9923,2.04 0,1.984 6.0082,0 0.9921,6.008 1.9843,0 -0.9921,-1.984 2.0394,-7 15.9853,-1.048 -1.9843,-1.984 7.9926,-2.977 14.993,-5.016 10.9692,-0.992 4.0239,1.984 2.9766,0 2.0396,1.985 2.9763,1.047 8.9848,0 6.0083,0.992 7.0005,1.985 6.0082,-0.993 8.9848,5.017 3.0317,-1.048 1.9843,2.04 8.9848,1.984 0.9923,7 1.0473,-7.992 9.9771,1.984 1.9844,0 7.9925,0 0,10.032 2.0396,0 0,-10.032 8.9848,-0.992 -1.9846,11.024 1.9846,0 0,-9.039 7.0003,0 4.0239,0.992 7.0005,-1.985 1.9843,6.008 0,-6.008 3.9689,-2.976 4.0237,-0.992 5.0162,8.984 -3.0317,-8.984 2.0394,0 8.9848,-5.017 2.9766,10.97 2.0396,7 0,-4.961 -3.0319,-13.009 11.0245,-0.992 2.9766,7.001 0.992,7.992 2.0396,-3.031 -4.0239,-11.962 7.0005,-3.032 4.0239,0 8.9848,-2.976 1.9843,0 0.7716,6.008 -0.7716,-7.992 4.024,0 1.9843,-1.048 0,-1.984 5.0159,-0.992 5.9532,0 7.0005,0.992 13.0085,-0.992 13.0088,-0.992 0,-4.024 4.0239,0 0,5.016 37.9786,-2.977 0,1.985 -0.992,3.968 0,2.04 6.0082,-4.024 6.0083,-2.977 25.9622,-1.984 11.0244,0.992 -0.9923,8.985 3.9686,1.984 -0.992,-10.969 0.992,-2.039 2.0396,0 1.9843,2.039 1.9846,0 5.016,0.992 2.9766,0 4.0239,1.985 15.9851,-1.985 7.9928,0 3.0316,-1.984 2.9766,-1.047 8.9848,-3.969 6.0083,-4.024 14.0007,-7 3.0317,-3.969 8.9848,-4.024 4.0239,0 5.9532,-2.976 8.0476,-4.024 8.9848,-0.993 4.9609,-1.984 8.0479,-2.039 4.9609,0 14.0007,-8.985 5.0162,-3.969 8.9849,-9.04 0,-2.977 3.0316,0 0,-4.023 6.0082,2.039 1.9843,-2.039 -6.0082,-1.985 -0.992,-4.024 1.9843,-0.992 4.0239,-3.969 4.9609,2.977 2.0394,-1.984 -7.0003,-3.032 0.992,-3.969 0.9923,-1.984 4.0239,-6.008 4.9609,1.984 0,-1.984 -4.9609,-2.04 1.9844,-1.984 0,-0.993 5.0159,0.993 0,-0.993 -6.0082,-1.984 1.9845,-2.039 0,-7.001 0.9921,-1.984 7.9928,0.992 2.0393,-1.984 -11.0242,-0.993 0,-6.008 1.9843,-1.984 6.0083,0.992 -6.0083,-1.984 -0.9922,-4.024 1.9845,-1.985 7.0003,0.993 0,-1.985 -7.0003,-0.992 -0.9923,-9.04 2.0394,-7.993 -1.0471,-7.992 2.0394,-7.001 4.9609,0 -2.9766,-1.984 -1.9843,0 -2.0394,-14.001 -1.9845,-7 5.0162,-0.993 -5.0162,-1.047 0,-0.992 -2.9766,-6.008 0,-3.969 3.9688,-0.992 0,-0.992 -6.0082,0.992 -0.9923,-6.008 -1.9843,-5.017 6.0083,-1.984 -6.0083,0 -0.9923,-6.008 6.0083,0 0,-1.984 -7.0003,0 0,-5.017 7.0003,0 0,-1.984 -9.0399,1.984 0,-1.984 -2.9766,-3.032 0,-2.976 5.0162,-3.032 0,-1.984 -5.0162,3.032 -1.9843,0 -0.9923,-11.025 3.9689,-2.976 0,-4.024 -1.9843,0.992 0,4.024 -1.9846,0 -2.0393,-2.04 0,-2.976 -2.9766,-1.985 3.9689,-1.984 -1.9846,-9.04 -2.9766,2.039 0,-2.039 -3.0317,-1.984 0,-6.009 -1.9843,-2.976 -2.9766,-5.016 -10.0321,-18.025 -1.9843,-4.961 -5.016,-7 -3.9688,-13.009 -7.0006,-7.993 -6.0082,-13.008 -4.0239,-7.001 -6.0083,-7.992 -5.9529,-7.993 -8.0478,-6.008 -1.9843,-2.04 7.0002,-3.968 -2.9763,-0.993 -4.0239,2.977 -1.9846,-0.992 -3.0316,-3.969 -1.9843,-1.047 6.0082,-4.961 0,-0.993 -7.0005,5.954 0,-1.985 -1.9843,0 0,-2.976 -4.024,-4.024 -2.9763,-3.969 -2.0396,-2.039 -0.9923,-0.993 0,-1.984 -1.9843,-0.992 0,-2.04 0.9923,-1.984 0.992,-2.977 -7.0002,-7.992 -1.9846,0 -2.9766,-4.024 -3.0317,0 0,-1.985 -9.9768,-9.039 -4.0239,-0.992 -3.9689,-1.985 -3.0316,-6.008 -3.9686,-0.992 -3.0317,-2.977 -1.9846,-2.039 7.9929,-7.993 -1.9846,0 -7.9926,6.008 0,-1.984 -1.0473,-3.032 -1.9843,0 4.0239,-6.008 -5.0162,4.024 -4.0239,-2.977 -1.9843,0 0,-2.039 -1.9843,-0.993 -0.9923,-1.984 0,-1.984 -5.016,-4.024 -1.9843,-1.984 0,-0.993 -2.0396,-1.047 5.0162,-8.985 -7.0005,7.001 -1.9843,-1.985 -0.9923,-1.984 -0.9923,-2.04 -2.0393,-0.992 0,-1.984 3.0316,-4.024 -3.0316,2.04 -3.9689,-4.024 0,-1.985 2.9766,-3.032 -5.0159,4.024 0,-0.992 -1.9846,0 -0.992,-2.039 -0.9923,-1.985 2.9766,-3.968 0,-2.04 -2.9766,4.024 -1.9843,-1.984 -4.024,-3.032 -1.9843,0 0,-1.984 -1.9843,0.992 -2.0396,-1.985 0,-4.024 -1.2127,-1.212 1.2127,-1.764 4.0239,-7 -1.9843,0.992 -4.0239,6.008 -1.9843,0.992 -2.0396,-2.977 0,-2.039 -2.9766,-1.984 -1.9843,-2.977 7.9925,-4.024 -1.9843,-1.984 -7.0005,6.008 -2.0394,-3.032 -1.9845,-1.984 4.0239,-4.024 0,-1.984 -6.0082,4.024 -3.0317,-2.04 0,-1.984 -1.9843,-2.977 -0.9923,-3.031 -1.9843,-1.985 -1.0473,-1.984 -1.9843,0 0,-1.047 0,-3.969 -3.9689,0 -3.0316,-1.985 0,-2.039 -3.9689,-1.984 -1.0471,-1.985 -1.9846,-6.008 -1.9843,1.984 0,-1.984 -1.9843,0 -4.0239,-7.001 0,-1.984 0,-2.039 7.0005,-2.977 -4.0239,0 -2.9766,0.992 -1.9843,0 1.9843,-0.992 -1.9843,-0.992 0,-2.04 -2.0396,0 0,2.04 -3.9686,-2.04 -0.9923,-10.969 7.9925,-1.984 -3.0316,-2.04 -7.9926,4.024 -0.9922,-6.008 -1.9843,0 1.9843,-0.992 -1.9843,-3.032 -1.9844,-1.984 0,-3.969 -3.0316,-1.048 -1.9846,-1.984 -3.0316,-3.968 5.0162,-2.04 -1.9846,-1.984 -3.0316,1.984 0,-1.984 -1.9843,0 -1.9843,0 1.9843,-0.993 0.992,-1.984 2.0396,0 0,-2.04 -2.0396,0 -3.9686,3.032 0,-7.992 -2.0396,-1.048 -1.9843,-1.984 -0.992,0 -2.9766,-1.984 -1.0474,0 -0.9923,-6.009 2.0397,-0.992 -2.0397,-6.008 -1.9843,0.992 -2.9766,-1.984 -5.0159,-5.016 12.0165,-7.001 -2.0397,-2.977 -1.9843,0.993 2.9766,1.984 -10.9691,5.016 -1.9846,-4.024 -5.0159,-5.953 3.9686,-5.016 -4.9609,-1.984 -0.992,0.992 -2.0396,-3.032 0,-3.969 -1.9844,-2.039 1.9844,-1.984 0,-0.993 -2.9766,-1.984 -1.9843,-2.039 0,-3.969 -3.0317,-8.985 -4.9609,-14.001 -1.0473,-3.032 -4.9609,-7.992 -2.0396,-2.977 -0.9923,-13.008 2.0396,-7.993 -3.0316,-28.994 -3.9689,-8.048 -3.0317,-8.984 -2.9766,-20.009 -2.0393,-10.97 -3.9689,-14.993 -4.0239,-10.032 -7.0003,-21.993 -13.0087,-47.019 -4.9609,-14.001 -28.9941,-93.982 -5.0159,-16.978 -0.9923,-2.039 -9.0399,-28.994 -52.9717,-45.971 -9.9771,-6.009 -61.0196,-10.032 z m 328.9653,581.036 5.016,-3.031 0,-1.985 z m 12.0165,11.962 5.0159,-2.977 0,-1.985 z m 6.0082,8.047 9.9769,-4.024 -1.9844,-1.984 z m 64.9882,75.958 7.0005,-7.993 -2.9766,1.985 z m 162.9943,258.024 6.0083,-0.993 0,-2.039 z m 3.0317,10.969 6.0082,-0.992 0,-1.985 z m -145.0247,193.035 0,7.001 1.9845,0 z m -140.0088,1.985 0.9923,5.016 2.0396,0 z m -25.9622,0 0.9923,8.984 1.9843,5.017 0,-7.001 z m -10.2526,12.016 0.2205,1.985 0.1103,0.22 z m 0.3308,2.205 0.882,6.78 2.0396,0 z m -12.0715,-5.237 0.992,7.001 0.9923,7.993 1.9843,0 -0.992,-7.993 z m -56.0036,14.994 -2.0393,7 2.0393,0 z m -32.0255,-1.985 -0.9922,3.032 0,5.953 0.9922,-5.953 z m -557.0031,-229.967 -6.0082,1.985 3.0316,1.984 z m -627.0075,-316.011 0,-1.985 -3.9686,-7 z m 599.998,363.967 -8.9848,8.048 -8.9848,12.953 -10.0322,12.017 -2.9766,-1.985 -1.9843,2.977 -1.0473,1.984 -1.9843,2.04 -1.9846,4.961 -0.992,4.024 1.9843,15.985 -1.9843,2.039 0,3.969 -2.0397,5.016 -0.9922,3.969 -1.9843,5.016 0,3.032 -0.9921,1.984 -0.9923,0 0,1.985 -2.0396,1.984 -1.9843,2.039 -1.9843,0 0,1.985 -1.9843,0.992 0.992,12.016 -2.0393,0.993 0,1.984 -0.9923,0.992 0.9923,2.039 1.0473,-0.992 0,3.969 1.9843,0.992 -3.0316,21.994 -3.9689,9.04 1.9846,1.984 1.9843,0 1.0473,1.984 1.9843,-0.992 0.9923,0.992 0,2.04 1.9843,1.984 2.0394,0 0,1.985 1.9845,0 0,1.984 1.9843,0 0,2.04 1.9843,0.992 1.0474,1.984 0.9923,-0.992 0,8.985 1.9843,1.984 0.9923,2.04 1.9843,1.984 4.0239,7 1.9843,16.978 2.0393,2.039 0.9923,0 0,3.969 1.9843,2.04 2.9766,3.969 0,0.992 2.0397,2.039 1.9843,3.969 0,1.984 1.9843,2.04 0.9923,0.992 2.0393,16.977 -3.0316,4.024 7.9928,35.002 8.0475,30.979 7.9929,35.994 4.9609,14.993 -1.9846,3.032 18.0249,5.016 0,-2.04 0.9921,2.04 1.9843,-1.047 0,2.039 1.9846,0 4.0239,2.977 1.9843,1.984 0.992,0 2.0396,2.04 2.9766,0.992 0,1.984 1.9843,1.984 2.0396,0 0,3.032 1.9843,0 0,3.969 3.9686,4.024 2.0397,2.976 1.9843,-0.992 1.9843,2.04 0,1.984 2.0396,0 2.9766,1.984 2.9766,3.032 4.0239,0.992 2.9763,1.985 2.0397,1.984 1.9843,0 6.0082,3.032 0.9923,0 1.9843,1.984 2.0396,0 1.9843,0.992 0.9923,1.984 1.9843,0 0,4.024 -1.9843,-1.984 -1.9846,0 -4.0236,-2.04 -0.9923,0 -1.9843,-1.984 -2.0396,0.992 -4.9609,-0.992 -2.0397,0 -0.992,-1.984 -1.9843,-2.04 -4.0239,-0.992 -1.9843,-1.984 -1.9846,0 -0.992,-1.985 -4.0239,-1.984 -1.9843,-1.047 -0.9923,-0.993 -2.0397,0 -1.9843,-1.984 -0.9923,-1.984 -3.9686,0 -2.0396,-2.04 -1.9843,1.048 -1.9843,1.984 3.9686,-0.992 0.9923,8.985 4.0239,3.968 1.9843,4.024 0.9923,0 0.992,1.984 2.0397,0 0,0.993 1.9843,-0.993 0,2.04 4.0239,0 0,1.984 1.9843,1.985 0.9923,0 1.9843,1.984 4.0239,2.04 2.9766,3.969 2.0394,0 0,2.039 0.9923,1.984 1.9843,1.985 1.9843,3.031 5.0162,5.954 1.9843,2.039 9.0398,-3.032 19.9543,5.017 16.0404,14 14.0007,7.993 18.9617,7 11.0244,7.993 5.016,6.008 2.9766,1.985 14.001,13.008 14.0008,12.017 9.9771,12.016 4.0237,3.969 5.0162,0 20.009,8.985 14.001,4.024 17.9694,6.008 8.9848,0.992 11.0245,2.977 27.0095,5.016 8.9848,3.031 1.9843,3.969 -2.9766,7.001 -1.9843,3.031 -3.7482,10.143 0.7166,-1.158 5.0159,-7.993 1.9846,-4.023 1.9843,-7.001 6.0082,3.032 7.9926,4.961 8.0478,4.024 5.9532,6.008 7.0002,1.984 4.024,4.024 7.9925,2.977 6.0082,2.976 6.0083,2.04 8.9848,7 7.9928,3.969 13.0085,7.993 7.9928,4.023 8.9848,2.977 11.0242,0 9.9771,1.047 12.0165,0 7.9925,2.977 7.9928,0.992 7.0003,5.016 8.0478,0.992 7.0005,4.024 7.9926,3.969 7.9925,5.016 5.0162,5.016 8.9848,7.993 7.9926,7.992 14.0007,9.977 7.0006,4.024 7.0005,6.008 13.0084,0.993 7.0006,1.984 4.9609,4.024 6.0082,2.977 12.0165,6.008 11.0244,7 3.9686,5.016 6.0082,1.985 1.9846,1.984 5.016,0 4.0239,1.984 3.9686,0 3.0319,2.04 1.9843,-0.993 6.0083,1.985 1.9843,0 3.9688,5.016 2.0394,2.977 4.9609,7 2.0396,8.985 1.9843,12.016 0,2.977 -0.992,19.017 -1.9846,2.976 -13.0085,23.041 -13.0087,24.97 0,7.001 1.9843,0 6.0082,-0.992 12.0165,-20.01 2.9766,0.993 6.0082,4.024 8.9848,1.984 10.0322,4.024 10.9691,5.016 7.9928,3.969 12.0165,4.023 12.0165,7.001 21.9933,13.009 9.9771,4.96 11.0244,4.024 12.0165,7.001 14.0007,7.992 15.9854,6.009 6.0082,2.976 9.9769,5.016 3.0316,5.016 10.9694,8.985 5.0159,5.016 9.9772,8.985 6.0082,1.984 1.9843,1.985 1.0473,2.039 1.9843,1.984 5.0162,0.993 1.9844,1.984 1.9843,3.032 0.9923,1.984 2.0393,4.024 2.9766,4.961 1.9843,3.032 0,3.968 3.0319,3.032 1.9843,1.985 2.9766,1.984 2.0393,2.039 7.9929,-0.992 0.992,-2.039 1.9843,-1.985 4.0239,0 -0.992,-5.016 3.9686,-0.992 0.9923,-1.984 2.0393,-6.008 2.9766,-7.001 0,-1.984 1.9843,-5.017 2.0397,-7 1.9843,-4.024 3.9688,-0.992 -1.9843,0 -0.9922,-3.969 1.9843,-4.023 0,-2.977 2.0396,-4.024 -3.0317,-7.001 -2.9766,-7.992 -7.0005,-6.008 -15.9853,-14.001 -2.0394,-2.977 -7.9928,-0.992 -7.9925,-4.024 -11.0242,-6.008 -21.0013,-13.009 -18.9619,-9.977 -18.0247,-8.985 -21.0013,-12.016 -13.0087,-6.008 -9.9769,-6.008 -7.9928,-7.993 -6.0082,-3.969 -7.9926,-9.04 -10.0321,-11.961 -15.9854,-19.017 -14.0007,-14.001 -13.0088,-14.993 -13.0087,-15.985 -8.9846,-12.017 -5.0162,-11.024 -8.9848,-9.977 -6.0082,-11.024 -7.0006,-9.977 -10.9691,-21.002 -6.0082,-15.985 -5.016,-11.024 -3.9689,-9.977 -3.0316,-11.024 -4.9609,-21.994 -8.0478,-30.978 -4.9609,-25.026 -4.024,-16.977 -2.9766,-18.025 -3.0316,-16.977 -4.9609,-19.017 -5.0159,-20.009 -7.0006,-38.971 -5.0159,-32.026 -1.9846,-2.976 -1.9843,-7.993 0,-1.047 -4.0239,-4.961 -1.9843,-2.04 -10.0322,-7 -3.9686,-2.976 3.9686,-2.977 3.0317,-7.001 2.9766,1.985 1.9843,0 4.0239,1.984 7.9928,0.992 6.0082,0 5.016,0 0.9923,-0.992 1.9843,0 1.9843,-1.984 1.0473,-1.985 3.9689,-5.016 1.9843,-3.031 3.0316,-3.969 2.9766,-6.008 3.0317,-7.993 1.9843,-7 0.9923,-4.024 1.9843,-4.961 1.0473,-6.008 -1.0473,-5.017 -1.9843,-9.976 -1.9843,-3.032 -1.9846,-6.008 -2.0394,-0.993 -3.9689,-0.992 -10.0318,-2.977 -4.9612,-2.039 -21.0013,2.039 -5.0159,1.985 -12.0165,5.016 -5.0162,2.977 -3.9686,3.031 -1.9843,3.969 -4.024,7 -2.9766,7.001 -2.0396,6.008 -1.9843,5.016 0.9923,2.977 2.0393,5.016 0,4.961 2.9766,2.039 3.9689,3.969 5.016,3.032 6.0082,4.961 -1.9843,0 3.9686,4.023 2.0396,0 -7.0005,8.985 -2.0393,0.993 -10.9692,-8.985 -5.0162,-2.977 -12.0164,-3.031 -10.9692,-1.985 -13.0087,0 -7.9926,-0.992 -21.9935,0 -12.0165,0.992 -16.9774,-0.992 -16.0403,-0.992 -9.9772,-0.992 -5.0159,-1.048 -29.9861,-9.977 -15.9854,-5.016 -13.0087,-3.969 -12.0165,-7 -7.0002,-5.016 -8.9848,-5.016 -7.0006,-8.985 -14.0007,-12.016 -20.0093,-21.002 -9.9768,-11.961 -9.0402,-11.024 -8.9848,-7.993 -6.0082,-11.024 -11.9615,-15.986 -15.0481,-18.961 -7.0002,-8.048 -4.9612,-5.953 -6.0082,0.992 -14.0008,-6.008 -15.9853,-6.009 -16.0404,-8.985 -18.9617,-9.039 -28.9941,-11.962 -16.0401,-12.016 -14.001,-9.977 -4.9609,-6.008 -21.0013,-12.017 -12.0165,-9.977 -22.9856,-19.017 -19.0169,-16.977 -9.9772,-8.048 z m 337.2886,597.187 -0.9923,1.709 0.7166,-0.882 z m -0.9923,1.709 -3.3074,4.134 -4.9609,9.977 7.0006,-11.962 z" />
</svg>
