<?xml version="1.0" encoding="UTF-8"?>

<svg version="1.2" baseProfile="tiny" width="49.464mm" height="75.039mm" viewBox="1831 10857 49464 75039" preserveAspectRatio="xMidYMid" fill-rule="evenodd" stroke-width="28.222" stroke-linejoin="round" xmlns="http://www.w3.org/2000/svg" xmlns:ooo="http://xml.openoffice.org/svg/export" xmlns:xlink="http://www.w3.org/1999/xlink" xml:space="preserve">
 <defs class="ClipPathGroup">
  <clipPath id="presentation_clip_path" clipPathUnits="userSpaceOnUse">
   <rect x="1831" y="10857" width="49464" height="75039"/>
  </clipPath>
 </defs>
       <path fill="rgb(206,229,219)" stroke="none" d="M 29824,60747 L 29815,60986 29806,61087 29796,61261 29787,61408 29778,61637 29769,62242 29769,62389 29760,62885 29741,63132 29677,63490 29695,63765 29705,63838 29723,64251 29723,64609 29906,64563 29925,64563 30118,64517 30384,64462 30503,64435 30622,64416 30695,64866 30778,65315 30833,65600 30897,65994 31026,66563 31007,66709 30916,66819 30760,66902 30705,66939 30539,67049 30411,67168 30347,67223 30319,67241 30301,67250 30145,67223 30099,67425 30081,67498 29980,67920 29613,67837 29264,67746 29292,68021 29246,68003 28952,67920 28622,67810 28191,67672 28136,67544 28007,67214 27604,67113 27338,67049 27154,66874 27145,66856 27182,66838 27264,66801 27338,66773 27457,66718 27466,66709 27466,66645 27494,66526 27494,66507 27549,66315 27640,65939 27650,65902 27659,65866 27677,65792 27714,65627 27741,65526 27751,65480 27760,65434 27806,65251 27815,65196 27815,65086 27870,64948 27925,64425 27971,64223 28053,63994 28072,63728 28035,63279 28182,63279 28173,63206 28173,63095 28191,62848 28200,62756 28228,62664 28292,62371 28182,62307 28246,61986 28347,61582 28356,61481 28512,61490 28484,61316 28420,60867 28420,60637 28429,60518 28494,60527 29631,60711 29824,60747 Z M 29824,60747 L 29824,60747 Z"/>
       <path fill="rgb(251,226,212)" stroke="none" d="M 15736,81228 L 15828,81283 15901,81329 15984,81365 16048,81402 16076,81402 16103,81429 16131,81475 16195,81576 16250,81659 16278,81714 16323,81759 16360,81815 16406,81879 16498,81989 16562,82062 16599,82108 16635,82136 16672,82163 16727,82200 16791,82227 16865,82255 17011,82319 17039,82328 17085,82337 17167,82347 17250,82356 17314,82356 17424,82365 17461,82374 17525,82383 17580,82393 17635,82411 17663,82429 17718,82475 17727,82475 17763,82429 17754,82429 17736,82411 17745,82411 17718,82383 17690,82365 17672,82347 17663,82337 17663,82310 17654,82282 17654,82264 17663,82246 17672,82218 17690,82181 17718,82145 17727,82126 17745,82117 17773,82099 17837,82081 17864,82071 17965,82071 17993,82081 18039,82099 18057,82108 18066,82117 18075,82145 18085,82163 18094,82209 18094,82237 18085,82264 18075,82292 18066,82310 18057,82347 18039,82383 18020,82411 18002,82429 17993,82447 17974,82466 17965,82475 17956,82484 17947,82484 17938,82493 17910,82484 17883,82484 17846,82475 17828,82466 17818,82466 17800,82457 17782,82484 17763,82503 17782,82521 17828,82558 17837,82567 17855,82594 17855,82603 17864,82640 17874,82658 17883,82814 17901,83016 17920,83117 17938,83209 17947,83300 17956,83392 17965,83475 17984,83603 18011,83759 18029,83869 18039,83924 18057,83979 18075,84034 18103,84117 18149,84227 18176,84282 18204,84337 18240,84392 18268,84447 18305,84511 18360,84594 18424,84676 18488,84749 18561,84850 18607,84915 18644,84960 18672,84988 18708,85025 18754,85061 18818,85098 18919,85162 19002,85217 19094,85272 19194,85346 19249,85382 19286,85401 19323,85410 19332,85428 19405,85502 19442,85538 19451,85575 19460,85612 19451,85630 19451,85648 19442,85667 19442,85685 19451,85685 19433,85694 19424,85712 19405,85740 19396,85768 19396,85777 19378,85813 19369,85841 19360,85850 19341,85850 19341,85878 19323,85878 19314,85887 19305,85896 19268,85896 19259,85887 19240,85878 19231,85868 19222,85850 19222,85832 19213,85813 19204,85786 19194,85768 19185,85758 19176,85740 19167,85731 19149,85722 19139,85712 19130,85703 19121,85694 19094,85676 19048,85630 19020,85602 18974,85557 18956,85529 18910,85502 18883,85483 18809,85447 18736,85401 18681,85364 18626,85336 18580,85309 18479,85235 18415,85199 18360,85171 18323,85144 18268,85116 18222,85098 18176,85080 18149,85061 18130,85052 18066,85144 18039,85153 18029,85153 18029,85116 18103,84997 18176,84887 18185,84869 18204,84777 18204,84759 18195,84703 18185,84658 18167,84621 18158,84603 18140,84575 18130,84575 18103,84566 18094,84566 18075,84557 18057,84557 18039,84548 18011,84539 18002,84529 17974,84520 17956,84493 17901,84456 17846,84419 17818,84401 17791,84383 17763,84364 17699,84355 17663,84328 17626,84300 17562,84245 17525,84208 17488,84162 17461,84135 17424,84107 17387,84080 17351,84062 17314,84052 17277,84025 17241,84016 17204,83997 17140,83997 17094,83988 17039,83979 16993,83961 16956,83942 16892,83896 16855,83869 16810,83832 16782,83823 16755,83805 16718,83786 16699,83768 16663,83750 16635,83722 16599,83695 16562,83667 16534,83649 16516,83686 16507,83704 16479,83741 16461,83768 16424,83823 16452,83777 16470,83750 16498,83695 16507,83686 16525,83649 16516,83631 16470,83612 16342,83576 16287,83557 16241,83548 16158,83511 16085,83484 15993,83438 15966,83429 15947,83410 15901,83346 15837,83282 15773,83209 15755,83200 15736,83172 15681,83126 15590,83080 15525,83034 15452,82961 15351,82924 15305,82943 15296,82933 15278,82897 15269,82879 15259,82869 15250,82860 15250,82851 15241,82851 15232,82833 15214,82814 15204,82805 15195,82805 15186,82796 15186,82787 15168,82787 15168,82778 15159,82778 15159,82769 15149,82769 15149,82759 15140,82759 15131,82741 15113,82723 15113,82677 15094,82677 15104,82667 15113,82667 15122,82677 15140,82677 15149,82686 15159,82695 15168,82695 15168,82704 15177,82713 15195,82723 15204,82732 15214,82732 15223,82741 15241,82750 15250,82759 15259,82769 15269,82769 15287,82778 15296,82778 15305,82787 15314,82787 15333,82796 15342,82796 15351,82805 15351,82787 15342,82787 15342,82778 15333,82769 15324,82769 15314,82759 15305,82759 15278,82741 15269,82741 15259,82732 15241,82723 15223,82713 15214,82695 15195,82686 15186,82686 15186,82677 15177,82667 15168,82667 15159,82649 15140,82631 15140,82613 15131,82613 15131,82594 15122,82594 15113,82585 15113,82576 15104,82567 15094,82558 15085,82558 15076,82548 15058,82530 15048,82530 15048,82521 15039,82521 15030,82512 15030,82521 14948,82493 14957,82475 14938,82402 14911,82218 14883,82062 14856,81879 14874,81860 14874,81778 14865,81769 14856,81759 14856,81750 14847,81732 14837,81723 14837,81714 14828,81695 14819,81686 14819,81668 14810,81659 14801,81649 14801,81567 14782,81530 14773,81521 14773,81512 14764,81503 14764,81457 14755,81457 14755,81448 14746,81439 14746,81429 14737,81429 14737,81420 14727,81420 14727,81411 14718,81411 14709,81402 14709,81393 14700,81384 14691,81384 14691,81374 14682,81374 14672,81365 14691,81319 14718,81218 14709,81209 14709,81191 14700,81191 14700,81182 14709,81182 14709,81173 14718,81164 14718,81108 14727,81099 14727,81090 14737,81090 14746,81081 14755,81072 14755,81063 14764,81063 14773,81053 14773,81035 14782,81017 14792,80998 14801,80971 14801,80952 14810,80943 14810,80861 14819,80842 14828,80815 14837,80806 14847,80797 14856,80787 14874,80797 14920,80742 14975,80677 15021,80641 15030,80641 15076,80687 15168,80778 15278,80879 15333,80934 15434,81008 15452,81035 15516,81090 15599,81154 15736,81228 Z M 18231,76284 L 18268,76431 18268,76440 18286,76532 18396,77009 18415,77082 18461,77321 18488,77431 18506,77486 18516,77559 18525,77614 18534,77715 18543,77761 18561,77807 18561,77953 18552,77990 18552,78054 18561,78073 18580,78109 18589,78128 18607,78201 18617,78247 18617,78265 18626,78275 18635,78284 18635,78293 18626,78302 18635,78311 18635,78330 18644,78348 18653,78339 18672,78357 18653,78375 18672,78412 18681,78430 18736,78412 18727,78403 18736,78394 18745,78412 18681,78440 18708,78467 18717,78476 18727,78476 18736,78504 18727,78513 18727,78540 18736,78540 18745,78550 18754,78550 18763,78559 18773,78568 18773,78605 18791,78596 18800,78596 18800,78605 18791,78605 18782,78614 18773,78614 18782,78623 18791,78623 18791,78632 18809,78623 18818,78632 18791,78641 18809,78660 18818,78669 18827,78678 18827,78696 18837,78706 18846,78724 18837,78724 18846,78733 18846,78760 18892,78742 18901,78751 18864,78760 18864,78816 18883,78825 18883,78816 18892,78816 18892,78825 18901,78834 18892,78834 18901,78843 18919,78834 18938,78834 18901,78852 18901,78861 18910,78861 18901,78861 18901,78871 18919,78907 18928,78907 18928,78916 18938,78907 18947,78935 18974,78916 18974,78926 18947,78935 18947,78944 18965,78962 18965,78972 18983,78981 19002,78981 19002,78999 19029,78981 19029,78990 19002,78999 19002,79008 19011,79008 19011,79017 19020,79027 19029,79045 19066,79017 19075,79027 19029,79045 19038,79063 19038,79072 19048,79082 19084,79063 19084,79072 19057,79091 19066,79100 19075,79118 19112,79091 19121,79100 19084,79118 19094,79137 19103,79146 19103,79155 19112,79173 19121,79164 19149,79137 19158,79137 19130,79164 19121,79182 19121,79173 19130,79182 19130,79201 19139,79210 19149,79210 19149,79219 19158,79219 19176,79238 19185,79247 19204,79228 19204,79238 19185,79256 19194,79265 19194,79274 19204,79274 19204,79283 19231,79265 19213,79283 19213,79292 19231,79311 19249,79302 19231,79320 19231,79329 19240,79338 19240,79348 19249,79357 19259,79366 19295,79338 19268,79375 19277,79384 19277,79393 19286,79403 19305,79421 19305,79430 19314,79439 19323,79448 19341,79421 19360,79412 19323,79448 19323,79458 19332,79458 19350,79476 19378,79458 19350,79485 19360,79485 19369,79503 19369,79513 19405,79485 19415,79485 19378,79522 19387,79531 19396,79549 19415,79558 19433,79586 19451,79595 19470,79604 19515,79650 19515,79659 19534,79668 19543,79687 19552,79687 19589,79733 19580,79742 19571,79751 19571,79760 19580,79770 19580,79779 19589,79788 19598,79797 19607,79815 19626,79834 19626,79852 19635,79852 19635,79861 19671,79834 19671,79843 19644,79861 19653,79870 19662,79889 19671,79898 19699,79879 19708,79889 19671,79907 19681,79916 19717,79953 19745,79989 19772,80035 19791,80072 19818,80136 19846,80182 19864,80246 19882,80283 19891,80311 19937,80402 19946,80430 19956,80448 19956,80476 19965,80485 19965,80494 19983,80485 19992,80531 19974,80540 19983,80549 19983,80567 19992,80577 20002,80577 20002,80558 20011,80558 20011,80577 19992,80586 19992,80641 20002,80641 20029,80632 20029,80641 20002,80650 20002,80668 20011,80687 20011,80696 20057,80687 20057,80696 20020,80696 20020,80723 20057,80723 20057,80732 20029,80732 20029,80760 20057,80760 20029,80769 20038,80797 20066,80787 20066,80797 20038,80797 20038,80824 20066,80824 20066,80833 20047,80833 20047,80852 20075,80842 20075,80852 20047,80852 20057,80879 20057,80888 20084,80897 20057,80897 20066,80934 20066,81008 20075,81008 20093,81017 20066,81017 20057,81053 20057,81090 20047,81127 20047,81173 20084,81182 20084,81191 20047,81182 20038,81191 20038,81209 20066,81228 20038,81218 20029,81228 20029,81255 20075,81264 20066,81274 20029,81264 20020,81274 20020,81310 20011,81319 20038,81329 20038,81338 20011,81329 20011,81338 20002,81347 20029,81356 20029,81365 20002,81356 19983,81384 19974,81393 19965,81411 20002,81429 19992,81439 19965,81420 19946,81439 19937,81448 19937,81466 19965,81475 19956,81484 19928,81475 19928,81494 19910,81494 19910,81512 19864,81549 19837,81567 19763,81604 19736,81604 19699,81613 19671,81622 19626,81622 19580,81640 19552,81649 19534,81649 19488,81668 19470,81686 19396,81714 19369,81732 19323,81750 19305,81750 19286,81759 19249,81759 19259,81796 19249,81796 19249,81759 19167,81759 19149,81750 19130,81750 19112,81741 19103,81741 19094,81732 19084,81732 19075,81741 19075,81796 19057,81787 19066,81741 19011,81732 18883,81732 18846,81741 18818,81759 18818,81750 18827,81732 18827,81723 18635,81723 18635,81695 18617,81695 18617,81714 18552,81714 18561,81741 18552,81741 18552,81714 18488,81714 18451,81705 18424,81705 18433,81741 18433,81787 18433,81778 18424,81750 18424,81705 18396,81705 18396,81714 18387,81723 18360,81723 18369,81769 18378,81805 18369,81805 18360,81732 18350,81732 18305,81741 18323,81778 18323,81815 18314,81815 18314,81778 18305,81741 18286,81741 18250,81750 18268,81815 18259,81824 18250,81787 18240,81750 18185,81750 18195,81815 18195,81842 18185,81805 18176,81750 18130,81769 18121,81769 18130,81815 18112,81769 18085,81778 18066,81787 18066,81815 18075,81842 18066,81815 18057,81787 18020,81796 18020,81833 18011,81833 18020,81796 18002,81787 17965,81787 17965,81833 17956,81833 17965,81778 17920,81778 17920,81824 17910,81824 17910,81778 17874,81769 17864,81769 17864,81787 17855,81815 17855,81787 17864,81769 17818,81759 17809,81796 17809,81759 17763,81750 17754,81741 17736,81741 17690,81714 17663,81714 17626,81705 17598,81695 17553,81695 17543,81686 17534,81677 17516,81677 17498,81668 17443,81668 17360,81686 17323,81695 17332,81705 17250,81705 17241,81741 17241,81750 17232,81750 17232,81723 17204,81714 17204,81705 17195,81695 17140,81695 17149,81723 17140,81723 17131,81695 17112,81705 17103,81705 17103,81695 17085,81695 17085,81714 17076,81723 17057,81723 17020,81732 17020,81741 17011,81741 17002,81750 16975,81750 16975,81759 16965,81750 16956,81750 16910,81759 16892,81769 16883,81778 16865,81778 16846,81787 16819,81787 16791,81796 16736,81796 16736,81824 16736,81796 16699,81796 16672,81787 16663,81787 16654,81796 16663,81778 16644,81769 16635,81769 16599,81750 16580,81750 16562,81741 16534,81714 16498,81668 16461,81622 16443,81595 16424,81558 16406,81530 16388,81503 16369,81457 16333,81411 16296,81329 16268,81301 16232,81301 16222,81310 16222,81319 16213,81319 16204,81329 16195,81338 16186,81356 16177,81365 16140,81365 16122,81338 16112,81329 16112,81246 16103,81237 16103,81228 16094,81228 16085,81218 16076,81209 16057,81200 16048,81200 15929,81145 15874,81118 15865,81118 15810,81090 15810,81081 15782,81072 15764,81063 15764,81053 15755,81063 15746,81063 15746,81053 15681,81017 15690,81017 15590,80962 15525,80934 15525,80925 15535,80925 15397,80806 15397,80797 15406,80787 15370,80760 15360,80751 15351,80732 15360,80732 15360,80714 15370,80696 15342,80696 15342,80687 15333,80687 15314,80668 15296,80668 15287,80659 15287,80641 15287,80650 15278,80641 15296,80632 15177,80457 15177,80448 15186,80439 15177,80411 15159,80430 15149,80421 15177,80411 15177,80393 15168,80402 15159,80375 15131,80393 15159,80366 15186,80338 15131,80301 15113,80320 15113,80329 15094,80338 15076,80338 15067,80347 14929,80347 14929,80356 14920,80366 14911,80375 14911,80384 14893,80402 14893,80393 14883,80393 14874,80384 14847,80366 14837,80356 14828,80347 14819,80338 14810,80329 14810,80301 14819,80283 14819,80255 14828,80246 14837,80228 14837,80219 14847,80219 14856,80182 14874,80155 14920,80155 14948,80164 14948,80173 14975,80182 14993,80191 15012,80200 15021,80210 15030,80210 15039,80200 15048,80200 15058,80182 15067,80182 15076,80173 15076,80164 15085,80155 15085,80081 15076,80054 15076,80035 15085,80026 15085,80017 15076,80008 15067,79953 15067,79916 15058,79889 15058,79843 15048,79834 15048,79742 15058,79742 15067,79724 15076,79705 15085,79687 15085,79659 15094,79659 15094,79650 15113,79632 15122,79632 15122,79623 15131,79577 15094,79568 15122,79467 15159,79467 15168,79458 15177,79458 15177,79448 15186,79439 15204,79403 15214,79393 15214,79375 15177,79357 15149,79393 15140,79403 15122,79412 15104,79421 15067,79439 15058,79439 15039,79448 14993,79448 14975,79458 14948,79458 14948,79430 14938,79412 14929,79375 14929,79366 14920,79348 14911,79329 14883,79302 14883,79292 14893,79247 14893,79210 14929,79210 14984,79228 15039,79238 15104,79238 15104,79247 15149,79265 15168,79274 15177,79292 15186,79311 15186,79329 15177,79348 15214,79366 15223,79348 15223,79311 15214,79274 15204,79256 15177,79228 15149,79219 15131,79210 15122,79201 15122,79192 15131,79182 15113,79182 15122,79164 15122,79155 15131,79146 15131,79127 15149,79091 15149,79072 15159,79063 15168,79045 15177,79027 15186,79017 15186,78990 15177,78990 15177,78972 15186,78972 15186,78962 15159,78953 15140,78944 15131,78935 15113,78944 15094,78944 15085,78935 15076,78935 15076,78926 15067,78935 15067,78944 15058,78944 15058,78972 15048,78981 15048,78990 15039,78999 15039,79017 15030,79027 15021,79036 15021,79045 15003,79063 15003,79072 14993,79082 14984,79100 14966,79109 14966,79118 14948,79118 14929,79127 14911,79127 14902,79118 14893,79127 14837,79127 14837,79137 14828,79137 14828,79146 14810,79146 14810,79164 14801,79173 14792,79173 14792,79192 14782,79201 14782,79210 14773,79219 14773,79228 14764,79228 14764,79256 14773,79256 14782,79283 14782,79292 14819,79375 14837,79403 14837,79430 14828,79439 14801,79494 14755,79577 14746,79595 14755,79604 14746,79632 14727,79623 14727,79650 14709,79678 14691,79733 14672,79760 14663,79797 14663,79815 14654,79824 14645,79834 14636,79852 14599,79834 14562,79824 14544,79824 14516,79806 14526,79770 14535,79714 14544,79668 14516,79668 14489,79779 14461,79779 14452,79788 14461,79788 14452,79788 14452,79797 14443,79797 14443,79806 14434,79815 14425,79815 14425,79834 14397,79834 14397,79843 14379,79834 14370,79824 14360,79834 14351,79824 14342,79824 14333,79815 14324,79815 14315,79806 14315,79797 14305,79788 14305,79760 14296,79751 14296,79742 14287,79733 14287,79742 14269,79742 14269,79751 14278,79760 14278,79770 14269,79779 14269,79815 14241,79815 14241,79824 14232,79834 14232,79861 14223,79870 14223,79889 14214,79907 14205,79925 14205,79962 14214,79971 14223,79980 14232,79989 14269,79989 14278,79999 14324,79999 14333,80008 14342,80017 14342,80026 14351,80035 14360,80045 14370,80054 14388,80063 14406,80063 14406,80072 14425,80072 14425,80081 14443,80081 14461,80100 14461,80109 14471,80109 14471,80118 14480,80145 14471,80145 14471,80164 14507,80164 14498,80228 14443,80219 14434,80246 14498,80255 14461,80476 14443,80476 14434,80503 14425,80540 14443,80540 14425,80668 14388,80659 14360,80971 14296,80971 14296,81008 14360,81008 14342,81209 14324,81292 14296,81439 14305,81439 14296,81466 14250,81466 14223,81558 14067,81567 14049,81622 14030,81622 14039,81567 13819,81567 13810,81576 13746,81585 13590,81558 13480,81530 13388,81521 13297,81512 13195,81512 13104,81503 12994,81494 12865,81503 12783,81512 12709,81512 12645,81521 12590,81540 12581,81576 12581,81595 12517,81595 12462,81613 12379,81668 12324,81741 12260,81805 12223,81851 12205,81879 12150,81952 12132,82007 12104,82044 12067,82154 12031,82237 12003,82292 11966,82328 11948,82356 11911,82402 11893,82447 11820,82512 11765,82530 11645,82530 11563,82521 11508,82521 11453,82512 11370,82512 11306,82493 11269,82484 11242,82475 11214,82457 11187,82438 11132,82420 11077,82411 11013,82411 10957,82402 10921,82393 10875,82356 10847,82310 10774,82237 10728,82191 10701,82163 10609,82126 10554,82099 10471,82081 10352,82053 10141,82016 10004,81989 9893,81980 9747,81971 9627,81961 9481,81952 9260,81952 9169,81943 9059,81961 8985,81980 8949,82016 8912,82062 8829,82145 8774,82136 8701,82136 8618,82126 8563,82126 8499,82154 8417,82218 8362,82264 8270,82319 8196,82337 8123,82337 8022,82347 7949,82347 7885,82365 7830,82383 7793,82383 7747,82374 7692,82347 7729,82053 7784,80806 7784,80723 7793,80659 7793,80622 7802,80549 7802,80457 7857,79623 7986,79595 8077,79577 8224,79540 8233,79531 8252,79522 8252,79476 8242,79448 8233,79421 8233,79393 8242,79384 8261,79384 8279,79403 8288,79421 8297,79458 8307,79476 8334,79476 8352,79467 8371,79467 8389,79448 8408,79448 8426,79439 8499,79439 8508,79421 8563,79375 8591,79366 8627,79366 8646,79357 8655,79357 8683,79329 8701,79329 8710,79338 8719,79329 8747,79311 8774,79283 8820,79265 8894,79265 8939,79256 8976,79238 8994,79238 9013,79247 9049,79247 9059,79228 9068,79219 9068,79210 9086,79192 9105,79192 9123,79201 9141,79219 9160,79228 9178,79247 9196,79256 9205,79256 9242,79238 9279,79228 9334,79228 9426,79210 9416,79182 9435,79182 9444,79210 9481,79210 9517,79201 9609,79182 9682,79173 9737,79155 9783,79146 9811,79137 9884,79118 10049,79118 10068,79109 10123,79091 10169,79082 10214,79072 10260,79072 10297,79063 10325,79063 10352,79054 10380,79045 10407,79036 10444,79017 10490,79008 10517,79008 10572,78990 10591,78981 10600,78981 10618,78972 10636,78962 10655,78953 10673,78944 10682,78935 10691,78926 10691,78916 10728,78907 10719,78871 10737,78871 10719,78779 10710,78779 10710,78770 10719,78770 10728,78779 10746,78861 10783,78852 10783,78889 10893,78871 10875,78788 10866,78797 10857,78760 10884,78751 10884,78779 10875,78779 10893,78861 10902,78861 10912,78852 10921,78843 10930,78852 10994,78852 11003,78871 11086,78852 11187,78834 11297,78816 11288,78770 11269,78770 11187,78696 11168,78696 11159,78706 11150,78706 11122,78715 11104,78715 11095,78724 11067,78724 11031,78742 10976,78751 10967,78742 11031,78733 11022,78724 11049,78715 11058,78724 11104,78706 11113,78706 11168,78687 11159,78678 11196,78669 11196,78678 11224,78669 11251,78660 11251,78669 11269,78669 11251,78678 11205,78687 11196,78687 11196,78696 11251,78751 11288,78742 11306,78797 11333,78797 11343,78788 11379,78770 11379,78760 11416,78751 11416,78742 11453,78724 11526,78696 11544,78779 11627,78760 11636,78760 11645,78788 11673,78779 11627,78623 11609,78632 11599,78623 11636,78614 11682,78779 11710,78770 11728,78760 11737,78751 11737,78742 11746,78733 11765,78733 11765,78742 11774,78733 11774,78742 11783,78742 11792,78779 11801,78788 11829,78788 11893,78779 11985,78751 11994,78751 11994,78742 12003,78742 12003,78724 12012,78724 12012,78733 12067,78733 12076,78724 12086,78724 12095,78715 12095,78706 12086,78706 12095,78706 12095,78696 12104,78706 12113,78696 12113,78687 12122,78678 12132,78660 12141,78650 12122,78596 12141,78641 12150,78632 12159,78632 12132,78568 12141,78568 12150,78605 12177,78596 12159,78550 12177,78586 12177,78596 12205,78586 12269,78568 12260,78559 12278,78550 12361,78513 12407,78494 12388,78440 12407,78430 12416,78458 12471,78430 12489,78430 12480,78385 12471,78357 12498,78348 12489,78311 12489,78320 12480,78302 12498,78302 12498,78311 12508,78348 12544,78339 12544,78357 12572,78421 12609,78421 12618,78412 12627,78403 12636,78403 12645,78394 12618,78339 12691,78302 12682,78275 12691,78265 12709,78320 12847,78265 12856,78284 12893,78275 12911,78311 12939,78302 12939,78311 12948,78302 12957,78302 12966,78293 12985,78293 12994,78284 13003,78284 13012,78275 12994,78238 12985,78219 12975,78192 12985,78192 13003,78229 12994,78229 13012,78256 13021,78256 13021,78247 13040,78247 13049,78238 13067,78238 13076,78229 13058,78192 13095,78174 13095,78201 13150,78183 13141,78155 13186,78137 13177,78100 13186,78091 13205,78128 13260,78018 13260,77953 13251,77917 13260,77908 13251,77898 13251,77853 13241,77843 13251,77843 13241,77843 13241,77834 13260,77825 13251,77816 13241,77797 13397,77761 13498,77687 13517,77651 13526,77623 13544,77577 13590,77477 13581,77467 13590,77458 13590,77440 13599,77431 13608,77422 13617,77412 13627,77403 13636,77403 13645,77394 13654,77394 13663,77385 13672,77376 13682,77376 13691,77367 13700,77357 13718,77339 13718,77321 13728,77312 13737,77302 13746,77293 13755,77293 13755,77266 13764,77256 13764,77247 13773,77247 13773,77229 13783,77229 13783,77201 13792,77201 13792,77192 13801,77192 13801,77183 13819,77156 13819,77146 13828,77137 13828,77119 13838,77119 13838,77091 13847,77082 13856,77073 13865,77064 13865,77055 13874,77055 13874,77036 13883,77018 13893,76963 13920,76835 13929,76825 13929,76780 13975,76688 14039,76578 14058,76550 14094,76514 14205,76422 14461,76211 14516,76156 14553,76128 14590,76092 14590,76082 14599,76092 14617,76092 14672,76101 14691,76092 14700,76092 14709,76110 14718,76119 14700,76128 14709,76138 14718,76147 14737,76147 14755,76156 14883,76156 14929,76174 14966,76183 15003,76183 15076,76174 15113,76174 15159,76183 15186,76202 15204,76202 15259,76193 15305,76183 15360,76174 15415,76147 15516,76147 15590,76156 15645,76156 15727,76165 15764,76165 15819,76174 15856,76183 15883,76183 15920,76193 15956,76183 16039,76165 16057,76156 16085,76156 16103,76165 16140,76174 16177,76193 16259,76193 16278,76183 16314,76156 16360,76119 16360,76110 16378,76101 16406,76193 16470,76165 16644,76110 16755,76082 16929,76064 17011,76064 17131,76009 17314,75917 17332,75908 17525,75917 17635,75927 17938,76000 17984,76037 18231,76284 Z M 19671,61234 L 19855,61454 20359,61766 20313,61830 20185,61913 19699,62280 19185,62637 18818,62903 18617,63068 18378,63261 18140,63472 18048,63408 17773,63701 17287,64242 17140,64462 16626,65260 16342,65930 16167,66526 16057,67104 15993,67691 16002,68424 16067,69002 16195,69607 16406,70250 16498,70442 16745,70974 16965,71350 17892,72607 18002,72790 18295,73239 18369,73423 18350,73432 18442,73625 18497,73762 18543,73891 18589,74028 18635,74157 18690,74368 18727,74358 18827,74863 18928,76266 18993,76926 19094,77440 19121,77605 19130,77651 19139,77733 19176,78073 19194,78164 19350,78458 19745,79127 19837,79274 19937,79458 20020,79604 20093,79751 20121,79815 20139,79861 20157,79934 20185,80090 20203,80255 20213,80311 20240,80466 20286,80659 20323,80815 20350,80925 20378,81063 20378,81384 20368,81622 20368,81732 20359,81796 20286,81961 20231,82062 20194,82099 20002,82420 19901,82585 19809,82741 19736,82888 19717,82924 19699,83053 19653,83456 19635,83539 19598,83796 19589,83906 19571,84016 19552,84208 19552,84318 19561,85043 19598,85272 19616,85428 19589,85401 19561,85382 19506,85364 19442,85364 19433,85346 19405,85382 19387,85355 19158,85125 19158,85107 19167,85098 19158,85080 19130,85052 19112,85025 19084,85006 18983,84905 18901,84832 18873,84795 18855,84759 18855,84731 18846,84685 18837,84640 18827,84575 18818,84529 18809,84465 18800,84419 18782,84373 18782,84355 18773,84337 18773,84318 18763,84291 18754,84236 18754,84217 18736,84172 18717,84126 18708,84098 18699,84080 18672,84062 18662,84043 18635,83988 18607,83961 18589,83942 18580,83906 18571,83887 18543,83805 18525,83759 18506,83722 18461,83621 18442,83594 18433,83566 18433,83530 18415,83502 18387,83447 18378,83410 18369,83383 18360,83374 18360,83319 18350,83291 18350,83154 18369,83108 18378,83071 18378,83016 18387,82988 18378,82961 18378,82943 18350,82860 18332,82796 18323,82750 18305,82704 18314,82667 18332,82603 18387,82503 18424,82438 18442,82429 18461,82411 18479,82402 18497,82393 18534,82365 18561,82356 18607,82337 18662,82310 18736,82292 18773,82282 18827,82273 18947,82273 18993,82255 19029,82255 19139,82227 19176,82209 19268,82172 19295,82154 19341,82136 19396,82126 19479,82108 19515,82099 19543,82090 19580,82090 19598,82081 19607,82071 19626,82062 19644,82044 19699,82016 19708,81998 19736,81989 19745,81989 19781,81971 19818,81952 19855,81934 19928,81906 20011,81870 20084,81824 20203,81732 20222,81695 20249,81659 20268,81631 20268,81402 20258,81356 20258,81310 20268,81237 20268,81173 20258,81026 20258,80989 20249,80916 20213,80714 20203,80668 20194,80632 20185,80595 20185,80586 20176,80577 20157,80494 20148,80457 20148,80430 20139,80402 20130,80366 20121,80320 20121,80274 20112,80200 20102,80145 20093,80054 20084,80026 20075,79999 20057,79953 20047,79916 20029,79879 20020,79861 20002,79834 19965,79797 19937,79751 19910,79705 19882,79678 19827,79604 19809,79577 19754,79494 19727,79458 19699,79421 19662,79384 19644,79348 19626,79292 19607,79219 19580,79173 19561,79137 19543,79100 19515,79054 19470,78981 19442,78935 19405,78871 19369,78806 19350,78751 19314,78696 19259,78632 19213,78559 19185,78540 19149,78485 19130,78458 19121,78449 19103,78440 19103,78430 19094,78421 19084,78394 19084,78375 19057,78339 19020,78275 18974,78210 18974,78183 18956,78155 18938,78119 18910,78064 18864,78018 18846,78009 18837,77990 18818,77981 18791,77963 18773,77953 18763,77953 18754,77944 18754,77834 18745,77816 18736,77807 18736,77788 18727,77779 18727,77770 18717,77733 18699,77632 18690,77587 18690,77577 18681,77504 18662,77449 18635,77339 18626,77266 18626,77211 18617,77137 18607,77045 18598,76963 18571,76862 18543,76715 18488,76422 18516,76422 18516,76321 18506,76312 18506,76229 18488,76229 18479,76211 18470,76193 18470,76138 18479,76082 18479,76055 18488,76046 18433,75899 18433,75853 18424,75853 18415,75844 18406,75789 18396,75780 18387,75752 18378,75725 18369,75688 18369,75679 18360,75651 18350,75615 18341,75569 18332,75541 18323,75514 18305,75468 18286,75431 18277,75413 18268,75395 18259,75376 18250,75340 18204,75239 18176,75211 18158,75175 18130,75156 18121,75138 18112,75129 18103,75129 18085,75119 18066,75101 18048,75101 18020,75092 18011,75092 18011,75083 17984,75083 17910,75065 17883,75046 17864,75046 17828,75028 17818,75019 17800,75009 17791,75000 17782,74991 17745,74973 17745,74954 17699,74945 17562,74835 17516,74817 17525,74808 17479,74771 17470,74780 17406,74716 17415,74716 17360,74679 17296,74652 17232,74624 17213,74615 17158,74597 16947,74487 16920,74477 16883,74468 16865,74459 16819,74432 16718,74368 16672,74340 16580,74276 16479,74175 16424,74138 16378,74102 16314,74028 16213,73946 16195,73927 16167,73909 16149,73900 16122,73881 16030,73826 15856,73716 15736,73643 15571,73542 15489,73487 15406,73423 15314,73359 14984,73093 14663,72836 14581,72753 14516,72707 14471,72652 14443,72597 14416,72542 14397,72496 14388,72423 14370,72249 14333,72001 14324,71891 14333,71763 14333,71286 14324,71029 14324,70892 14315,70809 14296,70717 14250,70488 14186,70158 14186,70139 14159,70139 14049,70176 13911,70213 13773,70268 13746,70185 13874,70130 13984,70103 14140,70048 14149,70039 14149,70020 14122,69947 14067,69855 13911,69626 13773,69433 13636,69241 13526,69094 13388,68938 13195,68718 13067,68599 12994,68525 12902,68452 12590,68204 12361,68021 12251,67929 12214,67883 12177,67828 12141,67755 12113,67672 12104,67617 12095,67562 12095,67526 12122,67471 12196,67324 12269,67205 12297,67159 12333,67122 12416,67049 12508,66975 12618,66865 12737,66755 12838,66654 12975,66517 13058,66397 13168,66205 13260,66049 13287,65976 13306,65893 13351,65728 13397,65554 13425,65480 13461,65407 13489,65380 13553,65324 13608,65288 13672,65251 13746,65224 13828,65214 13975,65224 14122,65224 14296,65233 14627,65251 14828,65260 15058,65279 15269,65288 15360,65279 15406,65269 15452,65242 15507,65196 15580,65113 15645,65031 15700,64948 15736,64875 15791,64710 15828,64591 15892,64435 15920,64371 15947,64316 15993,64261 16039,64215 16085,64178 16167,64114 16314,64013 16443,63912 16498,63885 16626,63811 16810,63701 16956,63591 17048,63509 17259,63298 17268,63288 17415,63142 17553,63004 17727,62821 17938,62610 18140,62408 18295,62270 18360,62225 18506,62114 18745,61931 18974,61766 19213,61592 19424,61427 19571,61317 19671,61234 Z M 19671,61234 L 19671,61234 Z"/>
       <path fill="rgb(250,235,241)" stroke="none" d="M 15268,55869 L 15259,55869 15259,55860 15250,55860 15250,55869 15222,55879 15195,55888 15158,55888 15149,55879 15130,55879 15121,55888 15112,55897 15103,55897 15094,55906 15094,55915 15085,55924 15076,55933 15066,55933 15057,55943 15039,55943 15039,55952 15030,55952 15011,55961 15002,55970 15002,55979 14993,55989 14984,55989 14984,55998 14929,55998 14929,56007 14920,56016 14901,56016 14901,56025 14883,56025 14874,56035 14874,56044 14855,56044 14855,56053 14837,56053 14837,56062 14828,56071 14809,56071 14809,56080 14791,56080 14791,56089 14782,56089 14764,56099 14754,56108 14745,56117 14709,56117 14699,56108 14690,56108 14690,56117 14672,56117 14681,56126 14672,56135 14635,56135 14626,56144 14608,56144 14599,56154 14608,56163 14580,56163 14580,56154 14562,56163 14534,56163 14534,56172 14525,56172 14516,56163 14507,56163 14498,56172 14498,56163 14479,56163 14479,56154 14479,56163 14470,56163 14470,56154 14452,56154 14433,56144 14406,56144 14388,56126 14388,56108 14378,56108 14369,56099 14360,56099 14351,56089 14342,56089 14342,56071 14351,56062 14351,56016 14342,56025 14342,56016 14277,55888 14250,55071 14094,51678 14828,49193 15176,47991 15387,47294 15919,45084 15928,45075 16002,44790 16020,44717 16048,44570 16066,44442 16084,44332 16103,44258 16121,44194 16139,44102 16167,43974 16176,43901 16185,43818 16185,43781 16195,43561 16195,43497 16204,43341 16204,43213 16213,43075 16222,42901 16222,42818 16213,42699 16213,42424 16204,42333 16204,42213 16185,41590 16185,41461 16204,41021 16195,40526 16204,40388 16222,40141 16213,39930 16213,39535 16185,38930 16167,38719 16149,38187 16130,38040 16130,37921 16121,37793 16112,37554 16103,37426 16094,37270 16084,37160 15956,36518 15736,35729 15708,35647 15681,35536 15589,35261 15562,35188 15543,35124 15287,34427 15066,33886 14800,33078 14984,32776 15296,32244 15332,32198 15598,32657 16626,34326 16956,34848 17231,35206 17589,35555 17827,35711 18112,35866 18451,36041 19029,36298 19542,36490 19827,36665 20130,36811 20570,36967 21010,37004 21294,36986 21762,36940 22111,36866 22551,36738 22936,36600 23019,36564 23147,36509 23459,36380 23725,36298 23964,36252 24147,36233 24303,36243 24496,36252 24633,36288 24835,36334 25257,36481 25679,36619 25972,36720 26367,36885 26715,37077 26321,37297 25927,37481 25917,37490 25642,37646 25404,37857 25303,37985 25119,38269 25064,38407 25037,38490 25018,38526 24982,38655 24973,38820 24963,38976 24982,39168 25018,39434 25055,39608 25073,39774 25092,39884 25083,39994 25046,40104 24991,40232 24899,40370 24652,40718 24276,41223 23716,41938 23716,41929 23734,41993 24248,42406 24294,42470 24340,42580 24596,42837 25321,43644 25413,43708 25853,44148 26037,44313 26238,44552 26532,44910 26679,45020 27238,45368 27789,45689 27899,45735 28027,45781 28146,45854 28174,45863 28247,45918 28293,45946 28146,46120 27807,46579 27468,47175 27275,47615 27101,48138 27018,48468 26972,48697 26917,48945 26871,49211 26825,49532 26770,49807 26734,49972 26596,50137 26367,50302 25853,50532 25294,50788 24853,50990 24266,51220 23698,51458 23395,51651 23111,51907 22569,52604 22184,53072 21771,53522 21368,53916 21083,54163 20671,54420 20010,54751 19744,54916 19625,55053 19396,55356 19295,55649 19157,55567 18919,55420 18680,55264 18497,55117 18350,54980 18148,54714 18047,54530 17983,54384 17910,54439 17644,54576 17350,54851 17093,55081 17048,55117 17011,55136 16938,55163 16873,55182 16772,55200 16204,55191 16011,55200 15993,55209 15901,55246 15873,55319 15846,55649 15837,55732 15846,55759 15855,55769 15965,55824 16360,55989 16442,56025 16240,55998 16149,55989 16112,55989 16011,55979 15984,55970 15873,55961 15580,55924 15479,55897 15424,55897 15351,55869 15268,55869 Z M 15268,55869 L 15268,55869 Z"/>
       <path fill="rgb(255,247,210)" stroke="none" d="M 28585,59418 L 28640,59299 28695,59180 28879,58786 28557,58657 28530,58639 28576,58520 28594,58483 28658,58327 28741,58134 28768,58079 28823,57905 28833,57887 28851,57823 28906,57685 28934,57621 29016,57401 29062,57272 29145,57025 29145,56915 29163,56759 29126,56630 28787,55676 28778,55447 28768,55364 28787,55254 28833,55135 28906,55043 29053,54897 29264,54787 29704,54539 29796,54622 30475,55135 30915,55465 31245,55713 31392,55842 32869,56915 33135,57070 33713,57887 33777,57969 34025,58162 34107,58474 34199,58721 34226,58786 34502,59473 34511,59510 34731,60015 34832,60244 34933,60473 34979,60592 35061,60776 35098,60868 35153,60987 35556,61932 35566,61950 35612,62023 35685,62188 35841,62537 35547,62638 35180,62858 34924,63032 34593,63261 34566,63280 34245,63491 34190,63527 34006,63656 33914,63711 33704,63766 33447,63821 33190,63867 32951,63922 32887,63931 32621,63986 32383,64041 32263,64069 32117,64096 31851,64151 31575,64215 31493,64234 31319,64270 30915,64353 30621,64417 30502,64436 30383,64463 30117,64518 29924,64564 29906,64564 29722,64610 29722,64252 29704,63839 29695,63766 29677,63491 29741,63133 29759,62886 29768,62390 29768,62243 29777,61638 29787,61409 29796,61262 29805,61088 29814,60987 29823,60748 29631,60712 28493,60528 28429,60519 28530,60106 28622,59767 28677,59565 28713,59492 28768,59428 28585,59418 Z M 28585,59418 L 28585,59418 Z"/>
       <path fill="rgb(248,208,205)" stroke="none" d="M 37894,63105 L 38179,63123 38491,63169 38537,63132 39234,63160 39252,63224 39362,63196 39720,63105 39876,63077 39866,62985 39830,62912 39848,62912 40518,62820 40573,62811 40701,63141 41068,63059 41380,63013 41765,62949 41811,62940 42215,62857 42673,62756 42893,62719 43260,62664 43361,62637 43297,62307 43251,62087 43279,61747 43306,61545 43398,61316 43471,61096 43554,60922 43591,60812 43985,60665 44269,60500 44233,60784 44223,60858 44233,61004 44260,61142 44297,61234 44388,61417 44599,61811 44645,62499 44590,63150 44636,63389 45040,64297 45251,65113 45315,65654 45480,66058 45783,66370 46058,66663 46159,66902 46287,67379 46471,68021 47012,69708 47104,70011 47269,70396 47654,71304 47847,71744 47993,72093 48085,72286 48223,72331 48452,72322 48837,72295 49442,72249 49663,72286 50066,72451 50479,72652 50598,72762 50644,73340 51295,74560 49800,74312 48865,74037 47535,73230 47049,72707 46810,72396 46260,71341 45764,70249 45086,69323 44132,68342 43233,67782 42471,67480 41949,67296 40967,67113 40243,67094 39454,67204 38647,67360 37986,67516 37262,67883 36739,68241 35684,68956 35491,68709 35345,68442 35299,68323 35271,68186 35262,68085 35271,67975 35390,67498 35601,66828 35638,66737 35666,66608 35684,66553 35711,66498 35766,66324 35785,66251 35831,66122 35867,65994 35895,65902 35950,65719 36014,65526 36060,65379 36087,65297 36124,65168 36152,65077 36243,64746 36335,64444 36372,64324 36399,64123 36427,64123 36445,64104 36445,64058 36436,64003 36427,63976 36372,63692 36262,63462 36326,63481 36381,63472 36427,63444 37032,63444 37894,63407 37894,63105 Z M 37894,63105 L 37894,63105 Z"/>
       <path fill="rgb(231,221,237)" stroke="none" d="M 34970,69653 L 35043,69571 35273,69332 35429,69561 35612,71726 35612,71799 35667,71799 35713,72285 35677,72295 35768,73359 35530,73450 35539,73606 35557,73845 35594,74267 35603,74441 35631,74771 35631,74799 35667,75697 35686,76193 35704,76679 35420,76780 35328,77147 34603,78339 34328,78183 33044,77458 32612,77192 32392,77147 31722,77119 31273,77202 31484,76743 31704,76294 32264,75569 32658,74835 32988,74001 33777,71652 34108,70919 34530,70158 34732,69901 34860,69763 34970,69653 Z M 34970,69653 L 34970,69653 Z"/>
       <path fill="rgb(210,198,226)" stroke="none" d="M 32144,67324 L 31942,67453 31107,66948 30951,66847 30915,66820 31006,66710 31025,66563 30896,65994 30832,65600 30777,65315 30694,64866 30621,64416 30915,64352 31318,64270 31492,64233 31575,64215 31850,64150 32116,64095 32263,64068 32382,64040 32621,63985 32887,63930 32951,63921 33190,63866 33447,63820 33703,63765 33914,63710 34006,63655 34189,63527 34245,63490 34566,63279 34593,63261 34923,63031 35180,62857 35547,62637 35841,62536 35960,62784 36006,62884 36070,63031 36180,63288 36263,63462 36373,63692 36428,63976 36437,64004 36446,64059 36446,64104 36428,64123 36400,64123 36373,64325 36336,64444 36244,64747 36153,65077 36125,65169 36088,65297 36061,65380 36015,65526 35951,65719 35896,65902 35868,65994 35832,66122 35786,66251 35767,66324 35712,66499 35685,66554 35666,66609 35639,66737 35602,66829 35391,67498 35272,67975 35125,67939 34382,67792 33841,67783 32804,67700 32823,67627 32878,67489 32933,67352 32942,67223 32960,67141 32969,66783 32969,66746 32694,66599 32547,66517 32529,66480 32135,66719 32401,67196 32382,67205 32327,67196 32144,67324 Z M 32144,67324 L 32144,67324 Z"/>
       <path fill="rgb(237,207,227)" stroke="none" d="M 27484,51219 L 27237,50724 27264,50678 27264,50540 27218,50375 27200,50256 27191,50091 27173,50027 27136,49926 27072,49907 27026,49898 26952,49880 26897,49871 26769,49807 26824,49531 26870,49211 26916,48945 26971,48697 27017,48468 27099,48137 27218,47771 27273,47615 27466,47174 27805,46578 28145,46120 28292,45945 28365,45854 28457,45762 28961,45148 29374,44790 30438,43845 30796,43653 31466,43221 31640,43139 32044,42909 32181,42882 32282,42827 33062,42864 33071,43185 33080,43643 33043,43753 33062,44964 33071,45450 33080,45881 33089,46486 33089,47771 33098,48412 33108,48844 33144,50265 33154,50476 33154,50815 33163,50861 33163,51439 33172,51595 33172,51889 33181,52145 33181,52228 33190,52494 33190,53008 33181,53329 33172,53521 33163,53860 33163,53934 33154,54108 33144,54218 33144,54392 33135,54539 33126,54787 33126,54934 33117,55035 33108,55300 33108,55484 33098,55585 33062,56548 33062,56887 33135,57071 32869,56915 31392,55842 31246,55713 30915,55466 30475,55135 29796,54622 29704,54539 29521,54292 29402,54081 29328,53906 29282,53723 29264,53585 29237,53494 29181,53420 29026,53237 28796,52943 28438,52494 28099,52054 27622,51439 27484,51219 Z M 27484,51219 L 27484,51219 Z"/>
       <path fill="rgb(231,238,209)" stroke="none" d="M 39702,54925 L 40280,54723 40289,54714 41014,54833 41041,54622 41078,54374 41115,54117 41702,54154 41748,54172 42481,54264 42839,54438 42848,54438 43059,54530 43224,54521 43353,54411 43545,54402 43674,54594 43931,54759 43912,55117 43811,55411 43839,55768 43940,56135 43967,56392 44013,56557 43976,57126 44087,57401 44068,57795 43967,58511 43967,58740 43921,58933 43976,59859 44279,60373 44261,60492 44178,60620 43986,60666 43591,60813 43554,60923 43472,61097 43399,61317 43307,61547 43279,61749 43252,62088 43298,62308 43362,62638 43261,62666 42894,62721 42674,62757 42215,62858 41812,62941 41766,62950 41381,63014 41069,63060 40702,63143 40573,62812 40509,62821 39849,62913 39830,62913 39867,62987 39876,63078 39720,63106 39363,63198 39253,63225 39234,63161 38537,63133 38491,63170 38179,63124 37895,63106 37895,63409 37033,63445 36427,63445 36381,63473 36326,63482 36262,63463 36180,63289 36070,63033 36005,62886 35960,62785 35840,62537 35684,62189 35611,62024 35565,61950 35556,61932 35152,60987 35097,60868 35061,60776 34978,60593 34932,60474 34831,60244 34730,60015 34510,59510 34501,59474 34226,58786 34198,58722 34107,58474 34024,58162 33776,57970 33712,57887 33134,57071 33061,56887 33061,56548 33098,55585 33107,55484 33107,55301 33116,55035 33125,54934 33125,54787 33134,54539 33144,54393 33144,54218 33153,54108 33162,53934 33162,53861 33263,53870 33776,53888 34318,53888 34629,53916 34978,53906 35464,53851 35437,53750 35400,53613 35262,53054 35244,52953 35226,52870 35189,52705 35189,52567 36464,52503 36959,52503 37024,52494 37106,52494 37464,52522 37574,52522 37556,52613 37556,52668 37565,52705 37565,52732 37601,52843 37611,52888 37647,52953 37711,53063 37757,53127 37941,53310 38161,53521 38308,53668 38363,53714 38555,53879 38711,54017 38849,54127 38895,54172 38987,54246 39133,54374 39280,54512 39326,54558 39353,54585 39390,54613 39592,54805 39656,54879 39702,54925 Z M 39702,54925 L 39702,54925 Z"/>
       <path fill="rgb(219,236,233)" stroke="none" d="M 6160,10949 L 7078,11196 7417,11315 7811,11453 8518,11673 9187,11893 10435,12168 11306,12297 11792,12324 12242,12352 12948,12352 13443,12343 13517,12838 13535,13296 13563,13755 13618,14058 13636,14223 13654,14360 13664,14470 13673,14773 13664,15021 13636,15131 13599,15277 13553,15397 13462,15635 13443,15672 13260,16094 13214,16323 13150,16653 13067,17102 13031,17314 12994,17506 12976,17543 12911,18066 12884,18240 12838,18753 12820,18992 12820,19001 12866,19386 12893,19615 12911,19799 12930,20019 12930,20202 12921,20322 12921,20386 12911,20514 12902,20753 12893,20835 12884,20872 12810,20881 12618,20881 12627,21092 12618,21294 12618,21477 12609,21752 12609,22018 12599,22156 12609,22257 12599,22385 12590,22477 12590,22605 12829,24219 13645,27723 13645,27897 13654,28328 13654,28337 13645,28640 13645,29007 13636,29218 13654,29319 13654,29392 13682,29456 13719,29502 13755,29520 13764,29649 14883,31456 15333,32198 15296,32244 14984,32776 14801,33079 15067,33886 15287,34427 15544,35124 15562,35188 15590,35261 15681,35537 15709,35647 15737,35729 15957,36518 16085,37160 16094,37270 16103,37426 16113,37554 16122,37793 16131,38040 16149,38187 16168,38719 16186,38930 16213,39535 16213,39930 16223,40141 16204,40388 16195,40526 16204,41021 16186,41461 16186,41590 16204,42213 16204,42333 16213,42424 16213,42699 16223,42819 16223,42901 16213,43075 16204,43213 16204,43332 16195,43497 16195,43561 16186,43782 16186,43818 16177,43901 16168,43974 16140,44102 16122,44194 16103,44258 16085,44332 16067,44442 16048,44570 16021,44717 16002,44790 15929,45075 15920,45084 15388,47294 15177,47991 14828,49193 14095,51678 14251,55071 14278,55888 14269,55906 14251,55924 14232,55924 14214,55933 14205,55933 14195,55924 14104,55924 14058,55933 14030,55933 14012,55943 14003,55952 13975,55961 13939,55961 13911,55970 13884,55970 13865,55979 13856,55988 13820,55979 13801,55961 13783,55952 13783,55943 13764,55933 13755,55924 13728,55924 13700,55933 13682,55933 13682,55961 13709,55961 13709,55970 13700,55979 13700,55998 13719,56007 13719,56016 13728,56034 13728,56043 13700,56080 13691,56089 13673,56099 13645,56108 13618,56108 13590,56099 13563,56099 13535,56080 13498,56071 13453,56053 13443,56034 13425,56034 13416,56025 13398,56025 13370,56016 13342,56016 13324,56007 13315,56007 13297,55988 13287,55988 13278,55952 13278,55943 13297,55924 13306,55915 13315,55897 13324,55888 13324,55878 13260,55814 13214,55787 13196,55778 13187,55768 13095,55768 13058,55778 13031,55787 13012,55796 12976,55805 12948,55814 12930,55814 12902,55823 12875,55833 12774,55833 12746,55823 12728,55814 12710,55805 12691,55805 12636,55778 12609,55759 12535,55723 12462,55686 12379,55640 12324,55613 12260,55585 12233,55567 12168,55539 12113,55502 12095,55502 12040,55484 12022,55466 11967,55447 11921,55429 11884,55411 11838,55392 11820,55374 11783,55365 11737,55347 11673,55319 11618,55291 11600,55282 11563,55255 11490,55255 11444,55236 11361,55200 11343,55191 11325,55181 11279,55172 11242,55145 11214,55145 11196,55136 11178,55126 11169,55117 11132,55108 11104,55099 11095,55099 11059,55090 11031,55080 11013,55071 10976,55062 10948,55062 10921,55053 10903,55044 10875,55035 10847,55025 10811,55016 10655,55016 10600,54998 10545,54980 10517,54970 10490,54961 10453,54943 10416,54925 10389,54915 10380,54906 10325,54906 10297,54897 10270,54879 10242,54879 10205,54870 10178,54860 10141,54851 10104,54851 10050,54842 10013,54833 9848,54833 9820,54842 9784,54842 9747,54851 9710,54860 9673,54851 9637,54851 9591,54842 9573,54851 9545,54842 9518,54851 9472,54860 9270,54860 9215,54842 9187,54842 9132,54824 9096,54815 9077,54805 9031,54787 9004,54778 8986,54769 8967,54760 8949,54750 8940,54750 8931,54741 8912,54741 8848,54714 8820,54705 8747,54686 8729,54677 8692,54668 8683,54659 8664,54659 8628,54649 8582,54631 8545,54622 8481,54594 8435,54585 8426,54585 8417,54576 8398,54567 8389,54567 8362,54549 8344,54539 8325,54530 8316,54530 8307,54521 8279,54503 8270,54494 8252,54475 8243,54466 8215,54439 8206,54420 8206,54402 8197,54374 8188,54347 8188,54264 8178,54228 8178,54182 8169,54108 8160,54035 8160,53943 8169,53925 8169,53870 8178,53842 8188,53824 8197,53797 8206,53769 8206,53751 8224,53705 8224,53677 8215,53659 8215,53512 8206,53494 8215,53476 8215,53411 8206,53384 8197,53356 8197,53292 8188,53265 8178,53191 8169,53136 8169,53054 8178,53026 8188,52980 8188,52953 8197,52916 8197,52861 8206,52797 8215,52769 8215,52733 8233,52650 8243,52623 8243,52604 8252,52586 8261,52568 8279,52549 8288,52531 8298,52513 8298,52458 8288,52458 8288,52430 8298,52421 8307,52421 8307,52430 8316,52421 8334,52375 8344,52357 8353,52357 8362,52338 8398,52302 8408,52274 8426,52247 8444,52228 8444,52201 8463,52182 8463,52164 8472,52146 8481,52136 8481,52118 8509,52091 8527,52063 8536,52054 8545,52036 8554,52008 8573,51990 8573,51972 8582,51953 8591,51926 8619,51871 8628,51852 8628,51834 8637,51806 8628,51788 8628,51632 8637,51614 8637,51577 8646,51559 8655,51540 8664,51531 8664,51458 8674,51440 8692,51421 8701,51394 8701,51366 8710,51348 8710,51329 8719,51320 8729,51302 8729,51210 8738,51192 8747,51146 8747,51091 8756,51073 8765,51064 8765,51045 8756,51027 8747,51009 8738,50999 8729,50990 8729,50981 8738,50972 8747,50972 8756,50963 8765,50953 8775,50908 8775,50880 8784,50862 8784,50843 8802,50807 8802,50761 8811,50706 8811,50458 8802,50421 8793,50403 8793,50394 8784,50376 8775,50367 8765,50312 8719,50220 8683,50137 8664,50091 8646,50046 8637,50000 8628,49990 8628,49972 8609,49926 8600,49890 8600,49853 8582,49807 8573,49752 8564,49706 8554,49669 8564,49569 8573,49495 8582,49348 8582,49303 8591,49165 8591,48881 8573,48826 8564,48761 8545,48734 8527,48651 8509,48651 8481,48624 8463,48569 8472,48541 8472,48495 8463,48404 8444,48376 8426,48340 8435,48303 8417,48275 8398,48239 8353,48120 8325,48083 8316,48046 8307,48009 8252,47927 8233,47890 8215,47845 8215,47817 8197,47780 8178,47762 8151,47707 8123,47670 8114,47624 8123,47560 8114,47496 8114,47450 8096,47423 8068,47368 8059,47303 8041,47230 8050,47157 8059,47129 8059,47111 8050,47083 8032,47056 8041,47001 8050,46964 8050,46927 8041,46891 8004,46817 7995,46726 8004,46625 8013,46579 7995,46505 7977,46496 7967,46478 7922,46414 7876,46294 7839,46203 7775,46111 7747,46093 7720,46065 7692,46001 7683,45937 7683,45588 7674,45432 7683,45249 7674,45157 7656,45066 7628,44845 7591,44662 7591,44524 7573,44460 7573,44424 7564,44424 7573,44414 7564,44405 7564,44396 7555,44378 7555,44369 7545,44350 7545,44323 7536,44313 7536,44295 7527,44286 7527,44277 7518,44268 7518,44258 7509,44249 7509,44204 7500,44194 7500,44158 7509,44158 7500,44139 7500,43974 7490,43974 7490,43947 7481,43938 7481,43919 7472,43919 7472,43910 7463,43892 7463,43873 7472,43864 7472,43855 7481,43855 7481,43791 7490,43782 7490,43745 7500,43736 7500,43699 7509,43690 7509,43644 7518,43635 7518,43525 7527,43516 7527,43488 7536,43470 7536,43433 7545,43424 7545,43415 7555,43406 7555,43378 7564,43369 7564,43341 7573,43332 7573,43305 7582,43295 7582,43286 7591,43277 7591,43268 7601,43259 7601,43250 7610,43241 7610,43231 7619,43222 7619,43204 7628,43204 7628,43176 7637,43167 7637,43158 7646,43149 7637,43140 7637,43130 7646,43121 7646,43112 7656,43094 7665,43085 7665,43075 7674,43066 7683,43057 7692,43057 7701,43039 7711,43020 7720,43011 7720,43002 7729,43002 7729,42993 7738,42984 7738,42974 7747,42956 7756,42947 7766,42929 7775,42919 7784,42910 7784,42901 7793,42874 7793,42864 7802,42864 7802,42846 7811,42837 7811,42819 7821,42819 7821,42809 7830,42791 7830,42663 7821,42644 7821,42635 7811,42626 7811,42608 7802,42598 7802,42553 7793,42543 7793,42507 7784,42488 7784,42479 7775,42452 7766,42433 7756,42424 7756,42415 7747,42406 7738,42387 7738,42378 7729,42369 7729,42360 7701,42333 7701,42323 7683,42314 7683,42305 7674,42305 7674,42296 7656,42287 7637,42287 7637,42278 7619,42268 7601,42259 7591,42250 7573,42250 7564,42241 7555,42241 7545,42222 7536,42222 7527,42204 7518,42195 7509,42177 7500,42168 7500,42158 7490,42158 7490,42149 7481,42140 7481,42131 7472,42131 7472,42122 7463,42112 7463,42030 7454,42021 7454,41956 7463,41947 7463,41911 7472,41902 7472,41819 7463,41810 7463,41755 7472,41746 7472,41727 7481,41709 7481,41681 7490,41672 7490,41626 7500,41617 7500,41580 7509,41562 7509,41535 7518,41516 7518,41498 7527,41480 7536,41470 7536,41452 7545,41434 7545,41425 7555,41415 7555,41406 7564,41388 7573,41370 7582,41360 7591,41342 7601,41333 7601,41305 7591,41296 7591,41223 7601,41204 7610,41195 7619,41168 7619,41159 7628,41140 7637,41131 7656,41113 7656,41094 7665,41085 7665,41067 7674,41058 7674,41003 7665,40994 7665,40938 7656,40929 7656,40874 7646,40856 7646,40838 7637,40828 7637,40810 7628,40801 7619,40792 7619,40783 7610,40773 7610,40682 7619,40672 7619,40645 7628,40645 7628,40608 7619,40599 7619,40572 7610,40563 7610,40544 7601,40535 7601,40526 7591,40517 7545,40535 7545,40526 7582,40517 7573,40498 7610,40489 7610,40471 7601,40452 7601,40443 7591,40434 7591,40425 7582,40416 7582,40407 7573,40397 7573,40370 7564,40370 7564,40361 7555,40361 7545,40352 7545,40342 7536,40333 7536,40324 7527,40315 7518,40315 7509,40297 7481,40269 7472,40269 7463,40251 7454,40251 7445,40242 7435,40232 7426,40223 7417,40223 7408,40214 7399,40205 7390,40205 7380,40196 7371,40186 7362,40186 7362,40177 7353,40177 7344,40168 7344,40159 7334,40159 7334,40150 7325,40141 7316,40141 7316,40131 7298,40113 7298,40104 7289,40104 7279,40095 7279,40086 7270,40086 7252,40067 7252,40058 7243,40049 7234,40040 7206,40049 7206,40040 7197,40031 7197,39948 7188,39939 7188,39902 7179,39893 7179,39865 7169,39847 7160,39829 7160,39810 7151,39801 7151,39792 7142,39792 7133,39774 7123,39765 7105,39746 7096,39746 7096,39737 7087,39728 7078,39719 7078,39710 7068,39691 7068,39673 7059,39664 7059,39609 7068,39600 7068,39563 7078,39554 7078,39535 7087,39526 7096,39508 7096,39499 7105,39480 7114,39480 7123,39462 7123,39453 7133,39453 7142,39434 7151,39416 7151,39398 7160,39379 7160,39361 7169,39352 7169,39324 7179,39315 7179,39288 7188,39279 7188,39251 7197,39233 7197,39214 7206,39214 7206,39150 7215,39141 7215,39123 7224,39113 7224,39104 7234,39104 7234,39077 7243,39077 7243,39031 7252,39022 7252,39013 7261,39003 7261,38994 7270,38976 7270,38948 7279,38939 7279,38921 7289,38921 7289,38893 7298,38875 7298,38857 7307,38848 7325,38811 7334,38793 7344,38774 7344,38756 7362,38737 7371,38737 7371,38710 7380,38701 7380,38682 7390,38673 7390,38664 7399,38655 7399,38637 7408,38618 7417,38609 7417,38582 7426,38572 7426,38563 7435,38554 7445,38526 7445,38517 7454,38508 7454,38499 7463,38481 7472,38462 7481,38444 7490,38444 7500,38426 7500,38416 7509,38407 7527,38371 7527,38361 7536,38361 7536,38352 7545,38343 7555,38325 7555,38316 7564,38306 7564,38297 7573,38297 7573,38279 7582,38270 7582,38260 7591,38251 7591,38242 7601,38233 7601,38224 7610,38215 7610,38205 7619,38196 7619,38187 7628,38187 7628,38178 7637,38160 7637,38150 7646,38141 7646,38123 7656,38114 7656,38013 7665,38004 7665,37949 7674,37939 7674,37930 7683,37921 7683,37912 7692,37894 7701,37884 7701,37857 7720,37839 7720,37820 7729,37811 7729,37784 7738,37774 7738,37729 7747,37729 7747,37719 7756,37710 7756,37692 7766,37683 7775,37664 7775,37655 7784,37646 7784,37637 7793,37628 7793,37619 7802,37619 7811,37609 7811,37600 7821,37600 7821,37591 7830,37582 7839,37582 7848,37564 7857,37554 7857,37545 7866,37545 7876,37536 7876,37518 7885,37508 7894,37508 7894,37490 7903,37481 7912,37472 7922,37463 7931,37453 7931,37444 7940,37435 7940,37408 7958,37398 7958,37389 7967,37380 7967,37371 7977,37371 7977,37362 7986,37362 7995,37353 7995,37343 8004,37343 8013,37325 8022,37316 8032,37307 8041,37298 8050,37288 8059,37288 8059,37279 8068,37279 8077,37270 8087,37261 8087,37252 8096,37243 8096,37233 8105,37233 8114,37224 8114,37215 8123,37215 8123,37197 8133,37197 8142,37187 8151,37178 8151,37169 8142,37169 8142,37160 8151,37151 8169,37151 8169,37114 8160,37114 8160,37096 8169,37087 8169,37077 8178,37077 8178,37032 8188,37022 8197,37022 8197,37013 8215,37004 8215,36995 8206,36986 8206,36958 8215,36958 8215,36949 8224,36940 8224,36885 8233,36876 8243,36867 8252,36867 8261,36848 8270,36839 8270,36784 8279,36784 8279,36756 8298,36756 8307,36747 8325,36738 8334,36738 8344,36729 8344,36711 8353,36701 8353,36692 8362,36692 8362,36683 8371,36674 8380,36674 8380,36665 8389,36656 8398,36646 8398,36619 8389,36610 8380,36610 8362,36619 8334,36619 8316,36628 8288,36628 8279,36637 8270,36637 8270,36628 8261,36619 8252,36619 8252,36591 8261,36582 8279,36582 8279,36573 8288,36564 8288,36545 8298,36536 8288,36527 8279,36536 8270,36536 8261,36527 8252,36536 8243,36536 8243,36545 8233,36555 8197,36555 8197,36564 8169,36564 8160,36555 8151,36545 8151,36536 8142,36536 8142,36481 8151,36463 8151,36454 8160,36445 8169,36435 8178,36435 8178,36426 8197,36426 8206,36417 8197,36408 8197,36362 8206,36353 8206,36344 8224,36325 8233,36316 8243,36316 8261,36307 8279,36307 8288,36298 8288,36289 8279,36279 8279,36252 8288,36243 8298,36234 8298,36224 8307,36224 8316,36215 8325,36215 8325,36188 8316,36188 8316,36105 8307,36087 8316,36059 8307,36050 8298,36041 8298,36023 8307,36023 8307,35995 8325,35986 8325,35968 8334,35959 8334,35931 8325,35931 8325,35913 8344,35894 8353,35894 8371,35876 8380,35876 8380,35867 8389,35867 8408,35848 8408,35839 8417,35839 8426,35821 8435,35812 8435,35803 8444,35793 8453,35775 8463,35766 8463,35757 8453,35738 8463,35729 8472,35720 8490,35702 8490,35683 8509,35665 8499,35656 8472,35656 8463,35647 8435,35647 8426,35638 8408,35638 8408,35628 8398,35628 8398,35610 8408,35601 8398,35592 8398,35546 8408,35546 8408,35537 8417,35527 8417,35509 8398,35509 8398,35500 8408,35482 8408,35463 8426,35463 8435,35454 8444,35445 8444,35408 8453,35399 8453,35390 8463,35390 8463,35381 8481,35362 8481,35326 8490,35316 8499,35316 8509,35307 8527,35298 8536,35289 8536,35271 8527,35261 8509,35261 8518,35252 8527,35243 8536,35234 8545,35234 8545,35197 8536,35197 8527,35188 8536,35179 8536,35161 8545,35161 8554,35152 8554,35142 8564,35142 8564,35133 8573,35115 8591,35106 8600,35096 8600,35069 8591,35060 8591,35041 8582,35032 8582,35014 8591,34996 8600,34986 8582,34950 8573,34931 8564,34904 8554,34895 8554,34886 8545,34867 8545,34849 8536,34840 8545,34830 8554,34830 8554,34812 8545,34812 8545,34785 8536,34785 8536,34766 8527,34757 8481,34757 8481,34748 8472,34739 8463,34730 8472,34720 8472,34711 8463,34702 8463,34693 8453,34693 8453,34684 8444,34665 8444,34656 8426,34638 8408,34620 8398,34610 8398,34592 8389,34564 8389,34464 8398,34445 8398,34381 8408,34372 8408,34354 8417,34344 8417,34335 8426,34326 8426,34317 8435,34308 8435,34299 8444,34289 8453,34280 8453,34271 8463,34271 8472,34262 8481,34253 8527,34253 8527,34244 8536,34234 8545,34234 8554,34244 8573,34262 8573,34271 8591,34271 8600,34280 8619,34280 8628,34271 8628,34253 8619,34234 8619,34198 8609,34170 8600,34161 8600,34152 8591,34143 8600,34124 8591,34115 8600,34106 8609,34097 8609,34088 8600,34078 8573,34060 8564,34051 8554,34051 8518,34033 8509,34033 8499,34023 8490,34023 8481,34014 8453,34014 8453,34005 8444,33996 8444,33987 8435,33978 8435,33941 8444,33932 8453,33922 8453,33913 8463,33913 8472,33904 8481,33895 8564,33895 8573,33886 8582,33877 8582,33868 8591,33858 8591,33849 8582,33840 8582,33776 8573,33767 8573,33757 8564,33748 8564,33730 8554,33721 8545,33712 8536,33702 8536,33693 8518,33675 8518,33666 8499,33647 8490,33638 8490,33611 8481,33601 8481,33583 8490,33574 8490,33519 8499,33510 8499,33492 8509,33482 8509,33473 8518,33464 8518,33455 8527,33446 8536,33427 8545,33418 8545,33409 8554,33400 8573,33391 8591,33381 8600,33381 8600,33372 8619,33372 8637,33363 8664,33363 8674,33354 8692,33354 8747,33336 8765,33326 8775,33317 8793,33308 8811,33290 8820,33271 8830,33271 8830,33253 8839,33244 8839,33235 8848,33225 8857,33216 8940,33161 9050,33097 9141,33024 9196,32978 9316,32886 9426,32804 9444,32767 9472,32730 9472,32721 9490,32703 9490,32684 9508,32657 9508,32638 9518,32593 9518,32556 9508,32492 9499,32446 9490,32428 9499,32373 9499,32336 9508,32308 9518,32290 9536,32272 9545,32253 9554,32244 9563,32235 9563,32189 9573,32134 9600,32079 9609,32052 9628,32015 9683,31960 9692,31951 9710,31923 9719,31914 9729,31886 9738,31859 9747,31831 9765,31795 9765,31721 9756,31703 9747,31694 9747,31685 9738,31666 9738,31437 9747,31400 9747,31364 9756,31336 9774,31309 9774,31226 9765,31190 9765,31107 9756,31079 9756,31070 9765,31043 9793,31024 9793,31006 9802,30988 9811,30969 9820,30960 9820,30887 9829,30832 9829,30804 9839,30768 9839,30749 9857,30731 9866,30713 9884,30703 9903,30667 9912,30658 9912,30639 9903,30593 9884,30520 9866,30474 9839,30437 9784,30382 9756,30346 9747,30327 9738,30300 9738,30282 9729,30272 9710,30263 9692,30236 9673,30208 9664,30199 9655,30181 9655,30144 9664,30116 9683,30089 9692,30061 9701,30052 9719,30034 9729,30016 9729,29979 9719,29961 9710,29951 9692,29951 9618,29970 9573,29997 9536,30006 9334,30006 9307,30025 9288,30025 9261,30034 9242,30025 9233,30025 9224,30016 9196,29997 9187,29979 9169,29961 9151,29924 9141,29896 9132,29878 9077,29823 9059,29814 9050,29805 9031,29805 9013,29795 9004,29795 8995,29786 8986,29786 8976,29777 8967,29777 8958,29768 8949,29759 8940,29731 8940,29704 8931,29676 8931,29658 8921,29640 8894,29594 8839,29511 8811,29484 8775,29429 8710,29355 8683,29319 8674,29300 8655,29282 8646,29264 8628,29218 8609,29163 8600,29144 8564,28998 8536,28897 8518,28851 8518,28796 8527,28768 8536,28741 8554,28722 8564,28713 8564,28704 8490,28548 8435,28429 8435,28411 8527,28264 8509,28255 8509,28245 8518,28227 8518,28218 8527,28200 8536,28190 8545,28172 8554,28154 8564,28145 8573,28126 8573,28108 8591,28035 8600,27980 8619,27934 8600,27897 8582,27870 8582,27842 8509,27750 8435,27686 8398,27668 8389,27622 8380,27558 8371,27521 8380,27503 8362,27475 8316,27457 8279,27429 8279,27374 8270,27301 8233,27255 8233,27246 8215,27200 8206,27145 8197,27118 8178,27090 8178,27062 8160,27044 8114,27007 8022,26943 7949,26916 7894,26907 7848,26888 7756,26879 7720,26861 7692,26833 7674,26842 7656,26852 7637,26861 7610,26842 7591,26806 7536,26769 7445,26723 7435,26714 7426,26714 7408,26686 7435,26668 7481,26650 7445,26604 7417,26586 7399,26604 7325,26558 7334,26530 7279,26485 7261,26475 7234,26466 7197,26439 7169,26420 7133,26375 7114,26366 7087,26356 7078,26347 7013,26310 6977,26301 6949,26283 6912,26246 6894,26237 6876,26219 6867,26219 6839,26246 6821,26265 6757,26219 6738,26200 6738,26191 6729,26173 6720,26164 6720,26145 6711,26136 6683,26136 6683,26118 6674,26109 6610,26054 6564,26008 6546,25999 6537,25999 6527,25989 6518,25989 6518,25971 6500,25962 6454,25934 6435,25916 6417,25907 6399,25889 6353,25889 6344,25879 6335,25861 6335,25852 6316,25843 6307,25824 6307,25806 6298,25788 6280,25769 6261,25760 6243,25742 6234,25742 6206,25714 6179,25733 6170,25723 6206,25687 6179,25659 6160,25659 6179,25641 6188,25632 6179,25595 6160,25577 6133,25558 6115,25540 6096,25531 6078,25522 6060,25512 6050,25503 5986,25439 5968,25448 5931,25412 5949,25393 5922,25357 5931,25357 5904,25338 5867,25302 5849,25292 5830,25302 5775,25237 5766,25247 5738,25265 5720,25274 5693,25283 5674,25302 5665,25311 5647,25311 5619,25329 5573,25329 5564,25311 5564,25302 5546,25265 5482,25118 5472,25091 5472,25054 5482,25045 5372,24751 5362,24715 5344,24687 5344,24632 5335,24614 5335,24595 5344,24577 5353,24568 5344,24559 5335,24513 5317,24467 5307,24421 5307,24403 5280,24403 5271,24375 5261,24375 5261,24384 5252,24384 5243,24375 5234,24375 5216,24311 5234,24302 5234,24284 5243,24265 5261,24247 5298,24247 5307,24238 5317,24201 5317,24174 5307,24155 5307,24128 5289,24100 5243,24082 5225,24082 5206,24091 5197,24109 5179,24118 5161,24109 5151,24100 5142,24100 5142,24082 5151,24073 5161,24063 5170,24063 5188,24054 5188,24045 5197,24036 5197,24027 5206,24018 5225,24018 5234,24027 5243,24027 5252,24036 5271,24036 5280,24045 5298,24036 5317,24027 5326,24008 5335,23990 5335,23880 5353,23807 5372,23752 5381,23733 5381,23697 5390,23660 5390,23642 5399,23623 5436,23605 5445,23596 5454,23568 5454,23504 5463,23495 5472,23477 5472,23440 5491,23431 5491,23421 5482,23412 5463,23403 5436,23403 5417,23394 5408,23376 5408,23330 5417,23311 5427,23284 5427,23266 5445,23247 5454,23247 5482,23220 5500,23211 5537,23211 5555,23220 5555,23229 5564,23238 5573,23238 5583,23220 5583,23192 5564,23155 5546,23137 5527,23119 5509,23110 5500,23091 5491,23073 5500,23064 5518,23045 5537,23036 5555,23036 5564,23027 5573,23009 5583,22990 5583,22963 5573,22954 5555,22945 5527,22945 5518,22926 5527,22899 5537,22880 5573,22880 5601,22899 5619,22889 5619,22880 5610,22862 5601,22844 5601,22825 5619,22807 5665,22807 5683,22816 5702,22816 5720,22825 5738,22825 5748,22789 5748,22761 5757,22743 5748,22743 5766,22642 5775,22578 5812,22523 5803,22523 5821,22431 5821,22422 5812,22413 5812,22403 5729,22385 5729,22376 5812,22394 5803,22376 5803,22339 5812,22330 5876,22330 5885,22312 5885,22257 5931,22128 5775,22064 5775,22055 5794,22055 5794,22073 5931,22119 5977,22018 6032,21890 6004,21881 6004,21872 6032,21844 6023,21835 6023,21817 6014,21807 6014,21798 6004,21780 5995,21780 5977,21762 5986,21752 5995,21743 6004,21743 6004,21734 6014,21725 6032,21707 6041,21697 6050,21679 5940,21633 5940,21642 5904,21624 5904,21615 6060,21670 6050,21661 6060,21651 6050,21642 6041,21642 6032,21633 6032,21596 6041,21578 6032,21569 6032,21468 6041,21349 6041,21294 6032,21285 6041,21248 6041,21230 6050,21211 6060,21193 6060,21156 6069,21110 6069,21083 6078,21064 6060,21046 6050,21046 6041,21055 6032,21064 6032,21074 6023,21083 6014,21083 5995,21074 5986,21064 5977,21055 5959,21055 5949,21046 5922,21028 5913,21010 5894,21010 5885,21000 5876,20991 5876,20964 5867,20945 5849,20936 5830,20918 5821,20899 5803,20890 5794,20872 5794,20835 5775,20817 5775,20716 5784,20698 5784,20643 5766,20606 5766,20588 5775,20569 5794,20542 5803,20542 5821,20533 5849,20523 5876,20523 5885,20505 5894,20496 5913,20487 5949,20487 5959,20478 5949,20468 5931,20459 5922,20459 5913,20450 5894,20441 5876,20422 5858,20395 5821,20358 5821,20322 5830,20312 5830,20303 5839,20294 5858,20285 5858,20267 5849,20221 5849,20166 5858,20157 5867,20138 5876,20129 5858,20111 5858,20101 5876,20092 5876,20074 5904,20074 5913,20065 5913,20056 5904,20046 5885,20046 5885,20037 5894,20019 5904,20010 5913,20010 5940,19982 5968,19992 6004,20001 6004,19982 5949,19927 5940,19918 5940,19872 5949,19863 5959,19845 5968,19836 5959,19836 5959,19826 5940,19826 5940,19725 5949,19716 5959,19689 5968,19680 5977,19661 5986,19652 5995,19643 5995,19634 5977,19615 5977,19560 5986,19551 5995,19542 5977,19533 5977,19515 5986,19496 6004,19478 6014,19450 6041,19423 6041,19404 6014,19368 6004,19368 6004,19359 5995,19349 6004,19331 6004,19267 6014,19258 6014,19221 6004,19203 6004,19175 6014,19157 6004,19139 6004,19093 5977,19084 5959,19074 5977,19047 5986,19038 5986,19010 5995,19010 6004,19001 6023,19001 6032,18992 6023,18973 6023,18918 6014,18909 6004,18900 5995,18909 5986,18918 5968,18928 5959,18918 5949,18909 5940,18900 5940,18891 5931,18891 5913,18873 5913,18808 5904,18790 5913,18772 5913,18717 5922,18698 5931,18698 5959,18689 5977,18652 5977,18579 5986,18570 6014,18561 6023,18551 6041,18542 6050,18515 6060,18487 6060,18377 6041,18359 6032,18332 6032,18304 6041,18276 6041,18249 6050,18231 6060,18231 6069,18221 6096,18212 6115,18194 6115,18185 6105,18166 6087,18157 6060,18148 6023,18148 6014,18157 6023,18166 6032,18185 6023,18221 6023,18231 6004,18258 5986,18276 5949,18295 5931,18295 5913,18304 5894,18313 5876,18313 5867,18304 5849,18295 5839,18286 5839,18304 5821,18322 5803,18332 5775,18350 5748,18359 5711,18368 5702,18368 5683,18359 5656,18359 5656,18386 5647,18396 5628,18405 5610,18423 5601,18423 5564,18432 5537,18451 5518,18451 5491,18441 5482,18432 5463,18441 5445,18460 5436,18469 5408,18469 5399,18478 5390,18460 5390,18432 5372,18432 5362,18451 5353,18460 5344,18460 5280,18469 5280,18487 5289,18533 5280,18551 5271,18570 5261,18579 5243,18588 5225,18597 5197,18588 5161,18588 5151,18579 5133,18579 5106,18570 5106,18561 5096,18551 5096,18570 5115,18597 5115,18625 5106,18643 5096,18652 5096,18662 5087,18680 5078,18689 5087,18707 5096,18717 5078,18762 5078,18781 5060,18790 5060,18799 5050,18818 5041,18836 5014,18873 5005,18891 4986,18918 4950,18928 4913,18909 4904,18891 4895,18882 4885,18882 4876,18891 4876,18928 4867,18946 4858,18955 4840,18964 4830,18964 4812,18955 4803,18946 4794,18937 4784,18946 4784,18964 4775,18973 4748,18973 4729,18964 4711,18955 4702,18937 4702,18918 4656,18918 4638,18928 4619,18928 4619,18900 4583,18900 4573,18909 4583,18928 4583,18973 4573,18983 4564,19019 4555,19038 4546,19056 4546,19120 4555,19139 4555,19166 4546,19194 4518,19212 4509,19221 4500,19230 4509,19239 4509,19249 4500,19267 4491,19276 4482,19294 4482,19304 4473,19313 4454,19331 4427,19349 4408,19377 4399,19404 4390,19432 4381,19450 4362,19469 4344,19487 4298,19487 4280,19478 4262,19478 4243,19469 4234,19460 4234,19432 4225,19423 4207,19441 4198,19432 4188,19441 4179,19450 4170,19460 4161,19469 4161,19478 4179,19496 4207,19505 4234,19496 4253,19496 4271,19505 4289,19505 4317,19515 4317,19533 4298,19560 4298,19579 4271,19615 4253,19625 4243,19634 4207,19643 4198,19661 4188,19680 4179,19707 4170,19753 4161,19780 4133,19799 4124,19817 4106,19845 4087,19872 4069,19872 4069,19900 4051,19909 4042,19900 4023,19909 4005,19918 3996,19918 3996,19936 3987,19955 3968,19973 3913,19992 3876,19992 3831,19982 3840,19992 3840,20001 3849,20010 3849,20019 3840,20028 3831,20046 3831,20056 3821,20065 3821,20083 3812,20092 3803,20101 3785,20111 3748,20101 3638,20101 3629,20092 3620,20083 3610,20083 3610,20092 3601,20092 3601,20101 3546,20101 3528,20092 3528,20074 3519,20065 3482,20065 3473,20083 3455,20083 3436,20074 3399,20056 3390,20037 3363,20028 3344,20028 3317,20019 3308,20019 3280,20001 3280,19992 3271,19973 3161,19973 3152,19964 3143,19946 3143,19936 3152,19927 3143,19918 3133,19927 3124,19927 3133,19909 3124,19900 3115,19891 3124,19881 3124,19863 3115,19845 3106,19836 3106,19845 3097,19845 3088,19836 3069,19854 3069,19863 3051,19863 3033,19854 3014,19863 3005,19863 2996,19854 2987,19854 2987,19863 2977,19872 2968,19872 2959,19881 2959,19891 2950,19891 2941,19881 2941,19863 2932,19863 2922,19872 2922,19891 2913,19891 2904,19909 2886,19918 2877,19927 2886,19936 2877,19936 2858,19946 2840,19936 2840,19927 2831,19918 2813,19918 2785,19900 2757,19872 2757,19863 2767,19863 2776,19854 2767,19845 2757,19845 2757,19826 2721,19808 2721,19799 2711,19790 2693,19790 2684,19780 2675,19771 2675,19735 2657,19735 2638,19744 2620,19753 2611,19762 2602,19790 2602,19836 2611,19854 2611,19863 2592,19881 2602,19891 2611,19891 2620,19909 2611,19936 2592,19973 2583,19982 2574,19992 2565,20010 2565,20019 2556,20028 2546,20037 2537,20028 2519,20028 2510,20019 2482,20019 2464,20010 2436,19992 2427,19992 2427,20001 2436,20028 2436,20046 2427,20065 2418,20083 2400,20101 2381,20111 2363,20120 2345,20129 2335,20147 2326,20157 2317,20166 2299,20166 2299,20175 2280,20184 2271,20184 2262,20193 2244,20202 2225,20221 2198,20230 2180,20230 2170,20239 2161,20230 2152,20211 2152,20193 2143,20184 2125,20193 2115,20193 2106,20202 2079,20202 2060,20211 2051,20221 2014,20248 1996,20257 1959,20267 1923,20267 1904,20257 1831,20221 2189,18854 2877,16873 3097,16543 3455,15277 4042,14672 4390,14012 4619,13810 5124,13517 5628,13388 5665,13278 5674,13223 5693,13168 5757,12902 5904,12361 5858,11682 5619,10967 5583,10857 5656,10857 6160,10949 Z M 6160,10949 L 6160,10949 Z"/>
       <path fill="rgb(209,211,234)" stroke="none" d="M 31594,13811 L 31612,13600 31603,13426 31603,13261 31722,12619 31722,12527 31732,12041 31722,11912 32209,11830 32575,11775 33217,11674 34291,11546 34878,11536 35621,11518 36162,11546 36428,11564 37015,11637 37666,11729 38116,11812 38748,11967 39271,12114 39363,12775 39721,14270 40335,14673 40620,14911 40684,15086 40867,17113 40950,17140 41005,17159 41032,17177 41060,17204 41069,17470 41051,17498 41023,17507 40987,17736 40950,17828 40803,18094 40812,18360 40831,18461 40950,18626 41042,18727 41115,18846 41106,19167 41042,19305 40968,19424 41005,19543 41152,19662 41179,19791 41464,19974 41638,20029 41702,20093 41794,20167 41840,20286 41895,20525 41895,20644 41922,20690 41931,20827 41913,20955 41968,21047 41959,21102 41941,21139 41885,21194 41821,21341 41757,21377 41757,21423 41794,21469 41950,21561 42069,21653 42216,21900 42326,21964 42427,22075 42619,22175 42702,22239 42904,22322 42913,22386 43060,22570 43115,22689 43170,22817 43225,22900 43252,22982 43289,23047 43399,23175 43491,23349 43500,23459 43518,23524 43536,23734 43747,23734 43830,23835 43958,23964 43986,23991 44114,24074 44270,24166 44720,24432 45013,24468 45564,24606 46142,24753 46389,24670 46086,25844 46041,26082 46013,26229 45995,26312 45949,26541 45921,26724 45885,27000 45848,27311 45820,27614 45811,27798 45802,28008 45802,28265 45747,28256 45619,28247 45399,28219 45133,28201 45041,28201 44793,28192 44646,28219 44472,28256 44390,28284 44353,28329 44335,28366 44307,28430 44169,28513 43903,28302 43665,28155 43472,27999 43271,27834 43014,27614 42821,27458 42518,27247 42106,26963 41849,26761 41583,26532 41289,26330 40932,26174 40693,26055 40280,25816 39950,25596 39712,25395 39418,25129 39198,24918 38877,24670 38657,24606 38501,24542 38125,24377 38005,24331 37868,24321 37758,24331 37455,24377 37171,24432 37088,24441 36960,24432 36850,24413 36657,24367 36620,24367 36648,24239 36666,24156 36676,23927 36666,23478 36666,22927 36657,22625 36648,22478 36620,22295 36520,21983 36474,21717 36437,21552 36419,21414 36391,21249 36373,21093 36364,20992 36364,20836 36354,20699 36354,20515 36345,20286 36345,20057 36336,19653 36327,19387 36336,19268 36336,19167 36354,19112 36354,18993 36272,18626 36263,18250 36208,17929 36098,17663 36024,17562 35969,17470 35722,17021 35547,16553 35171,15526 35125,15498 34951,15398 34401,15040 34336,15022 34282,15031 33814,15086 33309,15132 33052,15159 32842,15260 32842,15425 32823,15498 32759,15517 32667,15498 32594,15480 32557,15471 32484,15453 32319,15737 31915,15563 31814,15526 31722,15498 31612,15480 31493,15462 31493,15343 31521,14976 31548,14701 31557,14572 31566,14471 31576,14159 31594,13811 Z M 31594,13811 L 31594,13811 Z"/>
       <path fill="rgb(252,230,204)" stroke="none" d="M 32328,67195 L 32383,67205 32401,67195 32135,66718 32530,66480 32548,66517 32695,66599 32970,66746 32970,66783 32961,67140 32943,67223 32933,67351 32878,67489 32823,67626 32805,67700 33842,67782 34383,67791 35126,67938 35273,67975 35263,68085 35273,68186 35300,68323 35346,68443 35493,68709 35685,68956 35273,69332 35043,69571 34970,69653 34860,69763 34731,69901 34530,70158 34108,70919 33777,71653 32988,74001 32658,74836 32264,75569 31704,76294 31264,77220 30548,77523 30475,77238 30383,76789 30310,76431 30218,76074 30200,75679 30136,75303 30126,75202 30099,75101 30071,74946 30026,74680 30026,74661 29980,74377 29934,74184 29906,73992 29870,73772 29870,73680 29879,73368 29879,73258 29925,72919 29732,72928 29420,72928 29328,72515 29228,72020 29172,71772 29127,71598 29081,71350 29026,71103 28952,70763 28851,70323 28815,70139 28705,69607 28585,69076 28530,68791 28356,68085 28347,68021 28191,67672 28622,67810 28952,67920 29246,68002 29292,68021 29264,67746 29613,67837 29980,67920 30081,67498 30099,67425 30145,67223 30301,67250 30319,67241 30347,67223 30411,67168 30539,67049 30704,66939 30759,66902 30915,66819 30952,66847 31108,66948 31943,67452 32145,67324 32328,67195 Z M 32328,67195 L 32328,67195 Z"/>
       <path fill="rgb(212,230,207)" stroke="none" d="M 39271,12114 L 40133,12398 41757,13022 42160,13215 42821,13563 43335,13802 43683,13948 44087,14113 44380,14214 44775,14343 45059,14444 45426,14545 45940,14664 46151,14710 46362,14755 46545,14792 46774,14829 47050,14865 47361,14921 47609,14948 47912,14966 48205,14994 48545,15012 48847,15021 49086,15021 49297,15031 49205,15306 49178,15443 49123,15663 49058,15902 48976,16159 48903,16351 48838,16526 48783,16700 48692,16938 48618,17140 48581,17287 48517,17489 48481,17635 48416,17883 48343,18195 48297,18397 48215,18699 48187,18819 48141,18984 48049,19305 47967,19571 47912,19754 47637,20635 47572,20846 47416,21323 47306,21680 47242,21891 47123,22285 47068,22451 47004,22652 46949,22827 46894,23028 46793,23340 46728,23551 46591,24001 46518,24230 46389,24670 46141,24753 45563,24606 45013,24468 44720,24432 44270,24166 44114,24074 43986,23991 43830,23835 43747,23735 43536,23735 43518,23524 43500,23459 43490,23349 43399,23175 43289,23047 43252,22982 43224,22900 43169,22817 43114,22689 43059,22570 42913,22386 42903,22322 42702,22240 42619,22175 42426,22074 42326,21964 42215,21900 42069,21653 41949,21561 41793,21469 41757,21423 41757,21377 41821,21341 41885,21194 41940,21139 41959,21102 41968,21047 41913,20956 41931,20827 41922,20690 41894,20644 41894,20524 41839,20286 41793,20167 41702,20093 41638,20029 41463,19974 41179,19791 41151,19662 41005,19543 40968,19424 41041,19305 41106,19167 41115,18846 41041,18727 40950,18626 40830,18461 40812,18360 40803,18094 40950,17828 40986,17736 41023,17507 41051,17498 41069,17470 41060,17204 41032,17177 41005,17158 40950,17140 40867,17113 40684,15086 40619,14911 40335,14673 39720,14269 39363,12774 39271,12114 Z M 39271,12114 L 39271,12114 Z"/>
       <path fill="rgb(218,237,249)" stroke="none" d="M 18991,76926 L 18927,76265 18826,74862 18725,74358 18688,74367 18633,74156 18588,74028 18542,73890 18496,73762 18441,73624 18349,73431 18367,73422 18294,73239 18386,73230 18487,73211 18551,73211 18780,73184 18973,73193 19028,73202 19129,73230 19239,73266 19321,73312 19450,73385 19487,73404 19523,73413 19597,73441 19743,73477 19908,73523 19964,73532 20019,73560 20074,73578 20119,73597 20156,73633 20211,73697 20257,73752 20285,73780 20349,73872 20395,73945 20450,74018 20468,74055 20486,74064 20496,74073 20523,74092 20569,74101 20596,74110 20688,74110 20707,74101 20743,74083 20752,74064 20798,74037 20890,73936 20945,73853 21092,73670 21138,73615 21330,73404 21413,73312 21514,73211 21596,73138 21716,73037 21826,72954 22037,72707 22083,72634 22266,72395 22367,72257 22422,72147 22669,71780 22826,71542 22954,71368 23036,71239 23064,71184 23302,70817 23513,70515 23734,70166 23844,70010 23899,69974 24036,69854 24100,69809 24165,69753 24201,69726 24238,69689 24321,69625 24431,69524 24486,69478 24522,69432 24697,69277 25192,68864 25348,68726 25871,68286 25898,68396 25944,68561 26008,68781 26073,69066 26091,69157 26164,69423 26201,69570 26210,69634 26229,69708 26247,69818 26284,69974 26330,70148 26339,70194 26394,70368 26449,70579 26513,70836 26586,71102 26586,71175 26614,71230 26687,71597 26706,71652 26779,71936 26797,71982 26871,72303 26889,72413 26889,72422 26898,72432 26926,72468 26953,72487 26981,72578 27036,72753 27073,72872 27100,73009 26825,73019 26274,73055 26320,73459 26339,73734 26394,74229 26421,74303 26385,74358 26339,74468 26183,74780 26119,74899 26036,75110 26008,75174 25898,75532 25852,75651 25834,75770 25843,75825 25880,75954 25935,76146 25963,76247 26082,76605 26183,76935 26238,77256 26265,77494 26265,77724 26256,77916 26284,78577 26284,78815 26339,79054 26054,79109 25807,79081 25550,79109 25302,79118 25082,79127 24825,79127 24577,79338 24045,79742 23119,80475 22642,79714 22532,79558 22440,79402 22275,79145 22119,78925 21816,78439 21725,78347 21431,78219 21119,78091 20762,77962 20376,77834 20129,77760 19808,77696 19514,77650 19120,77605 19092,77440 18991,76926 Z M 18991,76926 L 18991,76926 Z"/>
       <path fill="rgb(231,213,232)" stroke="none" d="M 26339,61178 L 26421,61188 26522,61197 26761,61233 26907,61252 27632,61353 27650,61362 27696,61371 28008,61408 28054,61417 28091,61426 28311,61463 28357,61481 28348,61582 28247,61985 28182,62307 28293,62371 28228,62664 28201,62756 28192,62848 28173,63095 28173,63205 28182,63279 28036,63279 28072,63728 28054,63994 27971,64223 27926,64425 27871,64948 27816,65086 27806,65086 27715,65113 27605,65150 27054,65370 26953,65397 26852,65443 26816,65452 26513,65581 26146,65727 26027,65773 25899,65819 25834,65847 25743,65883 25669,65920 25596,65957 25559,65966 25247,66094 25064,66168 24908,66241 24733,66370 24688,66379 24660,66397 24596,66443 24440,66571 24082,66865 23917,67002 23660,67204 23257,67534 22945,67773 22899,67800 22477,68121 22055,68452 21973,68516 21624,68791 21468,68910 21358,68983 21266,69084 21009,69304 20826,69460 20725,69543 20661,69598 20578,69653 20505,69726 20450,69800 20230,70002 20184,70047 20129,70112 20055,70240 19936,70478 19863,70607 19826,70653 19780,70744 19771,70772 19459,71139 19129,71524 19074,71588 19065,71597 19001,71652 18698,71928 18560,72047 18487,72120 18423,72157 18395,72184 18349,72212 18175,72359 18074,72460 18028,72533 18028,72625 18001,72790 17891,72606 16964,71350 16744,70974 16497,70442 16405,70249 16194,69607 16065,69002 16001,68424 15992,67690 16056,67103 16166,66525 16341,65929 16625,65260 17139,64462 17285,64242 17772,63701 18047,63407 18138,63471 18377,63260 18615,63068 18817,62903 19184,62637 19698,62279 20184,61912 20312,61830 20358,61765 20560,61453 20753,61160 21000,60756 21175,60463 21257,60344 21367,60004 21386,59931 21963,60014 21936,60188 21899,60408 21899,60472 21954,60472 22284,60518 22450,60536 22688,60573 22844,60591 23046,60628 23073,60637 23193,60665 23238,60683 23633,60766 23651,60775 23706,60784 23734,60784 23981,60821 24027,60839 24201,60857 24376,60866 24486,60894 24605,60912 24972,60967 25018,60986 25238,61013 25504,61059 25715,61077 25816,61096 25853,61105 26109,61151 26165,61151 26339,61178 Z M 26339,61178 L 26339,61178 Z"/>
       <path fill="rgb(252,240,225)" stroke="none" d="M 45013,43745 L 44986,43809 44637,44589 44591,44690 44536,44809 44444,45112 44564,45625 44573,45625 44821,46350 44289,47386 44142,48505 44078,48588 43848,48698 43766,48734 43582,48899 43408,49468 43170,49853 43050,50284 43059,50330 43280,51082 43280,51110 43124,51559 43133,51706 43142,51816 43096,52055 43014,52229 43004,52238 42445,53054 42472,53357 42417,53742 42445,53962 42546,54201 42482,54265 41748,54173 41702,54155 41115,54118 41078,54375 41041,54623 41014,54834 40289,54714 40280,54724 39702,54925 39656,54879 39592,54806 39390,54613 39354,54586 39280,54513 39134,54375 38987,54247 38895,54173 38849,54127 38712,54017 38556,53880 38363,53715 38308,53669 38161,53522 37941,53311 37758,53128 37712,53063 37648,52953 37611,52889 37602,52843 37565,52733 37565,52706 37556,52669 37556,52614 37574,52522 37464,52522 37106,52495 37024,52495 36960,52504 36464,52504 35189,52568 35189,52706 35226,52871 35244,52953 35263,53054 35400,53614 35437,53751 35465,53852 34978,53907 34630,53916 34318,53889 33777,53889 33263,53871 33162,53861 33171,53522 33181,53329 33190,53008 33190,52495 33181,52229 33181,52146 33171,51889 33171,51596 33162,51440 33162,50862 33153,50816 33153,50477 33144,50266 33107,48845 33098,48413 33089,47771 33089,46487 33080,45882 33070,45451 33061,44965 33043,43754 33080,43644 33070,43186 33272,43186 34089,43149 34263,43085 34272,43213 34291,43323 34611,43332 34933,43332 35088,43360 35474,43396 35483,43130 35556,43130 35721,43140 35795,43140 35850,43149 36097,43158 36189,43158 36318,43140 36354,43130 36602,43103 36666,43103 36822,43085 36886,43085 36886,43195 37070,43167 37262,43140 37538,43112 37565,43103 37767,43130 37822,43140 37904,42745 38024,42764 38152,42791 38244,42809 38519,42864 38556,42874 38776,42919 38831,42938 38858,42938 38941,42975 39023,43002 39106,43020 39253,43057 39546,43112 39565,43020 39574,42956 39592,42910 39620,42892 39739,42681 39822,42727 39932,42782 40005,42809 40234,42919 40464,43011 40546,43048 40565,43057 40656,42773 40858,42855 40922,42874 41097,42919 41197,42938 41289,42947 41326,42947 41500,42956 41803,42965 41849,42965 42005,42984 42261,43002 42381,43011 42619,43057 42977,43121 43069,43149 43069,43130 43087,42975 43390,43039 43656,43057 43775,43066 43995,43011 44417,43378 45013,43745 Z M 45013,43745 L 45013,43745 Z"/>
       <path fill="rgb(231,233,245)" stroke="none" d="M 46453,44406 L 46416,44388 46003,44213 45013,43745 44417,43379 43995,43012 43775,43067 43655,43058 43389,43039 43087,42975 43068,43131 43068,43149 42976,43122 42619,43058 42380,43012 42261,43003 42004,42984 41848,42966 41802,42966 41500,42957 41326,42948 41289,42948 41197,42938 41096,42920 40922,42874 40858,42856 40656,42773 40564,43058 40546,43048 40463,43012 40234,42920 40005,42810 39931,42782 39821,42727 39739,42682 39619,42893 39592,42911 39574,42957 39564,43021 39546,43113 39253,43058 39106,43021 39023,43003 38941,42975 38858,42938 38831,42938 38776,42920 38556,42874 38519,42865 38244,42810 38152,42792 38024,42764 37904,42746 37822,43140 37767,43131 37565,43103 37537,43113 37262,43140 37070,43168 36886,43195 36886,43085 36822,43085 36666,43103 36602,43103 36354,43131 36317,43140 36189,43159 36097,43159 35850,43149 35795,43140 35721,43140 35556,43131 35483,43131 35474,43397 35088,43360 34933,43333 34611,43333 34290,43324 34272,43214 34263,43085 34089,43149 33272,43186 33070,43186 33061,42865 32282,42828 32181,42883 32043,42911 31640,43140 31465,43223 30796,43654 30438,43846 29374,44791 28961,45149 28457,45763 28365,45855 28292,45947 28246,45919 28172,45864 28145,45855 28026,45782 27897,45736 27787,45690 27237,45369 26677,45020 26531,44910 26237,44553 26035,44314 25852,44149 25412,43709 25320,43645 24595,42837 24338,42581 24293,42471 24247,42406 23733,41994 23715,41930 23715,41939 24274,41223 24650,40719 24898,40370 24990,40233 25045,40104 25081,39994 25091,39884 25072,39774 25054,39609 25017,39435 24981,39169 24962,38976 24971,38820 24981,38655 25017,38527 25036,38490 25063,38408 25118,38270 25302,37986 25402,37857 25641,37646 25916,37490 25925,37481 26320,37298 26714,37078 26366,36885 25971,36720 25678,36619 25256,36482 24834,36335 24632,36289 24494,36252 24302,36243 24146,36234 23962,36252 23724,36298 23458,36381 23146,36509 23018,36564 22981,36371 22981,36234 22990,36106 23009,35821 23027,35693 23082,35454 23146,35207 23220,34941 23247,34877 23357,34602 23541,34125 23605,33978 23623,33923 23779,33923 24045,33932 24394,33941 24999,33941 25228,33950 25402,33932 25641,33895 25861,33822 26008,33758 26210,33638 26402,33538 26503,33446 26540,33354 26549,33327 26742,33180 27228,33143 27356,33849 27457,34005 27989,34299 28237,34427 28420,34537 28494,34574 28650,34657 28686,34684 28705,34684 29172,34877 29154,34822 29181,34776 29328,34565 29576,34354 29576,34345 29567,34069 29567,33959 28861,33363 28778,33336 28613,33180 28429,33006 28347,32850 28347,32841 28484,32565 28503,32520 28732,32318 29319,31777 29622,31373 29622,31364 29558,30713 29558,30704 29631,30575 29668,30401 29732,30016 29686,29603 29668,29539 29576,29511 29530,29502 28842,29291 28824,29291 28861,29025 28879,28567 28897,28466 29805,28640 29814,28640 29924,28668 30365,28053 31227,28658 31254,28677 31328,28732 31328,29218 31309,29282 31309,29420 31337,29658 31365,29841 31429,30493 31447,30649 31474,30997 31474,31034 31502,31327 31511,31566 31502,31868 31474,31960 31438,32052 31346,32263 31328,32364 31328,32593 31319,32767 31328,32923 31851,33006 32282,33152 32309,33162 32263,33308 32263,33327 32282,33327 32786,33409 32823,33455 32869,34014 32869,34069 32905,34069 32960,34079 33465,34097 33814,34079 34134,33996 34199,33978 34373,33904 34611,33822 34777,33776 34951,33730 35079,33693 35171,33675 35226,33666 35373,33657 35428,33657 35510,33648 36024,33565 36116,33556 36189,33428 36262,33024 36299,32804 36317,32685 36382,32281 36391,32281 36473,32327 36602,32364 36712,32364 36776,32336 36877,32309 37060,32254 37253,32189 37418,32143 37501,32098 37574,32052 37592,32015 37638,31951 37657,31887 37666,31758 37675,31667 37684,31584 37812,30291 37868,29750 37868,29392 37840,29254 37831,29209 38941,29310 39775,29374 39821,29374 39775,29814 39757,30025 39950,30043 40656,30117 40867,30135 41234,30181 41261,30172 41335,30162 41454,30098 41665,30006 41821,29942 41986,29869 42261,29832 43178,29731 43518,29686 43738,29576 43857,29493 43949,29392 43958,29374 43976,29355 44031,29254 44114,29007 44141,28823 44160,28640 44169,28512 44306,28429 44334,28365 44352,28328 44389,28282 44472,28255 44646,28218 44793,28191 45040,28200 45132,28200 45398,28218 45618,28246 45747,28255 45802,28264 45829,29300 45967,30419 46682,33446 46939,35005 46985,36353 46957,37096 46820,38169 46664,39737 46453,44397 46453,44406 Z M 46453,44406 L 46453,44406 Z"/>
       <path fill="rgb(248,217,226)" stroke="none" d="M 12828,24220 L 12590,22606 12590,22478 12599,22386 12608,22257 12599,22157 12608,22019 12608,21753 12617,21478 12617,21294 12627,21093 12617,20882 12810,20882 12883,20872 12893,20836 12902,20753 12911,20515 12920,20386 12920,20322 12929,20203 12929,20020 12911,19799 12893,19616 12865,19387 12819,19002 12819,18992 12838,18754 12883,18240 12911,18066 12975,17543 12994,17507 13030,17314 13067,17103 13149,16654 13214,16323 13259,16094 13443,15672 13461,15636 13553,15397 13599,15278 13636,15131 13663,15021 13672,14774 13663,14471 13654,14361 13636,14223 13617,14058 13562,13755 13535,13297 13516,12838 13443,12343 13865,12316 14544,12233 14947,12178 15525,12086 16140,11985 16580,11912 16993,11857 17387,11802 17699,11765 18001,11738 18332,11719 18772,11701 19194,11692 19625,11692 19992,11710 20377,11738 20762,11774 21138,11811 21478,11857 22019,11940 22542,12022 22927,12077 23349,12141 23826,12196 24284,12251 24945,12306 25550,12352 26110,12371 26568,12380 27064,12380 27550,12371 28109,12352 28641,12316 29017,12288 29494,12242 29962,12187 30356,12141 30815,12068 31338,11985 31723,11912 31732,12040 31723,12526 31723,12618 31604,13260 31604,13425 31613,13600 31595,13811 31576,14159 31567,14471 31558,14572 31549,14700 31521,14975 31494,15342 31494,15461 31613,15480 31723,15498 31815,15526 31916,15562 32319,15737 32484,15452 32558,15470 32594,15480 32668,15498 32759,15516 32824,15498 32842,15425 32842,15260 33053,15159 33310,15131 33814,15085 34282,15030 34337,15021 34401,15039 34952,15397 35126,15498 35172,15526 35548,16553 35722,17021 35970,17470 36025,17562 36098,17662 36208,17928 36263,18250 36272,18626 36355,18992 36355,19112 36337,19167 36337,19268 36327,19387 36337,19653 36346,20056 36346,20286 36355,20515 36355,20698 36364,20836 36364,20992 36373,21093 36392,21249 36419,21414 36438,21551 36474,21716 36520,21982 36621,22294 36649,22478 36658,22624 36667,22927 36667,23477 36676,23927 36667,24156 36649,24238 36621,24367 36658,24367 36850,24413 36960,24431 37089,24440 37171,24431 37456,24376 37758,24330 37868,24321 38006,24330 38125,24376 38501,24541 38657,24605 38877,24669 39198,24917 39418,25128 39712,25394 39951,25596 40281,25816 40693,26054 40932,26174 41290,26330 41583,26531 41849,26760 42106,26962 42519,27247 42821,27458 43014,27613 43271,27834 43473,27999 43665,28155 43904,28301 44170,28512 44160,28641 44142,28824 44115,29008 44032,29255 43977,29356 43959,29374 43950,29393 43858,29494 43739,29576 43518,29686 43179,29732 42262,29833 41987,29870 41822,29943 41666,30007 41455,30099 41335,30163 41262,30172 41235,30181 40868,30136 40657,30117 39951,30044 39758,30026 39776,29815 39822,29374 39776,29374 38942,29310 37832,29209 37841,29255 37868,29393 37868,29750 37813,30292 37685,31585 37676,31667 37667,31759 37657,31887 37639,31951 37593,32016 37575,32052 37502,32098 37419,32144 37254,32190 37061,32254 36878,32309 36777,32337 36713,32364 36603,32364 36474,32328 36392,32282 36383,32282 36318,32685 36300,32804 36263,33025 36190,33428 36117,33557 36025,33566 35511,33648 35429,33657 35374,33657 35227,33667 35172,33676 35080,33694 34952,33731 34777,33777 34612,33822 34374,33905 34200,33978 34135,33997 33814,34079 33466,34098 32961,34079 32906,34070 32870,34070 32870,34015 32824,33456 32787,33410 32283,33327 32264,33327 32264,33309 32310,33162 32283,33153 31851,33006 31329,32924 31320,32768 31329,32594 31329,32364 31347,32263 31439,32052 31475,31961 31503,31869 31512,31566 31503,31328 31475,31034 31475,30998 31448,30649 31429,30493 31365,29842 31338,29659 31310,29420 31310,29283 31329,29218 31329,28732 31255,28677 31228,28659 30366,28054 29925,28668 29815,28641 29806,28641 28898,28466 28880,28567 28861,29026 28825,29292 28843,29292 29531,29503 29577,29512 29668,29539 29687,29604 29733,30016 29668,30402 29632,30576 29558,30704 29558,30713 29623,31365 29623,31374 29320,31777 28733,32318 28504,32520 28485,32566 28348,32841 28348,32850 28430,33006 28614,33180 28779,33336 28861,33364 29568,33960 29568,34070 29577,34345 29577,34354 29329,34565 29182,34776 29155,34822 29173,34877 28705,34685 28687,34685 28650,34657 28494,34575 28421,34538 28238,34428 27990,34299 27458,34006 27357,33850 27229,33144 26743,33180 26550,33327 26541,33355 26504,33446 26403,33538 26211,33639 26009,33758 25862,33822 25642,33896 25403,33932 25229,33951 25000,33942 24395,33942 24046,33932 23780,33923 23624,33923 23606,33978 23541,34125 23358,34602 23248,34877 23221,34941 23147,35207 23083,35455 23028,35693 23010,35822 22991,36106 22982,36235 22982,36372 23019,36565 22936,36601 22551,36739 22111,36867 21762,36941 21294,36987 21010,37005 20570,36968 20129,36812 19827,36666 19542,36491 19029,36299 18451,36042 18112,35868 17827,35712 17589,35556 17231,35207 16956,34850 16626,34327 15598,32658 15332,32199 14883,31456 13764,29650 13755,29521 13718,29503 13681,29457 13654,29393 13654,29319 13636,29218 13645,29008 13645,28641 13654,28338 13654,28329 13645,27898 13645,27723 12828,24220 Z M 12828,24220 L 12828,24220 Z"/>
       <path fill="rgb(49,39,131)" stroke="none" d="M 14388,67982 L 14401,67982 14401,68094 14388,68094 14388,67982 Z M 14387,67957 L 14402,67957 14402,67974 14387,67974 14387,67957 Z M 14387,67957 L 14387,67957 Z"/>
       <path fill="rgb(29,29,27)" stroke="none" d="M 28948,75136 L 28951,75148 C 28946,75149 28942,75151 28939,75154 28936,75156 28934,75160 28933,75165 28932,75170 28932,75175 28932,75180 28933,75185 28934,75190 28937,75193 28938,75197 28941,75199 28944,75201 28947,75202 28950,75203 28953,75202 28956,75202 28958,75201 28960,75199 28962,75196 28964,75193 28965,75189 28965,75186 28966,75180 28967,75170 28968,75161 28969,75154 28970,75150 28972,75145 28975,75141 28978,75139 28981,75136 28985,75134 28990,75133 28994,75133 28999,75133 29004,75135 29009,75138 29013,75141 29016,75146 29019,75151 29021,75157 29022,75164 29023,75171 29023,75178 29021,75184 29020,75190 29017,75195 29013,75198 29009,75202 29004,75204 28998,75205 L 28995,75193 C 29001,75191 29006,75189 29008,75184 29011,75180 29012,75174 29010,75166 29009,75158 29007,75153 29003,75150 29000,75146 28996,75145 28992,75146 28989,75146 28986,75148 28984,75151 28982,75154 28981,75161 28980,75172 28979,75183 28978,75190 28977,75194 28975,75201 28972,75205 28969,75208 28965,75212 28961,75214 28956,75215 28950,75215 28945,75215 28940,75212 28935,75210 28931,75206 28927,75201 28924,75196 28922,75190 28921,75183 28919,75174 28920,75166 28921,75160 28923,75153 28926,75148 28931,75144 28936,75140 28941,75137 28948,75136 Z M 28911,75173 L 28924,75175 28925,75184 28917,75183 C 28917,75187 28917,75190 28915,75192 28914,75194 28912,75195 28909,75196 28906,75196 28903,75195 28900,75192 28897,75189 28895,75184 28894,75178 28893,75174 28893,75171 28893,75168 L 28901,75168 C 28901,75171 28901,75173 28902,75174 28902,75178 28903,75181 28905,75183 28906,75184 28907,75184 28908,75184 28909,75184 28910,75184 28910,75183 28911,75183 28911,75182 28912,75180 28912,75179 28912,75176 28911,75173 Z"/>
	   <path fill="rgb(237,243,229)" stroke="none" d="M 28311,61464 L 28091,61428 28054,61419 28008,61409 27696,61373 27650,61364 27632,61354 26907,61253 26760,61235 26522,61198 26421,61189 26339,61180 26164,61153 26109,61153 25852,61107 25816,61098 25715,61079 25504,61061 25238,61015 25018,60988 24972,60969 24605,60914 24486,60896 24376,60868 24201,60859 24027,60841 23981,60822 23734,60786 23706,60786 23651,60777 23633,60767 23238,60685 23192,60666 23073,60639 23046,60630 22844,60593 22688,60575 22449,60538 22284,60520 21954,60474 21899,60474 21899,60410 21936,60189 21963,60015 21385,59933 21367,60006 21257,60345 21174,60465 21000,60758 20753,61162 20560,61455 20358,61767 19854,61455 19670,61235 19688,61217 19753,61143 19844,61024 19899,60932 19954,60822 19991,60731 20010,60648 20028,60538 20037,60437 20028,60318 20019,60272 20000,60098 19973,59878 19954,59685 19909,59337 19899,59190 19881,59089 19854,58896 19844,58777 19817,58612 19808,58584 19808,58566 19817,58548 19799,58456 19780,58318 19743,58098 19698,57878 19643,57667 19606,57566 19615,57539 19624,57521 19615,57502 19597,57493 19523,57365 19514,57374 19505,57365 19239,57135 19175,57071 19166,57071 18955,56897 18945,56879 18890,56842 18845,56823 18817,56805 18789,56778 18771,56750 18615,56631 18487,56530 18368,56466 18221,56383 18102,56319 18028,56291 18001,56273 17808,56200 17505,56154 17129,56099 16441,56026 16359,55989 15964,55824 15854,55769 15845,55760 15836,55732 15845,55650 15873,55319 15900,55246 15992,55209 16010,55200 16203,55191 16772,55200 16872,55182 16937,55163 17010,55136 17047,55118 17093,55081 17349,54851 17643,54576 17909,54439 17982,54384 18047,54530 18148,54714 18349,54980 18496,55118 18679,55264 18918,55420 19156,55567 19294,55650 19395,55356 19624,55053 19743,54916 20010,54751 20670,54421 21083,54164 21367,53916 21771,53522 22183,53072 22569,52605 23110,51907 23394,51651 23697,51458 24266,51220 24853,50990 25293,50788 25852,50532 26366,50302 26595,50137 26733,49972 26770,49807 26898,49871 26953,49880 27026,49899 27072,49908 27137,49926 27173,50027 27192,50091 27201,50257 27219,50376 27265,50541 27265,50678 27237,50724 27485,51220 27623,51440 28100,52054 28439,52494 28797,52944 29026,53237 29182,53421 29237,53494 29265,53586 29283,53723 29329,53907 29402,54081 29521,54292 29705,54540 29265,54787 29054,54897 28907,55044 28833,55136 28788,55255 28769,55365 28779,55448 28788,55677 29127,56631 29164,56759 29145,56915 29145,57025 29063,57273 29017,57401 28934,57621 28907,57686 28852,57823 28833,57887 28824,57906 28769,58080 28742,58135 28659,58328 28595,58484 28577,58520 28531,58639 28558,58658 28879,58786 28696,59181 28641,59300 28586,59419 28769,59428 28714,59493 28677,59566 28622,59768 28531,60107 28430,60520 28421,60639 28421,60868 28485,61318 28512,61492 28357,61483 28311,61464 Z M 28311,61464 L 28311,61464 Z"/>
	   <path fill="rgb(255,250,209)" stroke="none" d="M 25871,68287 L 25348,68727 25192,68865 24697,69278 24523,69434 24486,69479 24431,69525 24321,69626 24238,69690 24202,69727 24165,69754 24101,69810 24037,69856 23899,69975 23844,70011 23734,70167 23514,70516 23303,70818 23064,71185 23037,71240 22954,71369 22826,71543 22670,71782 22422,72149 22367,72259 22266,72396 22083,72635 22037,72708 21826,72956 21716,73038 21597,73139 21514,73212 21413,73313 21331,73405 21138,73616 21092,73671 20945,73854 20890,73937 20799,74038 20753,74065 20744,74084 20707,74102 20689,74111 20597,74111 20569,74102 20523,74093 20496,74075 20487,74065 20468,74056 20450,74020 20395,73946 20349,73873 20285,73781 20257,73754 20212,73698 20157,73634 20120,73598 20074,73579 20019,73561 19964,73533 19909,73524 19744,73478 19597,73442 19524,73414 19487,73405 19450,73387 19322,73313 19239,73267 19129,73231 19028,73203 18973,73194 18781,73185 18551,73212 18487,73212 18386,73231 18294,73240 18001,72791 18028,72625 18028,72534 18074,72460 18175,72359 18349,72213 18395,72185 18423,72158 18487,72121 18561,72048 18698,71928 19001,71653 19065,71598 19074,71589 19129,71525 19459,71139 19771,70773 19781,70745 19826,70653 19863,70608 19936,70479 20056,70241 20129,70112 20184,70048 20230,70002 20450,69800 20505,69727 20578,69654 20661,69599 20725,69544 20826,69461 21010,69305 21266,69085 21358,68984 21468,68911 21624,68791 21973,68516 22055,68452 22477,68122 22899,67801 22945,67773 23257,67535 23660,67205 23917,67003 24082,66865 24440,66572 24596,66443 24660,66397 24688,66379 24734,66370 24908,66242 25064,66168 25247,66095 25559,65967 25596,65957 25669,65921 25743,65884 25835,65847 25899,65820 26027,65774 26146,65728 26513,65581 26816,65453 26853,65444 26954,65398 27055,65370 27605,65150 27715,65113 27807,65086 27816,65086 27816,65196 27807,65251 27761,65435 27742,65526 27715,65627 27678,65792 27660,65866 27651,65902 27641,65939 27550,66315 27495,66508 27495,66526 27467,66645 27467,66710 27458,66719 27339,66774 27265,66801 27183,66838 27146,66856 27155,66875 27339,67049 27119,67269 27073,67306 26862,67507 26697,67654 26605,67746 26403,67938 26321,68012 26220,68039 26137,68076 25871,68287 Z M 25871,68287 L 25871,68287 Z"/>
	   <path fill="rgb(206,222,242)" stroke="none" d="M 28192,67672 L 28348,68020 28357,68084 28531,68791 28586,69075 28705,69607 28815,70139 28852,70322 28953,70762 29026,71102 29081,71349 29127,71597 29173,71771 29228,72019 29329,72514 29421,72927 29733,72927 29925,72918 29880,73257 29880,73367 29870,73679 29870,73771 29907,73991 29935,74184 29981,74376 30026,74661 30026,74679 30072,74945 30100,75101 30127,75202 30136,75303 30201,75679 30219,76073 30311,76431 30384,76789 30476,77238 30558,77522 29880,77862 29439,78081 28925,78311 27907,78650 27274,78806 26283,78999 26283,78577 26256,77916 26265,77724 26265,77495 26238,77256 26183,76935 26082,76605 25962,76247 25935,76146 25880,75954 25843,75825 25834,75770 25852,75651 25898,75532 26008,75174 26036,75110 26118,74899 26183,74780 26338,74468 26384,74358 26421,74303 26394,74230 26338,73734 26320,73459 26274,73056 26825,73019 27100,73010 27072,72872 27036,72753 26981,72579 26953,72487 26926,72469 26898,72432 26889,72423 26889,72413 26871,72303 26797,71982 26779,71937 26706,71652 26687,71597 26614,71230 26586,71175 26586,71102 26513,70836 26449,70579 26394,70368 26338,70194 26329,70148 26283,69974 26247,69818 26228,69708 26210,69634 26201,69570 26164,69424 26091,69158 26072,69066 26008,68781 25944,68561 25898,68396 25871,68286 26137,68075 26219,68038 26320,68011 26403,67938 26604,67745 26696,67653 26861,67507 27072,67305 27118,67268 27338,67048 27604,67112 28008,67213 28137,67543 28192,67672 Z M 28192,67672 L 28192,67672 Z"/>
   </svg>
